<svg width="170" height="104" viewBox="0 0 170 104" fill="none" xmlns="http://www.w3.org/2000/svg">
<g id="00">
<path d="M0 51.8598C0 35.788 3.07985 23.1267 9.23956 13.876C15.4926 4.62534 25.5254 0 39.3381 0C53.1508 0 63.137 4.62534 69.2967 13.876C75.5497 23.1267 78.6762 35.788 78.6762 51.8598C78.6762 68.1186 75.5497 80.8733 69.2967 90.124C63.137 99.3747 53.1508 104 39.3381 104C25.5254 104 15.4926 99.3747 9.23956 90.124C3.07985 80.8733 0 68.1186 0 51.8598ZM55.1574 51.8598C55.1574 42.4223 54.1307 35.1806 52.0775 30.1348C50.0243 24.9955 45.7778 22.4259 39.3381 22.4259C32.8984 22.4259 28.652 24.9955 26.5987 30.1348C24.5455 35.1806 23.5189 42.4223 23.5189 51.8598C23.5189 58.2138 23.8922 63.4933 24.6388 67.6981C25.3855 71.8095 26.8787 75.1734 29.1186 77.7898C31.4518 80.3127 34.8583 81.5741 39.3381 81.5741C43.8179 81.5741 47.1777 80.3127 49.4176 77.7898C51.7509 75.1734 53.2908 71.8095 54.0374 67.6981C54.7841 63.4933 55.1574 58.2138 55.1574 51.8598Z" fill="white"/>
<path d="M91.3238 51.8598C91.3238 35.788 94.4036 23.1267 100.563 13.876C106.816 4.62534 116.849 0 130.662 0C144.475 0 154.461 4.62534 160.62 13.876C166.873 23.1267 170 35.788 170 51.8598C170 68.1186 166.873 80.8733 160.62 90.124C154.461 99.3747 144.475 104 130.662 104C116.849 104 106.816 99.3747 100.563 90.124C94.4036 80.8733 91.3238 68.1186 91.3238 51.8598ZM146.481 51.8598C146.481 42.4223 145.455 35.1806 143.401 30.1348C141.348 24.9955 137.102 22.4259 130.662 22.4259C124.222 22.4259 119.976 24.9955 117.922 30.1348C115.869 35.1806 114.843 42.4223 114.843 51.8598C114.843 58.2138 115.216 63.4933 115.963 67.6981C116.709 71.8095 118.202 75.1734 120.442 77.7898C122.776 80.3127 126.182 81.5741 130.662 81.5741C135.142 81.5741 138.502 80.3127 140.741 77.7898C143.075 75.1734 144.615 71.8095 145.361 67.6981C146.108 63.4933 146.481 58.2138 146.481 51.8598Z" fill="white"/>
</g>
</svg>
