<svg width="33" height="96" viewBox="0 0 33 96" fill="none" xmlns="http://www.w3.org/2000/svg">
<path id=":" d="M16.5813 96C11.7044 96 7.69458 94.597 4.55172 91.7909C1.51724 88.8769 0 85.3153 0 81.1062C0 76.7892 1.51724 73.1737 4.55172 70.2597C7.69458 67.3457 11.7044 65.8887 16.5813 65.8887C21.3498 65.8887 25.2512 67.3457 28.2857 70.2597C31.4286 73.1737 33 76.7892 33 81.1062C33 85.3153 31.4286 88.8769 28.2857 91.7909C25.2512 94.597 21.3498 96 16.5813 96ZM16.5813 30.1113C11.7044 30.1113 7.69458 28.7083 4.55172 25.9022C1.51724 22.9882 0 19.4266 0 15.2175C0 10.9005 1.51724 7.285 4.55172 4.371C7.69458 1.457 11.7044 0 16.5813 0C21.3498 0 25.2512 1.457 28.2857 4.371C31.4286 7.285 33 10.9005 33 15.2175C33 19.4266 31.4286 22.9882 28.2857 25.9022C25.2512 28.7083 21.3498 30.1113 16.5813 30.1113Z" fill="#377DFF"/>
</svg>
