<svg width="91" height="17" viewBox="0 0 91 17" fill="none" xmlns="http://www.w3.org/2000/svg">
<g id="Group 6">
<path id="Star 1" d="M8.16667 0L10.0002 5.64303H15.9336L11.1334 9.13061L12.9669 14.7736L8.16667 11.2861L3.36642 14.7736L5.19995 9.13061L0.399705 5.64303H6.33314L8.16667 0Z" fill="#FFC700"/>
<path id="Star 2" d="M26.8334 0L28.6669 5.64303H34.6004L29.8001 9.13061L31.6337 14.7736L26.8334 11.2861L22.0332 14.7736L23.8667 9.13061L19.0665 5.64303H24.9999L26.8334 0Z" fill="#FFC700"/>
<path id="Star 3" d="M45.5002 0L47.3337 5.64303H53.2671L48.4669 9.13061L50.3004 14.7736L45.5002 11.2861L40.6999 14.7736L42.5334 9.13061L37.7332 5.64303H43.6666L45.5002 0Z" fill="#FFC700"/>
<path id="Star 4" d="M64.1664 0L66 5.64303H71.9334L67.1331 9.13061L68.9667 14.7736L64.1664 11.2861L59.3662 14.7736L61.1997 9.13061L56.3995 5.64303H62.3329L64.1664 0Z" fill="#FFC700"/>
<path id="Star 5" d="M82.8332 0L84.6667 5.64303H90.6001L85.7999 9.13061L87.6334 14.7736L82.8332 11.2861L78.0329 14.7736L79.8665 9.13061L75.0662 5.64303H80.9996L82.8332 0Z" fill="#FFC700"/>
</g>
</svg>
