<svg width="10" height="10" viewBox="0 0 10 10" fill="none" xmlns="http://www.w3.org/2000/svg">
<path id="Vector" d="M4.3 7.3L7.825 3.775L7.125 3.075L4.3 5.9L2.875 4.475L2.175 5.175L4.3 7.3ZM5 10C4.30833 10 3.65833 9.86867 3.05 9.606C2.44167 9.34333 1.9125 8.98717 1.4625 8.5375C1.0125 8.0875 0.656333 7.55833 0.394 6.95C0.131667 6.34167 0.000333333 5.69167 0 5C0 4.30833 0.131333 3.65833 0.394 3.05C0.656667 2.44167 1.01283 1.9125 1.4625 1.4625C1.9125 1.0125 2.44167 0.656333 3.05 0.394C3.65833 0.131667 4.30833 0.000333333 5 0C5.69167 0 6.34167 0.131333 6.95 0.394C7.55833 0.656667 8.0875 1.01283 8.5375 1.4625C8.9875 1.9125 9.34383 2.44167 9.6065 3.05C9.86917 3.65833 10.0003 4.30833 10 5C10 5.69167 9.86867 6.34167 9.606 6.95C9.34333 7.55833 8.98717 8.0875 8.5375 8.5375C8.0875 8.9875 7.55833 9.34383 6.95 9.6065C6.34167 9.86917 5.69167 10.0003 5 10Z" fill="white"/>
</svg>
