<svg width="618" height="521" viewBox="0 0 618 521" fill="none" xmlns="http://www.w3.org/2000/svg">
<g clip-path="url(#clip0_824_6248)">
<path d="M41.4681 422.327C64.3703 422.327 82.9362 403.741 82.9362 380.813C82.9362 357.885 64.3703 339.299 41.4681 339.299C18.5659 339.299 0 357.885 0 380.813C0 403.741 18.5659 422.327 41.4681 422.327Z" fill="url(#paint0_linear_824_6248)"/>
<path d="M95.1418 104.659C104.63 104.659 112.322 96.9589 112.322 87.4602C112.322 77.9615 104.63 70.2613 95.1418 70.2613C85.6536 70.2613 77.9619 77.9615 77.9619 87.4602C77.9619 96.9589 85.6536 104.659 95.1418 104.659Z" fill="url(#paint1_linear_824_6248)"/>
<path d="M587.133 285.83C604.18 285.83 618 271.995 618 254.929C618 237.862 604.18 224.027 587.133 224.027C570.085 224.027 556.265 237.862 556.265 254.929C556.265 271.995 570.085 285.83 587.133 285.83Z" fill="url(#paint2_linear_824_6248)"/>
<path opacity="0.8" d="M595.035 380.089C582.617 382.508 569.177 378.641 565.014 371.472C560.834 364.303 567.519 356.533 579.936 354.114C592.354 351.695 605.794 355.562 609.957 362.731C614.137 369.9 607.452 377.67 595.035 380.089Z" fill="#CECECE"/>
<path opacity="0.8" d="M41.962 521C60.1786 521 74.946 512.462 74.946 501.929C74.946 491.397 60.1786 482.859 41.962 482.859C23.7455 482.859 8.97803 491.397 8.97803 501.929C8.97803 512.462 23.7455 521 41.962 521Z" fill="#CECECE"/>
<path opacity="0.8" d="M98.9169 156.962C92.7258 158.163 86.0055 156.238 83.9242 152.654C81.8429 149.069 85.1765 145.184 91.3676 143.983C97.5588 142.783 104.279 144.707 106.36 148.292C108.459 151.877 105.126 155.761 98.9169 156.962Z" fill="#CECECE"/>
<path opacity="0.8" d="M208.593 20.3244C211.019 20.3244 212.985 18.3559 212.985 15.9275C212.985 13.4992 211.019 11.5307 208.593 11.5307C206.168 11.5307 204.201 13.4992 204.201 15.9275C204.201 18.3559 206.168 20.3244 208.593 20.3244Z" fill="#D3093E"/>
<path opacity="0.8" d="M131.478 469.121C134.41 469.121 136.787 466.741 136.787 463.806C136.787 460.87 134.41 458.491 131.478 458.491C128.545 458.491 126.168 460.87 126.168 463.806C126.168 466.741 128.545 469.121 131.478 469.121Z" fill="#D3093E"/>
<path d="M100.61 440.32C100.61 441.821 99.393 443.057 97.8761 443.057C96.3768 443.057 95.1421 441.839 95.1421 440.32C95.1421 438.82 96.3592 437.583 97.8761 437.583C99.3753 437.583 100.61 438.802 100.61 440.32Z" fill="#F5C800"/>
<path d="M563.78 339.476C563.78 341.029 562.51 342.301 560.957 342.301C559.405 342.301 558.135 341.029 558.135 339.476C558.135 337.922 559.405 336.65 560.957 336.65C562.51 336.65 563.78 337.922 563.78 339.476Z" fill="#F5C800"/>
<path d="M41.9622 148.892C41.9622 151.082 40.1807 152.866 37.9936 152.866C35.8064 152.866 34.0249 151.082 34.0249 148.892C34.0249 146.703 35.8064 144.919 37.9936 144.919C40.1807 144.919 41.9622 146.703 41.9622 148.892Z" fill="#F5C800"/>
<path d="M338.659 3.97306C338.659 6.16265 336.878 7.94611 334.691 7.94611C332.504 7.94611 330.722 6.16265 330.722 3.97306C330.722 1.78346 332.486 0 334.673 0C336.878 0 338.659 1.78346 338.659 3.97306Z" fill="#F5C800"/>
<path d="M58.1191 140.081C58.1191 141.3 57.1313 142.288 55.9143 142.288C54.6972 142.288 53.7095 141.3 53.7095 140.081C53.7095 138.863 54.6972 137.874 55.9143 137.874C57.1313 137.892 58.1191 138.863 58.1191 140.081Z" fill="#F5C800"/>
<path d="M436.518 18.1701C436.518 19.6004 435.354 20.7659 433.925 20.7659C432.496 20.7659 431.332 19.6004 431.332 18.1701C431.332 16.7398 432.496 15.5744 433.925 15.5744C435.354 15.5744 436.518 16.7398 436.518 18.1701Z" fill="#D3093E"/>
<path d="M55.1029 279.209L54.1504 275.801L61.6997 273.682L59.6007 266.124L62.9873 265.188L66.0564 276.136L55.1029 279.209Z" fill="#F5C800"/>
<path d="M48.4354 291.057L47.4829 287.649L55.0498 285.53L52.9332 277.973L56.3198 277.037L59.3889 287.985L48.4354 291.057Z" fill="#F5C800"/>
<path d="M55.5085 287.243L52.457 276.277L63.4105 273.205L64.3454 276.613L56.7961 278.732L58.9127 286.29L55.5085 287.243Z" fill="#F5C800"/>
<path d="M316.011 26.5753C311.372 26.5753 307.615 22.7965 307.615 18.1701C307.615 13.5437 311.372 9.76489 316.011 9.76489C320.65 9.76489 324.407 13.5261 324.407 18.1701C324.407 22.8142 320.65 26.5753 316.011 26.5753ZM316.011 13.2965C313.33 13.2965 311.143 15.4861 311.143 18.1701C311.143 20.8541 313.33 23.0437 316.011 23.0437C318.692 23.0437 320.879 20.8541 320.879 18.1701C320.879 15.4861 318.71 13.2965 316.011 13.2965Z" fill="#F5C800"/>
<path d="M500.192 447.119L490.667 437.584L500.192 428.048L509.717 437.584L500.192 447.119ZM495.642 437.584L500.175 442.122L504.708 437.584L500.175 433.045L495.642 437.584Z" fill="#F5C800"/>
<path d="M522.877 98.9864L520.382 101.483L530.583 111.698L533.077 109.201L522.877 98.9864Z" fill="#D3093E"/>
<path d="M530.578 98.978L520.375 109.192L522.87 111.689L533.072 101.475L530.578 98.978Z" fill="#D3093E"/>
<path d="M6.36736 222.368C6.36736 223.798 5.20322 224.963 3.7745 224.963C2.34578 224.963 1.18164 223.798 1.18164 222.368C1.18164 220.937 2.34578 219.772 3.7745 219.772C5.20322 219.754 6.36736 220.92 6.36736 222.368Z" fill="#D3093E"/>
<path opacity="0.8" d="M292.764 471.875L158.923 394.516C149.398 389.006 150.598 379.4 161.587 373.061L290.101 298.774C301.089 292.417 317.705 291.728 327.23 297.238L461.088 374.597C470.613 380.107 469.414 389.713 458.425 396.052L329.911 470.339C318.904 476.696 302.289 477.385 292.764 471.875Z" fill="#CECECE"/>
<path d="M467.509 172.307H401.135L327.247 129.592C317.723 124.083 301.107 124.789 290.118 131.128L218.894 172.289H152.52V358.44H152.538C152.274 362.166 154.337 365.751 158.906 368.399L292.764 445.759C302.289 451.268 318.904 450.562 329.893 444.223L458.407 369.936C464.122 366.634 467.156 362.466 467.456 358.44H467.509V172.307Z" fill="url(#paint3_linear_824_6248)"/>
<path d="M169.33 172.307H152.52V358.458H152.538C152.344 361.107 153.367 363.667 155.589 365.892C154.161 364.003 153.526 361.901 153.684 359.765H153.667V173.614H170.653C170.229 173.155 169.788 172.713 169.33 172.307Z" fill="#D3093E"/>
<path d="M446.254 172.307C446.131 172.678 446.007 173.049 445.866 173.419H466.309V359.57H466.256C466.08 362.06 464.828 364.621 462.552 366.987C465.568 364.32 467.226 361.354 467.438 358.458H467.491V172.307H446.254Z" fill="#F5C800"/>
<path opacity="0.5" d="M199.403 391.796V175.892H175.309V377.864L199.403 391.796Z" fill="#D3093E"/>
<path opacity="0.3" d="M214.22 400.36V190.389H207.623V396.546L214.22 400.36Z" fill="#D3093E"/>
<path opacity="0.15" d="M226.003 407.176V192.932H219.406V403.362L226.003 407.176Z" fill="#D3093E"/>
<path d="M292.764 259.626L158.923 182.266C149.398 176.757 150.598 167.151 161.587 160.812L290.101 86.5243C301.089 80.1674 317.705 79.4788 327.23 84.9881L461.088 162.348C470.613 167.857 469.414 177.463 458.425 183.802L329.911 258.09C318.904 264.429 302.289 265.118 292.764 259.626Z" fill="url(#paint4_linear_824_6248)"/>
<path d="M294.246 259.626L160.387 182.266C150.862 176.757 152.062 167.151 163.051 160.812L291.565 86.5243C297.015 83.3812 303.841 81.6331 310.491 81.3329C303.365 81.4212 295.939 83.1517 290.083 86.5243L161.587 160.794C150.598 167.151 149.398 176.757 158.923 182.248L292.782 259.608C297.579 262.381 304.194 263.581 310.985 263.264C304.705 263.352 298.691 262.204 294.246 259.626Z" fill="#D3093E"/>
<path d="M461.088 162.348L327.229 84.9881C322.414 82.2158 315.8 81.015 308.991 81.3329C315.165 81.2799 321.109 82.4453 325.501 84.9881L459.359 162.348C468.884 167.857 467.685 177.463 456.696 183.802L328.182 258.09C322.749 261.233 315.941 262.981 309.291 263.281C316.47 263.228 324.002 261.498 329.91 258.09L458.425 183.802C469.396 177.445 470.595 167.84 461.088 162.348Z" fill="#F5C800"/>
<path d="M309.168 240.52C304.582 240.52 300.207 239.602 296.927 237.712L197.287 180.112C194.059 178.24 192.277 175.644 192.277 172.766C192.277 169.34 194.835 165.897 199.28 163.337L294.951 108.032C303.241 103.229 315.853 102.717 323.049 106.884L422.707 164.485C425.934 166.356 427.716 168.952 427.716 171.83C427.716 175.256 425.158 178.699 420.714 181.26L325.042 236.565C320.509 239.178 314.689 240.52 309.168 240.52ZM310.826 104.977C305.481 104.977 299.819 106.284 295.41 108.826L199.738 164.131C195.576 166.533 193.195 169.676 193.195 172.766C193.195 175.291 194.817 177.604 197.745 179.3L297.403 236.9C304.352 240.908 316.541 240.396 324.584 235.752L420.255 180.447C424.418 178.046 426.799 174.903 426.799 171.813C426.799 169.287 425.176 166.974 422.248 165.279L322.591 107.679C319.451 105.878 315.235 104.977 310.826 104.977Z" fill="#F5C800"/>
<path d="M333.721 272.834L446.942 207.27C447.983 206.67 448.812 205.063 448.812 203.685V201.831C448.812 200.454 447.965 199.818 446.942 200.419L333.721 265.983C332.68 266.583 331.851 268.19 331.851 269.567V271.422C331.851 272.799 332.68 273.435 333.721 272.834Z" fill="#F5C800"/>
<path d="M444.473 205.857C445.514 205.257 446.343 203.65 446.343 202.273V200.754L446.942 200.401C447.983 199.801 448.812 200.436 448.812 201.814V203.668C448.812 205.045 447.965 206.652 446.942 207.252L333.721 272.816C332.68 273.417 331.851 272.781 331.851 271.404V271.051L444.473 205.857Z" fill="#2D2D2D"/>
<path d="M333.721 292.788L446.942 227.223C447.983 226.623 448.812 225.016 448.812 223.639V221.785C448.812 220.407 447.965 219.772 446.942 220.372L333.721 285.936C332.68 286.537 331.851 288.144 331.851 289.521V291.357C331.851 292.752 332.68 293.388 333.721 292.788Z" fill="#F5C800"/>
<path d="M444.473 225.793C445.514 225.193 446.343 223.586 446.343 222.209V220.69L446.942 220.337C447.983 219.736 448.812 220.372 448.812 221.749V223.604C448.812 224.981 447.965 226.588 446.942 227.188L333.721 292.752C332.68 293.353 331.851 292.717 331.851 291.34V290.987L444.473 225.793Z" fill="#2D2D2D"/>
<path d="M333.721 312.724L446.942 247.159C447.983 246.559 448.812 244.952 448.812 243.575V241.721C448.812 240.343 447.965 239.708 446.942 240.308L333.721 305.872C332.68 306.473 331.851 308.08 331.851 309.457V311.311C331.851 312.688 332.68 313.324 333.721 312.724Z" fill="#F5C800"/>
<path d="M444.473 245.747C445.514 245.146 446.343 243.54 446.343 242.162V240.644L446.942 240.29C447.983 239.69 448.812 240.326 448.812 241.703V243.557C448.812 244.934 447.965 246.541 446.942 247.142L333.721 312.724C332.68 313.324 331.851 312.688 331.851 311.311V310.958L444.473 245.747Z" fill="#2D2D2D"/>
<path d="M333.721 332.677L446.942 267.113C447.983 266.513 448.812 264.906 448.812 263.528V261.674C448.812 260.297 447.965 259.661 446.942 260.262L333.721 325.826C332.68 326.426 331.851 328.033 331.851 329.41V331.265C331.851 332.642 332.68 333.278 333.721 332.677Z" fill="#F5C800"/>
<path d="M444.473 265.7C445.514 265.1 446.343 263.493 446.343 262.116V260.597L446.942 260.244C447.983 259.644 448.812 260.279 448.812 261.657V263.511C448.812 264.888 447.965 266.495 446.942 267.095L333.721 332.677C332.68 333.278 331.851 332.642 331.851 331.265V330.911L444.473 265.7Z" fill="#2D2D2D"/>
<path d="M333.721 352.631L446.942 287.067C447.983 286.466 448.812 284.859 448.812 283.482V281.628C448.812 280.251 447.965 279.615 446.942 280.215L333.721 345.78C332.68 346.38 331.851 347.987 331.851 349.364V351.218C331.851 352.595 332.68 353.231 333.721 352.631Z" fill="#F5C800"/>
<path d="M444.473 285.654C445.514 285.054 446.343 283.447 446.343 282.069V280.551L446.942 280.198C447.983 279.597 448.812 280.233 448.812 281.61V283.464C448.812 284.842 447.965 286.449 446.942 287.049L333.721 352.631C332.68 353.231 331.851 352.595 331.851 351.218V350.865L444.473 285.654Z" fill="#2D2D2D"/>
<path d="M333.721 372.584L446.942 307.02C447.983 306.42 448.812 304.813 448.812 303.435V301.581C448.812 300.204 447.965 299.568 446.942 300.169L333.721 365.733C332.68 366.333 331.851 367.94 331.851 369.318V371.172C331.851 372.531 332.68 373.167 333.721 372.584Z" fill="#F5C800"/>
<path d="M444.473 305.59C445.514 304.989 446.343 303.383 446.343 302.005V300.487L446.942 300.133C447.983 299.533 448.812 300.169 448.812 301.546V303.4C448.812 304.778 447.965 306.384 446.942 306.985L333.721 372.584C332.68 373.185 331.851 372.549 331.851 371.172V370.819L444.473 305.59Z" fill="#2D2D2D"/>
<path d="M333.721 392.52L446.942 326.956C447.983 326.356 448.812 324.749 448.812 323.372V321.517C448.812 320.14 447.965 319.504 446.942 320.105L333.721 385.651C332.68 386.252 331.851 387.859 331.851 389.236V391.09C331.851 392.485 332.68 393.121 333.721 392.52Z" fill="#F5C800"/>
<path d="M444.473 325.543C445.514 324.943 446.343 323.336 446.343 321.959V320.44L446.942 320.087C447.983 319.487 448.812 320.122 448.812 321.5V323.354C448.812 324.731 447.965 326.338 446.942 326.938L333.721 392.503C332.68 393.103 331.851 392.467 331.851 391.09V390.737L444.473 325.543Z" fill="#2D2D2D"/>
<path d="M333.721 412.474L446.942 346.91C447.983 346.309 448.812 344.702 448.812 343.325V341.471C448.812 340.094 447.965 339.458 446.942 340.058L333.721 405.605C332.68 406.205 331.851 407.812 331.851 409.189V411.044C331.851 412.439 332.68 413.074 333.721 412.474Z" fill="#F5C800"/>
<path d="M444.473 345.497C445.514 344.897 446.343 343.29 446.343 341.912V340.394L446.942 340.041C447.983 339.44 448.812 340.076 448.812 341.453V343.307C448.812 344.685 447.965 346.291 446.942 346.892L333.721 412.456C332.68 413.056 331.851 412.421 331.851 411.043V410.69L444.473 345.497Z" fill="#2D2D2D"/>
<path d="M333.721 432.427L446.942 366.863C447.983 366.263 448.812 364.656 448.812 363.279V361.425C448.812 360.047 447.965 359.412 446.942 360.012L333.721 425.558C332.68 426.159 331.851 427.766 331.851 429.143V430.997C331.851 432.392 332.68 433.028 333.721 432.427Z" fill="#F5C800"/>
<path d="M444.473 365.451C445.514 364.85 446.343 363.243 446.343 361.866V360.347L446.942 359.994C447.983 359.394 448.812 360.03 448.812 361.407V363.261C448.812 364.638 447.965 366.245 446.942 366.846L333.721 432.41C332.68 433.01 331.851 432.374 331.851 430.997V430.644L444.473 365.451Z" fill="#2D2D2D"/>
<path d="M313.031 276.083C313.031 277.761 311.672 279.12 309.997 279.12C308.321 279.12 306.963 277.761 306.963 276.083C306.963 274.406 308.321 273.046 309.997 273.046C311.672 273.028 313.031 274.406 313.031 276.083Z" fill="#F5C800"/>
<path d="M309.997 277.973C308.515 277.973 307.28 276.913 307.016 275.5C306.981 275.677 306.963 275.871 306.963 276.066C306.963 277.743 308.321 279.103 309.997 279.103C311.672 279.103 313.031 277.743 313.031 276.066C313.031 275.871 313.013 275.677 312.978 275.5C312.713 276.913 311.478 277.973 309.997 277.973Z" fill="#2D2D2D"/>
<path d="M313.031 296.019C313.031 297.697 311.672 299.056 309.997 299.056C308.321 299.056 306.963 297.697 306.963 296.019C306.963 294.342 308.321 292.982 309.997 292.982C311.672 292.982 313.031 294.342 313.031 296.019Z" fill="#F5C800"/>
<path d="M309.997 297.926C308.515 297.926 307.28 296.867 307.016 295.454C306.981 295.631 306.963 295.825 306.963 296.019C306.963 297.697 308.321 299.056 309.997 299.056C311.672 299.056 313.031 297.697 313.031 296.019C313.031 295.825 313.013 295.631 312.978 295.454C312.713 296.867 311.478 297.926 309.997 297.926Z" fill="#2D2D2D"/>
<path d="M313.031 315.973C313.031 317.65 311.672 319.01 309.997 319.01C308.321 319.01 306.963 317.65 306.963 315.973C306.963 314.295 308.321 312.936 309.997 312.936C311.672 312.936 313.031 314.295 313.031 315.973Z" fill="#F5C800"/>
<path d="M309.997 317.88C308.515 317.88 307.28 316.82 307.016 315.408C306.981 315.584 306.963 315.779 306.963 315.973C306.963 317.65 308.321 319.01 309.997 319.01C311.672 319.01 313.031 317.65 313.031 315.973C313.031 315.779 313.013 315.584 312.978 315.408C312.713 316.82 311.478 317.88 309.997 317.88Z" fill="#2D2D2D"/>
<path d="M313.031 335.926C313.031 337.604 311.672 338.964 309.997 338.964C308.321 338.964 306.963 337.604 306.963 335.926C306.963 334.249 308.321 332.889 309.997 332.889C311.672 332.889 313.031 334.249 313.031 335.926Z" fill="#F5C800"/>
<path d="M309.997 337.833C308.515 337.833 307.28 336.774 307.016 335.361C306.981 335.538 306.963 335.732 306.963 335.926C306.963 337.604 308.321 338.964 309.997 338.964C311.672 338.964 313.031 337.604 313.031 335.926C313.031 335.732 313.013 335.538 312.978 335.361C312.713 336.756 311.478 337.833 309.997 337.833Z" fill="#2D2D2D"/>
<path d="M313.031 355.88C313.031 357.557 311.672 358.917 309.997 358.917C308.321 358.917 306.963 357.557 306.963 355.88C306.963 354.202 308.321 352.843 309.997 352.843C311.672 352.825 313.031 354.185 313.031 355.88Z" fill="#F5C800"/>
<path d="M309.997 357.769C308.515 357.769 307.28 356.71 307.016 355.297C306.981 355.474 306.963 355.668 306.963 355.862C306.963 357.54 308.321 358.899 309.997 358.899C311.672 358.899 313.031 357.54 313.031 355.862C313.031 355.668 313.013 355.474 312.978 355.297C312.713 356.71 311.478 357.769 309.997 357.769Z" fill="#2D2D2D"/>
<path d="M313.031 375.816C313.031 377.493 311.672 378.853 309.997 378.853C308.321 378.853 306.963 377.493 306.963 375.816C306.963 374.138 308.321 372.779 309.997 372.779C311.672 372.779 313.031 374.138 313.031 375.816Z" fill="#F5C800"/>
<path d="M309.997 377.723C308.515 377.723 307.28 376.663 307.016 375.251C306.981 375.427 306.963 375.622 306.963 375.816C306.963 377.493 308.321 378.853 309.997 378.853C311.672 378.853 313.031 377.493 313.031 375.816C313.031 375.622 313.013 375.427 312.978 375.251C312.713 376.663 311.478 377.723 309.997 377.723Z" fill="#2D2D2D"/>
<path d="M313.031 395.769C313.031 397.447 311.672 398.807 309.997 398.807C308.321 398.807 306.963 397.447 306.963 395.769C306.963 394.092 308.321 392.732 309.997 392.732C311.672 392.732 313.031 394.092 313.031 395.769Z" fill="#F5C800"/>
<path d="M309.997 397.676C308.515 397.676 307.28 396.617 307.016 395.204C306.981 395.381 306.963 395.575 306.963 395.769C306.963 397.447 308.321 398.807 309.997 398.807C311.672 398.807 313.031 397.447 313.031 395.769C313.031 395.575 313.013 395.381 312.978 395.204C312.713 396.599 311.478 397.676 309.997 397.676Z" fill="#2D2D2D"/>
<path d="M313.031 415.723C313.031 417.4 311.672 418.76 309.997 418.76C308.321 418.76 306.963 417.4 306.963 415.723C306.963 414.045 308.321 412.686 309.997 412.686C311.672 412.668 313.031 414.045 313.031 415.723Z" fill="#F5C800"/>
<path d="M309.997 417.612C308.515 417.612 307.28 416.553 307.016 415.14C306.981 415.317 306.963 415.511 306.963 415.705C306.963 417.383 308.321 418.742 309.997 418.742C311.672 418.742 313.031 417.383 313.031 415.705C313.031 415.511 313.013 415.317 312.978 415.14C312.713 416.553 311.478 417.612 309.997 417.612Z" fill="#2D2D2D"/>
<path d="M313.031 435.659C313.031 437.336 311.672 438.696 309.997 438.696C308.321 438.696 306.963 437.336 306.963 435.659C306.963 433.981 308.321 432.622 309.997 432.622C311.672 432.622 313.031 433.981 313.031 435.659Z" fill="#F5C800"/>
<path d="M309.997 437.566C308.515 437.566 307.28 436.506 307.016 435.094C306.981 435.27 306.963 435.465 306.963 435.659C306.963 437.336 308.321 438.696 309.997 438.696C311.672 438.696 313.031 437.336 313.031 435.659C313.031 435.465 313.013 435.27 312.978 435.094C312.713 436.506 311.478 437.566 309.997 437.566Z" fill="#2D2D2D"/>
<path d="M374.307 207.8L249.003 135.384L249.426 134.642L374.73 207.058L374.307 207.8Z" fill="#F5C800"/>
<path d="M184.905 359.959L189.438 362.572C191.784 363.932 193.671 362.484 193.671 359.358V236.918C193.671 233.792 191.766 230.155 189.438 228.813L184.905 226.199C182.559 224.84 180.671 226.288 180.671 229.413V351.854C180.671 354.979 182.559 358.617 184.905 359.959Z" fill="#727272"/>
<mask id="mask0_824_6248" style="mask-type:luminance" maskUnits="userSpaceOnUse" x="105" y="225" width="89" height="190">
<path d="M109.606 414.646L189.438 362.59C191.784 363.95 193.671 362.502 193.671 359.376V236.935C193.671 233.81 191.766 230.172 189.438 228.83L184.905 226.217C182.559 224.857 180.671 226.305 180.671 229.431L105.249 263.899C105.231 267.025 107.26 413.286 109.606 414.646Z" fill="white"/>
</mask>
<g mask="url(#mask0_824_6248)">
<path opacity="0.5" d="M129.696 382.561L206.494 338.169V217.671L129.696 262.063V382.561Z" fill="#F5C800"/>
<path opacity="0.5" d="M136.381 386.375L213.179 341.965V221.467L136.381 265.859V386.375Z" fill="#C49F02"/>
<path opacity="0.5" d="M206.494 217.671L213.179 221.467L136.381 265.859L129.696 262.063L206.494 217.671Z" fill="#F5C800"/>
<path opacity="0.5" d="M206.494 338.169L213.179 341.965L136.381 386.375L129.696 382.561L206.494 338.169Z" fill="#F5C800"/>
<path d="M127.985 255.406L132.218 252.916V252.951C132.959 252.527 133.911 252.563 134.952 253.163L139.485 255.777C141.831 257.136 143.718 260.756 143.718 263.882V386.322C143.718 388.017 143.154 389.183 142.272 389.713L142.29 389.73L138.198 392.114L139.009 389.236L134.952 386.887C132.606 385.528 130.719 381.908 130.719 378.782V256.342C130.719 256.324 130.719 256.324 130.719 256.306L127.985 255.406Z" fill="url(#paint5_linear_824_6248)"/>
<path d="M139.485 255.777L134.952 253.163C134.088 252.669 133.312 252.58 132.642 252.792C133.047 252.863 133.453 252.987 133.894 253.234L138.515 255.9C140.896 257.277 142.837 260.986 142.837 264.164V389.024C142.837 389.095 142.819 389.165 142.819 389.236C143.383 388.6 143.719 387.611 143.719 386.305V263.864C143.719 260.774 141.831 257.136 139.485 255.777Z" fill="#F5C800"/>
<path d="M130.772 389.377L135.305 391.991C137.651 393.35 139.538 391.902 139.538 388.777V266.336C139.538 263.211 137.633 259.573 135.305 258.231L130.772 255.618C128.426 254.258 126.539 255.706 126.539 258.831V381.272C126.521 384.398 128.426 388.018 130.772 389.377Z" fill="url(#paint6_linear_824_6248)"/>
</g>
<mask id="mask1_824_6248" style="mask-type:luminance" maskUnits="userSpaceOnUse" x="105" y="225" width="89" height="190">
<path d="M109.606 414.646L189.438 362.59C191.784 363.95 193.671 362.502 193.671 359.376V236.935C193.671 233.81 191.766 230.172 189.438 228.83L184.905 226.217C182.559 224.857 180.671 226.305 180.671 229.431L105.249 263.899C105.231 267.025 107.26 413.286 109.606 414.646Z" fill="white"/>
</mask>
<g mask="url(#mask1_824_6248)">
<path d="M198.645 303.948L190.496 299.233V287.278L198.645 291.993V303.948Z" fill="#F5C800"/>
<path d="M198.645 309.951V322.648L190.496 317.933V305.237L198.645 309.951Z" fill="#F5C800"/>
<path d="M164.303 267.749V277.584L161.48 279.226V269.373L164.303 267.749Z" fill="#F5C800"/>
<path d="M170.811 273.823L167.972 275.465V265.612L170.811 263.988V273.823Z" fill="#F5C800"/>
<path d="M155.924 320.864V348.658L189.984 328.951L198.504 333.878L147.758 363.208V316.149L155.924 320.864Z" fill="#F5C800"/>
<path d="M190.496 277.143V262.451L174.48 271.704V261.869L198.645 247.883V281.857L190.496 277.143Z" fill="#F5C800"/>
<path d="M147.758 304.548L155.924 309.263V314.86L147.758 310.146V304.548Z" fill="#F5C800"/>
<path d="M157.794 281.345L155.924 282.423V297.962L147.758 293.247V277.302L157.794 271.51V281.345Z" fill="#F5C800"/>
<path d="M180.707 279.968L186.404 276.684V270.115L180.707 273.399V279.968Z" fill="#F5C800"/>
<path d="M170.812 285.707L176.491 282.422V275.836L170.812 279.12V285.707Z" fill="#F5C800"/>
<path d="M170.812 295.931L176.491 292.646V286.06L170.812 289.362V295.931Z" fill="#F5C800"/>
<path d="M160.898 339.988L166.578 336.703V330.117L160.898 333.419V339.988Z" fill="#F5C800"/>
<path d="M180.707 290.21L186.404 286.908V280.339L180.707 283.623V290.21Z" fill="#F5C800"/>
<path d="M160.898 291.428L166.578 288.144V281.557L160.898 284.859V291.428Z" fill="#F5C800"/>
</g>
<mask id="mask2_824_6248" style="mask-type:luminance" maskUnits="userSpaceOnUse" x="105" y="225" width="89" height="190">
<path d="M109.606 414.646L189.438 362.59C191.784 363.95 193.671 362.502 193.671 359.376V236.935C193.671 233.81 191.766 230.172 189.438 228.83L184.905 226.217C182.559 224.857 180.671 226.305 180.671 229.431L105.249 263.899C105.231 267.025 107.26 413.286 109.606 414.646Z" fill="white"/>
</mask>
<g mask="url(#mask2_824_6248)">
<path opacity="0.4" d="M182.682 231.426L189.438 235.187V355.721L193.671 353.249L198.522 312.37V229.89C198.522 229.89 189.596 227.824 189.685 228.018C189.773 228.195 188.291 228.177 188.291 228.177L182.682 231.426Z" fill="#CECECE"/>
</g>
<path d="M222.616 381.431L227.149 384.044C229.495 385.404 231.382 383.956 231.382 380.831V258.39C231.382 255.264 229.477 251.627 227.149 250.285L222.616 247.671C220.27 246.312 218.382 247.76 218.382 250.885V373.326C218.382 376.451 220.27 380.071 222.616 381.431Z" fill="#727272"/>
<mask id="mask3_824_6248" style="mask-type:luminance" maskUnits="userSpaceOnUse" x="142" y="247" width="90" height="190">
<path d="M147.317 436.118L227.149 384.062C229.495 385.422 231.382 383.974 231.382 380.848V258.408C231.382 255.282 229.477 251.645 227.149 250.303L222.616 247.689C220.27 246.33 218.382 247.777 218.382 250.903L142.96 285.371C142.942 288.497 144.971 434.758 147.317 436.118Z" fill="white"/>
</mask>
<g mask="url(#mask3_824_6248)">
<path opacity="0.5" d="M167.407 404.033L244.205 359.641V239.143L167.407 283.535V404.033Z" fill="#F5C800"/>
<path opacity="0.5" d="M174.092 407.83L250.907 363.438V242.939L174.092 287.331V407.83Z" fill="#C49F02"/>
<path opacity="0.5" d="M244.205 239.143L250.907 242.939L174.092 287.331L167.407 283.535L244.205 239.143Z" fill="#F5C800"/>
<path opacity="0.5" d="M244.205 359.641L250.907 363.438L174.092 407.83L167.407 404.033L244.205 359.641Z" fill="#F5C800"/>
<path d="M165.696 276.878L169.929 274.388V274.423C170.67 274 171.622 274.035 172.663 274.635L177.196 277.249C179.542 278.608 181.429 282.228 181.429 285.354V407.794C181.429 409.49 180.865 410.655 179.983 411.185L180.001 411.202L175.908 413.586L176.72 410.708L172.663 408.359C170.317 407 168.43 403.38 168.43 400.254V277.814C168.43 277.796 168.43 277.796 168.43 277.778L165.696 276.878Z" fill="url(#paint7_linear_824_6248)"/>
<path d="M177.196 277.249L172.663 274.635C171.799 274.141 171.023 274.053 170.353 274.265C170.758 274.335 171.164 274.459 171.605 274.706L176.226 277.372C178.607 278.75 180.548 282.458 180.548 285.636V410.496C180.548 410.567 180.53 410.637 180.53 410.708C181.094 410.072 181.43 409.084 181.43 407.777V285.354C181.43 282.228 179.542 278.608 177.196 277.249Z" fill="#F5C800"/>
<path d="M168.483 410.849L173.016 413.463C175.362 414.822 177.249 413.374 177.249 410.249V287.826C177.249 284.7 175.344 281.063 173.016 279.721L168.483 277.107C166.137 275.748 164.25 277.196 164.25 280.321V402.762C164.232 405.852 166.137 409.49 168.483 410.849Z" fill="url(#paint8_linear_824_6248)"/>
</g>
<mask id="mask4_824_6248" style="mask-type:luminance" maskUnits="userSpaceOnUse" x="142" y="247" width="90" height="190">
<path d="M147.317 436.118L227.149 384.062C229.495 385.422 231.382 383.974 231.382 380.848V258.408C231.382 255.282 229.477 251.645 227.149 250.303L222.616 247.689C220.27 246.33 218.382 247.777 218.382 250.903L142.96 285.371C142.942 288.497 144.971 434.758 147.317 436.118Z" fill="white"/>
</mask>
<g mask="url(#mask4_824_6248)">
<path d="M236.374 325.42L228.207 320.705V308.751L236.374 313.465V325.42Z" fill="#F5C800"/>
<path d="M236.374 331.424V344.12L228.207 339.405V326.709L236.374 331.424Z" fill="#F5C800"/>
<path d="M202.014 289.203V299.056L199.191 300.681V290.845L202.014 289.203Z" fill="#F5C800"/>
<path d="M208.522 295.295L205.683 296.937V287.084L208.522 285.46V295.295Z" fill="#F5C800"/>
<path d="M193.635 342.336V370.112L227.713 350.424L236.215 355.35L185.469 384.68V337.622L193.635 342.336Z" fill="#F5C800"/>
<path d="M228.207 298.597V283.923L212.191 293.176V283.323L236.373 269.356V303.312L228.207 298.597Z" fill="#F5C800"/>
<path d="M185.469 326.02L193.635 330.735V336.333L185.469 331.618V326.02Z" fill="#F5C800"/>
<path d="M195.505 302.818L193.635 303.895V319.416L185.469 314.701V298.774L195.505 292.964V302.818Z" fill="#F5C800"/>
<path d="M218.435 301.44L224.115 298.156V291.569L218.435 294.871V301.44Z" fill="#F5C800"/>
<path d="M208.522 307.179L214.202 303.877V297.308L208.522 300.593V307.179Z" fill="#F5C800"/>
<path d="M208.522 317.403L214.202 314.119V307.532L208.522 310.817V317.403Z" fill="#F5C800"/>
<path d="M198.609 361.46L204.307 358.175V351.589L198.609 354.873V361.46Z" fill="#F5C800"/>
<path d="M218.435 311.682L224.115 308.38V301.811L218.435 305.095V311.682Z" fill="#F5C800"/>
<path d="M198.609 312.9L204.307 309.616V303.029L198.609 306.314V312.9Z" fill="#F5C800"/>
</g>
<mask id="mask5_824_6248" style="mask-type:luminance" maskUnits="userSpaceOnUse" x="142" y="247" width="90" height="190">
<path d="M147.317 436.118L227.149 384.062C229.495 385.422 231.382 383.974 231.382 380.848V258.408C231.382 255.282 229.477 251.645 227.149 250.303L222.616 247.689C220.27 246.33 218.382 247.777 218.382 250.903L142.96 285.371C142.942 288.497 144.971 434.758 147.317 436.118Z" fill="white"/>
</mask>
<g mask="url(#mask5_824_6248)">
<path opacity="0.4" d="M220.411 252.898L227.166 256.659V377.193L231.399 374.721L236.25 333.843V251.362C236.25 251.362 227.325 249.296 227.413 249.49C227.501 249.667 226.02 249.649 226.02 249.649L220.411 252.898Z" fill="#CECECE"/>
</g>
<path d="M266.553 406.488C265.953 406.488 265.301 406.294 264.63 405.923L260.097 403.309C257.628 401.879 255.635 398.065 255.635 394.798V272.357C255.635 270.539 256.252 269.144 257.328 268.526C258.245 267.996 259.392 268.084 260.556 268.755L265.089 271.369C267.558 272.799 269.552 276.613 269.552 279.88V402.32C269.552 404.139 268.934 405.534 267.858 406.152C267.47 406.382 267.029 406.488 266.553 406.488ZM260.556 402.497L265.089 405.11C265.953 405.623 266.782 405.693 267.4 405.34C268.193 404.881 268.634 403.786 268.634 402.303V279.88C268.634 276.913 266.835 273.452 264.63 272.163L260.097 269.55C259.233 269.038 258.404 268.967 257.787 269.32C256.993 269.779 256.552 270.874 256.552 272.357V394.798C256.552 397.765 258.351 401.226 260.556 402.497Z" fill="#F5C800"/>
</g>
<defs>
<linearGradient id="paint0_linear_824_6248" x1="70.793" y1="351.449" x2="12.0813" y2="410.096" gradientUnits="userSpaceOnUse">
<stop stop-color="#D3093E"/>
<stop offset="0.1622" stop-color="#B1103B"/>
<stop offset="0.5228" stop-color="#6A2033"/>
<stop offset="0.7828" stop-color="#3E292F"/>
<stop offset="0.914" stop-color="#2D2D2D"/>
</linearGradient>
<linearGradient id="paint1_linear_824_6248" x1="112.32" y1="87.4653" x2="77.973" y2="87.4653" gradientUnits="userSpaceOnUse">
<stop stop-color="#F5C800"/>
<stop offset="0.1046" stop-color="#EFC301"/>
<stop offset="0.2449" stop-color="#DEB605"/>
<stop offset="0.4056" stop-color="#C2A00C"/>
<stop offset="0.5813" stop-color="#9B8214"/>
<stop offset="0.7694" stop-color="#695B20"/>
<stop offset="0.9624" stop-color="#2D2D2D"/>
</linearGradient>
<linearGradient id="paint2_linear_824_6248" x1="555.87" y1="239.376" x2="625.048" y2="273.714" gradientUnits="userSpaceOnUse">
<stop stop-color="#F5C800"/>
<stop offset="0.1046" stop-color="#EFC301"/>
<stop offset="0.2449" stop-color="#DEB605"/>
<stop offset="0.4056" stop-color="#C2A00C"/>
<stop offset="0.5813" stop-color="#9B8214"/>
<stop offset="0.7694" stop-color="#695B20"/>
<stop offset="0.9624" stop-color="#2D2D2D"/>
</linearGradient>
<linearGradient id="paint3_linear_824_6248" x1="122.715" y1="287.679" x2="506.488" y2="287.679" gradientUnits="userSpaceOnUse">
<stop stop-color="#2B2B2B"/>
<stop offset="0.1016" stop-color="#202020"/>
<stop offset="0.2614" stop-color="#171717"/>
<stop offset="0.4785" stop-color="#141414"/>
<stop offset="0.8672" stop-color="#2F2F2F"/>
<stop offset="1" stop-color="#3A3A3A"/>
</linearGradient>
<linearGradient id="paint4_linear_824_6248" x1="149.927" y1="172.304" x2="445.416" y2="245.34" gradientUnits="userSpaceOnUse">
<stop stop-color="#333333"/>
<stop offset="0.8279" stop-color="#2B2B2B"/>
<stop offset="1" stop-color="#282828"/>
</linearGradient>
<linearGradient id="paint5_linear_824_6248" x1="184.09" y1="300.747" x2="63.0075" y2="354.583" gradientUnits="userSpaceOnUse">
<stop stop-color="#2B2B2B"/>
<stop offset="0.1016" stop-color="#202020"/>
<stop offset="0.2614" stop-color="#171717"/>
<stop offset="0.4785" stop-color="#141414"/>
<stop offset="0.8672" stop-color="#2F2F2F"/>
<stop offset="1" stop-color="#3A3A3A"/>
</linearGradient>
<linearGradient id="paint6_linear_824_6248" x1="134.486" y1="323.807" x2="294.949" y2="323.807" gradientUnits="userSpaceOnUse">
<stop stop-color="#2B2B2B"/>
<stop offset="0.1016" stop-color="#202020"/>
<stop offset="0.2614" stop-color="#171717"/>
<stop offset="0.4785" stop-color="#141414"/>
<stop offset="0.8672" stop-color="#2F2F2F"/>
<stop offset="1" stop-color="#3A3A3A"/>
</linearGradient>
<linearGradient id="paint7_linear_824_6248" x1="221.804" y1="322.215" x2="100.721" y2="376.051" gradientUnits="userSpaceOnUse">
<stop stop-color="#2B2B2B"/>
<stop offset="0.1016" stop-color="#202020"/>
<stop offset="0.2614" stop-color="#171717"/>
<stop offset="0.4785" stop-color="#141414"/>
<stop offset="0.8672" stop-color="#2F2F2F"/>
<stop offset="1" stop-color="#3A3A3A"/>
</linearGradient>
<linearGradient id="paint8_linear_824_6248" x1="172.199" y1="345.275" x2="332.663" y2="345.275" gradientUnits="userSpaceOnUse">
<stop stop-color="#2B2B2B"/>
<stop offset="0.1016" stop-color="#202020"/>
<stop offset="0.2614" stop-color="#171717"/>
<stop offset="0.4785" stop-color="#141414"/>
<stop offset="0.8672" stop-color="#2F2F2F"/>
<stop offset="1" stop-color="#3A3A3A"/>
</linearGradient>
<clipPath id="clip0_824_6248">
<rect width="618" height="521" fill="white"/>
</clipPath>
</defs>
</svg>
