<svg width="24" height="24" viewBox="0 0 24 24" fill="none" xmlns="http://www.w3.org/2000/svg">
<path id="Vector" d="M21.6 0H7.2C5.88 0 4.8 1.08 4.8 2.4V16.8C4.8 18.12 5.88 19.2 7.2 19.2H21.6C22.92 19.2 24 18.12 24 16.8V2.4C24 1.08 22.92 0 21.6 0ZM11.712 13.536L9.228 11.04C8.772 10.572 8.772 9.828 9.228 9.36C9.33902 9.24876 9.47088 9.1605 9.61605 9.10028C9.76122 9.04006 9.91684 9.00907 10.074 9.00907C10.2312 9.00907 10.3868 9.04006 10.5319 9.10028C10.6771 9.1605 10.809 9.24876 10.92 9.36L12.552 11.004L17.856 5.652C17.967 5.54076 18.0989 5.4525 18.2441 5.39228C18.3892 5.33206 18.5448 5.30107 18.702 5.30107C18.8592 5.30107 19.0148 5.33206 19.16 5.39228C19.3051 5.4525 19.437 5.54076 19.548 5.652C20.004 6.12 20.004 6.864 19.548 7.332L13.392 13.536C12.948 14.016 12.18 14.016 11.712 13.536ZM1.2 4.8C0.54 4.8 0 5.34 0 6V21.6C0 22.92 1.08 24 2.4 24H18C18.66 24 19.2 23.46 19.2 22.8C19.2 22.14 18.66 21.6 18 21.6H3.6C2.94 21.6 2.4 21.06 2.4 20.4V6C2.4 5.34 1.86 4.8 1.2 4.8Z" fill="black"/>
</svg>
