<svg width="118" height="118" viewBox="0 0 118 118" fill="none" xmlns="http://www.w3.org/2000/svg">
<g id="Frame" clip-path="url(#clip0_919_2590)">
<g id="Group">
<path id="Vector" d="M3.75443 37.1341H95.3975C97.4775 37.1341 99.152 35.4561 99.152 33.3717V3.76237C99.152 1.67797 97.4775 0 95.3975 0H3.75443C1.67443 0 0 1.67797 0 3.76237V33.3741C0 35.4561 1.67443 37.1341 3.75443 37.1341ZM87.4499 9.18132C87.4499 8.16645 88.2587 7.35599 89.2714 7.35599C90.2841 7.35599 91.0929 8.16645 91.0929 9.18132V28.4305C91.0929 29.4453 90.2841 30.2558 89.2714 30.2558C88.2587 30.2558 87.4499 29.4453 87.4499 28.4305V9.18132ZM78.269 9.18132C78.269 8.16645 79.0778 7.35599 80.0905 7.35599C81.1032 7.35599 81.912 8.16645 81.912 9.18132V28.4305C81.912 29.4453 81.1032 30.2558 80.0905 30.2558C79.0778 30.2558 78.269 29.4453 78.269 28.4305V9.18132ZM69.0881 9.18132C69.0881 8.16645 69.8969 7.35599 70.9096 7.35599C71.9223 7.35599 72.731 8.16645 72.731 9.18132V28.4305C72.731 29.4453 71.9223 30.2558 70.9096 30.2558C69.8969 30.2558 69.0881 29.4453 69.0881 28.4305V9.18132ZM59.9072 9.18132C59.9072 8.16645 60.7159 7.35599 61.7287 7.35599C62.7414 7.35599 63.5501 8.16645 63.5501 9.18132V28.4305C63.5501 29.4453 62.7414 30.2558 61.7287 30.2558C60.7159 30.2558 59.9072 29.4453 59.9072 28.4305V9.18132ZM40.4591 10.6929C40.4591 9.67805 41.2679 8.86759 42.2806 8.86759C43.2933 8.86759 44.1021 9.67805 44.1021 10.6929V13.7732C44.1021 14.788 43.2933 15.5985 42.2806 15.5985C41.2679 15.5985 40.4591 14.788 40.4591 13.7732V10.6929ZM42.2806 20.3377C44.5242 20.3377 46.3291 22.144 46.3291 24.3948C46.3291 26.6265 44.5266 28.4519 42.2806 28.4519C40.0535 28.4519 38.2321 26.6265 38.2321 24.3948C38.2321 22.144 40.0535 20.3377 42.2806 20.3377ZM26.2739 10.6929C26.2739 9.67805 27.0826 8.86759 28.0954 8.86759C29.1081 8.86759 29.9168 9.67805 29.9168 10.6929V13.7732C29.9168 14.788 29.1081 15.5985 28.0954 15.5985C27.0826 15.5985 26.2739 14.788 26.2739 13.7732V10.6929ZM28.0954 20.3377C30.339 20.3377 32.1439 22.144 32.1439 24.3948C32.1439 26.6265 30.3414 28.4519 28.0954 28.4519C25.8683 28.4519 24.0468 26.6265 24.0468 24.3948C24.0658 22.144 25.8873 20.3377 28.0954 20.3377ZM12.1076 10.6929C12.1076 9.67805 12.9164 8.86759 13.9291 8.86759C14.9418 8.86759 15.7506 9.67805 15.7506 10.6929V13.7732C15.7506 14.788 14.9418 15.5985 13.9291 15.5985C12.9164 15.5985 12.1076 14.769 12.1076 13.7541V10.6929ZM13.9291 20.3377C16.1727 20.3377 17.9776 22.144 17.9776 24.3948C17.9776 26.6265 16.1751 28.4519 13.9291 28.4519C11.702 28.4519 9.88057 26.6265 9.88057 24.3948C9.88057 22.144 11.702 20.3377 13.9291 20.3377Z" fill="black"/>
<path id="Vector_2" d="M116.354 77.4388L112.05 76.26C111.589 74.4537 110.854 72.7567 109.915 71.1714L112.123 67.2997C112.657 66.3775 112.491 65.2153 111.736 64.4785L109.953 62.6912C109.199 61.9354 108.058 61.7881 107.138 62.3038L103.236 64.5165C101.673 63.5754 99.9609 62.8766 98.1584 62.4155L96.982 58.1184C96.7069 57.1035 95.7677 56.3857 94.7194 56.3857H92.1982C91.15 56.3857 90.2108 57.0869 89.9356 58.1184L88.7593 62.4155C86.9568 62.8766 85.2444 63.6134 83.6814 64.5546L79.7799 62.3418C78.8597 61.8261 77.7 61.9734 76.9647 62.7292L75.1812 64.5165C74.427 65.2723 74.2799 66.4156 74.7946 67.3377L77.0027 71.2474C76.0469 72.8137 75.3472 74.5297 74.8681 76.336L70.5801 77.5149C69.5673 77.7906 68.8511 78.7318 68.8511 79.7823V82.3278C68.8511 83.3783 69.5507 84.3195 70.5801 84.5952L74.8847 85.774C75.3259 87.5804 76.0611 89.2773 76.9813 90.827L74.7732 94.7367C74.2586 95.6589 74.4056 96.8021 75.1598 97.5579L76.9623 99.3642C77.7166 100.12 78.8573 100.267 79.7776 99.7516L83.6411 97.5579C85.1875 98.461 86.9164 99.1978 88.7189 99.6589L89.8953 103.956C90.1704 104.971 91.1096 105.689 92.1579 105.689H94.698C95.7463 105.689 96.6855 104.988 96.9607 103.956L98.137 99.6589C99.9395 99.1978 101.633 98.461 103.215 97.5198L107.078 99.7326C107.999 100.267 109.158 100.101 109.894 99.3452L111.677 97.5579C112.431 96.8021 112.578 95.6589 112.064 94.7367L109.856 90.827C110.795 89.2607 111.492 87.5637 111.952 85.7384L116.257 84.5595C117.27 84.2838 117.986 83.3426 117.986 82.2921V79.7466C118.083 78.6557 117.384 77.7336 116.354 77.4388ZM93.5027 89.8287C88.6264 89.8287 84.6894 85.8834 84.6894 80.9968C84.6894 76.1293 88.6264 72.1839 93.5027 72.1839C98.36 72.1839 102.297 76.1293 102.297 80.9968C102.297 85.8644 98.36 89.8287 93.5027 89.8287Z" fill="#F5C800"/>
<path id="Vector_3" d="M68.9412 96.8352L65.7038 95.951C65.3552 94.6058 64.8025 93.3152 64.1029 92.134L65.7584 89.2201C66.1449 88.519 66.0335 87.6538 65.4832 87.1001L64.1408 85.7548C63.5882 85.2011 62.7249 85.0727 62.0253 85.4601L59.1009 87.1191C57.9246 86.4179 56.6344 85.8832 55.292 85.5338L54.4097 82.3062C54.2081 81.5314 53.5084 81.0156 52.7163 81.0156H50.8213C50.0291 81.0156 49.3318 81.5504 49.1279 82.3062L48.2456 85.5338C46.9032 85.8832 45.5964 86.437 44.4366 87.1381L41.5123 85.4791C40.8316 85.0917 39.9493 85.2034 39.3967 85.7738L38.0543 87.1191C37.4851 87.6895 37.3736 88.557 37.7602 89.2391L39.4157 92.1696C38.6971 93.3485 38.1634 94.6414 37.8148 95.9867L34.594 96.8708C33.8208 97.0728 33.3062 97.774 33.3062 98.5678V100.486C33.3062 101.28 33.8398 101.978 34.594 102.183L37.8314 103.067C38.1634 104.412 38.7137 105.703 39.4133 106.865L37.7579 109.795C37.3713 110.478 37.4827 111.345 38.052 111.916L39.3944 113.261C39.947 113.815 40.8292 113.943 41.5099 113.555L44.4176 111.897C45.5774 112.579 46.8842 113.132 48.2266 113.482L49.1089 116.709C49.3105 117.484 50.0102 118 50.8023 118H52.7163C53.5084 118 54.2057 117.465 54.4097 116.709L55.292 113.482C56.6344 113.132 57.9222 112.579 59.1009 111.877L62.0087 113.536C62.7083 113.924 63.5716 113.812 64.1242 113.261L65.4666 111.916C66.0192 111.362 66.1473 110.497 65.7607 109.795L64.1053 106.865C64.8049 105.686 65.3386 104.412 65.6872 103.048L68.9246 102.164C69.6978 101.962 70.2124 101.261 70.2124 100.467V98.5488C70.2456 97.7383 69.712 97.0372 68.9412 96.8352ZM51.7747 106.128C48.1128 106.128 45.1505 103.16 45.1505 99.49C45.1505 95.8393 48.1128 92.8708 51.7747 92.8708C55.4177 92.8708 58.3799 95.8393 58.3799 99.49C58.3799 103.16 55.4177 106.128 51.7747 106.128Z" fill="#F5C800"/>
<path id="Vector_4" d="M10.248 40.7847H88.9036V44.269H10.248V40.7847Z" fill="black"/>
<path id="Vector_5" d="M35.4548 84.4997L36.7972 83.1545C37.8265 82.123 39.1713 81.5692 40.6251 81.5692C41.5643 81.5692 42.4846 81.8093 43.3123 82.2894L44.5076 82.9715C44.7472 82.8598 44.9867 82.7695 45.2429 82.6578L45.6105 81.3125C46.2556 78.9714 48.4067 77.3291 50.8164 77.3291H52.7114C55.14 77.3291 57.2746 78.9691 57.9173 81.3125L58.2849 82.6411C58.5245 82.7338 58.7806 82.8431 59.0202 82.9358L60.2535 82.2347C61.0622 81.7736 61.9824 81.5336 62.9027 81.5336C63.7304 81.5336 64.5391 81.7356 65.2578 82.104V79.7082C65.2578 77.0154 67.0603 74.6387 69.6549 73.9185L72.01 73.2554C72.2686 72.5543 72.5437 71.8721 72.8568 71.209L71.6424 69.051C70.3167 66.7099 70.7032 63.7414 72.6172 61.8423L74.4007 60.055C75.5415 58.9118 77.031 58.3034 78.6319 58.3034C79.6612 58.3034 80.6929 58.5791 81.5942 59.0972L83.7477 60.3141C84.4094 60.0004 85.0901 59.7057 85.7897 59.4656L86.4514 57.0865C87.1701 54.4864 89.5418 52.68 92.2289 52.68H94.7501C96.4601 52.68 98.0444 53.4168 99.1472 54.6337V51.6462C99.1472 49.5618 97.4728 47.8838 95.3928 47.8838H3.75443C1.67443 47.8814 0 49.5594 0 51.6438V81.2555C0 83.3399 1.67443 85.0179 3.75443 85.0179H34.9947C35.1417 84.8681 35.2888 84.6661 35.4548 84.4997ZM59.9072 56.8607C59.9072 55.8458 60.7159 55.0354 61.7287 55.0354C62.7414 55.0354 63.5501 55.8458 63.5501 56.8607V76.1099C63.5501 77.1247 62.7414 77.9352 61.7287 77.9352C60.7159 77.9352 59.9072 77.1247 59.9072 76.1099V56.8607ZM40.4591 59.2778C40.4591 58.263 41.2679 57.4525 42.2806 57.4525C43.2933 57.4525 44.1021 58.263 44.1021 59.2778V62.3581C44.1021 63.373 43.2933 64.1834 42.2806 64.1834C41.2679 64.1834 40.4591 63.373 40.4591 62.3581V59.2778ZM42.2806 67.9981C44.5242 67.9981 46.3291 69.8044 46.3291 72.0552C46.3291 74.2869 44.5266 76.1122 42.2806 76.1122C40.0535 76.1122 38.2321 74.2869 38.2321 72.0552C38.2321 69.8044 40.0535 67.9981 42.2806 67.9981ZM26.2739 59.2778C26.2739 58.263 27.0826 57.4525 28.0954 57.4525C29.1081 57.4525 29.9168 58.263 29.9168 59.2778V62.3581C29.9168 63.373 29.1081 64.1834 28.0954 64.1834C27.0826 64.1834 26.2739 63.373 26.2739 62.3581V59.2778ZM12.1052 59.2778C12.1052 58.263 12.914 57.4525 13.9267 57.4525C14.9394 57.4525 15.7482 58.263 15.7482 59.2778V62.3581C15.7482 63.373 14.9394 64.1834 13.9267 64.1834C12.914 64.1834 12.1052 63.373 12.1052 62.3581V59.2778ZM13.9267 76.1099C11.6997 76.1099 9.8782 74.2845 9.8782 72.0528C9.8782 69.8044 11.6997 67.9957 13.9267 67.9957C16.1704 67.9957 17.9752 69.802 17.9752 72.0528C17.9752 74.2845 16.1727 76.1099 13.9267 76.1099ZM28.0954 76.1099C25.8683 76.1099 24.0468 74.2845 24.0468 72.0528C24.0468 69.8044 25.8683 67.9957 28.0954 67.9957C30.339 67.9957 32.1439 69.802 32.1439 72.0528C32.1415 74.2845 30.339 76.1099 28.0954 76.1099Z" fill="black"/>
</g>
</g>
<defs>
<clipPath id="clip0_919_2590">
<rect width="118" height="118" fill="white"/>
</clipPath>
</defs>
</svg>
