<svg width="118" height="118" viewBox="0 0 118 118" fill="none" xmlns="http://www.w3.org/2000/svg">
<g id="Frame" clip-path="url(#clip0_919_2572)">
<g id="Group">
<path id="Vector" d="M115.05 40.0309C116.952 38.9339 118.086 36.8719 117.997 34.6779V13.1121C117.997 5.86927 112.125 0 104.886 0H13.1142C5.875 0 0.00618644 5.86927 0.00618644 13.1121V34.6809C-0.0859939 36.875 1.0509 38.9339 2.95288 40.0309C6.18841 41.6565 7.4943 45.5959 5.86885 48.8317C5.23588 50.0916 4.21268 51.1149 2.95288 51.7479C1.0509 52.8449 -0.0859939 54.9069 0.00618644 57.1009V60.9021C-0.0859939 63.0962 1.0509 65.1551 2.95288 66.2521C6.18841 67.8777 7.4943 71.8171 5.86885 75.0529C5.23588 76.3128 4.21268 77.3361 2.95288 77.9691C1.0509 79.0661 -0.0859939 81.1281 0.00618644 83.3221V104.891C0.00618644 112.131 5.875 118.003 13.1173 118.003H104.889C112.128 118.003 118 112.134 118 104.891V83.3221C118.092 81.1281 116.955 79.0692 115.053 77.9722C111.818 76.3466 110.512 72.4071 112.137 69.1714C112.77 67.9115 113.794 66.8882 115.053 66.2552C116.955 65.1581 118.092 63.0962 118 60.9021V57.1009C118.092 54.9069 116.955 52.848 115.053 51.751C111.818 50.1254 110.512 46.1859 112.137 42.9502C112.767 41.6872 113.79 40.667 115.05 40.0309ZM98.3318 50.8045C99.2383 50.8045 99.9696 51.539 99.9696 52.4424C99.9696 53.3458 99.2352 54.0803 98.3318 54.0803H93.4156V63.9136H98.3318C99.2383 63.9136 99.9696 64.648 99.9696 65.5515C99.9696 66.458 99.2352 67.1893 98.3318 67.1893H93.4156V77.0227H98.3318C99.2383 77.0227 99.9696 77.7571 99.9696 78.6605C99.9696 79.567 99.2352 80.2984 98.3318 80.2984H93.4156V80.8454C93.4063 87.7809 87.7833 93.4013 80.8483 93.4105H80.3044V98.3272C80.3044 99.2337 79.5701 99.965 78.6667 99.965C77.7603 99.965 77.029 99.2306 77.029 98.3272V93.4105H67.1964V98.3272C67.1964 99.2337 66.462 99.965 65.5587 99.965C64.6553 99.965 63.9209 99.2306 63.9209 98.3272V93.4105H54.0884V98.3272C54.0884 99.2337 53.354 99.965 52.4506 99.965C51.5473 99.965 50.8129 99.2306 50.8129 98.3272V93.4105H40.9803V98.3272C40.9803 99.2337 40.246 99.965 39.3426 99.965C38.4361 99.965 37.7049 99.2306 37.7049 98.3272V93.4105H37.161C30.226 93.4013 24.606 87.784 24.5937 80.8454V80.2984H19.6775C18.771 80.2984 18.0397 79.564 18.0397 78.6605C18.0397 77.754 18.7741 77.0227 19.6775 77.0227H24.5937V67.1893H19.6775C18.771 67.1893 18.0397 66.4549 18.0397 65.5515C18.0397 64.645 18.7741 63.9136 19.6775 63.9136H24.5937V54.0803H19.6775C18.771 54.0803 18.0397 53.3458 18.0397 52.4424C18.0397 51.539 18.7741 50.8045 19.6775 50.8045H24.5937V40.9712H19.6775C18.771 40.9712 18.0397 40.2368 18.0397 39.3333C18.0397 38.4268 18.7741 37.6955 19.6775 37.6955H24.5937V37.1485C24.603 30.2129 30.226 24.5926 37.161 24.5833H37.7049V19.6667C37.7049 18.7602 38.4392 18.0288 39.3426 18.0288C40.249 18.0288 40.9803 18.7632 40.9803 19.6667V24.5833H50.8129V19.6667C50.8129 18.7602 51.5473 18.0288 52.4506 18.0288C53.354 18.0288 54.0884 18.7632 54.0884 19.6667V24.5833H63.9209V19.6667C63.9209 18.7602 64.6553 18.0288 65.5587 18.0288C66.462 18.0288 67.1964 18.7632 67.1964 19.6667V24.5833H77.029V19.6667C77.029 18.7602 77.7633 18.0288 78.6667 18.0288C79.5731 18.0288 80.3044 18.7632 80.3044 19.6667V24.5833H80.8483C87.7833 24.5926 93.4033 30.2098 93.4156 37.1485V37.6955H98.3318C99.2383 37.6955 99.9696 38.4299 99.9696 39.3333C99.9696 40.2398 99.2352 40.9712 98.3318 40.9712H93.4156V50.8045H98.3318Z" fill="black"/>
<path id="Vector_2" d="M53.2649 68.9318C52.6995 68.603 52.1864 68.1943 51.6333 67.8501C51.7992 68.8396 51.9621 69.8321 52.1833 70.8124C53.142 70.5112 54.0792 70.1579 55.0194 69.8075C54.4417 69.5003 53.8303 69.2606 53.2649 68.9318Z" fill="#F5C800"/>
<path id="Vector_3" d="M55.0225 48.1923C54.0822 47.839 53.142 47.4886 52.1833 47.1875C51.9652 48.1708 51.7992 49.1542 51.6333 50.1467C52.1864 49.8026 52.6995 49.3939 53.2649 49.0681C53.8303 48.7424 54.4448 48.4996 55.0225 48.1923Z" fill="#F5C800"/>
<path id="Vector_4" d="M53.0679 73.968C54.0788 77.6678 56.1405 80.9957 58.9981 83.5524C61.8588 80.9988 63.9206 77.6678 64.9315 73.968C62.9158 73.3534 60.9339 72.6282 58.9981 71.7954C57.0654 72.6251 55.0835 73.3503 53.0679 73.968Z" fill="#F5C800"/>
<path id="Vector_5" d="M62.9805 69.8074C63.9207 70.1608 64.8609 70.5111 65.8196 70.8122C66.0378 69.8289 66.2037 68.8456 66.3696 67.853C65.8165 68.1972 65.3034 68.6059 64.738 68.9316C64.1696 69.2574 63.5581 69.5001 62.9805 69.8074Z" fill="#F5C800"/>
<path id="Vector_6" d="M64.735 49.0681C65.3003 49.3969 65.8135 49.8056 66.3666 50.1498C66.2006 49.1603 66.0378 48.1678 65.8165 47.1875C64.8579 47.4886 63.9207 47.842 62.9805 48.1923C63.5581 48.4996 64.1696 48.7393 64.735 49.0681Z" fill="#F5C800"/>
<path id="Vector_7" d="M59.0015 60.638C59.906 60.638 60.6392 59.9047 60.6392 59.0002C60.6392 58.0956 59.906 57.3623 59.0015 57.3623C58.097 57.3623 57.3638 58.0956 57.3638 59.0002C57.3638 59.9047 58.097 60.638 59.0015 60.638Z" fill="#F5C800"/>
<path id="Vector_8" d="M45.3647 58.9998C46.1022 59.6789 46.8734 60.315 47.6477 60.9511C47.6262 60.2996 47.5279 59.6543 47.5279 58.9998C47.5279 58.3453 47.6262 57.6969 47.6477 57.0454C46.8734 57.6815 46.1022 58.3207 45.3647 58.9998Z" fill="#F5C800"/>
<path id="Vector_9" d="M43.0144 61.2954C40.2459 64.0272 38.4115 67.5642 37.7632 71.3992C41.4166 72.5546 45.3189 72.6591 49.0276 71.7034C48.5421 69.623 48.1734 67.515 47.9245 65.3947C46.213 64.1194 44.5722 62.7489 43.0144 61.2954Z" fill="#F5C800"/>
<path id="Vector_10" d="M37.7417 46.7239C38.4607 50.5036 40.2951 53.9821 43.0052 56.7108C44.5661 55.2512 46.2069 53.8807 47.9215 52.6024C48.1704 50.482 48.5391 48.3771 49.0246 46.2967C45.3036 45.3195 41.3767 45.467 37.7417 46.7239Z" fill="#F5C800"/>
<path id="Vector_11" d="M65.0086 44.0042C64.0253 40.2399 61.8837 36.8812 58.8847 34.4014C56.0548 36.9826 54.0115 40.3106 52.9883 44.0042C55.0316 44.625 57.0381 45.3594 58.9984 46.2044C60.9619 45.3625 62.9653 44.628 65.0086 44.0042Z" fill="#F5C800"/>
<path id="Vector_12" d="M80.848 27.8623H37.1515C32.0263 27.8685 27.8689 32.02 27.8628 37.1487V80.8548C27.8689 85.9804 32.0232 90.135 37.1515 90.1411H80.848C85.9732 90.135 90.1306 85.9834 90.1367 80.8548V37.1487C90.1306 32.02 85.9763 27.8654 80.848 27.8623ZM83.1218 72.9328C82.1416 74.6382 78.6787 75.5663 74.506 75.5663C72.3767 75.5355 70.2565 75.2836 68.1763 74.8195C66.1023 81.2327 61.9388 86.8592 58.9982 86.8592C56.0577 86.8592 51.9065 81.2358 49.8263 74.8195C47.7461 75.2836 45.6259 75.5325 43.4966 75.5663C39.3208 75.5663 35.8579 74.6352 34.8746 72.9266C33.409 70.4038 36.1805 64.0121 40.6759 59.0002C36.1805 53.9975 33.412 47.6089 34.8746 45.0706C36.3403 42.5324 43.26 41.7334 49.8416 43.1255C51.9249 36.7307 56.0761 31.135 59.0044 31.135C61.9326 31.135 66.0777 36.7307 68.164 43.1255C74.7641 41.7304 81.6746 42.5355 83.131 45.0706C84.5905 47.6058 81.8251 53.9913 77.3298 58.9971C81.8251 64.0029 84.5905 70.3976 83.1218 72.9328Z" fill="#F5C800"/>
<path id="Vector_13" d="M68.9844 46.3486C69.4668 48.4136 69.8294 50.5032 70.0783 52.6081C71.7897 53.8834 73.4305 55.2539 74.9915 56.7105C77.6985 53.9787 79.5329 50.5032 80.2611 46.7266C78.3991 45.9399 76.3803 45.5957 74.3616 45.7187C72.5518 45.7494 70.7512 45.9614 68.9844 46.3486Z" fill="#F5C800"/>
<path id="Vector_14" d="M63.0975 51.9047C61.7762 51.1426 60.3843 50.5126 59.0016 49.8643C57.6189 50.5126 56.2208 51.1426 54.9027 51.9047C53.5845 52.6668 52.34 53.561 51.0864 54.4337C50.9543 55.9578 50.8037 57.4789 50.8037 59.0031C50.8037 60.5273 50.9543 62.0484 51.0864 63.5695C52.34 64.4422 53.5814 65.3395 54.9027 66.0985C56.2208 66.8575 57.6158 67.4905 58.9985 68.1389C60.3812 67.4905 61.7793 66.8606 63.0975 66.0985C64.4157 65.3364 65.6601 64.4422 66.9138 63.5695C67.0459 62.0453 67.1964 60.5242 67.1964 59C67.1964 57.4759 67.0459 55.9548 66.9138 54.4337C65.6601 53.5579 64.4157 52.6668 63.0975 51.9047ZM59.0016 63.9167C56.2854 63.9167 54.0853 61.7165 54.0853 59C54.0853 56.2836 56.2854 54.0834 59.0016 54.0834C61.7179 54.0834 63.9179 56.2836 63.9179 59C63.9118 61.7134 61.7148 63.9136 59.0016 63.9167Z" fill="#F5C800"/>
<path id="Vector_15" d="M70.0782 65.3979C69.8293 67.5182 69.4606 69.6232 68.9751 71.7004C72.7268 72.7299 76.709 72.5547 80.3563 71.1965C79.539 67.4537 77.6769 64.0212 74.9914 61.2925C73.4336 62.7521 71.7927 64.1226 70.0782 65.3979Z" fill="#F5C800"/>
<path id="Vector_16" d="M72.635 59.0001C71.8976 58.321 71.1264 57.6849 70.3521 57.0488C70.3736 57.7003 70.4719 58.3487 70.4719 59.0001C70.4719 59.6516 70.3736 60.303 70.3521 60.9545C71.1264 60.3184 71.8976 59.6792 72.635 59.0001Z" fill="#F5C800"/>
</g>
</g>
<defs>
<clipPath id="clip0_919_2572">
<rect width="118" height="118" fill="white"/>
</clipPath>
</defs>
</svg>
