<svg width="118" height="118" viewBox="0 0 118 118" fill="none" xmlns="http://www.w3.org/2000/svg">
<g id="Frame" clip-path="url(#clip0_919_2597)">
<g id="_42-Certificate_1_">
<path id="Vector" d="M96.9286 25.2856H115.514L92.7144 2.48633V21.0713C92.7144 23.3997 94.6002 25.2856 96.9286 25.2856Z" fill="black"/>
<path id="Vector_2" d="M96.9285 33.7143C89.946 33.7143 84.2856 28.054 84.2856 21.0714V0H37.9285C30.946 0 25.2856 5.66031 25.2856 12.6429V25.2857C43.9049 25.3305 58.9631 40.4598 58.9209 59.079C58.9025 67.2231 55.9367 75.0828 50.5714 81.2093V113.786C50.5766 115.224 50.3185 116.654 49.8128 118H105.357C112.34 118 118 112.34 118 105.357V33.7143H96.9285ZM54.7856 29.5C54.7856 27.1716 56.6715 25.2857 58.9999 25.2857H71.6428C73.9712 25.2857 75.8571 27.1716 75.8571 29.5C75.8571 31.8284 73.9712 33.7143 71.6428 33.7143H58.9999C56.6715 33.7143 54.7856 31.8284 54.7856 29.5ZM96.9285 96.9286H63.2142C60.8858 96.9286 58.9999 95.0427 58.9999 92.7143C58.9999 90.3859 60.8858 88.5 63.2142 88.5H96.9285C99.2569 88.5 101.143 90.3859 101.143 92.7143C101.143 95.0427 99.2569 96.9286 96.9285 96.9286ZM96.9285 75.8571H71.6428C69.3144 75.8571 67.4285 73.9713 67.4285 71.6429C67.4285 69.3145 69.3144 67.4286 71.6428 67.4286H96.9285C99.2569 67.4286 101.143 69.3145 101.143 71.6429C101.143 73.9713 99.2569 75.8571 96.9285 75.8571ZM96.9285 54.7857H71.6428C69.3144 54.7857 67.4285 52.8998 67.4285 50.5714C67.4285 48.243 69.3144 46.3571 71.6428 46.3571H96.9285C99.2569 46.3571 101.143 48.243 101.143 50.5714C101.143 52.8998 99.2569 54.7857 96.9285 54.7857Z" fill="black"/>
<path id="Vector_3" d="M8.42871 88.1631V113.786C8.43661 115.487 9.46911 117.018 11.0416 117.663C12.6114 118.324 14.4235 117.974 15.6351 116.778L25.2859 107.085L34.9366 116.778C35.732 117.566 36.8093 118.005 37.9287 118C38.4818 118.013 39.0297 117.9 39.5301 117.663C41.1026 117.018 42.1351 115.487 42.143 113.786V88.1631C31.7232 94.229 18.8485 94.229 8.42871 88.1631Z" fill="#F5C800"/>
<path id="Vector_4" d="M25.2857 84.2858C39.2506 84.2858 50.5714 72.965 50.5714 59.0001C50.5714 45.0352 39.2506 33.7144 25.2857 33.7144C11.3208 33.7144 0 45.0352 0 59.0001C0 72.965 11.3208 84.2858 25.2857 84.2858Z" fill="#F5C800"/>
</g>
</g>
<defs>
<clipPath id="clip0_919_2597">
<rect width="118" height="118" fill="white"/>
</clipPath>
</defs>
</svg>
