<svg width="118" height="111" viewBox="0 0 118 111" fill="none" xmlns="http://www.w3.org/2000/svg">
<g id="Frame" clip-path="url(#clip0_919_2603)">
<path id="Vector" fill-rule="evenodd" clip-rule="evenodd" d="M90.5021 29.7597C90.8 29.8064 91.1058 29.7209 91.3364 29.524C91.567 29.327 91.6991 29.0394 91.6991 28.7363V22.6165C91.6991 22.3133 91.567 22.0257 91.3364 21.8288C91.1058 21.6319 90.8 21.5464 90.5021 21.593C90.186 21.6423 89.8647 21.6682 89.5357 21.6682H8.21325C7.8842 21.6682 7.56033 21.6423 7.24683 21.593C6.94887 21.5464 6.64313 21.6319 6.41254 21.8288C6.18194 22.0257 6.0498 22.3133 6.0498 22.6165V28.7363C6.0498 29.0394 6.18194 29.327 6.41254 29.524C6.64313 29.7209 6.94887 29.8064 7.24683 29.7597C7.56033 29.7105 7.8842 29.6846 8.21325 29.6846H89.5357C89.8647 29.6846 90.186 29.7105 90.5021 29.7597ZM89.6289 27.6144H89.5357C77.2986 27.6144 20.4503 27.6144 8.21325 27.6144C8.18216 27.6144 8.15107 27.6144 8.11998 27.6144V23.7383H8.21325H89.5357C89.5667 23.7383 89.5978 23.7383 89.6289 23.7383V27.6144Z" fill="black"/>
<path id="Vector_2" fill-rule="evenodd" clip-rule="evenodd" d="M63.9138 57.2964C64.1885 57.2964 64.4527 57.1876 64.6471 56.9907C66.9634 54.664 69.658 52.7156 72.6324 51.2439C73.0625 51.0315 73.2905 50.5495 73.1817 50.0806C73.0729 49.6116 72.6557 49.28 72.1738 49.28H8.21081C7.88176 49.28 7.55789 49.2541 7.24439 49.2048C6.94643 49.1582 6.64069 49.2437 6.4101 49.4406C6.1795 49.6375 6.04736 49.9251 6.04736 50.2283V56.3481C6.04736 56.6513 6.1795 56.9389 6.4101 57.1358C6.64069 57.3327 6.94643 57.4182 7.24439 57.3715C7.55789 57.3223 7.88176 57.2964 8.21081 57.2964H63.9138ZM63.4889 55.2262H8.21081C8.17972 55.2262 8.14863 55.2262 8.11754 55.2262V51.3527H8.21081H68.2925C66.567 52.4902 64.9606 53.7882 63.4889 55.2262Z" fill="black"/>
<path id="Vector_3" fill-rule="evenodd" clip-rule="evenodd" d="M64.647 56.9905C64.9424 56.6952 65.0305 56.2495 64.8698 55.8635C64.7092 55.4774 64.3335 55.2261 63.9138 55.2261H8.21075C3.67657 55.2261 0 58.9026 0 63.4368V70.7537C0 75.2879 3.67657 78.9644 8.21075 78.9644H54.861C55.4284 78.9644 55.8921 78.5058 55.8947 77.9384C55.9569 69.7691 59.2889 62.3719 64.647 56.9905ZM38.6493 67.0953C38.6493 64.766 36.7579 62.8772 34.4312 62.8772C32.102 62.8772 30.2132 64.7686 30.2132 67.0953C30.2132 69.4245 32.1046 71.3133 34.4312 71.3133C36.7605 71.3159 38.6493 69.4245 38.6493 67.0953ZM55.1615 67.0953C55.1615 64.766 53.2701 62.8772 50.9434 62.8772C48.6141 62.8772 46.7253 64.7686 46.7253 67.0953C46.7253 69.4245 48.6167 71.3133 50.9434 71.3133C53.2727 71.3159 55.1615 69.4245 55.1615 67.0953Z" fill="black"/>
<path id="Vector_4" fill-rule="evenodd" clip-rule="evenodd" d="M72.1737 51.3526C72.3318 51.3526 72.4898 51.3163 72.6323 51.2464C76.6379 49.2643 81.1462 48.1528 85.9136 48.1528C89.8207 48.1528 93.5569 48.9016 96.9822 50.2618C97.2827 50.381 97.6195 50.3525 97.8968 50.1867C100.288 48.7513 101.887 46.1344 101.887 43.1419C101.887 40.7893 101.887 38.1776 101.887 35.825C101.887 31.2908 98.2103 27.6143 93.6761 27.6143C81.439 27.6143 20.4504 27.6143 8.21334 27.6143C3.67657 27.6117 0 31.2882 0 35.825V43.1419C0 47.676 3.67657 51.3526 8.21075 51.3526H72.1737ZM38.6493 39.4834C38.6493 37.1542 36.7579 35.2654 34.4312 35.2654C32.102 35.2654 30.2132 37.1568 30.2132 39.4834C30.2132 41.8127 32.1046 43.7015 34.4312 43.7015C36.7605 43.7015 38.6493 41.8127 38.6493 39.4834ZM71.6763 39.4834C71.6763 37.1542 69.7849 35.2654 67.4582 35.2654C65.1289 35.2654 63.2401 37.1568 63.2401 39.4834C63.2401 41.8127 65.1289 43.7015 67.4582 43.7015C69.7849 43.7015 71.6763 41.8127 71.6763 39.4834ZM55.1615 39.4834C55.1615 37.1542 53.2701 35.2654 50.9434 35.2654C48.6141 35.2654 46.7253 37.1568 46.7253 39.4834C46.7253 41.8127 48.6167 43.7015 50.9434 43.7015C53.2727 43.7015 55.1615 41.8127 55.1615 39.4834Z" fill="black"/>
<path id="Vector_5" fill-rule="evenodd" clip-rule="evenodd" d="M93.6761 23.7384C98.2103 23.7384 101.887 20.0618 101.887 15.5276C101.887 13.175 101.887 10.5633 101.887 8.21075C101.887 3.67657 98.2103 0 93.6761 0C81.4364 0 20.4478 0 8.21075 0C3.67657 0 0 3.67657 0 8.21075V15.5276C0 20.0618 3.67657 23.7384 8.21075 23.7384H93.6761ZM38.6493 11.8692C38.6493 9.53991 36.7579 7.6511 34.4312 7.6511C32.102 7.6511 30.2132 9.5425 30.2132 11.8692C30.2132 14.1984 32.1046 16.0873 34.4312 16.0873C36.7605 16.0898 38.6493 14.1984 38.6493 11.8692ZM71.6763 11.8692C71.6763 9.53991 69.7849 7.6511 67.4582 7.6511C65.1289 7.6511 63.2401 9.5425 63.2401 11.8692C63.2401 14.1984 65.1289 16.0873 67.4582 16.0873C69.7849 16.0898 71.6763 14.1984 71.6763 11.8692ZM55.1615 11.8692C55.1615 9.53991 53.2701 7.6511 50.9434 7.6511C48.6141 7.6511 46.7253 9.5425 46.7253 11.8692C46.7253 14.1984 48.6167 16.0873 50.9434 16.0873C53.2727 16.0898 55.1615 14.1984 55.1615 11.8692Z" fill="black"/>
<path id="Vector_6" fill-rule="evenodd" clip-rule="evenodd" d="M85.9136 48.1503C102.48 48.1503 115.932 61.5999 115.932 78.1665C115.932 94.7331 102.483 108.185 85.9136 108.185C69.3444 108.185 55.8947 94.7357 55.8947 78.1691C55.8947 61.6025 69.3444 48.1503 85.9136 48.1503ZM85.9136 46.0801C68.2044 46.0801 53.8271 60.4573 53.8271 78.1665C53.8271 95.8757 68.2044 110.256 85.9136 110.256C103.623 110.256 118 95.8783 118 78.1665C118 60.4599 103.623 46.0801 85.9136 46.0801Z" fill="#F5C800"/>
<path id="Vector_7" fill-rule="evenodd" clip-rule="evenodd" d="M79.3611 79.5966L76.651 82.7161C75.3788 84.0194 75.3866 86.1103 76.6795 87.4032C77.9749 88.6987 80.0736 88.7038 81.3769 87.4213C81.3717 87.4265 82.9833 86.0274 84.486 84.7215C81.9287 84.1645 79.9156 82.1513 79.3611 79.5966ZM85.9136 54.4902C72.8448 54.4902 62.2349 65.1002 62.2349 78.169C62.2349 91.2378 72.8448 101.848 85.9136 101.848C98.9824 101.848 109.592 91.2378 109.592 78.169C109.59 65.1002 98.9798 54.4902 85.9136 54.4902ZM85.9136 73.5338C83.3564 73.5338 81.2784 75.6091 81.2784 78.1664C81.2784 80.7237 83.3538 82.8016 85.9136 82.8016C88.4709 82.8016 90.5489 80.7263 90.5489 78.1664C90.5463 75.6117 88.4709 73.5338 85.9136 73.5338ZM82.1438 72.6243C83.219 71.8911 84.5171 71.4636 85.9136 71.4636C87.3102 71.4636 88.6082 71.8911 89.6835 72.6243L89.2482 62.9471C89.2326 61.1205 87.7454 59.6411 85.9136 59.6411C84.0792 59.6411 82.592 61.1231 82.5791 62.9549C82.5791 62.9497 82.3174 68.7664 82.1438 72.6243Z" fill="#F5C800"/>
</g>
<defs>
<clipPath id="clip0_919_2603">
<rect width="118" height="110.256" fill="white"/>
</clipPath>
</defs>
</svg>
