<svg width="77" height="118" viewBox="0 0 77 118" fill="none" xmlns="http://www.w3.org/2000/svg">
<g id="Frame" clip-path="url(#clip0_922_2612)">
<g id="Group">
<path id="Vector" d="M62.2266 19.8203H18.668V63.3789H62.2266V19.8203Z" fill="#F5C800"/>
<g id="_x30_8-ip_address_1_">
<g id="Group_2">
<path id="Vector_2" d="M38.0273 118C21.376 118 3.45703 113.672 3.45703 104.172C3.45703 98.7534 9.44 94.4667 20.2997 92.1021L21.7724 98.8617C12.4753 100.883 10.3711 103.734 10.3711 104.172C10.3711 105.946 19.8802 111.086 38.0273 111.086C56.1745 111.086 65.6836 105.946 65.6836 104.172C65.6836 103.734 63.5794 100.883 54.2823 98.8617L55.755 92.1021C66.6147 94.4667 72.5977 98.7534 72.5977 104.172C72.5977 113.672 54.6787 118 38.0273 118Z" fill="black"/>
</g>
<g id="Group_3">
<path id="Vector_3" d="M50.127 34.5703H44.9414V38.0273H50.127C51.0788 38.0273 51.8555 37.2507 51.8555 36.2988C51.8555 35.347 51.0788 34.5703 50.127 34.5703Z" fill="black"/>
<path id="Vector_4" d="M38.0273 0C17.0593 0 0 17.0593 0 38.0273C0 46.6354 2.95691 55.0728 8.32914 61.7771L38.0273 99.3297L67.7255 61.7771C73.0978 55.0728 76.0547 46.6354 76.0547 38.0273C76.0547 17.0593 58.9954 0 38.0273 0ZM31.1133 55.3125H24.1992V27.6562H31.1133V55.3125ZM50.127 44.9414H44.9414V55.3125H38.0273V44.9414V41.4844V27.6562H50.127C54.893 27.6562 58.7695 31.5327 58.7695 36.2988C58.7695 41.0649 54.893 44.9414 50.127 44.9414Z" fill="black"/>
</g>
</g>
</g>
</g>
<defs>
<clipPath id="clip0_922_2612">
<rect width="76.0547" height="118" fill="white"/>
</clipPath>
</defs>
</svg>
