<svg width="154" height="118" viewBox="0 0 154 118" fill="none" xmlns="http://www.w3.org/2000/svg">
<g id="Frame" clip-path="url(#clip0_922_2621)">
<path id="Vector" d="M107.739 75.2893V61.5653C107.739 54.495 101.983 48.7393 94.9129 48.7393C87.8425 48.7393 82.0868 54.495 82.0868 61.5653V75.2893C66.0317 81.154 69.9084 104.918 87.2172 105.174H102.609C119.911 104.918 123.8 81.1508 107.739 75.2893ZM97.4781 89.7827V94.9132C97.4781 96.3305 96.3302 97.4784 94.9129 97.4784C93.4956 97.4784 92.3477 96.3305 92.3477 94.9132V89.7827C88.9776 89.7282 88.9744 84.7068 92.3477 84.6523H97.4781C100.848 84.7068 100.851 89.7282 97.4781 89.7827ZM102.609 74.3914H87.2172V61.5653C87.2172 57.3231 90.6706 53.8697 94.9129 53.8697C99.1551 53.8697 102.609 57.3231 102.609 61.5653V74.3914Z" fill="#F5C800"/>
<path id="Vector_2" d="M138.522 35.9131H135.957C136.87 24.9019 129.005 17.0427 118 17.9566C118.994 8.58392 112.296 -0.025595 102.609 5.71788e-05H15.3913C6.90048 5.71788e-05 4.38239e-05 6.90049 4.38239e-05 15.3914V66.6957C-0.0224018 76.3698 8.5807 83.0939 17.9566 82.087C17.0427 93.0982 24.9083 100.957 35.9131 100.044C34.9159 109.416 41.6175 118.026 51.3044 118H138.522C147.013 118 153.913 111.1 153.913 102.609V51.3044C153.913 42.8135 147.013 35.9131 138.522 35.9131ZM33.3479 17.9566C24.857 17.9566 17.9566 24.857 17.9566 33.3479V76.9566H15.3913C9.72222 76.9566 5.13048 72.3648 5.13048 66.6957V15.3914C5.13048 9.72223 9.72222 5.13049 15.3913 5.13049H102.609C108.278 5.13049 112.87 9.72223 112.87 15.3914V17.9566H33.3479ZM148.783 102.609C148.783 108.278 144.191 112.87 138.522 112.87H51.3044C45.6353 112.87 41.0435 108.278 41.0435 102.609V51.3044C41.0435 45.6353 45.6353 41.0435 51.3044 41.0435H138.522C144.191 41.0435 148.783 45.6353 148.783 51.3044V102.609Z" fill="black"/>
</g>
<defs>
<clipPath id="clip0_922_2621">
<rect width="153.913" height="118" fill="white"/>
</clipPath>
</defs>
</svg>
