<svg width="221" height="93" viewBox="0 0 221 93" fill="none" xmlns="http://www.w3.org/2000/svg">
<g id="Group 284">
<g id="Rectangle 264" filter="url(#filter0_d_580_1494)">
<rect x="18" y="18" width="185" height="57" rx="10" fill="white"/>
</g>
<g id="Group 280">
<path id="Vector" d="M51.8884 58.8729V54.2283C56.8126 54.2283 60.6111 49.3733 58.7126 44.2357C58.3671 43.2821 57.8163 42.4161 57.0992 41.6989C56.382 40.9817 55.516 40.4309 54.5624 40.0855C53.4556 39.6693 52.2647 39.5268 51.091 39.6701C49.9173 39.8134 48.7956 40.2382 47.8215 40.9084C46.8473 41.5786 46.0496 42.4743 45.4962 43.5192C44.9428 44.5641 44.6502 45.7273 44.6432 46.9097H40C40 39.1687 47.5277 33.0465 55.7574 35.5807C57.526 36.1363 59.1341 37.111 60.4448 38.4219C61.7555 39.7329 62.7299 41.3412 63.2851 43.1098C65.8179 51.3438 59.6972 58.8729 51.8884 58.8729Z" fill="#0080FF"/>
<path id="Vector_2" d="M51.9591 54.2283H47.3159V49.6543H51.9591M47.3159 57.8177H43.7986V54.2283H47.3159V57.8177ZM43.7986 54.2283H40.8477V51.2732H43.7986M82.4202 41.9133C81.0839 40.998 79.3252 40.5007 77.3546 40.5007H73.0646V54.2226H77.3561C79.3261 54.2226 81.0147 53.7301 82.4216 52.7451C83.1901 52.186 83.7968 51.4335 84.1803 50.564C84.6041 49.6487 84.8131 48.5228 84.8131 47.3264C84.8131 46.1299 84.6026 45.0041 84.1803 44.1594C83.7565 43.1098 83.1943 42.4063 82.4202 41.9133ZM75.5974 42.8287H76.9337C78.4113 42.8287 79.6769 43.1112 80.6615 43.7441C81.7167 44.3769 82.2154 45.5804 82.2154 47.3334C82.2154 49.0865 81.6503 50.3592 80.6615 51.0627C79.7476 51.6277 78.5511 51.978 77.0029 51.978H75.5974V42.8287ZM87.8375 40.2959C87.642 40.2907 87.4475 40.3256 87.266 40.3985C87.0845 40.4714 86.9199 40.5807 86.7823 40.7197C86.622 40.8436 86.4936 41.004 86.4078 41.1875C86.3221 41.3711 86.2814 41.5725 86.2893 41.7749C86.2893 42.1668 86.4449 42.5426 86.722 42.8197C86.9991 43.0968 87.375 43.2525 87.7668 43.2525C88.1587 43.2525 88.5345 43.0968 88.8116 42.8197C89.0887 42.5426 89.2444 42.1668 89.2444 41.7749C89.2496 41.5794 89.2146 41.3849 89.1417 41.2034C89.0688 41.022 88.9596 40.8573 88.8206 40.7197C88.6102 40.4372 88.2556 40.2959 87.8318 40.2959M86.5605 44.5182H89.0226V54.1591H86.5704V44.5182M97.8259 45.3657C97.1196 44.7329 96.272 44.3105 95.3638 44.3105C94.7437 44.2968 94.128 44.4158 93.5577 44.6594C92.9874 44.903 92.4757 45.2657 92.0569 45.7231C91.1782 46.6538 90.6986 47.8914 90.7206 49.1712C90.7206 50.5089 91.1443 51.704 91.9919 52.6194C92.8395 53.5347 93.9611 53.9571 95.2988 53.9571C96.1596 53.9706 97.0006 53.6984 97.6903 53.183V53.3935C97.6903 54.1676 97.4798 54.806 97.0574 55.2298C96.6351 55.6536 96.0686 55.8627 95.2988 55.8627C94.1687 55.8627 93.4695 55.4389 92.6262 54.2438L90.931 55.8627L91.0017 55.9333C91.3534 56.4263 91.9156 56.9221 92.6191 57.4109C93.3226 57.8996 94.2365 58.1172 95.2917 58.1172C96.7693 58.1172 97.8951 57.6934 98.7384 56.7794C99.5817 55.8655 100.075 54.7382 100.075 53.2607V44.5182H97.6861V45.3657H97.8273M97.1945 51.0655C96.7707 51.5585 96.2057 51.7718 95.4994 51.7718C94.7931 51.7718 94.228 51.5613 93.8043 51.0655C93.3805 50.5697 93.1714 49.9354 93.1714 49.1656C93.1714 48.3957 93.396 47.7544 93.8198 47.2614C94.2436 46.7684 94.8086 46.5551 95.5149 46.5551C96.2212 46.5551 96.7862 46.7656 97.21 47.2614C97.6338 47.7572 97.8428 48.3915 97.8428 49.1613C97.8428 49.9312 97.6324 50.5739 97.21 51.0613M102.345 44.5167H104.807V54.1577H102.329V44.5182M103.526 40.2959C103.33 40.2911 103.136 40.326 102.955 40.3985C102.773 40.4711 102.608 40.5797 102.47 40.7179C102.332 40.8561 102.223 41.0209 102.151 41.2024C102.078 41.3838 102.043 41.5781 102.048 41.7735C102.048 42.1654 102.204 42.5412 102.481 42.8183C102.758 43.0954 103.134 43.2511 103.526 43.2511C103.918 43.2511 104.293 43.0954 104.57 42.8183C104.848 42.5412 105.003 42.1654 105.003 41.7735C105.008 41.578 104.973 41.3836 104.901 41.202C104.828 41.0205 104.719 40.8556 104.581 40.7174C104.442 40.5792 104.277 40.4705 104.096 40.3981C103.914 40.3256 103.72 40.2909 103.524 40.2959M110.065 41.9133H107.676V44.5182H106.263V46.6992H107.676V50.7109C107.676 51.9823 107.958 52.892 108.45 53.385C108.942 53.878 109.863 54.1591 111.053 54.1591C111.454 54.1707 111.854 54.147 112.25 54.0885H112.391V51.906L111.544 51.9766C110.979 51.9766 110.555 51.906 110.413 51.6941C110.203 51.4836 110.131 51.0613 110.131 50.4228V46.7698H112.383V44.5874H110.138L110.065 41.9133ZM123.712 40.5007H126.174V54.2226H123.714V40.5092M150.729 50.783C150.369 51.199 149.968 51.5777 149.532 51.9131C149.149 52.1454 148.709 52.2671 148.261 52.2648C147.931 52.2619 147.605 52.1911 147.304 52.0567C147.002 51.9223 146.732 51.7272 146.509 51.4836C146.016 50.9186 145.803 50.2872 145.803 49.4424C145.803 48.5977 146.014 47.9649 146.509 47.4013C146.723 47.1454 146.993 46.9424 147.298 46.8082C147.603 46.6739 147.935 46.6119 148.268 46.6272C149.042 46.6272 149.886 47.1201 150.589 47.9649L152.206 46.411C151.151 45.0733 149.815 44.4405 148.196 44.4405C146.86 44.4405 145.734 44.9335 144.749 45.918C143.828 46.8842 143.321 48.1724 143.337 49.5074C143.337 50.92 143.83 52.1815 144.749 53.0968C145.187 53.5726 145.72 53.9503 146.314 54.2049C146.908 54.4596 147.55 54.5855 148.196 54.5744C149.955 54.5744 151.362 53.8003 152.346 52.3933L150.729 50.7745M160.648 45.9194C160.278 45.4318 159.792 45.0435 159.235 44.7894C158.597 44.4937 157.899 44.3487 157.196 44.3656C155.859 44.3656 154.734 44.8586 153.889 45.8432C153.089 46.8666 152.667 48.1341 152.692 49.4326C152.692 50.9101 153.116 52.1066 154.029 53.0219C154.941 53.9373 156.068 54.4345 157.546 54.4345C159.163 54.4345 160.501 53.8017 161.556 52.464L161.627 52.3933L160.01 50.8395C159.868 51.05 159.658 51.1912 159.445 51.4045C159.245 51.6149 159.005 51.7827 158.738 51.8975C158.372 52.098 157.959 52.1956 157.542 52.18C156.929 52.1889 156.331 51.9897 155.847 51.615C155.423 51.2633 155.214 50.7675 155.14 50.1374H161.613V49.2221C161.629 48.598 161.533 47.9762 161.33 47.3857C161.227 46.8401 160.984 46.3308 160.624 45.9081M155.372 48.1768C155.48 47.7509 155.698 47.361 156.005 47.0467C156.171 46.881 156.37 46.7516 156.589 46.6667C156.808 46.5819 157.042 46.5434 157.276 46.5537C157.841 46.5537 158.331 46.695 158.612 47.0467C158.895 47.3292 159.036 47.753 159.105 48.1768H155.372ZM170.005 45.2908C169.299 44.658 168.246 44.3755 166.981 44.3755C166.207 44.3974 165.444 44.5651 164.732 44.8699C164.099 45.2216 163.46 45.7174 163.114 46.4237L164.668 47.9013C165.301 46.8461 166.005 46.4887 166.989 46.4887C167.45 46.4765 167.9 46.6265 168.26 46.9125C168.421 47.0364 168.549 47.1968 168.635 47.3803C168.721 47.5639 168.761 47.7653 168.753 47.9677V48.4607C168.187 48.2696 167.593 48.1741 166.995 48.1782C165.799 48.1782 164.814 48.4607 164.04 49.0257C163.266 49.5908 162.91 50.4383 162.91 51.4187C162.91 52.334 163.192 53.0375 163.824 53.5997C164.455 54.1619 165.236 54.3738 166.144 54.3738C167.053 54.3738 167.903 54.0221 168.748 53.385V54.1591H171.139V47.9663C171.139 46.8362 170.788 45.9251 170.009 45.2923M165.718 50.4991C166 50.2886 166.351 50.2165 166.848 50.2165C167.472 50.2376 168.09 50.3563 168.677 50.5683V51.4836C168.095 51.996 167.342 52.2721 166.567 52.2577C166.143 52.2577 165.793 52.1871 165.578 51.9752C165.363 51.7633 165.226 51.5514 165.226 51.2689C165.251 51.113 165.308 50.9639 165.392 50.8308C165.477 50.6976 165.588 50.5833 165.719 50.4948M180.486 45.4321C179.78 44.658 178.869 44.302 177.673 44.302C176.688 44.302 175.914 44.5845 175.352 45.1496V44.5845H172.959V54.2255H175.421V48.8802C175.421 48.1739 175.562 47.5425 175.914 47.1216C176.086 46.916 176.303 46.7523 176.547 46.6427C176.792 46.5331 177.058 46.4804 177.326 46.4887C177.568 46.477 177.809 46.522 178.029 46.6201C178.25 46.7182 178.445 46.8667 178.598 47.0538C178.928 47.5036 179.101 48.0496 179.091 48.6076V54.2368H181.542V48.5991C181.471 47.2619 181.119 46.2062 180.486 45.4321ZM120.69 45.2908C119.984 44.658 118.931 44.3755 117.666 44.3755C116.891 44.3966 116.127 44.5639 115.414 44.8685C114.781 45.2202 114.143 45.716 113.797 46.4223L115.35 47.8999C115.983 46.8447 116.687 46.4873 117.671 46.4873C118.132 46.4751 118.582 46.6251 118.943 46.9111C119.103 47.035 119.231 47.1954 119.317 47.3789C119.403 47.5625 119.444 47.7638 119.436 47.9663V48.4593C118.869 48.2682 118.275 48.1727 117.677 48.1768C116.481 48.1768 115.496 48.4593 114.722 49.0243C113.948 49.5894 113.592 50.4369 113.592 51.4172C113.592 52.3326 113.874 53.0361 114.506 53.5983C115.137 54.1605 115.918 54.3724 116.827 54.3724C117.735 54.3724 118.585 54.0206 119.43 53.3836V54.1577H121.822V47.9663C121.822 46.8362 121.398 45.9251 120.691 45.2923M116.329 50.4991C116.612 50.2886 116.962 50.2165 117.459 50.2165C118.084 50.2376 118.701 50.3563 119.289 50.5683V51.4836C118.707 51.996 117.954 52.2721 117.178 52.2577C116.755 52.2577 116.404 52.1871 116.19 51.9752C115.975 51.7633 115.838 51.5514 115.838 51.2689C115.943 50.9776 116.111 50.7133 116.331 50.4948M134.977 54.436C133.585 54.4365 132.224 54.0242 131.066 53.2513C129.909 52.4783 129.006 51.3794 128.473 50.0935C127.94 48.8076 127.8 47.3925 128.072 46.0272C128.343 44.6619 129.013 43.4076 129.997 42.4231C130.981 41.4386 132.235 40.7681 133.6 40.4963C134.965 40.2246 136.381 40.3638 137.667 40.8963C138.953 41.4289 140.052 42.3309 140.825 43.4883C141.599 44.6457 142.012 46.0064 142.012 47.3984C142.005 49.2623 141.262 51.0481 139.944 52.3663C138.626 53.6846 136.841 54.4285 134.977 54.436ZM134.977 42.7552C134.072 42.7538 133.187 43.0208 132.434 43.5225C131.681 44.0241 131.094 44.7378 130.746 45.5733C130.399 46.4088 130.307 47.3285 130.483 48.2162C130.658 49.1038 131.093 49.9195 131.732 50.56C132.371 51.2005 133.186 51.637 134.073 51.8144C134.961 51.9918 135.881 51.902 136.717 51.5565C137.553 51.2109 138.268 50.6251 138.771 49.8732C139.274 49.1212 139.543 48.2369 139.544 47.332C139.545 46.7311 139.428 46.1359 139.199 45.5804C138.969 45.025 138.632 44.5203 138.208 44.0953C137.783 43.6704 137.278 43.3335 136.723 43.104C136.167 42.8745 135.572 42.7569 134.971 42.7581" fill="#0080FF"/>
</g>
</g>
<defs>
<filter id="filter0_d_580_1494" x="0" y="0" width="221" height="93" filterUnits="userSpaceOnUse" color-interpolation-filters="sRGB">
<feFlood flood-opacity="0" result="BackgroundImageFix"/>
<feColorMatrix in="SourceAlpha" type="matrix" values="0 0 0 0 0 0 0 0 0 0 0 0 0 0 0 0 0 0 127 0" result="hardAlpha"/>
<feOffset/>
<feGaussianBlur stdDeviation="9"/>
<feComposite in2="hardAlpha" operator="out"/>
<feColorMatrix type="matrix" values="0 0 0 0 0 0 0 0 0 0 0 0 0 0 0 0 0 0 0.12 0"/>
<feBlend mode="normal" in2="BackgroundImageFix" result="effect1_dropShadow_580_1494"/>
<feBlend mode="normal" in="SourceGraphic" in2="effect1_dropShadow_580_1494" result="shape"/>
</filter>
</defs>
</svg>
