<svg width="235" height="246" viewBox="0 0 235 246" fill="none" xmlns="http://www.w3.org/2000/svg">
<g id="Frame" clip-path="url(#clip0_328_24496)">
<g id="Group">
<g id="Group_2">
<g id="Group_3">
<path id="Vector" d="M81.5465 142.277V31.6512L125.501 20.1395L133.599 15.4617C135.457 14.3875 138.7 14.5246 140.848 15.7626L148.401 20.1243L171.846 20.1128L164.905 126.906C164.959 127.634 164.555 128.335 163.66 128.849L119.798 161.963C117.94 163.037 114.696 162.9 112.549 161.662L83.3169 144.776C82.0757 144.063 81.478 143.138 81.5465 142.277Z" fill="#496AAE"/>
<path id="Vector_2" d="M136.961 14.7456C138.32 14.7799 139.732 15.1227 140.848 15.7665L148.401 20.1281L171.846 20.1167V131.039C171.899 131.767 171.496 132.468 170.601 132.982L119.794 161.967C118.899 162.481 117.688 162.717 116.428 162.687L115.903 51.071L136.961 14.7456Z" fill="#E3E7F2"/>
<path id="Vector_3" d="M119.326 162.195C117.723 162.881 115.404 162.843 113.531 162.131V49.7529H119.326V162.195Z" fill="#728DC1"/>
<path id="Vector_4" d="M119.794 51.0863L170.601 22.0976C172.459 21.0234 172.227 19.1492 170.079 17.9112L140.848 1.02459C138.7 -0.213426 135.457 -0.35056 133.599 0.723659L82.7915 29.7085C80.9336 30.7828 81.1659 32.6569 83.3131 33.8949L112.545 50.7815C114.692 52.0233 117.936 52.1567 119.794 51.0863Z" fill="#E3E7F2"/>
<path id="Vector_5" d="M83.3131 31.8418L112.545 48.7283C114.692 49.9663 117.936 50.1035 119.794 49.0293L170.601 20.0406C171.016 19.8006 171.321 19.5225 171.526 19.2178C172.166 20.2463 171.876 21.3586 170.601 22.0976L119.794 51.0825C117.936 52.1567 114.692 52.0196 112.545 50.7815L83.3131 33.895C81.6455 32.9312 81.1392 31.5865 81.8664 30.5314C82.1557 31.0037 82.6392 31.4532 83.3131 31.8418Z" fill="white"/>
<g id="Group_4">
<path id="Vector_6" d="M118.358 39.3384L152.186 19.7206C153.054 19.2178 152.947 18.3416 151.942 17.7626L138.263 9.86215C137.257 9.28313 135.738 9.21838 134.87 9.7212L101.043 29.339C100.175 29.8419 100.282 30.718 101.287 31.297L114.966 39.1975C115.968 39.7765 117.487 39.8412 118.358 39.3384Z" fill="#1D4594"/>
<g id="Group_5">
<path id="Vector_7" d="M136.618 20.6003L138.579 19.469C138.7 19.4004 138.685 19.2785 138.544 19.1985L136.652 18.1052C136.515 18.0252 136.302 18.0176 136.184 18.0862L134.223 19.2175C134.101 19.2861 134.117 19.408 134.257 19.488L136.15 20.5813C136.287 20.6613 136.496 20.6689 136.618 20.6003Z" fill="#E3E7F2"/>
<path id="Vector_8" d="M130.069 24.3677L132.03 23.2363C132.152 23.1677 132.137 23.0458 131.996 22.9658L130.104 21.8726C129.966 21.7926 129.753 21.785 129.635 21.8535L127.675 22.9849C127.553 23.0534 127.568 23.1753 127.709 23.2553L129.601 24.3486C129.738 24.4286 129.947 24.4362 130.069 24.3677Z" fill="#E3E7F2"/>
<path id="Vector_9" d="M123.521 28.135L125.482 27.0036C125.603 26.9351 125.588 26.8132 125.447 26.7332L123.555 25.6399C123.418 25.5599 123.205 25.5523 123.087 25.6209L121.126 26.7522C121.004 26.8208 121.02 26.9427 121.16 27.0227L123.053 28.1159C123.19 28.1959 123.399 28.2036 123.521 28.135Z" fill="#ED1C24"/>
<path id="Vector_10" d="M116.973 31.9026L118.933 30.7712C119.055 30.7026 119.04 30.5807 118.899 30.5007L117.007 29.4075C116.866 29.3275 116.657 29.3199 116.539 29.3884L114.578 30.5198C114.456 30.5884 114.471 30.7103 114.612 30.7903L116.504 31.8835C116.641 31.9635 116.855 31.9711 116.973 31.9026Z" fill="#E3E7F2"/>
</g>
<path id="Vector_11" d="M152.182 19.7205L152.14 19.7433C152.075 19.6976 152.014 19.6481 151.938 19.6024L138.259 11.7019C137.254 11.1229 135.735 11.0582 134.867 11.561L101.081 31.156C100.282 30.5808 100.236 29.7999 101.04 29.3351L134.867 9.7173C135.735 9.21447 137.254 9.27923 138.259 9.85824L151.938 17.7587C152.943 18.3377 153.05 19.2177 152.182 19.7205Z" fill="#728DC1"/>
</g>
</g>
<g id="Group_6">
<path id="Vector_12" d="M106.838 73.0011L87.6077 61.9846C86.5264 61.3599 85.647 59.6838 85.647 58.2401V51.3605C85.647 49.9168 86.5226 49.254 87.6077 49.8787L106.838 60.8952C107.919 61.5199 108.799 63.196 108.799 64.6397V71.5193C108.799 72.963 107.919 73.6258 106.838 73.0011Z" fill="#1D4594"/>
<path id="Vector_13" d="M86.6521 49.6692C86.3513 49.9549 86.1609 50.4425 86.1609 51.1015V57.9811C86.1609 59.4248 87.0366 61.1009 88.1217 61.7256L107.352 72.742C107.698 72.9439 108.022 72.9973 108.304 72.9477C107.946 73.2868 107.424 73.3363 106.838 72.9973L87.6077 61.9808C86.5264 61.3561 85.647 59.68 85.647 58.2363V51.3567C85.647 50.3777 86.0543 49.7682 86.6521 49.6692Z" fill="white"/>
<g id="Group_7">
<path id="Vector_14" d="M101.051 65.5274L99.2882 64.5065C99.0522 64.3694 98.8618 64.0037 98.8618 63.6913V61.8057C98.8618 61.4895 99.0522 61.3448 99.2882 61.4819L101.051 62.5028C101.287 62.64 101.477 63.0056 101.477 63.318V65.2036C101.481 65.5198 101.287 65.6645 101.051 65.5274Z" fill="#496AAE"/>
<path id="Vector_15" d="M95.1535 62.118L93.3908 61.0971C93.1547 60.9599 92.9644 60.5943 92.9644 60.2819V58.3963C92.9644 58.0801 93.1547 57.9354 93.3908 58.0725L95.1535 59.0934C95.3895 59.2305 95.5799 59.5962 95.5799 59.9086V61.7942C95.5799 62.1103 95.3895 62.2551 95.1535 62.118Z" fill="white"/>
</g>
</g>
<g id="Group_8">
<path id="Vector_16" d="M106.838 122.728L87.6077 111.711C86.5264 111.086 85.647 109.41 85.647 107.967V101.087C85.647 99.6434 86.5226 98.9805 87.6077 99.6053L106.838 110.622C107.919 111.246 108.799 112.923 108.799 114.366V121.246C108.799 122.69 107.919 123.352 106.838 122.728Z" fill="#1D4594"/>
<path id="Vector_17" d="M86.6521 99.3918C86.3513 99.6775 86.1609 100.165 86.1609 100.824V107.704C86.1609 109.147 87.0366 110.824 88.1217 111.448L107.352 122.465C107.698 122.667 108.022 122.72 108.304 122.67C107.946 123.009 107.424 123.059 106.838 122.72L87.6077 111.703C86.5264 111.079 85.647 109.403 85.647 107.959V101.079C85.647 100.1 86.0543 99.4947 86.6521 99.3918Z" fill="white"/>
<g id="Group_9">
<path id="Vector_18" d="M101.051 115.254L99.2882 114.233C99.0522 114.096 98.8618 113.73 98.8618 113.418V111.532C98.8618 111.216 99.0522 111.071 99.2882 111.208L101.051 112.229C101.287 112.367 101.477 112.732 101.477 113.045V114.93C101.481 115.243 101.287 115.387 101.051 115.254Z" fill="#496AAE"/>
<path id="Vector_19" d="M95.1535 111.845L93.3908 110.824C93.1547 110.687 92.9644 110.321 92.9644 110.008V108.123C92.9644 107.807 93.1547 107.662 93.3908 107.799L95.1535 108.82C95.3895 108.957 95.5799 109.323 95.5799 109.635V111.521C95.5799 111.837 95.3895 111.982 95.1535 111.845Z" fill="white"/>
</g>
</g>
<g id="Group_10">
<path id="Vector_20" d="M106.838 147.591L87.6077 136.574C86.5264 135.949 85.647 134.273 85.647 132.83V125.95C85.647 124.506 86.5226 123.844 87.6077 124.468L106.838 135.485C107.919 136.109 108.799 137.786 108.799 139.229V146.109C108.799 147.553 107.919 148.215 106.838 147.591Z" fill="#1D4594"/>
<path id="Vector_21" d="M86.6521 124.255C86.3513 124.541 86.1609 125.028 86.1609 125.687V132.567C86.1609 134.01 87.0366 135.687 88.1217 136.311L107.352 147.328C107.698 147.53 108.022 147.583 108.304 147.533C107.946 147.872 107.424 147.922 106.838 147.583L87.6077 136.567C86.5264 135.942 85.647 134.266 85.647 132.822V125.942C85.647 124.963 86.0543 124.358 86.6521 124.255Z" fill="white"/>
<g id="Group_11">
<path id="Vector_22" d="M101.051 140.113L99.2882 139.092C99.0522 138.955 98.8618 138.589 98.8618 138.277V136.391C98.8618 136.075 99.0522 135.93 99.2882 136.068L101.051 137.089C101.287 137.226 101.477 137.591 101.477 137.904V139.789C101.481 140.105 101.287 140.25 101.051 140.113Z" fill="#496AAE"/>
<path id="Vector_23" d="M95.1535 136.708L93.3908 135.687C93.1547 135.55 92.9644 135.184 92.9644 134.871V132.986C92.9644 132.67 93.1547 132.525 93.3908 132.662L95.1535 133.683C95.3895 133.82 95.5799 134.186 95.5799 134.498V136.384C95.5799 136.7 95.3895 136.845 95.1535 136.708Z" fill="white"/>
</g>
</g>
<g id="Group_12">
<path id="Vector_24" d="M106.838 97.8644L87.6077 86.8479C86.5264 86.2232 85.647 84.5471 85.647 83.1034V76.2238C85.647 74.7801 86.5226 74.1173 87.6077 74.742L106.838 85.7584C107.919 86.3832 108.799 88.0593 108.799 89.503V96.3825C108.799 97.8263 107.919 98.4891 106.838 97.8644Z" fill="#1D4594"/>
<path id="Vector_25" d="M86.6521 74.5286C86.3513 74.8143 86.1609 75.3019 86.1609 75.9609V82.8404C86.1609 84.2842 87.0366 85.9602 88.1217 86.585L107.352 97.6014C107.698 97.8033 108.022 97.8566 108.304 97.8071C107.946 98.1462 107.424 98.1957 106.838 97.8567L87.6077 86.8402C86.5264 86.2155 85.647 84.5394 85.647 83.0957V76.2161C85.647 75.2409 86.0543 74.6314 86.6521 74.5286Z" fill="white"/>
<g id="Group_13">
<path id="Vector_26" d="M101.051 90.3907L99.2882 89.3698C99.0522 89.2326 98.8618 88.867 98.8618 88.5546V86.669C98.8618 86.3528 99.0522 86.2081 99.2882 86.3452L101.051 87.3661C101.287 87.5032 101.477 87.8689 101.477 88.1813V90.0669C101.481 90.3792 101.287 90.524 101.051 90.3907Z" fill="#496AAE"/>
<path id="Vector_27" d="M95.1535 86.9812L93.3908 85.9604C93.1547 85.8232 92.9644 85.4575 92.9644 85.1452V83.2596C92.9644 82.9434 93.1547 82.7986 93.3908 82.9358L95.1535 83.9567C95.3895 84.0938 95.5799 84.4595 95.5799 84.7719V86.6575C95.5799 86.9736 95.3895 87.1184 95.1535 86.9812Z" fill="white"/>
</g>
</g>
</g>
<g id="Group_14">
<path id="Vector_28" d="M123.495 65.9577L167.864 40.325C168.857 39.7498 169.661 38.2108 169.661 36.889V28.4248C169.661 27.0991 168.857 26.4896 167.864 27.0648L123.495 52.6975C122.501 53.2727 121.698 54.8117 121.698 56.1335V64.5978C121.698 65.9234 122.501 66.5329 123.495 65.9577Z" fill="#728DC1"/>
<path id="Vector_29" opacity="0.4" d="M124.77 62.9902L166.592 38.8317C167.095 38.5422 167.506 37.7613 167.506 37.087V30.7217C167.506 30.0513 167.098 29.7389 166.592 30.0322L124.77 54.1907C124.267 54.4802 123.856 55.2611 123.856 55.9354V62.3007C123.856 62.9711 124.264 63.2797 124.77 62.9902Z" fill="#E3E7F2"/>
<path id="Vector_30" d="M157.874 40.6488L164.114 37.0414C164.605 36.7596 165.001 36.0015 165.001 35.3463C165.001 34.6949 164.605 34.394 164.114 34.6759L157.874 38.2833C157.383 38.5652 156.987 39.3232 156.987 39.9784C156.99 40.6298 157.386 40.9307 157.874 40.6488Z" fill="#E3E7F2"/>
<path id="Vector_31" d="M152.555 42.5382C152.555 43.1896 153.012 43.4563 153.579 43.1287C154.143 42.8011 154.603 42.0087 154.603 41.3573C154.603 40.706 154.146 40.4393 153.579 40.7669C153.016 41.0907 152.555 41.8868 152.555 42.5382Z" fill="#1D4594"/>
<path id="Vector_32" d="M148.946 44.622C148.946 45.2733 149.403 45.54 149.97 45.2124C150.533 44.8848 150.994 44.0925 150.994 43.4411C150.994 42.7897 150.537 42.523 149.97 42.8506C149.403 43.1782 148.946 43.9706 148.946 44.622Z" fill="#1D4594"/>
<path id="Vector_33" d="M145.34 46.7094C145.34 47.3608 145.797 47.6274 146.364 47.2998C146.932 46.9722 147.389 46.1799 147.389 45.5285C147.389 44.8771 146.932 44.6104 146.364 44.938C145.797 45.2618 145.34 46.0542 145.34 46.7094Z" fill="#E3E7F2"/>
<path id="Vector_34" d="M141.731 48.7931C141.731 49.4445 142.188 49.7111 142.755 49.3835C143.319 49.0559 143.779 48.2636 143.779 47.6122C143.779 46.9608 143.322 46.6942 142.755 47.0218C142.188 47.3456 141.731 48.1379 141.731 48.7931Z" fill="#1D4594"/>
<path id="Vector_35" d="M126.529 59.4437L128.63 58.2285C128.943 58.0457 129.198 57.5619 129.198 57.1429V54.9182C129.198 54.4992 128.943 54.3049 128.63 54.4878L126.529 55.7029C126.217 55.8858 125.961 56.3696 125.961 56.7886V59.0132C125.958 59.436 126.213 59.6265 126.529 59.4437Z" fill="#1D4594"/>
</g>
<g id="Group_15">
<path id="Vector_36" d="M123.495 80.8863L167.864 55.2536C168.857 54.6784 169.661 53.1394 169.661 51.8176V43.3496C169.661 42.0239 168.857 41.4144 167.864 41.9896L123.495 67.6223C122.501 68.1975 121.698 69.7365 121.698 71.0583V79.5226C121.698 80.8482 122.501 81.4577 123.495 80.8863Z" fill="#728DC1"/>
<path id="Vector_37" opacity="0.4" d="M124.77 77.9189L166.592 53.7604C167.095 53.4709 167.506 52.69 167.506 52.0157V45.6504C167.506 44.98 167.098 44.6676 166.592 44.9609L124.77 69.1194C124.267 69.4089 123.856 70.1898 123.856 70.8641V77.2294C123.856 77.8998 124.264 78.2084 124.77 77.9189Z" fill="#E3E7F2"/>
<path id="Vector_38" d="M157.874 55.5736L164.114 51.9662C164.605 51.6844 165.001 50.9263 165.001 50.2711C165.001 49.6197 164.605 49.3188 164.114 49.6007L157.874 53.2081C157.383 53.49 156.987 54.248 156.987 54.9032C156.99 55.5584 157.386 55.8593 157.874 55.5736Z" fill="#E3E7F2"/>
<path id="Vector_39" d="M152.555 57.4667C152.555 58.1181 153.012 58.3847 153.579 58.0571C154.143 57.7295 154.603 56.9372 154.603 56.2858C154.603 55.6344 154.146 55.3678 153.579 55.6954C153.016 56.0192 152.555 56.8115 152.555 57.4667Z" fill="white"/>
<path id="Vector_40" d="M148.946 59.5504C148.946 60.2018 149.403 60.4685 149.97 60.1409C150.533 59.8133 150.994 59.0209 150.994 58.3695C150.994 57.7182 150.537 57.4515 149.97 57.7791C149.406 58.1029 148.946 58.899 148.946 59.5504Z" fill="#1D4594"/>
<path id="Vector_41" d="M145.34 61.6342C145.34 62.2856 145.797 62.5522 146.364 62.2246C146.928 61.897 147.389 61.1047 147.389 60.4533C147.389 59.8019 146.932 59.5352 146.364 59.8628C145.797 60.1904 145.34 60.9828 145.34 61.6342Z" fill="#E3E7F2"/>
<path id="Vector_42" d="M141.731 63.7216C141.731 64.373 142.188 64.6396 142.755 64.312C143.319 63.9844 143.779 63.1921 143.779 62.5407C143.779 61.8893 143.322 61.6227 142.755 61.9503C142.188 62.274 141.731 63.0664 141.731 63.7216Z" fill="#1D4594"/>
<path id="Vector_43" d="M126.529 74.3724L128.63 73.1572C128.943 72.9744 129.198 72.4906 129.198 72.0716V69.8469C129.198 69.4279 128.943 69.2336 128.63 69.4165L126.529 70.6317C126.217 70.8145 125.961 71.2983 125.961 71.7173V73.9419C125.958 74.361 126.213 74.5552 126.529 74.3724Z" fill="#1D4594"/>
</g>
<g id="Group_16">
<path id="Vector_44" d="M123.495 95.8112L167.864 70.1785C168.857 69.6033 169.661 68.0643 169.661 66.7425V58.2783C169.661 56.9526 168.857 56.3432 167.864 56.9184L123.495 82.5511C122.501 83.1263 121.698 84.6652 121.698 85.987V94.4513C121.698 95.7769 122.501 96.3864 123.495 95.8112Z" fill="#728DC1"/>
<path id="Vector_45" opacity="0.4" d="M124.77 92.8437L166.592 68.6852C167.095 68.3957 167.506 67.6148 167.506 66.9405V60.5752C167.506 59.9048 167.098 59.5924 166.592 59.8857L124.77 84.0442C124.267 84.3337 123.856 85.1146 123.856 85.7889V92.1542C123.856 92.8284 124.264 93.137 124.77 92.8437Z" fill="#E3E7F2"/>
<path id="Vector_46" d="M157.874 70.5024L164.114 66.895C164.605 66.6131 165.001 65.855 165.001 65.1998C165.001 64.5484 164.605 64.2475 164.114 64.5294L157.874 68.1368C157.383 68.4187 156.987 69.1767 156.987 69.8319C156.99 70.4871 157.386 70.7842 157.874 70.5024Z" fill="#E3E7F2"/>
<path id="Vector_47" d="M152.555 72.3917C152.555 73.0431 153.012 73.3098 153.579 72.9822C154.143 72.6546 154.603 71.8622 154.603 71.2109C154.603 70.5595 154.146 70.2928 153.579 70.6204C153.016 70.948 152.555 71.7403 152.555 72.3917Z" fill="white"/>
<path id="Vector_48" d="M148.946 74.4791C148.946 75.1305 149.403 75.3972 149.97 75.0696C150.537 74.742 150.994 73.9496 150.994 73.2983C150.994 72.6469 150.537 72.3802 149.97 72.7078C149.406 73.0316 148.946 73.8239 148.946 74.4791Z" fill="#1D4594"/>
<path id="Vector_49" d="M145.34 76.5629C145.34 77.2143 145.797 77.4809 146.364 77.1533C146.932 76.8257 147.389 76.0334 147.389 75.382C147.389 74.7306 146.932 74.464 146.364 74.7916C145.797 75.1153 145.34 75.9115 145.34 76.5629Z" fill="#E3E7F2"/>
<path id="Vector_50" d="M141.731 78.6466C141.731 79.298 142.188 79.5647 142.755 79.2371C143.319 78.9095 143.779 78.1171 143.779 77.4657C143.779 76.8144 143.322 76.5477 142.755 76.8753C142.188 77.2029 141.731 77.9952 141.731 78.6466Z" fill="#1D4594"/>
<path id="Vector_51" d="M126.529 89.3011L128.63 88.0859C128.943 87.9031 129.198 87.4193 129.198 87.0003V84.7757C129.198 84.3566 128.943 84.1624 128.63 84.3452L126.529 85.5604C126.217 85.7432 125.961 86.227 125.961 86.646V88.8706C125.958 89.2897 126.213 89.4801 126.529 89.3011Z" fill="#1D4594"/>
</g>
<g id="Group_17">
<path id="Vector_52" d="M123.495 110.74L167.864 85.107C168.857 84.5318 169.661 82.9928 169.661 81.671V73.2067C169.661 71.8811 168.857 71.2716 167.864 71.8468L123.495 97.4795C122.501 98.0547 121.698 99.5937 121.698 100.916V109.38C121.698 110.705 122.501 111.315 123.495 110.74Z" fill="#728DC1"/>
<path id="Vector_53" opacity="0.4" d="M124.77 107.772L166.592 83.6137C167.095 83.3241 167.506 82.5432 167.506 81.869V75.5037C167.506 74.8332 167.098 74.5209 166.592 74.8142L124.77 98.9727C124.267 99.2622 123.856 100.043 123.856 100.717V107.083C123.856 107.753 124.264 108.062 124.77 107.772Z" fill="#E3E7F2"/>
<path id="Vector_54" d="M157.874 85.4308L164.114 81.8234C164.605 81.5415 165.001 80.7835 165.001 80.1283C165.001 79.4769 164.605 79.176 164.114 79.4579L157.874 83.0652C157.383 83.3471 156.987 84.1052 156.987 84.7604C156.99 85.4118 157.386 85.7127 157.874 85.4308Z" fill="#E3E7F2"/>
<path id="Vector_55" d="M152.555 87.3202C152.555 87.9716 153.012 88.2382 153.579 87.9106C154.143 87.583 154.603 86.7907 154.603 86.1393C154.603 85.4879 154.146 85.2213 153.579 85.5489C153.016 85.8765 152.555 86.6688 152.555 87.3202Z" fill="#1D4594"/>
<path id="Vector_56" d="M148.946 89.4039C148.946 90.0553 149.403 90.322 149.97 89.9944C150.533 89.6668 150.994 88.8745 150.994 88.2231C150.994 87.5717 150.537 87.305 149.97 87.6326C149.406 87.9602 148.946 88.7526 148.946 89.4039Z" fill="#1D4594"/>
<path id="Vector_57" d="M145.34 91.4913C145.34 92.1427 145.797 92.4094 146.364 92.0818C146.928 91.7542 147.389 90.9619 147.389 90.3105C147.389 89.6591 146.932 89.3924 146.364 89.72C145.797 90.0476 145.34 90.8361 145.34 91.4913Z" fill="#E3E7F2"/>
<path id="Vector_58" d="M141.731 93.5751C141.731 94.2265 142.188 94.4931 142.755 94.1655C143.319 93.8379 143.779 93.0456 143.779 92.3942C143.779 91.7428 143.322 91.4762 142.755 91.8038C142.188 92.1276 141.731 92.9237 141.731 93.5751Z" fill="#1D4594"/>
<path id="Vector_59" d="M126.529 104.23L128.63 103.014C128.943 102.832 129.198 102.348 129.198 101.929V99.7041C129.198 99.2851 128.943 99.0908 128.63 99.2737L126.529 100.489C126.217 100.672 125.961 101.155 125.961 101.574V103.799C125.958 104.218 126.213 104.409 126.529 104.23Z" fill="#E3E7F2"/>
</g>
<g id="Group_18">
<path id="Vector_60" d="M123.495 125.668L167.864 100.036C168.857 99.4605 169.661 97.9215 169.661 96.5997V88.1354C169.661 86.8098 168.857 86.2003 167.864 86.7755L123.495 112.408C122.501 112.983 121.698 114.522 121.698 115.844V124.308C121.698 125.634 122.501 126.24 123.495 125.668Z" fill="#728DC1"/>
<path id="Vector_61" opacity="0.4" d="M124.77 122.701L166.592 98.5424C167.095 98.2529 167.506 97.472 167.506 96.7977V90.4324C167.506 89.762 167.098 89.4496 166.592 89.7429L124.77 113.901C124.267 114.191 123.856 114.972 123.856 115.646V122.011C123.856 122.682 124.264 122.99 124.77 122.701Z" fill="#E3E7F2"/>
<path id="Vector_62" d="M157.874 100.36L164.114 96.7521C164.605 96.4702 165.001 95.7122 165.001 95.057C165.001 94.4056 164.605 94.1047 164.114 94.3866L157.874 97.994C157.383 98.2758 156.987 99.0339 156.987 99.6891C156.99 100.34 157.386 100.641 157.874 100.36Z" fill="#E3E7F2"/>
<path id="Vector_63" d="M152.555 102.249C152.555 102.9 153.012 103.167 153.579 102.839C154.143 102.512 154.603 101.719 154.603 101.068C154.603 100.417 154.146 100.15 153.579 100.478C153.016 100.801 152.555 101.598 152.555 102.249Z" fill="#1D4594"/>
<path id="Vector_64" d="M148.946 104.333C148.946 104.984 149.403 105.251 149.97 104.923C150.533 104.595 150.994 103.803 150.994 103.152C150.994 102.5 150.537 102.234 149.97 102.561C149.406 102.889 148.946 103.681 148.946 104.333Z" fill="white"/>
<path id="Vector_65" d="M145.34 106.416C145.34 107.068 145.797 107.334 146.364 107.007C146.928 106.679 147.389 105.887 147.389 105.235C147.389 104.584 146.932 104.317 146.364 104.645C145.797 104.972 145.34 105.765 145.34 106.416Z" fill="#E3E7F2"/>
<path id="Vector_66" d="M141.731 108.504C141.731 109.155 142.188 109.422 142.755 109.094C143.319 108.767 143.779 107.974 143.779 107.323C143.779 106.672 143.322 106.405 142.755 106.732C142.188 107.056 141.731 107.849 141.731 108.504Z" fill="white"/>
<path id="Vector_67" d="M126.529 119.155L128.63 117.939C128.943 117.757 129.198 117.273 129.198 116.854V114.629C129.198 114.21 128.943 114.016 128.63 114.199L126.529 115.414C126.217 115.597 125.961 116.08 125.961 116.5V118.724C125.958 119.143 126.213 119.337 126.529 119.155Z" fill="#E3E7F2"/>
</g>
<g id="Group_19">
<path id="Vector_68" d="M123.495 140.597L167.864 114.964C168.857 114.389 169.661 112.85 169.661 111.528V103.064C169.661 101.738 168.857 101.129 167.864 101.704L123.495 127.337C122.501 127.912 121.698 129.451 121.698 130.773V139.237C121.698 140.559 122.501 141.168 123.495 140.597Z" fill="#728DC1"/>
<path id="Vector_69" opacity="0.4" d="M124.77 137.626L166.592 113.467C167.095 113.178 167.506 112.397 167.506 111.723V105.357C167.506 104.687 167.098 104.374 166.592 104.668L124.77 128.83C124.267 129.12 123.856 129.9 123.856 130.575V136.94C123.856 137.61 124.264 137.919 124.77 137.626Z" fill="#E3E7F2"/>
<path id="Vector_70" d="M157.874 115.284L164.114 111.681C164.605 111.399 165.001 110.641 165.001 109.985C165.001 109.334 164.605 109.033 164.114 109.315L157.874 112.919C157.383 113.201 156.987 113.959 156.987 114.614C156.99 115.269 157.386 115.57 157.874 115.284Z" fill="#E3E7F2"/>
<path id="Vector_71" d="M152.555 117.177C152.555 117.829 153.012 118.095 153.579 117.768C154.143 117.44 154.603 116.648 154.603 115.997C154.603 115.345 154.146 115.078 153.579 115.406C153.016 115.73 152.555 116.522 152.555 117.177Z" fill="#1D4594"/>
<path id="Vector_72" d="M148.946 119.261C148.946 119.913 149.403 120.179 149.97 119.852C150.533 119.524 150.994 118.732 150.994 118.08C150.994 117.429 150.537 117.162 149.97 117.49C149.406 117.814 148.946 118.61 148.946 119.261Z" fill="#1D4594"/>
<path id="Vector_73" d="M145.34 121.345C145.34 121.996 145.797 122.263 146.364 121.935C146.928 121.607 147.389 120.815 147.389 120.164C147.389 119.512 146.932 119.246 146.364 119.573C145.797 119.897 145.34 120.693 145.34 121.345Z" fill="#E3E7F2"/>
<path id="Vector_74" d="M141.731 123.428C141.731 124.08 142.188 124.346 142.755 124.019C143.319 123.691 143.779 122.899 143.779 122.247C143.779 121.596 143.322 121.329 142.755 121.657C142.188 121.985 141.731 122.777 141.731 123.428Z" fill="#1D4594"/>
<path id="Vector_75" d="M126.529 134.083L128.63 132.868C128.943 132.685 129.198 132.201 129.198 131.782V129.558C129.198 129.139 128.943 128.944 128.63 129.127L126.529 130.342C126.217 130.525 125.961 131.009 125.961 131.428V133.653C125.958 134.072 126.213 134.266 126.529 134.083Z" fill="#1D4594"/>
</g>
<g id="Group_20">
<path id="Vector_76" d="M123.495 155.522L167.864 129.889C168.857 129.314 169.661 127.775 169.661 126.453V117.989C169.661 116.663 168.857 116.054 167.864 116.629L123.495 142.261C122.501 142.837 121.698 144.376 121.698 145.697V154.162C121.698 155.487 122.501 156.097 123.495 155.522Z" fill="#728DC1"/>
<path id="Vector_77" opacity="0.4" d="M124.77 152.554L166.592 128.396C167.095 128.106 167.506 127.325 167.506 126.651V120.286C167.506 119.615 167.098 119.303 166.592 119.596L124.77 143.755C124.267 144.044 123.856 144.825 123.856 145.499V151.865C123.856 152.535 124.264 152.847 124.77 152.554Z" fill="#E3E7F2"/>
<path id="Vector_78" d="M157.874 130.213L164.114 126.609C164.605 126.327 165.001 125.569 165.001 124.914C165.001 124.263 164.605 123.962 164.114 124.243L157.874 127.847C157.383 128.129 156.987 128.887 156.987 129.542C156.99 130.197 157.386 130.495 157.874 130.213Z" fill="#E3E7F2"/>
<path id="Vector_79" d="M151.417 132.91C151.417 134.144 152.281 134.643 153.351 134.026C154.417 133.409 155.285 131.912 155.285 130.678C155.285 129.443 154.42 128.944 153.351 129.561C152.281 130.179 151.417 131.679 151.417 132.91Z" fill="white"/>
<path id="Vector_80" d="M143.939 137.287C143.939 137.938 144.396 138.205 144.963 137.877C145.527 137.549 145.987 136.757 145.987 136.106C145.987 135.454 145.531 135.188 144.963 135.515C144.4 135.843 143.939 136.635 143.939 137.287Z" fill="#1D4594"/>
<path id="Vector_81" d="M140.334 139.374C140.334 140.026 140.791 140.292 141.358 139.965C141.921 139.637 142.382 138.845 142.382 138.193C142.382 137.542 141.925 137.275 141.358 137.603C140.791 137.927 140.334 138.719 140.334 139.374Z" fill="#E3E7F2"/>
<path id="Vector_82" d="M136.725 141.458C136.725 142.109 137.181 142.376 137.749 142.048C138.312 141.72 138.773 140.928 138.773 140.277C138.773 139.625 138.316 139.359 137.749 139.686C137.181 140.01 136.725 140.806 136.725 141.458Z" fill="#1D4594"/>
<path id="Vector_83" d="M126.529 149.012L128.63 147.796C128.943 147.614 129.198 147.13 129.198 146.711V144.486C129.198 144.067 128.943 143.873 128.63 144.056L126.529 145.271C126.217 145.454 125.961 145.937 125.961 146.356V148.581C125.958 149 126.213 149.191 126.529 149.012Z" fill="#E3E7F2"/>
</g>
</g>
<g id="Group_21">
<g id="Group_22">
<g id="Group_23">
<path id="Vector_84" d="M0.0112327 189.241V78.6197L43.9655 67.108L52.0634 62.4302C53.9213 61.356 57.1689 61.4931 59.3123 62.7311L66.8658 67.0928L90.3106 67.0813L83.3701 173.875C83.4234 174.602 83.0198 175.303 82.1251 175.817L38.2623 208.932C36.4043 210.006 33.1606 209.869 31.0133 208.631L1.77397 191.744C0.536627 191.032 -0.0611043 190.102 0.0112327 189.241Z" fill="#496AAE"/>
<path id="Vector_85" d="M55.4214 61.7104C56.7806 61.7447 58.1931 62.0876 59.3086 62.7313L66.8621 67.093L90.3069 67.0815V178.004C90.3602 178.732 89.9566 179.433 89.0619 179.947L38.2547 208.932C37.36 209.446 36.1493 209.682 34.8892 209.652L34.3638 98.0358L55.4214 61.7104Z" fill="#E3E7F2"/>
<path id="Vector_86" d="M37.7902 209.16C36.1873 209.846 33.8688 209.808 31.9956 209.096V96.7178H37.7902V209.16Z" fill="#728DC1"/>
<path id="Vector_87" d="M38.2547 98.0509L89.0619 69.0661C90.9199 67.9919 90.6876 66.1177 88.5404 64.8797L59.3086 47.9931C57.1613 46.7551 53.9176 46.6179 52.0597 47.6922L1.25248 76.677C-0.605438 77.7513 -0.373198 79.6254 1.77407 80.8634L31.0058 97.75C33.1531 98.988 36.3968 99.1214 38.2547 98.0509Z" fill="#E3E7F2"/>
<path id="Vector_88" d="M1.77403 78.8065L31.0058 95.693C33.153 96.931 36.3968 97.0682 38.2547 95.994L89.0619 67.0091C89.4769 66.7691 89.7815 66.4872 89.9909 66.1863C90.6305 67.2148 90.3411 68.3271 89.0619 69.0661L38.2547 98.051C36.3968 99.1252 33.153 98.9881 31.0058 97.75L1.77403 80.8635C0.106471 79.8997 -0.399887 78.555 0.32729 77.4999C0.616638 77.9684 1.10396 78.4179 1.77403 78.8065Z" fill="white"/>
<g id="Group_24">
<path id="Vector_89" d="M36.8195 86.3033L70.6466 66.6854C71.5146 66.1826 71.408 65.3065 70.4029 64.7275L56.7236 56.827C55.7185 56.248 54.1994 56.1832 53.3314 56.686L19.5081 76.3039C18.6401 76.8067 18.7467 77.6828 19.7518 78.2619L33.4311 86.1623C34.4324 86.7413 35.9476 86.8061 36.8195 86.3033Z" fill="#1D4594"/>
<g id="Group_25">
<path id="Vector_90" d="M55.079 67.5652L57.0398 66.4338C57.1616 66.3652 57.1463 66.2433 57.0055 66.1633L55.1133 65.0701C54.9762 64.9901 54.763 64.9825 54.645 65.051L52.6843 66.1824C52.5625 66.251 52.5777 66.3729 52.7186 66.4528L54.6108 67.5461C54.7478 67.6261 54.961 67.6337 55.079 67.5652Z" fill="#E3E7F2"/>
<path id="Vector_91" d="M48.5305 71.3325L50.4912 70.2011C50.613 70.1326 50.5978 70.0107 50.4569 69.9307L48.5647 68.8374C48.4277 68.7574 48.2145 68.7498 48.0964 68.8184L46.1357 69.9497C46.0139 70.0183 46.0291 70.1402 46.17 70.2202L48.0622 71.3134C48.203 71.3934 48.4124 71.4011 48.5305 71.3325Z" fill="#ED1C24"/>
<path id="Vector_92" d="M41.9821 75.0998L43.9428 73.9685C44.0647 73.8999 44.0494 73.778 43.9086 73.698L42.0164 72.6047C41.8793 72.5248 41.6661 72.5171 41.5481 72.5857L39.5874 73.7171C39.4655 73.7856 39.4808 73.9075 39.6216 73.9875L41.5138 75.0808C41.6547 75.1608 41.8641 75.1684 41.9821 75.0998Z" fill="#ED1C24"/>
<path id="Vector_93" d="M35.4338 78.8674L37.3945 77.736C37.5163 77.6675 37.5011 77.5456 37.3602 77.4656L35.468 76.3723C35.3272 76.2923 35.1178 76.2847 34.9998 76.3533L33.039 77.4846C32.9172 77.5532 32.9324 77.6751 33.0733 77.7551L34.9655 78.8484C35.1064 78.9284 35.3158 78.936 35.4338 78.8674Z" fill="#E3E7F2"/>
</g>
<path id="Vector_94" d="M70.6427 66.6853L70.6009 66.7082C70.5361 66.6625 70.4752 66.613 70.3991 66.5672L56.7198 58.6668C55.7147 58.0878 54.1956 58.023 53.3276 58.5258L19.5424 78.1208C18.7429 77.5456 18.6972 76.7647 19.5005 76.3L53.3237 56.6821C54.1918 56.1793 55.7109 56.2441 56.716 56.8231L70.3953 64.7235C71.4042 65.3064 71.5146 66.1825 70.6427 66.6853Z" fill="#728DC1"/>
</g>
</g>
<g id="Group_26">
<path id="Vector_95" d="M25.2988 119.966L6.06862 108.949C4.98738 108.325 4.10791 106.648 4.10791 105.205V98.3251C4.10791 96.8814 4.98357 96.2186 6.06862 96.8433L25.2988 107.86C26.3801 108.484 27.2596 110.161 27.2596 111.604V118.484C27.2596 119.928 26.3801 120.59 25.2988 119.966Z" fill="#1D4594"/>
<path id="Vector_96" d="M5.11682 96.6338C4.81605 96.9195 4.62569 97.4071 4.62569 98.0661V104.946C4.62569 106.389 5.50135 108.065 6.5864 108.69L25.8166 119.707C26.1631 119.909 26.4867 119.962 26.7684 119.912C26.4105 120.251 25.889 120.301 25.2988 119.962L6.06862 108.945C4.98738 108.321 4.10791 106.645 4.10791 105.201V98.3213C4.10791 97.3423 4.51528 96.7328 5.11682 96.6338Z" fill="white"/>
<g id="Group_27">
<path id="Vector_97" d="M19.5156 112.492L17.7528 111.471C17.5168 111.334 17.3264 110.968 17.3264 110.656V108.77C17.3264 108.454 17.5168 108.309 17.7528 108.447L19.5156 109.467C19.7516 109.605 19.942 109.97 19.942 110.283V112.168C19.942 112.484 19.7516 112.629 19.5156 112.492Z" fill="#496AAE"/>
<path id="Vector_98" d="M13.6144 109.083L11.8517 108.062C11.6157 107.925 11.4253 107.559 11.4253 107.246V105.361C11.4253 105.045 11.6157 104.9 11.8517 105.037L13.6144 106.058C13.8505 106.195 14.0408 106.561 14.0408 106.873V108.759C14.0447 109.075 13.8505 109.22 13.6144 109.083Z" fill="white"/>
</g>
</g>
<g id="Group_28">
<path id="Vector_99" d="M25.2988 169.692L6.06862 158.676C4.98738 158.051 4.10791 156.375 4.10791 154.931V148.052C4.10791 146.608 4.98357 145.945 6.06862 146.57L25.2988 157.586C26.3801 158.211 27.2596 159.887 27.2596 161.331V168.21C27.2596 169.654 26.3801 170.317 25.2988 169.692Z" fill="#1D4594"/>
<path id="Vector_100" d="M5.11682 146.356C4.81605 146.642 4.62569 147.13 4.62569 147.789V154.668C4.62569 156.112 5.50135 157.788 6.5864 158.413L25.8166 169.429C26.1631 169.631 26.4867 169.685 26.7684 169.635C26.4105 169.974 25.889 170.024 25.2988 169.685L6.06862 158.668C4.98738 158.043 4.10791 156.367 4.10791 154.924V148.044C4.10791 147.069 4.51528 146.459 5.11682 146.356Z" fill="white"/>
<g id="Group_29">
<path id="Vector_101" d="M19.5156 162.219L17.7528 161.198C17.5168 161.061 17.3264 160.695 17.3264 160.382V158.497C17.3264 158.181 17.5168 158.036 17.7528 158.173L19.5156 159.194C19.7516 159.331 19.942 159.697 19.942 160.009V161.895C19.942 162.207 19.7516 162.352 19.5156 162.219Z" fill="#ED1C24"/>
<path id="Vector_102" d="M13.6144 158.809L11.8517 157.788C11.6157 157.651 11.4253 157.285 11.4253 156.973V155.087C11.4253 154.771 11.6157 154.627 11.8517 154.764L13.6144 155.785C13.8505 155.922 14.0408 156.287 14.0408 156.6V158.485C14.0447 158.802 13.8505 158.946 13.6144 158.809Z" fill="white"/>
</g>
</g>
<g id="Group_30">
<path id="Vector_103" d="M25.2988 194.556L6.06862 183.539C4.98738 182.914 4.10791 181.238 4.10791 179.795V172.915C4.10791 171.471 4.98357 170.808 6.06862 171.433L25.2988 182.45C26.3801 183.074 27.2596 184.75 27.2596 186.194V193.074C27.2596 194.517 26.3801 195.18 25.2988 194.556Z" fill="#1D4594"/>
<path id="Vector_104" d="M5.11682 171.22C4.81605 171.505 4.62569 171.993 4.62569 172.652V179.532C4.62569 180.975 5.50135 182.651 6.5864 183.276L25.8166 194.293C26.1631 194.494 26.4867 194.548 26.7684 194.498C26.4105 194.837 25.889 194.887 25.2988 194.548L6.06862 183.531C4.98738 182.907 4.10791 181.231 4.10791 179.787V172.907C4.10791 171.928 4.51528 171.323 5.11682 171.22Z" fill="white"/>
<g id="Group_31">
<path id="Vector_105" d="M19.5156 187.082L17.7528 186.061C17.5168 185.924 17.3264 185.558 17.3264 185.246V183.36C17.3264 183.044 17.5168 182.899 17.7528 183.036L19.5156 184.057C19.7516 184.194 19.942 184.56 19.942 184.872V186.758C19.942 187.07 19.7516 187.215 19.5156 187.082Z" fill="#496AAE"/>
<path id="Vector_106" d="M13.6144 183.672L11.8517 182.652C11.6157 182.514 11.4253 182.149 11.4253 181.836V179.951C11.4253 179.635 11.6157 179.49 11.8517 179.627L13.6144 180.648C13.8505 180.785 14.0408 181.151 14.0408 181.463V183.349C14.0447 183.665 13.8505 183.81 13.6144 183.672Z" fill="white"/>
</g>
</g>
<g id="Group_32">
<path id="Vector_107" d="M25.2988 144.829L6.06862 133.812C4.98738 133.188 4.10791 131.512 4.10791 130.068V123.188C4.10791 121.745 4.98357 121.082 6.06862 121.707L25.2988 132.723C26.3801 133.348 27.2596 135.024 27.2596 136.468V143.347C27.2596 144.791 26.3801 145.454 25.2988 144.829Z" fill="#1D4594"/>
<path id="Vector_108" d="M5.11682 121.497C4.81605 121.783 4.62569 122.27 4.62569 122.929V129.809C4.62569 131.253 5.50135 132.929 6.5864 133.553L25.8166 144.57C26.1631 144.772 26.4867 144.825 26.7684 144.776C26.4105 145.115 25.889 145.164 25.2988 144.825L6.06862 133.809C4.98738 133.184 4.10791 131.508 4.10791 130.064V123.185C4.10791 122.206 4.51528 121.596 5.11682 121.497Z" fill="white"/>
<g id="Group_33">
<path id="Vector_109" d="M19.5156 137.355L17.7528 136.334C17.5168 136.197 17.3264 135.832 17.3264 135.519V133.634C17.3264 133.317 17.5168 133.173 17.7528 133.31L19.5156 134.331C19.7516 134.468 19.942 134.834 19.942 135.146V137.031C19.942 137.348 19.7516 137.492 19.5156 137.355Z" fill="#ED1C24"/>
<path id="Vector_110" d="M13.6144 133.946L11.8517 132.925C11.6157 132.788 11.4253 132.422 11.4253 132.11V130.224C11.4253 129.908 11.6157 129.763 11.8517 129.9L13.6144 130.921C13.8505 131.058 14.0408 131.424 14.0408 131.736V133.622C14.0447 133.938 13.8505 134.083 13.6144 133.946Z" fill="white"/>
</g>
</g>
</g>
<g id="Group_34">
<path id="Vector_111" d="M41.9554 112.923L86.3247 87.2898C87.3184 86.7146 88.1217 85.1757 88.1217 83.8538V75.3896C88.1217 74.064 87.3184 73.4545 86.3247 74.0297L41.9554 99.6586C40.9618 100.234 40.1584 101.773 40.1584 103.095V111.559C40.1584 112.888 40.9618 113.498 41.9554 112.923Z" fill="#728DC1"/>
<path id="Vector_112" opacity="0.4" d="M43.2309 109.955L85.0531 85.7965C85.5556 85.507 85.9668 84.7261 85.9668 84.0519V77.6865C85.9668 77.0161 85.5594 76.7037 85.0531 76.9971L43.2309 101.156C42.7283 101.445 42.3171 102.226 42.3171 102.9V109.266C42.3171 109.936 42.7283 110.245 43.2309 109.955Z" fill="#E3E7F2"/>
<path id="Vector_113" d="M76.3383 87.6135L82.5783 84.0099C83.0694 83.7281 83.4653 82.97 83.4653 82.3148C83.4653 81.6634 83.0694 81.3625 82.5783 81.6444L76.3383 85.248C75.8471 85.5298 75.4512 86.2879 75.4512 86.9431C75.4512 87.5945 75.8471 87.8954 76.3383 87.6135Z" fill="#E3E7F2"/>
<path id="Vector_114" d="M71.0198 89.5031C71.0198 90.1545 71.4766 90.4211 72.0439 90.0935C72.6074 89.7659 73.0681 88.9736 73.0681 88.3222C73.0681 87.6708 72.6112 87.4041 72.0439 87.7317C71.4766 88.0555 71.0198 88.8517 71.0198 89.5031Z" fill="#1D4594"/>
<path id="Vector_115" d="M67.4104 91.5868C67.4104 92.2382 67.8673 92.5048 68.4345 92.1772C69.0018 91.8496 69.4587 91.0573 69.4587 90.4059C69.4587 89.7545 69.0018 89.4879 68.4345 89.8155C67.8673 90.1431 67.4104 90.9354 67.4104 91.5868Z" fill="#1D4594"/>
<path id="Vector_116" d="M63.8013 93.6742C63.8013 94.3256 64.2581 94.5922 64.8254 94.2647C65.3889 93.9371 65.8496 93.1447 65.8496 92.4933C65.8496 91.8419 65.3927 91.5753 64.8254 91.9029C64.2581 92.2267 63.8013 93.019 63.8013 93.6742Z" fill="#E3E7F2"/>
<path id="Vector_117" d="M60.1919 95.7579C60.1919 96.4093 60.6488 96.676 61.216 96.3484C61.7795 96.0208 62.2402 95.2285 62.2402 94.5771C62.2402 93.9257 61.7833 93.659 61.216 93.9866C60.6488 94.3104 60.1919 95.1066 60.1919 95.7579Z" fill="#1D4594"/>
<path id="Vector_118" d="M44.9899 106.412L47.0915 105.197C47.4037 105.014 47.6587 104.531 47.6587 104.112V101.887C47.6587 101.468 47.4037 101.274 47.0915 101.457L44.9899 102.672C44.6739 102.855 44.4226 103.338 44.4226 103.757V105.982C44.4226 106.401 44.6739 106.591 44.9899 106.412Z" fill="#1D4594"/>
</g>
<g id="Group_35">
<path id="Vector_119" d="M41.9554 127.851L86.3247 102.218C87.3184 101.643 88.1217 100.104 88.1217 98.7823V90.3181C88.1217 88.9924 87.3184 88.3829 86.3247 88.9582L41.9554 114.587C40.9618 115.162 40.1584 116.701 40.1584 118.023V126.487C40.1584 127.817 40.9618 128.422 41.9554 127.851Z" fill="#728DC1"/>
<path id="Vector_120" opacity="0.4" d="M43.2309 124.883L85.0531 100.725C85.5556 100.435 85.9668 99.6546 85.9668 98.9803V92.615C85.9668 91.9446 85.5594 91.6322 85.0531 91.9255L43.2309 116.084C42.7283 116.374 42.3171 117.154 42.3171 117.829V124.194C42.3171 124.864 42.7283 125.173 43.2309 124.883Z" fill="#E3E7F2"/>
<path id="Vector_121" d="M76.3383 102.542L82.5783 98.9348C83.0694 98.6529 83.4653 97.8948 83.4653 97.2396C83.4653 96.5882 83.0694 96.2873 82.5783 96.5692L76.3383 100.173C75.8471 100.455 75.4512 101.213 75.4512 101.868C75.4512 102.523 75.8471 102.824 76.3383 102.542Z" fill="#E3E7F2"/>
<path id="Vector_122" d="M71.0198 104.432C71.0198 105.083 71.4766 105.35 72.0439 105.022C72.6074 104.694 73.0681 103.902 73.0681 103.251C73.0681 102.599 72.6112 102.333 72.0439 102.66C71.4766 102.984 71.0198 103.78 71.0198 104.432Z" fill="white"/>
<path id="Vector_123" d="M67.4104 106.515C67.4104 107.167 67.8673 107.433 68.4345 107.106C68.998 106.778 69.4587 105.986 69.4587 105.334C69.4587 104.683 69.0018 104.416 68.4345 104.744C67.8673 105.068 67.4104 105.864 67.4104 106.515Z" fill="#1D4594"/>
<path id="Vector_124" d="M63.8013 108.599C63.8013 109.25 64.2581 109.517 64.8254 109.189C65.3889 108.862 65.8496 108.069 65.8496 107.418C65.8496 106.766 65.3927 106.5 64.8254 106.827C64.2581 107.155 63.8013 107.947 63.8013 108.599Z" fill="#E3E7F2"/>
<path id="Vector_125" d="M60.1919 110.686C60.1919 111.338 60.6488 111.604 61.216 111.277C61.7795 110.949 62.2402 110.157 62.2402 109.506C62.2402 108.854 61.7833 108.587 61.216 108.915C60.6488 109.239 60.1919 110.031 60.1919 110.686Z" fill="#1D4594"/>
<path id="Vector_126" d="M44.9899 121.337L47.0915 120.122C47.4037 119.939 47.6587 119.455 47.6587 119.036V116.812C47.6587 116.393 47.4037 116.198 47.0915 116.381L44.9899 117.597C44.6739 117.779 44.4226 118.263 44.4226 118.682V120.907C44.4226 121.326 44.6739 121.52 44.9899 121.337Z" fill="#1D4594"/>
</g>
<g id="Group_36">
<path id="Vector_127" d="M41.9554 142.78L86.3247 117.147C87.3184 116.572 88.1217 115.033 88.1217 113.711V105.247C88.1217 103.921 87.3184 103.312 86.3247 103.887L41.9554 129.516C40.9618 130.091 40.1584 131.63 40.1584 132.952V141.416C40.1584 142.742 40.9618 143.351 41.9554 142.78Z" fill="#728DC1"/>
<path id="Vector_128" opacity="0.4" d="M43.2309 139.809L85.0531 115.65C85.5556 115.361 85.9668 114.58 85.9668 113.905V107.54C85.9668 106.87 85.5594 106.557 85.0531 106.851L43.2309 131.009C42.7283 131.299 42.3171 132.079 42.3171 132.754V139.119C42.3171 139.793 42.7283 140.102 43.2309 139.809Z" fill="#E3E7F2"/>
<path id="Vector_129" d="M76.3383 117.467L82.5783 113.86C83.0694 113.578 83.4653 112.82 83.4653 112.164C83.4653 111.513 83.0694 111.212 82.5783 111.494L76.3383 115.101C75.8471 115.383 75.4512 116.141 75.4512 116.797C75.4512 117.452 75.8471 117.753 76.3383 117.467Z" fill="#E3E7F2"/>
<path id="Vector_130" d="M71.0198 119.36C71.0198 120.012 71.4766 120.278 72.0439 119.951C72.6074 119.623 73.0681 118.831 73.0681 118.179C73.0681 117.528 72.6112 117.261 72.0439 117.589C71.4766 117.913 71.0198 118.705 71.0198 119.36Z" fill="white"/>
<path id="Vector_131" d="M67.4104 121.444C67.4104 122.095 67.8673 122.362 68.4345 122.034C68.998 121.707 69.4587 120.914 69.4587 120.263C69.4587 119.612 69.0018 119.345 68.4345 119.673C67.8673 119.996 67.4104 120.793 67.4104 121.444Z" fill="#1D4594"/>
<path id="Vector_132" d="M63.8013 123.527C63.8013 124.179 64.2581 124.446 64.8254 124.118C65.3889 123.79 65.8496 122.998 65.8496 122.347C65.8496 121.695 65.3927 121.429 64.8254 121.756C64.2581 122.08 63.8013 122.876 63.8013 123.527Z" fill="#E3E7F2"/>
<path id="Vector_133" d="M60.1919 125.611C60.1919 126.263 60.6488 126.529 61.216 126.202C61.7795 125.874 62.2402 125.082 62.2402 124.43C62.2402 123.779 61.7833 123.512 61.216 123.84C60.6488 124.167 60.1919 124.96 60.1919 125.611Z" fill="#1D4594"/>
<path id="Vector_134" d="M44.9899 136.266L47.0915 135.051C47.4037 134.868 47.6587 134.384 47.6587 133.965V131.74C47.6587 131.321 47.4037 131.127 47.0915 131.31L44.9899 132.525C44.6739 132.708 44.4226 133.192 44.4226 133.611V135.835C44.4226 136.255 44.6739 136.449 44.9899 136.266Z" fill="#1D4594"/>
</g>
<g id="Group_37">
<path id="Vector_135" d="M41.9554 157.704L86.3247 132.072C87.3184 131.497 88.1217 129.958 88.1217 128.636V120.172C88.1217 118.846 87.3184 118.236 86.3247 118.812L41.9554 144.444C40.9618 145.02 40.1584 146.559 40.1584 147.88V156.345C40.1584 157.67 40.9618 158.28 41.9554 157.704Z" fill="#728DC1"/>
<path id="Vector_136" opacity="0.4" d="M43.2309 154.737L85.0531 130.578C85.5556 130.289 85.9668 129.508 85.9668 128.834V122.469C85.9668 121.798 85.5594 121.486 85.0531 121.779L43.2309 145.938C42.7283 146.227 42.3171 147.008 42.3171 147.682V154.048C42.3171 154.718 42.7283 155.03 43.2309 154.737Z" fill="#E3E7F2"/>
<path id="Vector_137" d="M76.3383 132.396L82.5783 128.788C83.0694 128.506 83.4653 127.748 83.4653 127.093C83.4653 126.442 83.0694 126.141 82.5783 126.423L76.3383 130.03C75.8471 130.312 75.4512 131.07 75.4512 131.725C75.4512 132.377 75.8471 132.678 76.3383 132.396Z" fill="#E3E7F2"/>
<path id="Vector_138" d="M71.0198 134.285C71.0198 134.936 71.4766 135.203 72.0439 134.875C72.6074 134.548 73.0681 133.756 73.0681 133.104C73.0681 132.453 72.6112 132.186 72.0439 132.514C71.4766 132.841 71.0198 133.634 71.0198 134.285Z" fill="#1D4594"/>
<path id="Vector_139" d="M67.4104 136.372C67.4104 137.024 67.8673 137.29 68.4345 136.963C68.998 136.635 69.4587 135.843 69.4587 135.192C69.4587 134.54 69.0018 134.274 68.4345 134.601C67.8673 134.925 67.4104 135.717 67.4104 136.372Z" fill="#1D4594"/>
<path id="Vector_140" d="M63.8013 138.456C63.8013 139.108 64.2581 139.374 64.8254 139.047C65.3889 138.719 65.8496 137.927 65.8496 137.275C65.8496 136.624 65.3927 136.357 64.8254 136.685C64.2581 137.009 63.8013 137.805 63.8013 138.456Z" fill="#E3E7F2"/>
<path id="Vector_141" d="M60.1919 140.54C60.1919 141.191 60.6488 141.458 61.216 141.13C61.7795 140.803 62.2402 140.01 62.2402 139.359C62.2402 138.708 61.7833 138.441 61.216 138.769C60.6488 139.092 60.1919 139.889 60.1919 140.54Z" fill="#1D4594"/>
<path id="Vector_142" d="M44.9899 151.194L47.0915 149.979C47.4037 149.796 47.6587 149.313 47.6587 148.894V146.669C47.6587 146.25 47.4037 146.056 47.0915 146.239L44.9899 147.454C44.6739 147.637 44.4226 148.12 44.4226 148.539V150.764C44.4226 151.183 44.6739 151.373 44.9899 151.194Z" fill="#E3E7F2"/>
</g>
<g id="Group_38">
<path id="Vector_143" d="M41.9554 172.633L86.3247 147C87.3184 146.425 88.1217 144.886 88.1217 143.564V135.1C88.1217 133.774 87.3184 133.165 86.3247 133.74L41.9554 159.369C40.9618 159.944 40.1584 161.483 40.1584 162.805V171.269C40.1584 172.599 40.9618 173.208 41.9554 172.633Z" fill="#728DC1"/>
<path id="Vector_144" opacity="0.4" d="M43.2309 169.665L85.0531 145.507C85.5556 145.217 85.9668 144.437 85.9668 143.762V137.397C85.9668 136.727 85.5594 136.414 85.0531 136.708L43.2309 160.866C42.7283 161.156 42.3171 161.936 42.3171 162.611V168.976C42.3171 169.646 42.7283 169.955 43.2309 169.665Z" fill="#E3E7F2"/>
<path id="Vector_145" d="M76.3383 147.324L82.5783 143.72C83.0694 143.439 83.4653 142.68 83.4653 142.025C83.4653 141.374 83.0694 141.073 82.5783 141.355L76.3383 144.958C75.8471 145.24 75.4512 145.998 75.4512 146.654C75.4512 147.305 75.8471 147.606 76.3383 147.324Z" fill="#E3E7F2"/>
<path id="Vector_146" d="M71.0198 149.214C71.0198 149.865 71.4766 150.132 72.0439 149.804C72.6074 149.476 73.0681 148.684 73.0681 148.033C73.0681 147.381 72.6112 147.115 72.0439 147.442C71.4766 147.766 71.0198 148.562 71.0198 149.214Z" fill="#1D4594"/>
<path id="Vector_147" d="M67.4104 151.297C67.4104 151.949 67.8673 152.215 68.4345 151.888C68.998 151.56 69.4587 150.768 69.4587 150.116C69.4587 149.465 69.0018 149.198 68.4345 149.526C67.8673 149.854 67.4104 150.646 67.4104 151.297Z" fill="white"/>
<path id="Vector_148" d="M63.8013 153.385C63.8013 154.036 64.2581 154.303 64.8254 153.975C65.3889 153.647 65.8496 152.855 65.8496 152.204C65.8496 151.552 65.3927 151.286 64.8254 151.613C64.2581 151.937 63.8013 152.729 63.8013 153.385Z" fill="#E3E7F2"/>
<path id="Vector_149" d="M60.1919 155.468C60.1919 156.12 60.6488 156.386 61.216 156.059C61.7795 155.731 62.2402 154.939 62.2402 154.288C62.2402 153.636 61.7833 153.369 61.216 153.697C60.6488 154.021 60.1919 154.817 60.1919 155.468Z" fill="white"/>
<path id="Vector_150" d="M44.9899 166.119L47.0915 164.904C47.4037 164.721 47.6587 164.237 47.6587 163.818V161.594C47.6587 161.175 47.4037 160.98 47.0915 161.163L44.9899 162.378C44.6739 162.561 44.4226 163.045 44.4226 163.464V165.689C44.4226 166.112 44.6739 166.302 44.9899 166.119Z" fill="#E3E7F2"/>
</g>
<g id="Group_39">
<path id="Vector_151" d="M41.9554 187.562L86.3247 161.929C87.3184 161.354 88.1217 159.815 88.1217 158.493V150.029C88.1217 148.703 87.3184 148.094 86.3247 148.669L41.9554 174.298C40.9618 174.873 40.1584 176.412 40.1584 177.734V186.198C40.1584 187.527 40.9618 188.133 41.9554 187.562Z" fill="#728DC1"/>
<path id="Vector_152" opacity="0.4" d="M43.2309 184.594L85.0531 160.436C85.5556 160.146 85.9668 159.365 85.9668 158.691V152.326C85.9668 151.655 85.5594 151.343 85.0531 151.636L43.2309 175.795C42.7283 176.084 42.3171 176.865 42.3171 177.539V183.905C42.3171 184.575 42.7283 184.884 43.2309 184.594Z" fill="#E3E7F2"/>
<path id="Vector_153" d="M76.3383 162.249L82.5783 158.645C83.0694 158.364 83.4653 157.606 83.4653 156.95C83.4653 156.299 83.0694 155.998 82.5783 156.28L76.3383 159.883C75.8471 160.165 75.4512 160.923 75.4512 161.579C75.4512 162.234 75.8471 162.535 76.3383 162.249Z" fill="#E3E7F2"/>
<path id="Vector_154" d="M71.0198 164.142C71.0198 164.794 71.4766 165.06 72.0439 164.733C72.6074 164.405 73.0681 163.613 73.0681 162.961C73.0681 162.31 72.6112 162.043 72.0439 162.371C71.4766 162.695 71.0198 163.487 71.0198 164.142Z" fill="#1D4594"/>
<path id="Vector_155" d="M67.4104 166.226C67.4104 166.877 67.8673 167.144 68.4345 166.816C68.998 166.489 69.4587 165.696 69.4587 165.045C69.4587 164.394 69.0018 164.127 68.4345 164.455C67.8673 164.778 67.4104 165.575 67.4104 166.226Z" fill="#1D4594"/>
<path id="Vector_156" d="M63.8013 168.309C63.8013 168.961 64.2581 169.228 64.8254 168.9C65.3889 168.572 65.8496 167.78 65.8496 167.129C65.8496 166.477 65.3927 166.211 64.8254 166.538C64.2581 166.866 63.8013 167.658 63.8013 168.309Z" fill="#E3E7F2"/>
<path id="Vector_157" d="M60.1919 170.397C60.1919 171.048 60.6488 171.315 61.216 170.988C61.7795 170.66 62.2402 169.868 62.2402 169.216C62.2402 168.565 61.7833 168.298 61.216 168.626C60.6488 168.95 60.1919 169.742 60.1919 170.397Z" fill="#1D4594"/>
<path id="Vector_158" d="M44.9899 181.048L47.0915 179.833C47.4037 179.65 47.6587 179.166 47.6587 178.747V176.522C47.6587 176.103 47.4037 175.909 47.0915 176.092L44.9899 177.307C44.6739 177.49 44.4226 177.974 44.4226 178.393V180.617C44.4226 181.036 44.6739 181.231 44.9899 181.048Z" fill="#1D4594"/>
</g>
<g id="Group_40">
<path id="Vector_159" d="M41.9554 202.486L86.3247 176.854C87.3184 176.279 88.1217 174.74 88.1217 173.418V164.954C88.1217 163.628 87.3184 163.018 86.3247 163.594L41.9554 189.226C40.9618 189.802 40.1584 191.341 40.1584 192.662V201.127C40.1584 202.452 40.9618 203.062 41.9554 202.486Z" fill="#728DC1"/>
<path id="Vector_160" opacity="0.4" d="M43.2309 199.519L85.0531 175.36C85.5556 175.071 85.9668 174.29 85.9668 173.616V167.251C85.9668 166.58 85.5594 166.268 85.0531 166.561L43.2309 190.72C42.7283 191.009 42.3171 191.79 42.3171 192.464V198.83C42.3171 199.504 42.7283 199.812 43.2309 199.519Z" fill="#E3E7F2"/>
<path id="Vector_161" d="M76.3383 177.177L82.5783 173.574C83.0694 173.292 83.4653 172.534 83.4653 171.879C83.4653 171.227 83.0694 170.926 82.5783 171.208L76.3383 174.812C75.8471 175.094 75.4512 175.852 75.4512 176.507C75.4512 177.162 75.8471 177.459 76.3383 177.177Z" fill="#E3E7F2"/>
<path id="Vector_162" d="M69.8774 179.878C69.8774 181.113 70.7417 181.612 71.8115 180.994C72.8775 180.377 73.7456 178.88 73.7456 177.646C73.7456 176.412 72.8813 175.913 71.8115 176.53C70.7417 177.143 69.8774 178.644 69.8774 179.878Z" fill="white"/>
<path id="Vector_163" d="M62.4041 184.251C62.4041 184.903 62.8609 185.169 63.4282 184.842C63.9917 184.514 64.4523 183.722 64.4523 183.07C64.4523 182.419 63.9955 182.152 63.4282 182.48C62.8609 182.808 62.4041 183.6 62.4041 184.251Z" fill="#1D4594"/>
<path id="Vector_164" d="M58.7947 186.339C58.7947 186.99 59.2515 187.257 59.8188 186.929C60.3823 186.602 60.843 185.81 60.843 185.158C60.843 184.507 60.3861 184.24 59.8188 184.568C59.2515 184.891 58.7947 185.684 58.7947 186.339Z" fill="#E3E7F2"/>
<path id="Vector_165" d="M55.1855 188.423C55.1855 189.074 55.6424 189.341 56.2097 189.013C56.7732 188.685 57.2338 187.893 57.2338 187.242C57.2338 186.59 56.777 186.324 56.2097 186.651C55.6424 186.975 55.1855 187.771 55.1855 188.423Z" fill="#1D4594"/>
<path id="Vector_166" d="M44.9899 195.976L47.0915 194.761C47.4037 194.578 47.6587 194.095 47.6587 193.676V191.451C47.6587 191.032 47.4037 190.838 47.0915 191.02L44.9899 192.236C44.6739 192.419 44.4226 192.902 44.4226 193.321V195.546C44.4226 195.965 44.6739 196.159 44.9899 195.976Z" fill="#E3E7F2"/>
</g>
</g>
<g id="Group_41">
<g id="Group_42">
<g id="Group_43">
<path id="Vector_167" d="M144.693 178.621V67.9957L188.647 56.484L196.745 51.8062C198.603 50.732 201.847 50.8691 203.994 52.1071L211.548 56.4688L234.992 56.4573L228.052 163.251C228.105 163.978 227.702 164.679 226.807 165.193L182.94 198.311C181.082 199.386 177.839 199.248 175.691 198.01L146.46 181.124C145.222 180.408 144.625 179.482 144.693 178.621Z" fill="#496AAE"/>
<path id="Vector_168" d="M200.107 51.0901C201.466 51.1244 202.879 51.4672 203.994 52.111L211.548 56.4726L234.992 56.4612V167.38C235.046 168.108 234.642 168.809 233.747 169.323L182.94 198.311C182.046 198.826 180.835 199.062 179.575 199.031L179.049 87.4155L200.107 51.0901Z" fill="#E3E7F2"/>
<path id="Vector_169" d="M182.472 198.54C180.869 199.226 178.551 199.188 176.677 198.475V86.0938H182.472V198.54Z" fill="#728DC1"/>
<path id="Vector_170" d="M182.94 87.4269L233.748 58.4421C235.605 57.3678 235.373 55.4937 233.226 54.2556L203.994 37.3691C201.847 36.1311 198.603 35.9939 196.745 37.0681L145.938 66.053C144.08 67.1272 144.312 69.0014 146.46 70.2394L175.691 87.126C177.839 88.3678 181.082 88.5011 182.94 87.4269Z" fill="#E3E7F2"/>
<path id="Vector_171" d="M146.46 68.1824L175.691 85.069C177.839 86.307 181.082 86.4442 182.94 85.3699L233.747 56.3851C234.162 56.1451 234.467 55.867 234.673 55.5623C235.312 56.5908 235.023 57.7069 233.747 58.4421L182.94 87.4269C181.082 88.5012 177.839 88.364 175.691 87.126L146.46 70.2394C144.792 69.2757 144.286 67.931 145.013 66.8758C145.302 67.3444 145.786 67.7939 146.46 68.1824Z" fill="white"/>
<g id="Group_44">
<path id="Vector_172" d="M181.505 75.6792L215.332 56.0614C216.2 55.5586 216.093 54.6824 215.088 54.1034L201.409 46.203C200.404 45.624 198.885 45.5592 198.017 46.062L164.19 65.6799C163.322 66.1827 163.428 67.0588 164.433 67.6378L178.113 75.5383C179.114 76.1211 180.633 76.1821 181.505 75.6792Z" fill="#1D4594"/>
<g id="Group_45">
<path id="Vector_173" d="M199.764 56.945L201.725 55.8137C201.847 55.7451 201.832 55.6232 201.691 55.5432L199.799 54.45C199.662 54.37 199.448 54.3623 199.33 54.4309L197.37 55.5623C197.248 55.6308 197.263 55.7527 197.404 55.8327L199.296 56.926C199.433 57.0022 199.643 57.0136 199.764 56.945Z" fill="#ED1C24"/>
<path id="Vector_174" d="M193.216 60.7124L195.176 59.581C195.298 59.5125 195.283 59.3906 195.142 59.3106L193.25 58.2173C193.113 58.1373 192.9 58.1297 192.782 58.1982L190.821 59.3296C190.699 59.3982 190.714 59.5201 190.855 59.6001L192.747 60.6933C192.885 60.7695 193.094 60.7809 193.216 60.7124Z" fill="#E3E7F2"/>
<path id="Vector_175" d="M186.667 64.476L188.628 63.3447C188.75 63.2761 188.735 63.1542 188.594 63.0742L186.702 61.981C186.565 61.901 186.351 61.8934 186.233 61.9619L184.273 63.0933C184.151 63.1618 184.166 63.2837 184.307 63.3637L186.199 64.457C186.336 64.537 186.549 64.5484 186.667 64.476Z" fill="#E3E7F2"/>
<path id="Vector_176" d="M180.119 68.2434L182.08 67.112C182.202 67.0435 182.186 66.9216 182.046 66.8416L180.153 65.7483C180.012 65.6683 179.803 65.6607 179.685 65.7293L177.724 66.8606C177.603 66.9292 177.618 67.0511 177.759 67.1311L179.651 68.2243C179.788 68.3043 180.001 68.3158 180.119 68.2434Z" fill="#ED1C24"/>
</g>
<path id="Vector_177" d="M215.328 56.0613L215.286 56.0842C215.222 56.0384 215.161 55.9889 215.085 55.9432L201.405 48.0428C200.4 47.4637 198.881 47.399 198.013 47.9018L164.228 67.4968C163.428 66.9216 163.383 66.1407 164.186 65.676L198.013 46.0581C198.881 45.5553 200.4 45.62 201.405 46.1991L215.085 54.0995C216.09 54.6823 216.196 55.5585 215.328 56.0613Z" fill="#728DC1"/>
</g>
</g>
<g id="Group_46">
<path id="Vector_178" d="M169.985 109.346L150.754 98.3291C149.673 97.7044 148.794 96.0283 148.794 94.5846V87.705C148.794 86.2613 149.669 85.5985 150.754 86.2232L169.985 97.2396C171.066 97.8644 171.945 99.5405 171.945 100.984V107.864C171.942 109.307 171.066 109.97 169.985 109.346Z" fill="#1D4594"/>
<path id="Vector_179" d="M149.798 86.0098C149.498 86.2955 149.307 86.7831 149.307 87.4421V94.3216C149.307 95.7654 150.183 97.4414 151.268 98.0662L170.498 109.083C170.845 109.285 171.168 109.338 171.45 109.288C171.092 109.627 170.571 109.677 169.98 109.338L150.75 98.3214C149.669 97.6967 148.79 96.0206 148.79 94.5769V87.6973C148.793 86.7183 149.201 86.1126 149.798 86.0098Z" fill="white"/>
<g id="Group_47">
<path id="Vector_180" d="M164.201 101.868L162.438 100.847C162.202 100.71 162.012 100.344 162.012 100.032V98.1463C162.012 97.8301 162.202 97.6854 162.438 97.8225L164.201 98.8434C164.437 98.9805 164.628 99.3462 164.628 99.6586V101.544C164.628 101.86 164.433 102.005 164.201 101.868Z" fill="#496AAE"/>
<path id="Vector_181" d="M158.3 98.4625L156.537 97.4416C156.301 97.3044 156.111 96.9387 156.111 96.6264V94.7408C156.111 94.4246 156.301 94.2799 156.537 94.417L158.3 95.4379C158.536 95.575 158.726 95.9407 158.726 96.2531V98.1387C158.726 98.4548 158.536 98.5996 158.3 98.4625Z" fill="white"/>
</g>
</g>
<g id="Group_48">
<path id="Vector_182" d="M169.985 159.072L150.754 148.056C149.673 147.431 148.794 145.755 148.794 144.311V137.432C148.794 135.988 149.669 135.325 150.754 135.95L169.985 146.966C171.066 147.591 171.945 149.267 171.945 150.711V157.59C171.942 159.03 171.066 159.697 169.985 159.072Z" fill="#1D4594"/>
<path id="Vector_183" d="M149.798 135.736C149.498 136.022 149.307 136.51 149.307 137.169V144.048C149.307 145.492 150.183 147.168 151.268 147.793L170.498 158.809C170.845 159.011 171.168 159.064 171.45 159.015C171.092 159.354 170.571 159.403 169.98 159.064L150.75 148.048C149.669 147.423 148.79 145.747 148.79 144.303V137.424C148.793 136.445 149.201 135.839 149.798 135.736Z" fill="white"/>
<g id="Group_49">
<path id="Vector_184" d="M164.201 151.595L162.438 150.574C162.202 150.437 162.012 150.071 162.012 149.758V147.873C162.012 147.557 162.202 147.412 162.438 147.549L164.201 148.57C164.437 148.707 164.628 149.073 164.628 149.385V151.271C164.628 151.587 164.433 151.732 164.201 151.595Z" fill="#496AAE"/>
<path id="Vector_185" d="M158.3 148.189L156.537 147.168C156.301 147.031 156.111 146.665 156.111 146.353V144.467C156.111 144.151 156.301 144.006 156.537 144.144L158.3 145.164C158.536 145.302 158.726 145.667 158.726 145.98V147.865C158.726 148.178 158.536 148.322 158.3 148.189Z" fill="white"/>
</g>
</g>
<g id="Group_50">
<path id="Vector_186" d="M169.985 183.932L150.754 172.915C149.673 172.29 148.794 170.614 148.794 169.171V162.291C148.794 160.847 149.669 160.184 150.754 160.809L169.985 171.826C171.066 172.45 171.945 174.126 171.945 175.57V182.45C171.942 183.893 171.066 184.556 169.985 183.932Z" fill="#1D4594"/>
<path id="Vector_187" d="M149.798 160.6C149.498 160.885 149.307 161.373 149.307 162.032V168.911C149.307 170.355 150.183 172.031 151.268 172.656L170.498 183.672C170.845 183.874 171.168 183.928 171.45 183.878C171.092 184.217 170.571 184.267 169.98 183.928L150.75 172.911C149.669 172.287 148.79 170.61 148.79 169.167V162.287C148.793 161.308 149.201 160.699 149.798 160.6Z" fill="white"/>
<g id="Group_51">
<path id="Vector_188" d="M164.201 176.458L162.438 175.437C162.202 175.3 162.012 174.934 162.012 174.622V172.736C162.012 172.42 162.202 172.275 162.438 172.412L164.201 173.433C164.437 173.57 164.628 173.936 164.628 174.248V176.134C164.628 176.45 164.433 176.595 164.201 176.458Z" fill="#496AAE"/>
<path id="Vector_189" d="M158.3 173.048L156.537 172.027C156.301 171.89 156.111 171.525 156.111 171.212V169.327C156.111 169.011 156.301 168.866 156.537 169.003L158.3 170.024C158.536 170.161 158.726 170.527 158.726 170.839V172.725C158.726 173.041 158.536 173.186 158.3 173.048Z" fill="white"/>
</g>
</g>
<g id="Group_52">
<path id="Vector_190" d="M169.985 134.209L150.754 123.192C149.673 122.568 148.794 120.891 148.794 119.448V112.564C148.794 111.121 149.669 110.458 150.754 111.083L169.985 122.099C171.066 122.724 171.945 124.4 171.945 125.844V132.723C171.942 134.171 171.066 134.833 169.985 134.209Z" fill="#1D4594"/>
<path id="Vector_191" d="M149.798 110.873C149.498 111.159 149.307 111.646 149.307 112.305V119.185C149.307 120.629 150.183 122.305 151.268 122.929L170.498 133.946C170.845 134.148 171.168 134.201 171.45 134.152C171.092 134.491 170.571 134.54 169.98 134.201L150.75 123.185C149.669 122.56 148.79 120.884 148.79 119.44V112.564C148.793 111.582 149.201 110.976 149.798 110.873Z" fill="white"/>
<g id="Group_53">
<path id="Vector_192" d="M164.201 126.731L162.438 125.71C162.202 125.573 162.012 125.208 162.012 124.895V123.01C162.012 122.693 162.202 122.549 162.438 122.686L164.201 123.707C164.437 123.844 164.628 124.21 164.628 124.522V126.407C164.628 126.724 164.433 126.868 164.201 126.731Z" fill="#496AAE"/>
<path id="Vector_193" d="M158.3 123.326L156.537 122.305C156.301 122.168 156.111 121.802 156.111 121.49V119.604C156.111 119.288 156.301 119.143 156.537 119.28L158.3 120.301C158.536 120.438 158.726 120.804 158.726 121.116V123.002C158.726 123.318 158.536 123.459 158.3 123.326Z" fill="white"/>
</g>
</g>
</g>
<g id="Group_54">
<path id="Vector_194" d="M186.641 102.302L231.01 76.6695C232.004 76.0943 232.807 74.5553 232.807 73.2335V64.7692C232.807 63.4436 232.004 62.8341 231.01 63.4093L186.641 89.042C185.647 89.6172 184.844 91.1562 184.844 92.478V100.942C184.844 102.264 185.647 102.874 186.641 102.302Z" fill="#728DC1"/>
<path id="Vector_195" opacity="0.4" d="M187.916 99.331L229.739 75.1725C230.241 74.883 230.652 74.1021 230.652 73.4278V67.0625C230.652 66.3921 230.245 66.0797 229.739 66.373L187.916 90.5315C187.414 90.821 187.003 91.6019 187.003 92.2762V98.6415C187.003 99.3158 187.41 99.6243 187.916 99.331Z" fill="#E3E7F2"/>
<path id="Vector_196" d="M221.02 76.9894L227.26 73.382C227.751 73.1001 228.147 72.3421 228.147 71.6869C228.147 71.0355 227.751 70.7346 227.26 71.0164L221.02 74.6238C220.529 74.9057 220.133 75.6638 220.133 76.319C220.137 76.9742 220.533 77.2751 221.02 76.9894Z" fill="#E3E7F2"/>
<path id="Vector_197" d="M215.701 78.8827C215.701 79.5341 216.158 79.8007 216.726 79.4731C217.289 79.1455 217.75 78.3532 217.75 77.7018C217.75 77.0504 217.293 76.7838 216.726 77.1114C216.162 77.4352 215.701 78.2275 215.701 78.8827Z" fill="#1D4594"/>
<path id="Vector_198" d="M212.092 80.9664C212.092 81.6178 212.549 81.8845 213.116 81.5569C213.68 81.2293 214.141 80.437 214.141 79.7856C214.141 79.1342 213.684 78.8675 213.116 79.1951C212.553 79.5189 212.092 80.3151 212.092 80.9664Z" fill="#1D4594"/>
<path id="Vector_199" d="M208.487 83.0499C208.487 83.7013 208.944 83.968 209.511 83.6404C210.074 83.3128 210.535 82.5204 210.535 81.8691C210.535 81.2177 210.078 80.951 209.511 81.2786C208.944 81.6024 208.487 82.3986 208.487 83.0499Z" fill="#E3E7F2"/>
<path id="Vector_200" d="M204.877 85.1337C204.877 85.7851 205.334 86.0517 205.902 85.7241C206.465 85.3965 206.926 84.6042 206.926 83.9528C206.926 83.3014 206.469 83.0348 205.902 83.3624C205.334 83.69 204.877 84.4823 204.877 85.1337Z" fill="#1D4594"/>
<path id="Vector_201" d="M189.675 95.7882L191.777 94.573C192.089 94.3901 192.344 93.9064 192.344 93.4873V91.2627C192.344 90.8437 192.089 90.6494 191.777 90.8323L189.675 92.0474C189.363 92.2303 189.108 92.7141 189.108 93.1331V95.3577C189.104 95.7767 189.359 95.971 189.675 95.7882Z" fill="#1D4594"/>
</g>
<g id="Group_55">
<path id="Vector_202" d="M186.641 117.227L231.01 91.5943C232.004 91.0191 232.807 89.4801 232.807 88.1583V79.694C232.807 78.3684 232.004 77.7589 231.01 78.3341L186.641 103.967C185.647 104.542 184.844 106.081 184.844 107.403V115.867C184.844 117.193 185.647 117.802 186.641 117.227Z" fill="#728DC1"/>
<path id="Vector_203" opacity="0.4" d="M187.916 114.259L229.739 90.101C230.241 89.8115 230.652 89.0305 230.652 88.3563V81.991C230.652 81.3206 230.245 81.0082 229.739 81.3015L187.916 105.46C187.414 105.75 187.003 106.53 187.003 107.205V113.57C187.003 114.24 187.41 114.553 187.916 114.259Z" fill="#E3E7F2"/>
<path id="Vector_204" d="M221.02 91.9181L227.26 88.3107C227.751 88.0288 228.147 87.2708 228.147 86.6156C228.147 85.9642 227.751 85.6633 227.26 85.9452L221.02 89.5526C220.529 89.8344 220.133 90.5925 220.133 91.2477C220.137 91.9029 220.533 92.2 221.02 91.9181Z" fill="#E3E7F2"/>
<path id="Vector_205" d="M215.701 93.8075C215.701 94.4589 216.158 94.7255 216.726 94.3979C217.289 94.0703 217.75 93.278 217.75 92.6266C217.75 91.9752 217.293 91.7086 216.726 92.0362C216.162 92.3638 215.701 93.1561 215.701 93.8075Z" fill="white"/>
<path id="Vector_206" d="M212.092 95.8949C212.092 96.5463 212.549 96.8129 213.116 96.4853C213.68 96.1577 214.141 95.3654 214.141 94.714C214.141 94.0626 213.684 93.796 213.116 94.1236C212.553 94.4474 212.092 95.2397 212.092 95.8949Z" fill="#1D4594"/>
<path id="Vector_207" d="M208.487 97.9786C208.487 98.63 208.944 98.8967 209.511 98.5691C210.074 98.2415 210.535 97.4492 210.535 96.7978C210.535 96.1464 210.078 95.8797 209.511 96.2073C208.944 96.5311 208.487 97.3273 208.487 97.9786Z" fill="#E3E7F2"/>
<path id="Vector_208" d="M204.877 100.062C204.877 100.714 205.334 100.98 205.902 100.653C206.465 100.325 206.926 99.5329 206.926 98.8815C206.926 98.2301 206.469 97.9635 205.902 98.2911C205.334 98.6149 204.877 99.411 204.877 100.062Z" fill="#1D4594"/>
<path id="Vector_209" d="M189.675 110.717L191.777 109.502C192.089 109.319 192.344 108.835 192.344 108.416V106.191C192.344 105.772 192.089 105.578 191.777 105.761L189.675 106.976C189.363 107.159 189.108 107.643 189.108 108.062V110.286C189.104 110.705 189.359 110.896 189.675 110.717Z" fill="#1D4594"/>
</g>
<g id="Group_56">
<path id="Vector_210" d="M186.641 132.156L231.01 106.523C232.004 105.948 232.807 104.409 232.807 103.087V94.6228C232.807 93.2971 232.004 92.6876 231.01 93.2628L186.641 118.896C185.647 119.471 184.844 121.01 184.844 122.332V130.796C184.844 132.121 185.647 132.731 186.641 132.156Z" fill="#728DC1"/>
<path id="Vector_211" opacity="0.4" d="M187.916 129.188L229.739 105.03C230.241 104.74 230.652 103.959 230.652 103.285V96.9197C230.652 96.2493 230.245 95.9369 229.739 96.2302L187.916 120.389C187.414 120.678 187.003 121.459 187.003 122.133V128.499C187.003 129.169 187.41 129.478 187.916 129.188Z" fill="#E3E7F2"/>
<path id="Vector_212" d="M221.02 106.847L227.26 103.243C227.751 102.961 228.147 102.203 228.147 101.548C228.147 100.897 227.751 100.596 227.26 100.878L221.02 104.481C220.529 104.763 220.133 105.521 220.133 106.176C220.137 106.828 220.533 107.129 221.02 106.847Z" fill="#E3E7F2"/>
<path id="Vector_213" d="M215.701 108.736C215.701 109.388 216.158 109.654 216.726 109.327C217.289 108.999 217.75 108.207 217.75 107.555C217.75 106.904 217.293 106.637 216.726 106.965C216.162 107.289 215.701 108.085 215.701 108.736Z" fill="white"/>
<path id="Vector_214" d="M212.092 110.82C212.092 111.471 212.549 111.738 213.116 111.41C213.68 111.083 214.141 110.29 214.141 109.639C214.141 108.988 213.684 108.721 213.116 109.049C212.553 109.376 212.092 110.169 212.092 110.82Z" fill="#1D4594"/>
<path id="Vector_215" d="M208.487 112.907C208.487 113.559 208.944 113.825 209.511 113.498C210.074 113.17 210.535 112.378 210.535 111.726C210.535 111.075 210.078 110.808 209.511 111.136C208.944 111.46 208.487 112.252 208.487 112.907Z" fill="#E3E7F2"/>
<path id="Vector_216" d="M204.877 114.991C204.877 115.642 205.334 115.909 205.902 115.582C206.465 115.254 206.926 114.462 206.926 113.81C206.926 113.159 206.469 112.892 205.902 113.22C205.334 113.544 204.877 114.34 204.877 114.991Z" fill="#1D4594"/>
<path id="Vector_217" d="M189.675 125.646L191.777 124.43C192.089 124.248 192.344 123.764 192.344 123.345V121.12C192.344 120.701 192.089 120.507 191.777 120.69L189.675 121.905C189.363 122.088 189.108 122.571 189.108 122.99V125.215C189.104 125.634 189.359 125.825 189.675 125.646Z" fill="#1D4594"/>
</g>
<g id="Group_57">
<path id="Vector_218" d="M186.641 147.084L231.01 121.451C232.004 120.876 232.807 119.337 232.807 118.015V109.551C232.807 108.226 232.004 107.616 231.01 108.191L186.641 133.82C185.647 134.395 184.844 135.934 184.844 137.256V145.72C184.844 147.05 185.647 147.656 186.641 147.084Z" fill="#728DC1"/>
<path id="Vector_219" opacity="0.4" d="M187.916 144.117L229.739 119.958C230.241 119.669 230.652 118.888 230.652 118.213V111.848C230.652 111.178 230.245 110.865 229.739 111.159L187.916 135.317C187.414 135.607 187.003 136.388 187.003 137.062V143.427C187.003 144.098 187.41 144.406 187.916 144.117Z" fill="#E3E7F2"/>
<path id="Vector_220" d="M221.02 121.775L227.26 118.172C227.751 117.89 228.147 117.132 228.147 116.476C228.147 115.825 227.751 115.524 227.26 115.806L221.02 119.41C220.529 119.691 220.133 120.45 220.133 121.105C220.137 121.756 220.533 122.057 221.02 121.775Z" fill="#E3E7F2"/>
<path id="Vector_221" d="M215.701 123.665C215.701 124.316 216.158 124.583 216.726 124.255C217.289 123.928 217.75 123.135 217.75 122.484C217.75 121.832 217.293 121.566 216.726 121.893C216.162 122.217 215.701 123.009 215.701 123.665Z" fill="#1D4594"/>
<path id="Vector_222" d="M212.092 125.748C212.092 126.4 212.549 126.666 213.116 126.339C213.68 126.011 214.141 125.219 214.141 124.568C214.141 123.916 213.684 123.65 213.116 123.977C212.553 124.301 212.092 125.097 212.092 125.748Z" fill="#1D4594"/>
<path id="Vector_223" d="M208.487 127.832C208.487 128.483 208.944 128.75 209.511 128.422C210.074 128.095 210.535 127.302 210.535 126.651C210.535 126 210.078 125.733 209.511 126.061C208.944 126.388 208.487 127.181 208.487 127.832Z" fill="#E3E7F2"/>
<path id="Vector_224" d="M204.877 129.92C204.877 130.571 205.334 130.838 205.902 130.51C206.465 130.182 206.926 129.39 206.926 128.739C206.926 128.087 206.469 127.821 205.902 128.148C205.334 128.472 204.877 129.264 204.877 129.92Z" fill="#1D4594"/>
<path id="Vector_225" d="M189.675 140.57L191.777 139.355C192.089 139.172 192.344 138.689 192.344 138.27V136.045C192.344 135.626 192.089 135.432 191.777 135.614L189.675 136.83C189.363 137.013 189.108 137.496 189.108 137.915V140.14C189.104 140.559 189.359 140.753 189.675 140.57Z" fill="#E3E7F2"/>
</g>
<g id="Group_58">
<path id="Vector_226" d="M186.641 162.013L231.01 136.38C232.004 135.805 232.807 134.266 232.807 132.944V124.48C232.807 123.154 232.004 122.545 231.01 123.12L186.641 148.753C185.647 149.328 184.844 150.867 184.844 152.189V160.653C184.844 161.975 185.647 162.584 186.641 162.013Z" fill="#728DC1"/>
<path id="Vector_227" opacity="0.4" d="M187.916 159.042L229.739 134.883C230.241 134.594 230.652 133.813 230.652 133.139V126.773C230.652 126.103 230.245 125.79 229.739 126.084L187.916 150.242C187.414 150.532 187.003 151.313 187.003 151.987V158.352C187.003 159.026 187.41 159.335 187.916 159.042Z" fill="#E3E7F2"/>
<path id="Vector_228" d="M221.02 136.7L227.26 133.093C227.751 132.811 228.147 132.053 228.147 131.398C228.147 130.746 227.751 130.445 227.26 130.727L221.02 134.335C220.529 134.616 220.133 135.374 220.133 136.03C220.137 136.685 220.533 136.982 221.02 136.7Z" fill="#E3E7F2"/>
<path id="Vector_229" d="M215.701 138.593C215.701 139.245 216.158 139.511 216.726 139.184C217.289 138.856 217.75 138.064 217.75 137.413C217.75 136.761 217.293 136.494 216.726 136.822C216.162 137.146 215.701 137.938 215.701 138.593Z" fill="#1D4594"/>
<path id="Vector_230" d="M212.092 140.677C212.092 141.329 212.549 141.595 213.116 141.268C213.68 140.94 214.141 140.148 214.141 139.496C214.141 138.845 213.684 138.578 213.116 138.906C212.553 139.23 212.092 140.022 212.092 140.677Z" fill="white"/>
<path id="Vector_231" d="M208.487 142.761C208.487 143.412 208.944 143.679 209.511 143.351C210.074 143.023 210.535 142.231 210.535 141.58C210.535 140.928 210.078 140.662 209.511 140.989C208.944 141.313 208.487 142.109 208.487 142.761Z" fill="#E3E7F2"/>
<path id="Vector_232" d="M204.877 144.844C204.877 145.496 205.334 145.762 205.902 145.435C206.465 145.107 206.926 144.315 206.926 143.663C206.926 143.012 206.469 142.745 205.902 143.073C205.334 143.401 204.877 144.193 204.877 144.844Z" fill="white"/>
<path id="Vector_233" d="M189.675 155.499L191.777 154.284C192.089 154.101 192.344 153.617 192.344 153.198V150.974C192.344 150.555 192.089 150.36 191.777 150.543L189.675 151.758C189.363 151.941 189.108 152.425 189.108 152.844V155.069C189.104 155.488 189.359 155.682 189.675 155.499Z" fill="#E3E7F2"/>
</g>
<g id="Group_59">
<path id="Vector_234" d="M186.641 176.938L231.01 151.305C232.004 150.73 232.807 149.191 232.807 147.869V139.405C232.807 138.079 232.004 137.47 231.01 138.045L186.641 163.678C185.647 164.253 184.844 165.792 184.844 167.113V175.578C184.844 176.903 185.647 177.513 186.641 176.938Z" fill="#728DC1"/>
<path id="Vector_235" opacity="0.4" d="M187.916 173.97L229.739 149.812C230.241 149.522 230.652 148.741 230.652 148.067V141.702C230.652 141.031 230.245 140.719 229.739 141.012L187.916 165.171C187.414 165.46 187.003 166.241 187.003 166.915V173.281C187.003 173.951 187.41 174.26 187.916 173.97Z" fill="#E3E7F2"/>
<path id="Vector_236" d="M221.02 151.629L227.26 148.021C227.751 147.74 228.147 146.981 228.147 146.326C228.147 145.675 227.751 145.374 227.26 145.656L221.02 149.263C220.529 149.545 220.133 150.303 220.133 150.958C220.137 151.61 220.533 151.911 221.02 151.629Z" fill="#E3E7F2"/>
<path id="Vector_237" d="M215.701 153.518C215.701 154.17 216.158 154.436 216.726 154.109C217.289 153.781 217.75 152.989 217.75 152.337C217.75 151.686 217.293 151.419 216.726 151.747C216.162 152.074 215.701 152.867 215.701 153.518Z" fill="#1D4594"/>
<path id="Vector_238" d="M212.092 155.606C212.092 156.257 212.549 156.524 213.116 156.196C213.68 155.868 214.141 155.076 214.141 154.425C214.141 153.773 213.684 153.507 213.116 153.834C212.553 154.158 212.092 154.95 212.092 155.606Z" fill="#1D4594"/>
<path id="Vector_239" d="M208.487 157.689C208.487 158.341 208.944 158.607 209.511 158.28C210.074 157.952 210.535 157.16 210.535 156.508C210.535 155.857 210.078 155.59 209.511 155.918C208.944 156.242 208.487 157.034 208.487 157.689Z" fill="#E3E7F2"/>
<path id="Vector_240" d="M204.877 159.773C204.877 160.424 205.334 160.691 205.902 160.364C206.465 160.036 206.926 159.244 206.926 158.592C206.926 157.941 206.469 157.674 205.902 158.002C205.334 158.326 204.877 159.122 204.877 159.773Z" fill="#1D4594"/>
<path id="Vector_241" d="M189.675 170.428L191.777 169.212C192.089 169.03 192.344 168.546 192.344 168.127V165.902C192.344 165.483 192.089 165.289 191.777 165.472L189.675 166.687C189.363 166.87 189.108 167.353 189.108 167.772V169.997C189.104 170.416 189.359 170.607 189.675 170.428Z" fill="#1D4594"/>
</g>
<g id="Group_60">
<path id="Vector_242" d="M186.641 191.866L231.01 166.233C232.004 165.658 232.807 164.119 232.807 162.797V154.333C232.807 153.008 232.004 152.398 231.01 152.973L186.641 178.606C185.647 179.181 184.844 180.72 184.844 182.042V190.506C184.844 191.832 185.647 192.441 186.641 191.866Z" fill="#728DC1"/>
<path id="Vector_243" opacity="0.4" d="M187.916 188.899L229.739 164.74C230.241 164.451 230.652 163.67 230.652 162.995V156.63C230.652 155.96 230.245 155.647 229.739 155.941L187.916 180.099C187.414 180.389 187.003 181.17 187.003 181.844V188.209C187.003 188.88 187.41 189.188 187.916 188.899Z" fill="#E3E7F2"/>
<path id="Vector_244" d="M221.02 166.557L227.26 162.954C227.751 162.672 228.147 161.914 228.147 161.258C228.147 160.607 227.751 160.306 227.26 160.588L221.02 164.192C220.529 164.473 220.133 165.232 220.133 165.887C220.137 166.538 220.533 166.839 221.02 166.557Z" fill="#E3E7F2"/>
<path id="Vector_245" d="M214.563 169.254C214.563 170.489 215.427 170.988 216.497 170.37C217.563 169.753 218.431 168.256 218.431 167.022C218.431 165.788 217.567 165.289 216.497 165.906C215.427 166.523 214.563 168.02 214.563 169.254Z" fill="white"/>
<path id="Vector_246" d="M207.086 173.631C207.086 174.282 207.543 174.549 208.11 174.221C208.673 173.894 209.134 173.101 209.134 172.45C209.134 171.799 208.677 171.532 208.11 171.86C207.546 172.183 207.086 172.98 207.086 173.631Z" fill="#1D4594"/>
<path id="Vector_247" d="M203.48 175.715C203.48 176.366 203.937 176.633 204.504 176.305C205.068 175.978 205.529 175.185 205.529 174.534C205.529 173.882 205.072 173.616 204.504 173.943C203.937 174.271 203.48 175.063 203.48 175.715Z" fill="#E3E7F2"/>
<path id="Vector_248" d="M199.871 177.798C199.871 178.45 200.328 178.717 200.895 178.389C201.459 178.061 201.919 177.269 201.919 176.618C201.919 175.966 201.463 175.7 200.895 176.027C200.328 176.355 199.871 177.147 199.871 177.798Z" fill="#1D4594"/>
<path id="Vector_249" d="M189.675 185.352L191.777 184.137C192.089 183.954 192.344 183.471 192.344 183.052V180.827C192.344 180.408 192.089 180.214 191.777 180.396L189.675 181.612C189.363 181.794 189.108 182.278 189.108 182.697V184.922C189.104 185.341 189.359 185.535 189.675 185.352Z" fill="#E3E7F2"/>
</g>
</g>
<g id="Group_61">
<g id="Group_62">
<g id="Group_63">
<path id="Vector_250" d="M63.1577 225.586V114.96L107.112 103.449L115.21 98.771C117.068 97.6968 120.315 97.8339 122.459 99.072L130.012 103.434L153.457 103.422L146.517 210.216C146.57 210.943 146.166 211.644 145.272 212.158L101.409 245.272C99.5508 246.347 96.3071 246.21 94.1598 244.971L64.9281 228.085C63.6831 227.373 63.0854 226.447 63.1577 225.586Z" fill="#496AAE"/>
<path id="Vector_251" d="M118.568 98.0549C119.927 98.0892 121.34 98.432 122.455 99.0758L130.009 103.437L153.453 103.426V214.349C153.507 215.076 153.103 215.777 152.208 216.291L101.401 245.276C100.507 245.791 99.2958 246.027 98.0357 245.996L97.5103 134.38L118.568 98.0549Z" fill="#E3E7F2"/>
<path id="Vector_252" d="M100.937 245.505C99.3338 246.19 97.0152 246.152 95.1421 245.44V133.062H100.937V245.505Z" fill="#728DC1"/>
<path id="Vector_253" d="M101.401 134.392L152.208 105.407C154.066 104.333 153.834 102.459 151.687 101.22L122.455 84.3339C120.308 83.0959 117.064 82.9588 115.206 84.033L64.399 113.018C62.541 114.092 62.7733 115.966 64.9206 117.204L94.1523 134.091C96.2996 135.333 99.5433 135.466 101.401 134.392Z" fill="#E3E7F2"/>
<path id="Vector_254" d="M64.9205 115.151L94.1523 132.038C96.2995 133.276 99.5433 133.413 101.401 132.339L152.208 103.354C152.623 103.114 152.928 102.836 153.137 102.531C153.777 103.56 153.488 104.672 152.208 105.411L101.401 134.392C99.5433 135.466 96.2995 135.329 94.1523 134.091L64.9205 117.204C63.253 116.241 62.7466 114.896 63.4738 113.841C63.7631 114.309 64.2504 114.763 64.9205 115.151Z" fill="white"/>
<g id="Group_64">
<path id="Vector_255" d="M99.9659 122.644L133.793 103.026C134.661 102.523 134.554 101.647 133.549 101.068L119.87 93.1678C118.865 92.5888 117.346 92.524 116.478 93.0269L82.6507 112.645C81.7827 113.148 81.8893 114.024 82.8944 114.603L96.5737 122.503C97.5788 123.086 99.094 123.147 99.9659 122.644Z" fill="#1D4594"/>
<g id="Group_65">
<path id="Vector_256" d="M118.225 103.91L120.186 102.779C120.308 102.71 120.293 102.588 120.152 102.508L118.26 101.415C118.122 101.335 117.909 101.327 117.791 101.396L115.831 102.527C115.709 102.596 115.724 102.718 115.865 102.798L117.757 103.891C117.894 103.971 118.107 103.978 118.225 103.91Z" fill="#ED1C24"/>
<path id="Vector_257" d="M111.677 107.677L113.638 106.546C113.759 106.477 113.744 106.355 113.603 106.275L111.711 105.182C111.574 105.102 111.361 105.095 111.243 105.163L109.282 106.294C109.16 106.363 109.176 106.485 109.316 106.565L111.209 107.658C111.35 107.738 111.559 107.746 111.677 107.677Z" fill="#E3E7F2"/>
<path id="Vector_258" d="M105.128 111.445L107.089 110.313C107.211 110.245 107.196 110.123 107.055 110.043L105.163 108.949C105.026 108.869 104.812 108.862 104.694 108.93L102.734 110.062C102.612 110.13 102.627 110.252 102.768 110.332L104.66 111.426C104.801 111.506 105.01 111.513 105.128 111.445Z" fill="#E3E7F2"/>
<path id="Vector_259" d="M98.58 115.212L100.541 114.081C100.663 114.012 100.647 113.89 100.506 113.81L98.6143 112.717C98.4772 112.637 98.264 112.629 98.146 112.698L96.1853 113.829C96.0634 113.898 96.0787 114.02 96.2195 114.1L98.1117 115.193C98.2526 115.273 98.462 115.281 98.58 115.212Z" fill="#E3E7F2"/>
</g>
<path id="Vector_260" d="M133.789 103.026L133.747 103.049C133.683 103.003 133.622 102.954 133.546 102.908L119.866 95.0076C118.861 94.4286 117.342 94.3638 116.474 94.8667L82.6889 114.462C81.8893 113.886 81.8437 113.106 82.647 112.641L116.474 93.023C117.342 92.5201 118.861 92.5849 119.866 93.1639L133.546 101.064C134.551 101.647 134.661 102.527 133.789 103.026Z" fill="#728DC1"/>
</g>
</g>
<g id="Group_66">
<path id="Vector_261" d="M88.4453 156.31L69.2151 145.294C68.1339 144.669 67.2544 142.993 67.2544 141.549V134.67C67.2544 133.226 68.1301 132.563 69.2151 133.188L88.4453 144.204C89.5266 144.829 90.406 146.505 90.406 147.949V154.829C90.406 156.272 89.5266 156.935 88.4453 156.31Z" fill="#1D4594"/>
<path id="Vector_262" d="M68.2633 132.975C67.9625 133.26 67.7722 133.748 67.7722 134.407V141.286C67.7722 142.73 68.6478 144.406 69.7329 145.031L88.9631 156.047C89.3096 156.249 89.6332 156.303 89.9149 156.253C89.557 156.592 89.0354 156.642 88.4453 156.303L69.2151 145.286C68.1339 144.662 67.2544 142.985 67.2544 141.542V134.662C67.2544 133.687 67.6618 133.077 68.2633 132.975Z" fill="white"/>
<g id="Group_67">
<path id="Vector_263" d="M82.662 148.837L80.8993 147.816C80.6633 147.679 80.4729 147.313 80.4729 147.001V145.115C80.4729 144.799 80.6633 144.654 80.8993 144.791L82.662 145.812C82.8981 145.949 83.0885 146.315 83.0885 146.627V148.513C83.0885 148.825 82.8981 148.97 82.662 148.837Z" fill="#ED1C24"/>
<path id="Vector_264" d="M76.7609 145.427L74.9982 144.406C74.7621 144.269 74.5718 143.904 74.5718 143.591V141.706C74.5718 141.389 74.7621 141.245 74.9982 141.382L76.7609 142.403C76.997 142.54 77.1873 142.906 77.1873 143.218V145.104C77.1911 145.42 76.997 145.564 76.7609 145.427Z" fill="white"/>
</g>
</g>
<g id="Group_68">
<path id="Vector_265" d="M88.4453 206.037L69.2151 195.021C68.1339 194.396 67.2544 192.72 67.2544 191.276V184.396C67.2544 182.953 68.1301 182.29 69.2151 182.915L88.4453 193.931C89.5266 194.556 90.406 196.232 90.406 197.676V204.555C90.406 205.999 89.5266 206.662 88.4453 206.037Z" fill="#1D4594"/>
<path id="Vector_266" d="M68.2633 182.701C67.9625 182.987 67.7722 183.474 67.7722 184.133V191.013C67.7722 192.457 68.6478 194.133 69.7329 194.758L88.9631 205.774C89.3096 205.976 89.6332 206.029 89.9149 205.98C89.557 206.319 89.0354 206.368 88.4453 206.029L69.2151 195.013C68.1339 194.388 67.2544 192.712 67.2544 191.268V184.389C67.2544 183.41 67.6618 182.804 68.2633 182.701Z" fill="white"/>
<g id="Group_69">
<path id="Vector_267" d="M82.662 198.559L80.8993 197.538C80.6633 197.401 80.4729 197.036 80.4729 196.723V194.838C80.4729 194.522 80.6633 194.377 80.8993 194.514L82.662 195.535C82.8981 195.672 83.0885 196.038 83.0885 196.35V198.236C83.0885 198.552 82.8981 198.697 82.662 198.559Z" fill="#496AAE"/>
<path id="Vector_268" d="M76.7609 195.154L74.9982 194.133C74.7621 193.996 74.5718 193.63 74.5718 193.318V191.432C74.5718 191.116 74.7621 190.971 74.9982 191.108L76.7609 192.129C76.997 192.266 77.1873 192.632 77.1873 192.944V194.83C77.1911 195.146 76.997 195.287 76.7609 195.154Z" fill="white"/>
</g>
</g>
<g id="Group_70">
<path id="Vector_269" d="M88.4453 230.896L69.2151 219.88C68.1339 219.255 67.2544 217.579 67.2544 216.135V209.256C67.2544 207.812 68.1301 207.149 69.2151 207.774L88.4453 218.79C89.5266 219.415 90.406 221.091 90.406 222.535V229.415C90.406 230.858 89.5266 231.525 88.4453 230.896Z" fill="#1D4594"/>
<path id="Vector_270" d="M68.2633 207.564C67.9625 207.85 67.7722 208.338 67.7722 208.997V215.876C67.7722 217.32 68.6478 218.996 69.7329 219.621L88.9631 230.637C89.3096 230.839 89.6332 230.893 89.9149 230.843C89.557 231.182 89.0354 231.232 88.4453 230.893L69.2151 219.876C68.1339 219.251 67.2544 217.575 67.2544 216.132V209.252C67.2544 208.273 67.6618 207.667 68.2633 207.564Z" fill="white"/>
<g id="Group_71">
<path id="Vector_271" d="M82.662 223.423L80.8993 222.402C80.6633 222.265 80.4729 221.899 80.4729 221.587V219.701C80.4729 219.385 80.6633 219.24 80.8993 219.377L82.662 220.398C82.8981 220.535 83.0885 220.901 83.0885 221.213V223.099C83.0885 223.415 82.8981 223.56 82.662 223.423Z" fill="#496AAE"/>
<path id="Vector_272" d="M76.7609 220.017L74.9982 218.996C74.7621 218.859 74.5718 218.493 74.5718 218.181V216.295C74.5718 215.979 74.7621 215.835 74.9982 215.972L76.7609 216.993C76.997 217.13 77.1873 217.495 77.1873 217.808V219.693C77.1911 220.006 76.997 220.15 76.7609 220.017Z" fill="white"/>
</g>
</g>
<g id="Group_72">
<path id="Vector_273" d="M88.4453 181.174L69.2151 170.157C68.1339 169.533 67.2544 167.856 67.2544 166.413V159.533C67.2544 158.089 68.1301 157.427 69.2151 158.051L88.4453 169.068C89.5266 169.692 90.406 171.369 90.406 172.812V179.692C90.406 181.136 89.5266 181.798 88.4453 181.174Z" fill="#1D4594"/>
<path id="Vector_274" d="M68.2633 157.838C67.9625 158.124 67.7722 158.611 67.7722 159.27V166.15C67.7722 167.593 68.6478 169.27 69.7329 169.894L88.9631 180.911C89.3096 181.113 89.6332 181.166 89.9149 181.116C89.557 181.455 89.0354 181.505 88.4453 181.166L69.2151 170.15C68.1339 169.525 67.2544 167.849 67.2544 166.405V159.525C67.2544 158.546 67.6618 157.941 68.2633 157.838Z" fill="white"/>
<g id="Group_73">
<path id="Vector_275" d="M82.662 173.696L80.8993 172.675C80.6633 172.538 80.4729 172.172 80.4729 171.86V169.974C80.4729 169.658 80.6633 169.513 80.8993 169.651L82.662 170.672C82.8981 170.809 83.0885 171.174 83.0885 171.487V173.372C83.0885 173.688 82.8981 173.833 82.662 173.696Z" fill="#496AAE"/>
<path id="Vector_276" d="M76.7609 170.291L74.9982 169.27C74.7621 169.133 74.5718 168.767 74.5718 168.454V166.569C74.5718 166.253 74.7621 166.108 74.9982 166.245L76.7609 167.266C76.997 167.403 77.1873 167.769 77.1873 168.081V169.967C77.1911 170.283 76.997 170.428 76.7609 170.291Z" fill="white"/>
</g>
</g>
</g>
<g id="Group_74">
<path id="Vector_277" d="M105.102 149.267L149.471 123.634C150.465 123.059 151.268 121.52 151.268 120.198V111.734C151.268 110.408 150.465 109.799 149.471 110.374L105.102 136.007C104.108 136.582 103.305 138.121 103.305 139.443V147.907C103.305 149.229 104.108 149.838 105.102 149.267Z" fill="#728DC1"/>
<path id="Vector_278" opacity="0.4" d="M106.377 146.299L148.2 122.141C148.702 121.851 149.113 121.071 149.113 120.396V114.031C149.113 113.361 148.706 113.048 148.2 113.342L106.377 137.5C105.875 137.79 105.464 138.57 105.464 139.245V145.61C105.464 146.28 105.875 146.589 106.377 146.299Z" fill="#E3E7F2"/>
<path id="Vector_279" d="M139.485 123.954L145.725 120.347C146.216 120.065 146.612 119.307 146.612 118.652C146.612 118 146.216 117.699 145.725 117.981L139.485 121.589C138.994 121.871 138.598 122.629 138.598 123.284C138.598 123.939 138.994 124.24 139.485 123.954Z" fill="#E3E7F2"/>
<path id="Vector_280" d="M134.166 125.848C134.166 126.499 134.623 126.766 135.19 126.438C135.754 126.11 136.215 125.318 136.215 124.667C136.215 124.015 135.758 123.749 135.19 124.076C134.623 124.4 134.166 125.192 134.166 125.848Z" fill="#1D4594"/>
<path id="Vector_281" d="M130.557 127.931C130.557 128.583 131.014 128.849 131.581 128.522C132.144 128.194 132.605 127.402 132.605 126.75C132.605 126.099 132.148 125.832 131.581 126.16C131.014 126.484 130.557 127.28 130.557 127.931Z" fill="#1D4594"/>
<path id="Vector_282" d="M126.948 130.015C126.948 130.666 127.405 130.933 127.972 130.605C128.535 130.278 128.996 129.485 128.996 128.834C128.996 128.183 128.539 127.916 127.972 128.243C127.405 128.571 126.948 129.363 126.948 130.015Z" fill="#E3E7F2"/>
<path id="Vector_283" d="M123.338 132.102C123.338 132.754 123.795 133.02 124.363 132.693C124.926 132.365 125.387 131.573 125.387 130.922C125.387 130.27 124.93 130.004 124.363 130.331C123.795 130.655 123.338 131.447 123.338 132.102Z" fill="#1D4594"/>
<path id="Vector_284" d="M108.136 142.753L110.238 141.538C110.55 141.355 110.805 140.871 110.805 140.452V138.228C110.805 137.809 110.55 137.615 110.238 137.797L108.136 139.013C107.824 139.195 107.569 139.679 107.569 140.098V142.323C107.569 142.742 107.82 142.936 108.136 142.753Z" fill="#1D4594"/>
</g>
<g id="Group_75">
<path id="Vector_285" d="M105.102 164.192L149.471 138.559C150.465 137.984 151.268 136.445 151.268 135.123V126.659C151.268 125.333 150.465 124.724 149.471 125.299L105.102 150.932C104.108 151.507 103.305 153.046 103.305 154.368V162.832C103.305 164.158 104.108 164.767 105.102 164.192Z" fill="#728DC1"/>
<path id="Vector_286" opacity="0.4" d="M106.377 161.224L148.2 137.066C148.702 136.776 149.113 135.995 149.113 135.321V128.956C149.113 128.285 148.706 127.973 148.2 128.266L106.377 152.425C105.875 152.714 105.464 153.495 105.464 154.17V160.535C105.464 161.209 105.875 161.518 106.377 161.224Z" fill="#E3E7F2"/>
<path id="Vector_287" d="M139.485 138.883L145.725 135.279C146.216 134.997 146.612 134.239 146.612 133.584C146.612 132.933 146.216 132.632 145.725 132.914L139.485 136.517C138.994 136.799 138.598 137.557 138.598 138.212C138.598 138.868 138.994 139.165 139.485 138.883Z" fill="#E3E7F2"/>
<path id="Vector_288" d="M134.166 140.776C134.166 141.427 134.623 141.694 135.19 141.366C135.754 141.039 136.215 140.247 136.215 139.595C136.215 138.944 135.758 138.677 135.19 139.005C134.623 139.328 134.166 140.121 134.166 140.776Z" fill="white"/>
<path id="Vector_289" d="M130.557 142.86C130.557 143.511 131.014 143.778 131.581 143.45C132.144 143.123 132.605 142.33 132.605 141.679C132.605 141.027 132.148 140.761 131.581 141.088C131.014 141.412 130.557 142.205 130.557 142.86Z" fill="#1D4594"/>
<path id="Vector_290" d="M126.948 144.943C126.948 145.595 127.405 145.862 127.972 145.534C128.535 145.206 128.996 144.414 128.996 143.763C128.996 143.111 128.539 142.845 127.972 143.172C127.405 143.496 126.948 144.292 126.948 144.943Z" fill="#E3E7F2"/>
<path id="Vector_291" d="M123.338 147.027C123.338 147.679 123.795 147.945 124.363 147.618C124.926 147.29 125.387 146.498 125.387 145.846C125.387 145.195 124.93 144.928 124.363 145.256C123.795 145.584 123.338 146.376 123.338 147.027Z" fill="#1D4594"/>
<path id="Vector_292" d="M108.136 157.682L110.238 156.467C110.55 156.284 110.805 155.8 110.805 155.381V153.156C110.805 152.737 110.55 152.543 110.238 152.726L108.136 153.941C107.824 154.124 107.569 154.608 107.569 155.027V157.251C107.569 157.67 107.82 157.865 108.136 157.682Z" fill="#1D4594"/>
</g>
<g id="Group_76">
<path id="Vector_293" d="M105.102 179.121L149.471 153.488C150.465 152.913 151.268 151.374 151.268 150.052V141.588C151.268 140.262 150.465 139.652 149.471 140.228L105.102 165.857C104.108 166.432 103.305 167.971 103.305 169.293V177.757C103.305 179.086 104.108 179.696 105.102 179.121Z" fill="#728DC1"/>
<path id="Vector_294" opacity="0.4" d="M106.377 176.153L148.2 151.995C148.702 151.705 149.113 150.924 149.113 150.25V143.885C149.113 143.214 148.706 142.902 148.2 143.195L106.377 167.354C105.875 167.643 105.464 168.424 105.464 169.098V175.464C105.464 176.134 105.875 176.443 106.377 176.153Z" fill="#E3E7F2"/>
<path id="Vector_295" d="M139.485 153.812L145.725 150.208C146.216 149.926 146.612 149.168 146.612 148.513C146.612 147.861 146.216 147.56 145.725 147.842L139.485 151.446C138.994 151.728 138.598 152.486 138.598 153.141C138.598 153.792 138.994 154.093 139.485 153.812Z" fill="#E3E7F2"/>
<path id="Vector_296" d="M134.166 155.701C134.166 156.352 134.623 156.619 135.19 156.292C135.754 155.964 136.215 155.172 136.215 154.52C136.215 153.869 135.758 153.602 135.19 153.93C134.623 154.257 134.166 155.05 134.166 155.701Z" fill="white"/>
<path id="Vector_297" d="M130.557 157.788C130.557 158.44 131.014 158.706 131.581 158.379C132.144 158.051 132.605 157.259 132.605 156.608C132.605 155.956 132.148 155.69 131.581 156.017C131.014 156.341 130.557 157.133 130.557 157.788Z" fill="#1D4594"/>
<path id="Vector_298" d="M126.948 159.872C126.948 160.524 127.405 160.79 127.972 160.463C128.535 160.135 128.996 159.343 128.996 158.691C128.996 158.04 128.539 157.773 127.972 158.101C127.405 158.425 126.948 159.217 126.948 159.872Z" fill="#E3E7F2"/>
<path id="Vector_299" d="M123.338 161.956C123.338 162.607 123.795 162.874 124.363 162.546C124.926 162.219 125.387 161.426 125.387 160.775C125.387 160.124 124.93 159.857 124.363 160.185C123.795 160.508 123.338 161.305 123.338 161.956Z" fill="#1D4594"/>
<path id="Vector_300" d="M108.136 172.61L110.238 171.395C110.55 171.212 110.805 170.729 110.805 170.31V168.085C110.805 167.666 110.55 167.472 110.238 167.655L108.136 168.87C107.824 169.053 107.569 169.536 107.569 169.955V172.18C107.569 172.599 107.82 172.789 108.136 172.61Z" fill="#1D4594"/>
</g>
<g id="Group_77">
<path id="Vector_301" d="M105.102 194.049L149.471 168.416C150.465 167.841 151.268 166.302 151.268 164.98V156.516C151.268 155.19 150.465 154.581 149.471 155.156L105.102 180.789C104.108 181.364 103.305 182.903 103.305 184.225V192.689C103.305 194.015 104.108 194.624 105.102 194.049Z" fill="#728DC1"/>
<path id="Vector_302" opacity="0.4" d="M106.377 191.081L148.2 166.923C148.702 166.633 149.113 165.853 149.113 165.178V158.813C149.113 158.143 148.706 157.83 148.2 158.124L106.377 182.282C105.875 182.572 105.464 183.352 105.464 184.027V190.392C105.464 191.062 105.875 191.371 106.377 191.081Z" fill="#E3E7F2"/>
<path id="Vector_303" d="M139.485 168.74L145.725 165.136C146.216 164.855 146.612 164.096 146.612 163.441C146.612 162.79 146.216 162.489 145.725 162.771L139.485 166.374C138.994 166.656 138.598 167.414 138.598 168.07C138.598 168.721 138.994 169.022 139.485 168.74Z" fill="#E3E7F2"/>
<path id="Vector_304" d="M134.166 170.63C134.166 171.281 134.623 171.548 135.19 171.22C135.754 170.892 136.215 170.1 136.215 169.449C136.215 168.797 135.758 168.531 135.19 168.858C134.623 169.182 134.166 169.978 134.166 170.63Z" fill="#1D4594"/>
<path id="Vector_305" d="M130.557 172.713C130.557 173.365 131.014 173.631 131.581 173.304C132.144 172.976 132.605 172.184 132.605 171.532C132.605 170.881 132.148 170.614 131.581 170.942C131.014 171.27 130.557 172.062 130.557 172.713Z" fill="#1D4594"/>
<path id="Vector_306" d="M126.948 174.797C126.948 175.448 127.405 175.715 127.972 175.387C128.535 175.06 128.996 174.267 128.996 173.616C128.996 172.964 128.539 172.698 127.972 173.025C127.405 173.353 126.948 174.145 126.948 174.797Z" fill="#E3E7F2"/>
<path id="Vector_307" d="M123.338 176.884C123.338 177.536 123.795 177.802 124.363 177.475C124.926 177.147 125.387 176.355 125.387 175.704C125.387 175.052 124.93 174.785 124.363 175.113C123.795 175.437 123.338 176.229 123.338 176.884Z" fill="#1D4594"/>
<path id="Vector_308" d="M108.136 187.535L110.238 186.32C110.55 186.137 110.805 185.653 110.805 185.234V183.01C110.805 182.591 110.55 182.396 110.238 182.579L108.136 183.794C107.824 183.977 107.569 184.461 107.569 184.88V187.105C107.569 187.524 107.82 187.718 108.136 187.535Z" fill="#E3E7F2"/>
</g>
<g id="Group_78">
<path id="Vector_309" d="M105.102 208.978L149.471 183.345C150.465 182.77 151.268 181.231 151.268 179.909V171.445C151.268 170.119 150.465 169.51 149.471 170.085L105.102 195.718C104.108 196.293 103.305 197.832 103.305 199.154V207.618C103.305 208.94 104.108 209.549 105.102 208.978Z" fill="#728DC1"/>
<path id="Vector_310" opacity="0.4" d="M106.377 206.006L148.2 181.848C148.702 181.558 149.113 180.777 149.113 180.103V173.742C149.113 173.071 148.706 172.759 148.2 173.052L106.377 197.211C105.875 197.5 105.464 198.281 105.464 198.955V205.321C105.464 205.991 105.875 206.3 106.377 206.006Z" fill="#E3E7F2"/>
<path id="Vector_311" d="M139.485 183.665L145.725 180.058C146.216 179.776 146.612 179.018 146.612 178.362C146.612 177.711 146.216 177.41 145.725 177.692L139.485 181.299C138.994 181.581 138.598 182.339 138.598 182.995C138.598 183.65 138.994 183.951 139.485 183.665Z" fill="#E3E7F2"/>
<path id="Vector_312" d="M134.166 185.558C134.166 186.21 134.623 186.476 135.19 186.149C135.754 185.821 136.215 185.029 136.215 184.377C136.215 183.726 135.758 183.459 135.19 183.787C134.623 184.111 134.166 184.903 134.166 185.558Z" fill="#1D4594"/>
<path id="Vector_313" d="M130.557 187.642C130.557 188.293 131.014 188.56 131.581 188.232C132.144 187.905 132.605 187.112 132.605 186.461C132.605 185.81 132.148 185.543 131.581 185.871C131.014 186.194 130.557 186.991 130.557 187.642Z" fill="white"/>
<path id="Vector_314" d="M126.948 189.725C126.948 190.377 127.405 190.644 127.972 190.316C128.535 189.988 128.996 189.196 128.996 188.545C128.996 187.893 128.539 187.627 127.972 187.954C127.405 188.282 126.948 189.074 126.948 189.725Z" fill="#E3E7F2"/>
<path id="Vector_315" d="M123.338 191.809C123.338 192.461 123.795 192.727 124.363 192.4C124.926 192.072 125.387 191.28 125.387 190.628C125.387 189.977 124.93 189.71 124.363 190.038C123.795 190.365 123.338 191.158 123.338 191.809Z" fill="white"/>
<path id="Vector_316" d="M108.136 202.464L110.238 201.249C110.55 201.066 110.805 200.582 110.805 200.163V197.938C110.805 197.519 110.55 197.325 110.238 197.508L108.136 198.723C107.824 198.906 107.569 199.39 107.569 199.809V202.033C107.569 202.452 107.82 202.647 108.136 202.464Z" fill="#E3E7F2"/>
</g>
<g id="Group_79">
<path id="Vector_317" d="M105.102 223.902L149.471 198.273C150.465 197.698 151.268 196.159 151.268 194.837V186.373C151.268 185.048 150.465 184.438 149.471 185.013L105.102 210.646C104.108 211.221 103.305 212.76 103.305 214.082V222.546C103.305 223.868 104.108 224.478 105.102 223.902Z" fill="#728DC1"/>
<path id="Vector_318" opacity="0.4" d="M106.377 220.935L148.2 196.776C148.702 196.487 149.113 195.706 149.113 195.032V188.667C149.113 187.996 148.706 187.684 148.2 187.977L106.377 212.139C105.875 212.429 105.464 213.21 105.464 213.884V220.249C105.464 220.916 105.875 221.228 106.377 220.935Z" fill="#E3E7F2"/>
<path id="Vector_319" d="M139.485 198.593L145.725 194.986C146.216 194.704 146.612 193.946 146.612 193.291C146.612 192.64 146.216 192.339 145.725 192.62L139.485 196.228C138.994 196.51 138.598 197.268 138.598 197.923C138.598 198.578 138.994 198.875 139.485 198.593Z" fill="#E3E7F2"/>
<path id="Vector_320" d="M134.166 200.483C134.166 201.134 134.623 201.401 135.19 201.073C135.754 200.746 136.215 199.953 136.215 199.302C136.215 198.651 135.758 198.384 135.19 198.711C134.623 199.039 134.166 199.831 134.166 200.483Z" fill="#1D4594"/>
<path id="Vector_321" d="M130.557 202.57C130.557 203.222 131.014 203.488 131.581 203.161C132.144 202.833 132.605 202.041 132.605 201.39C132.605 200.738 132.148 200.472 131.581 200.799C131.014 201.123 130.557 201.915 130.557 202.57Z" fill="#1D4594"/>
<path id="Vector_322" d="M126.948 204.654C126.948 205.305 127.405 205.572 127.972 205.244C128.535 204.917 128.996 204.124 128.996 203.473C128.996 202.822 128.539 202.555 127.972 202.883C127.405 203.206 126.948 204.003 126.948 204.654Z" fill="#E3E7F2"/>
<path id="Vector_323" d="M123.338 206.738C123.338 207.389 123.795 207.656 124.363 207.328C124.926 207.001 125.387 206.208 125.387 205.557C125.387 204.905 124.93 204.639 124.363 204.966C123.795 205.294 123.338 206.086 123.338 206.738Z" fill="#1D4594"/>
<path id="Vector_324" d="M108.136 217.392L110.238 216.177C110.55 215.994 110.805 215.51 110.805 215.091V212.867C110.805 212.448 110.55 212.253 110.238 212.436L108.136 213.651C107.824 213.834 107.569 214.318 107.569 214.737V216.962C107.569 217.381 107.82 217.571 108.136 217.392Z" fill="#1D4594"/>
</g>
<g id="Group_80">
<path id="Vector_325" d="M105.102 238.831L149.471 213.198C150.465 212.623 151.268 211.084 151.268 209.762V201.298C151.268 199.972 150.465 199.363 149.471 199.938L105.102 225.571C104.108 226.146 103.305 227.685 103.305 229.007V237.471C103.305 238.797 104.108 239.406 105.102 238.831Z" fill="#728DC1"/>
<path id="Vector_326" opacity="0.4" d="M106.377 235.863L148.2 211.705C148.702 211.415 149.113 210.635 149.113 209.96V203.595C149.113 202.925 148.706 202.612 148.2 202.906L106.377 227.064C105.875 227.354 105.464 228.134 105.464 228.809V235.174C105.464 235.844 105.875 236.153 106.377 235.863Z" fill="#E3E7F2"/>
<path id="Vector_327" d="M139.485 213.522L145.725 209.918C146.216 209.637 146.612 208.878 146.612 208.223C146.612 207.572 146.216 207.271 145.725 207.553L139.485 211.156C138.994 211.438 138.598 212.196 138.598 212.852C138.598 213.503 138.994 213.804 139.485 213.522Z" fill="#E3E7F2"/>
<path id="Vector_328" d="M133.024 216.219C133.024 217.453 133.888 217.952 134.958 217.335C136.024 216.718 136.892 215.221 136.892 213.987C136.892 212.752 136.028 212.253 134.958 212.871C133.888 213.488 133.024 214.988 133.024 216.219Z" fill="white"/>
<path id="Vector_329" d="M125.551 220.596C125.551 221.247 126.007 221.514 126.575 221.186C127.138 220.859 127.599 220.066 127.599 219.415C127.599 218.764 127.142 218.497 126.575 218.825C126.007 219.148 125.551 219.944 125.551 220.596Z" fill="#1D4594"/>
<path id="Vector_330" d="M121.941 222.68C121.941 223.331 122.398 223.598 122.965 223.27C123.529 222.942 123.989 222.15 123.989 221.499C123.989 220.847 123.533 220.581 122.965 220.908C122.398 221.236 121.941 222.028 121.941 222.68Z" fill="#E3E7F2"/>
<path id="Vector_331" d="M118.332 224.767C118.332 225.418 118.789 225.685 119.356 225.357C119.92 225.03 120.38 224.237 120.38 223.586C120.38 222.935 119.923 222.668 119.356 222.996C118.789 223.319 118.332 224.112 118.332 224.767Z" fill="#1D4594"/>
<path id="Vector_332" d="M108.136 232.321L110.238 231.106C110.55 230.923 110.805 230.439 110.805 230.02V227.795C110.805 227.376 110.55 227.182 110.238 227.365L108.136 228.58C107.824 228.763 107.569 229.247 107.569 229.666V231.89C107.569 232.309 107.82 232.5 108.136 232.321Z" fill="#E3E7F2"/>
</g>
</g>
</g>
<defs>
<clipPath id="clip0_328_24496">
<rect width="235" height="246" fill="white"/>
</clipPath>
</defs>
</svg>
