<svg width="526" height="550" viewBox="0 0 526 550" fill="none" xmlns="http://www.w3.org/2000/svg">
<g clip-path="url(#clip0_819_6126)">
<path d="M35.2949 465.976C54.7877 465.976 70.5897 450.149 70.5897 430.626C70.5897 411.102 54.7877 395.275 35.2949 395.275C15.802 395.275 0 411.102 0 430.626C0 450.149 15.802 465.976 35.2949 465.976Z" fill="url(#paint0_linear_819_6126)"/>
<path d="M80.9783 195.472C89.054 195.472 95.6007 188.916 95.6007 180.827C95.6007 172.739 89.054 166.182 80.9783 166.182C72.9026 166.182 66.356 172.739 66.356 180.827C66.356 188.916 72.9026 195.472 80.9783 195.472Z" fill="url(#paint1_linear_819_6126)"/>
<path d="M499.728 349.745C514.238 349.745 526 337.964 526 323.432C526 308.899 514.238 297.118 499.728 297.118C485.218 297.118 473.456 308.899 473.456 323.432C473.456 337.964 485.218 349.745 499.728 349.745Z" fill="url(#paint2_linear_819_6126)"/>
<path opacity="0.8" d="M506.454 430.009C495.885 432.069 484.445 428.776 480.902 422.671C477.344 416.566 483.034 409.95 493.603 407.89C504.172 405.83 515.611 409.123 519.154 415.228C522.712 421.333 517.022 427.949 506.454 430.009Z" fill="#D8D8D8"/>
<path opacity="0.8" d="M35.7154 549.999C51.2201 549.999 63.7891 542.729 63.7891 533.76C63.7891 524.791 51.2201 517.521 35.7154 517.521C20.2106 517.521 7.6416 524.791 7.6416 533.76C7.6416 542.729 20.2106 549.999 35.7154 549.999Z" fill="#D8D8D8"/>
<path opacity="0.8" d="M80.9783 240.325C86.5418 240.325 91.0518 237.713 91.0518 234.491C91.0518 231.269 86.5418 228.657 80.9783 228.657C75.4149 228.657 70.9048 231.269 70.9048 234.491C70.9048 237.713 75.4149 240.325 80.9783 240.325Z" fill="#D8D8D8"/>
<path opacity="0.8" d="M181.293 119.914C181.293 121.989 179.612 123.658 177.555 123.658C175.483 123.658 173.817 121.974 173.817 119.914C173.817 117.839 175.498 116.17 177.555 116.17C179.612 116.17 181.293 117.854 181.293 119.914Z" fill="#FF3968"/>
<path opacity="0.8" d="M111.905 505.822C114.4 505.822 116.423 503.796 116.423 501.296C116.423 498.797 114.4 496.771 111.905 496.771C109.409 496.771 107.386 498.797 107.386 501.296C107.386 503.796 109.409 505.822 111.905 505.822Z" fill="#FF3968"/>
<path d="M85.6325 481.298C85.6325 482.576 84.5966 483.629 83.3055 483.629C82.0294 483.629 80.9785 482.592 80.9785 481.298C80.9785 480.02 82.0144 478.968 83.3055 478.968C84.5816 478.968 85.6325 480.005 85.6325 481.298Z" fill="#F5C800"/>
<path d="M479.851 395.425C479.851 396.749 478.77 397.831 477.449 397.831C476.128 397.831 475.047 396.749 475.047 395.425C475.047 394.102 476.128 393.02 477.449 393.02C478.77 393.02 479.851 394.102 479.851 395.425Z" fill="#F5C800"/>
<path d="M35.7152 233.138C35.7152 235.003 34.1989 236.521 32.3373 236.521C30.4758 236.521 28.9595 235.003 28.9595 233.138C28.9595 231.274 30.4758 229.755 32.3373 229.755C34.1989 229.755 35.7152 231.274 35.7152 233.138Z" fill="#F5C800"/>
<path d="M288.244 109.735C288.244 111.599 286.728 113.118 284.866 113.118C283.005 113.118 281.488 111.599 281.488 109.735C281.488 107.87 283.005 106.352 284.866 106.352C286.728 106.352 288.244 107.87 288.244 109.735Z" fill="#F5C800"/>
<path d="M49.467 225.635C49.467 226.673 48.6263 227.515 47.5905 227.515C46.5546 227.515 45.7139 226.673 45.7139 225.635C45.7139 224.598 46.5546 223.756 47.5905 223.756C48.6263 223.771 49.467 224.598 49.467 225.635Z" fill="#F5C800"/>
<path d="M371.534 121.824C371.534 123.042 370.544 124.034 369.327 124.034C368.111 124.034 367.121 123.042 367.121 121.824C367.121 120.606 368.111 119.613 369.327 119.613C370.544 119.613 371.534 120.606 371.534 121.824Z" fill="#FF3968"/>
<path d="M46.8996 344.107L46.0889 341.205L52.5143 339.4L50.7128 332.965L53.6102 332.168L56.2224 341.491L46.8996 344.107Z" fill="#F5C800"/>
<path d="M41.2247 354.197L40.4141 351.295L46.8395 349.49L45.053 343.055L47.9354 342.258L50.5476 351.58L41.2247 354.197Z" fill="#F5C800"/>
<path d="M47.2447 350.949L44.6475 341.611L53.9553 339.01L54.766 341.897L48.3406 343.701L50.1421 350.137L47.2447 350.949Z" fill="#F5C800"/>
<path d="M268.967 128.982C265.019 128.982 261.821 125.764 261.821 121.824C261.821 117.885 265.034 114.667 268.967 114.667C272.901 114.667 276.113 117.87 276.113 121.824C276.113 125.779 272.916 128.982 268.967 128.982ZM268.967 117.674C266.685 117.674 264.824 119.539 264.824 121.824C264.824 124.11 266.685 125.974 268.967 125.974C271.249 125.974 273.111 124.11 273.111 121.824C273.111 119.539 271.264 117.674 268.967 117.674Z" fill="#F5C800"/>
<path d="M425.73 487.087L417.623 478.967L425.73 470.848L433.837 478.967L425.73 487.087ZM421.857 478.967L425.715 482.832L429.573 478.967L425.715 475.103L421.857 478.967Z" fill="#F5C800"/>
<path d="M445.022 190.62L442.898 192.746L451.582 201.443L453.705 199.317L445.022 190.62Z" fill="#FF3968"/>
<path d="M451.588 190.636L442.905 199.333L445.028 201.459L453.711 192.762L451.588 190.636Z" fill="#FF3968"/>
<path d="M259.059 539.444C252.679 539.444 246.583 538.151 242.035 535.52L103.873 455.631C99.3539 453.015 96.8618 449.361 96.8618 445.362C96.8618 440.565 100.42 435.768 106.62 432.175L239.272 355.459C250.802 348.798 268.337 348.076 278.35 353.865L416.512 433.754C421.031 436.37 423.523 440.009 423.523 444.023C423.523 448.82 419.965 453.617 413.765 457.21L281.113 533.926C274.822 537.565 266.731 539.444 259.059 539.444ZM261.341 351.414C253.94 351.414 246.133 353.219 240.038 356.737L107.386 433.453C101.666 436.761 98.3781 441.091 98.3781 445.332C98.3781 448.79 100.6 451.978 104.638 454.308L242.8 534.196C252.408 539.745 269.253 539.038 280.377 532.603L413.029 455.887C418.749 452.579 422.037 448.249 422.037 444.008C422.037 440.55 419.815 437.362 415.777 435.032L277.615 355.143C273.276 352.647 267.451 351.414 261.341 351.414Z" fill="url(#paint3_linear_819_6126)"/>
<path opacity="0.8" d="M247.064 511.326L144.978 452.293C137.712 448.098 138.628 440.761 147.005 435.919L245.023 379.232C253.4 374.39 266.085 373.864 273.337 378.059L375.423 437.092C382.689 441.287 381.773 448.624 373.396 453.466L275.378 510.153C267.001 514.995 254.315 515.521 247.064 511.326Z" fill="#D8D8D8"/>
<path d="M387.493 263.994H333.838L274.117 229.455C266.43 225.005 252.994 225.561 244.107 230.703L186.548 263.994H132.938V414.508H132.953C132.727 417.515 134.409 420.417 138.102 422.567L246.283 485.119C253.97 489.569 267.406 489.013 276.294 483.871L380.152 423.815C384.761 421.154 387.223 417.771 387.463 414.508H387.508V263.994H387.493Z" fill="url(#paint4_linear_819_6126)"/>
<path d="M146.509 263.993H132.922V414.507H132.938C132.787 416.642 133.598 418.717 135.4 420.507C134.259 418.973 133.733 417.289 133.853 415.56H133.838V265.046H147.56C147.245 264.685 146.884 264.339 146.509 263.993Z" fill="#FF3968"/>
<path d="M370.318 263.993C370.213 264.294 370.123 264.595 370.003 264.895H386.517V415.409H386.472C386.322 417.424 385.316 419.484 383.484 421.409C385.931 419.244 387.268 416.853 387.433 414.507H387.478V263.993H370.318Z" fill="#F5C800"/>
<path opacity="0.5" d="M170.83 441.482V266.91H151.343V430.22L170.83 441.482Z" fill="#FF3968"/>
<path opacity="0.3" d="M182.78 448.399V278.639H177.465V445.317L182.78 448.399Z" fill="#FF3968"/>
<path opacity="0.15" d="M192.313 453.902V280.684H186.983V450.835L192.313 453.902Z" fill="#FF3968"/>
<path d="M246.268 334.604L138.087 272.053C130.4 267.602 131.361 259.843 140.249 254.701L244.107 194.646C252.994 189.503 266.415 188.947 274.117 193.398L382.298 255.949C389.985 260.4 389.024 268.159 380.137 273.301L276.279 333.356C267.406 338.499 253.97 339.055 246.268 334.604Z" fill="url(#paint5_linear_819_6126)"/>
<path d="M247.469 334.604L139.288 272.053C131.601 267.602 132.562 259.843 141.435 254.701L245.293 194.645C249.691 192.104 255.216 190.691 260.591 190.45C254.841 190.525 248.836 191.924 244.107 194.645L140.249 254.701C131.361 259.843 130.4 267.602 138.087 272.053L246.268 334.604C250.157 336.844 255.501 337.807 260.981 337.566C255.922 337.626 251.057 336.679 247.469 334.604Z" fill="#FF3968"/>
<path d="M382.299 255.949L274.117 193.397C270.229 191.157 264.869 190.195 259.39 190.45C264.389 190.405 269.178 191.352 272.736 193.397L380.917 255.949C388.604 260.399 387.643 268.158 378.756 273.301L274.898 333.356C270.499 335.897 265.004 337.31 259.63 337.551C265.44 337.506 271.52 336.108 276.294 333.356L380.152 273.301C389.024 268.158 389.985 260.399 382.299 255.949Z" fill="#F5C800"/>
<path d="M249.827 316.56L169.283 269.993C163.564 266.685 164.269 260.896 170.89 257.076L248.22 212.358C254.826 208.539 264.839 208.118 270.559 211.426L351.102 257.994C356.822 261.302 356.117 267.091 349.496 270.91L272.166 315.628C265.56 319.462 255.561 319.883 249.827 316.56Z" fill="#F5C800"/>
<path d="M170.905 265.783L248.235 221.064C254.841 217.245 264.854 216.824 270.574 220.132L351.117 266.7C351.868 267.136 352.498 267.617 353.024 268.113C356.101 264.64 355.561 260.565 351.117 257.994L270.574 211.426C264.854 208.118 254.841 208.524 248.235 212.358L170.905 257.077C165.155 260.4 163.864 265.196 167.392 268.579C168.262 267.587 169.433 266.625 170.905 265.783Z" fill="#FF461D"/>
<path d="M279.371 345.295L370.874 292.277C371.714 291.796 372.39 290.487 372.39 289.375V287.871C372.39 286.758 371.714 286.232 370.874 286.728L279.371 339.747C278.531 340.228 277.855 341.536 277.855 342.649V344.152C277.855 345.265 278.531 345.776 279.371 345.295Z" fill="#F5C800"/>
<path d="M368.877 291.134C369.718 290.653 370.393 289.345 370.393 288.232V287.015L370.874 286.729C371.714 286.248 372.39 286.759 372.39 287.872V289.375C372.39 290.488 371.714 291.796 370.874 292.277L279.371 345.295C278.531 345.777 277.855 345.265 277.855 344.153V343.867L368.877 291.134Z" fill="#FF461D"/>
<path d="M279.371 361.414L370.874 308.396C371.714 307.915 372.39 306.607 372.39 305.494V303.99C372.39 302.878 371.714 302.351 370.874 302.848L279.371 355.866C278.531 356.347 277.855 357.655 277.855 358.768V360.271C277.855 361.384 278.531 361.895 279.371 361.414Z" fill="#F5C800"/>
<path d="M368.877 307.254C369.718 306.772 370.393 305.464 370.393 304.352V303.134L370.874 302.848C371.714 302.367 372.39 302.878 372.39 303.991V305.494C372.39 306.607 371.714 307.915 370.874 308.396L279.371 361.415C278.531 361.896 277.855 361.385 277.855 360.272V359.986L368.877 307.254Z" fill="#FF461D"/>
<path d="M279.371 377.548L370.874 324.53C371.714 324.049 372.39 322.74 372.39 321.628V320.124C372.39 319.011 371.714 318.485 370.874 318.981L279.371 372C278.531 372.481 277.855 373.789 277.855 374.902V376.405C277.855 377.518 278.531 378.029 279.371 377.548Z" fill="#F5C800"/>
<path d="M368.877 323.387C369.718 322.906 370.393 321.598 370.393 320.485V319.267L370.874 318.982C371.714 318.501 372.39 319.012 372.39 320.125V321.628C372.39 322.741 371.714 324.049 370.874 324.53L279.371 377.548C278.531 378.03 277.855 377.518 277.855 376.406V376.12L368.877 323.387Z" fill="#FF461D"/>
<path d="M279.371 393.682L370.874 340.664C371.714 340.182 372.39 338.874 372.39 337.762V336.258C372.39 335.145 371.714 334.619 370.874 335.115L279.371 388.133C278.531 388.614 277.855 389.923 277.855 391.035V392.539C277.855 393.652 278.531 394.163 279.371 393.682Z" fill="#F5C800"/>
<path d="M368.877 339.521C369.718 339.04 370.393 337.732 370.393 336.619V335.401L370.874 335.116C371.714 334.634 372.39 335.146 372.39 336.258V337.762C372.39 338.875 371.714 340.183 370.874 340.664L279.371 393.682C278.531 394.163 277.855 393.652 277.855 392.539V392.254L368.877 339.521Z" fill="#FF461D"/>
<path d="M279.371 409.801L370.874 356.783C371.714 356.302 372.39 354.993 372.39 353.881V352.377C372.39 351.264 371.714 350.738 370.874 351.234L279.371 404.252C278.531 404.734 277.855 406.042 277.855 407.154V408.658C277.855 409.771 278.531 410.297 279.371 409.801Z" fill="#F5C800"/>
<path d="M368.877 355.655C369.718 355.174 370.393 353.866 370.393 352.753V351.535L370.874 351.249C371.714 350.768 372.39 351.279 372.39 352.392V353.896C372.39 355.008 371.714 356.317 370.874 356.798L279.371 409.816C278.531 410.297 277.855 409.786 277.855 408.673V408.388L368.877 355.655Z" fill="#FF461D"/>
<path d="M279.371 425.935L370.874 372.916C371.714 372.435 372.39 371.127 372.39 370.014V368.511C372.39 367.398 371.714 366.872 370.874 367.368L279.371 420.386C278.531 420.867 277.855 422.176 277.855 423.288V424.792C277.855 425.905 278.531 426.416 279.371 425.935Z" fill="#F5C800"/>
<path d="M368.877 371.774C369.718 371.293 370.393 369.985 370.393 368.872V367.654L370.874 367.368C371.714 366.887 372.39 367.399 372.39 368.511V370.015C372.39 371.128 371.714 372.436 370.874 372.917L279.371 425.935C278.531 426.416 277.855 425.905 277.855 424.792V424.507L368.877 371.774Z" fill="#FF461D"/>
<path d="M279.371 442.069L370.874 389.051C371.714 388.57 372.39 387.262 372.39 386.149V384.646C372.39 383.533 371.714 383.007 370.874 383.503L279.371 436.521C278.531 437.002 277.855 438.31 277.855 439.423V440.927C277.855 442.039 278.531 442.551 279.371 442.069Z" fill="#F5C800"/>
<path d="M368.877 387.909C369.718 387.428 370.393 386.12 370.393 385.007V383.789L370.874 383.503C371.714 383.022 372.39 383.533 372.39 384.646V386.15C372.39 387.262 371.714 388.57 370.874 389.052L279.371 442.07C278.531 442.551 277.855 442.04 277.855 440.927V440.641L368.877 387.909Z" fill="#FF461D"/>
<path d="M279.371 458.188L370.874 405.17C371.714 404.689 372.39 403.381 372.39 402.268V400.764C372.39 399.651 371.714 399.14 370.874 399.621L279.371 452.64C278.531 453.121 277.855 454.429 277.855 455.542V457.045C277.855 458.158 278.531 458.684 279.371 458.188Z" fill="#F5C800"/>
<path d="M368.877 404.042C369.718 403.561 370.393 402.252 370.393 401.14V399.922L370.874 399.636C371.714 399.155 372.39 399.666 372.39 400.779V402.282C372.39 403.395 371.714 404.703 370.874 405.184L279.371 458.203C278.531 458.684 277.855 458.173 277.855 457.06V456.774L368.877 404.042Z" fill="#FF461D"/>
<path d="M279.371 474.322L370.874 421.304C371.714 420.823 372.39 419.515 372.39 418.402V416.899C372.39 415.786 371.714 415.26 370.874 415.756L279.371 468.774C278.531 469.255 277.855 470.563 277.855 471.676V473.18C277.855 474.292 278.531 474.804 279.371 474.322Z" fill="#F5C800"/>
<path d="M368.877 420.162C369.718 419.681 370.393 418.372 370.393 417.26V416.042L370.874 415.756C371.714 415.275 372.39 415.786 372.39 416.899V418.403C372.39 419.515 371.714 420.823 370.874 421.305L279.371 474.323C278.531 474.804 277.855 474.293 277.855 473.18V472.894L368.877 420.162Z" fill="#FF461D"/>
<path d="M260.2 350.377C261.56 350.377 262.662 349.273 262.662 347.911C262.662 346.549 261.56 345.445 260.2 345.445C258.841 345.445 257.738 346.549 257.738 347.911C257.738 349.273 258.841 350.377 260.2 350.377Z" fill="#F5C800"/>
<path d="M260.2 349.445C258.999 349.445 258.009 348.588 257.783 347.445C257.753 347.596 257.738 347.746 257.738 347.911C257.738 349.265 258.834 350.377 260.2 350.377C261.552 350.377 262.662 349.28 262.662 347.911C262.662 347.746 262.647 347.596 262.617 347.445C262.392 348.588 261.401 349.445 260.2 349.445Z" fill="#FF461D"/>
<path d="M260.2 366.511C261.56 366.511 262.662 365.407 262.662 364.045C262.662 362.683 261.56 361.579 260.2 361.579C258.841 361.579 257.738 362.683 257.738 364.045C257.738 365.407 258.841 366.511 260.2 366.511Z" fill="#F5C800"/>
<path d="M260.2 365.579C258.999 365.579 258.009 364.722 257.783 363.579C257.753 363.729 257.738 363.88 257.738 364.045C257.738 365.398 258.834 366.511 260.2 366.511C261.552 366.511 262.662 365.414 262.662 364.045C262.662 363.88 262.647 363.729 262.617 363.579C262.392 364.722 261.401 365.579 260.2 365.579Z" fill="#FF461D"/>
<path d="M260.2 382.63C261.56 382.63 262.662 381.526 262.662 380.164C262.662 378.802 261.56 377.698 260.2 377.698C258.841 377.698 257.738 378.802 257.738 380.164C257.738 381.526 258.841 382.63 260.2 382.63Z" fill="#F5C800"/>
<path d="M260.2 381.713C258.999 381.713 258.009 380.856 257.783 379.713C257.753 379.863 257.738 380.014 257.738 380.179C257.738 381.532 258.834 382.645 260.2 382.645C261.552 382.645 262.662 381.547 262.662 380.179C262.662 380.014 262.647 379.863 262.617 379.713C262.392 380.841 261.401 381.713 260.2 381.713Z" fill="#FF461D"/>
<path d="M260.2 398.764C261.56 398.764 262.662 397.66 262.662 396.298C262.662 394.936 261.56 393.832 260.2 393.832C258.841 393.832 257.738 394.936 257.738 396.298C257.738 397.66 258.841 398.764 260.2 398.764Z" fill="#F5C800"/>
<path d="M260.2 397.832C258.999 397.832 258.009 396.975 257.783 395.832C257.753 395.982 257.738 396.133 257.738 396.298C257.738 397.651 258.834 398.764 260.2 398.764C261.552 398.764 262.662 397.666 262.662 396.298C262.662 396.133 262.647 395.982 262.617 395.832C262.392 396.975 261.401 397.832 260.2 397.832Z" fill="#FF461D"/>
<path d="M260.2 414.899C261.56 414.899 262.662 413.795 262.662 412.433C262.662 411.071 261.56 409.967 260.2 409.967C258.841 409.967 257.738 411.071 257.738 412.433C257.738 413.795 258.841 414.899 260.2 414.899Z" fill="#F5C800"/>
<path d="M260.2 413.967C258.999 413.967 258.009 413.11 257.783 411.967C257.753 412.117 257.738 412.268 257.738 412.433C257.738 413.786 258.834 414.899 260.2 414.899C261.552 414.899 262.662 413.801 262.662 412.433C262.662 412.268 262.647 412.117 262.617 411.967C262.392 413.11 261.401 413.967 260.2 413.967Z" fill="#FF461D"/>
<path d="M260.2 431.033C261.56 431.033 262.662 429.928 262.662 428.567C262.662 427.205 261.56 426.101 260.2 426.101C258.841 426.101 257.738 427.205 257.738 428.567C257.738 429.928 258.841 431.033 260.2 431.033Z" fill="#F5C800"/>
<path d="M260.2 430.1C258.999 430.1 258.009 429.243 257.783 428.101C257.753 428.251 257.738 428.401 257.738 428.567C257.738 429.92 258.834 431.033 260.2 431.033C261.552 431.033 262.662 429.935 262.662 428.567C262.662 428.401 262.647 428.251 262.617 428.101C262.392 429.243 261.401 430.1 260.2 430.1Z" fill="#FF461D"/>
<path d="M260.2 447.152C261.56 447.152 262.662 446.048 262.662 444.686C262.662 443.324 261.56 442.22 260.2 442.22C258.841 442.22 257.738 443.324 257.738 444.686C257.738 446.048 258.841 447.152 260.2 447.152Z" fill="#F5C800"/>
<path d="M260.2 446.22C258.999 446.22 258.009 445.362 257.783 444.22C257.753 444.37 257.738 444.52 257.738 444.686C257.738 446.039 258.834 447.152 260.2 447.152C261.552 447.152 262.662 446.054 262.662 444.686C262.662 444.52 262.647 444.37 262.617 444.22C262.392 445.362 261.401 446.22 260.2 446.22Z" fill="#FF461D"/>
<path d="M260.2 463.285C261.56 463.285 262.662 462.181 262.662 460.82C262.662 459.458 261.56 458.354 260.2 458.354C258.841 458.354 257.738 459.458 257.738 460.82C257.738 462.181 258.841 463.285 260.2 463.285Z" fill="#F5C800"/>
<path d="M260.2 462.353C258.999 462.353 258.009 461.496 257.783 460.354C257.753 460.504 257.738 460.654 257.738 460.82C257.738 462.173 258.834 463.286 260.2 463.286C261.552 463.286 262.662 462.188 262.662 460.82C262.662 460.654 262.647 460.504 262.617 460.354C262.392 461.496 261.401 462.353 260.2 462.353Z" fill="#FF461D"/>
<path d="M260.2 479.419C261.56 479.419 262.662 478.315 262.662 476.953C262.662 475.591 261.56 474.487 260.2 474.487C258.841 474.487 257.738 475.591 257.738 476.953C257.738 478.315 258.841 479.419 260.2 479.419Z" fill="#F5C800"/>
<path d="M260.2 478.487C258.999 478.487 258.009 477.63 257.783 476.487C257.753 476.638 257.738 476.788 257.738 476.953C257.738 478.307 258.834 479.419 260.2 479.419C261.552 479.419 262.662 478.322 262.662 476.953C262.662 476.788 262.647 476.638 262.617 476.487C262.392 477.63 261.401 478.487 260.2 478.487Z" fill="#FF461D"/>
<path d="M225.085 453.361C224.59 453.361 224.064 453.211 223.539 452.895L219.876 450.775C217.879 449.617 216.258 446.535 216.258 443.888V344.889C216.258 343.43 216.753 342.288 217.624 341.791C218.36 341.355 219.29 341.43 220.236 341.972L223.899 344.092C225.896 345.25 227.517 348.332 227.517 350.979V449.978C227.517 451.436 227.022 452.579 226.151 453.075C225.821 453.271 225.461 453.361 225.085 453.361ZM218.705 342.273C218.45 342.273 218.209 342.333 218.014 342.453C217.384 342.814 217.008 343.716 217.008 344.904V443.903C217.008 446.309 218.465 449.106 220.251 450.143L223.914 452.263C224.62 452.669 225.28 452.73 225.791 452.444C226.421 452.083 226.782 451.181 226.782 449.993V350.994C226.782 348.588 225.325 345.791 223.539 344.754L219.876 342.633C219.456 342.393 219.065 342.273 218.705 342.273Z" fill="#FF461D"/>
<path d="M164.119 418.642C163.624 418.642 163.098 418.492 162.573 418.176L158.91 416.056C156.913 414.898 155.292 411.816 155.292 409.169V310.17C155.292 308.712 155.787 307.569 156.658 307.073C157.393 306.637 158.324 306.712 159.27 307.253L162.933 309.373C164.93 310.531 166.551 313.613 166.551 316.26V415.259C166.551 416.718 166.056 417.861 165.185 418.357C164.87 418.552 164.509 418.642 164.119 418.642ZM159.285 415.41L162.948 417.53C163.654 417.936 164.314 417.996 164.825 417.71C165.455 417.349 165.83 416.447 165.83 415.259V316.26C165.83 313.854 164.374 311.057 162.588 310.02L158.925 307.9C158.219 307.494 157.558 307.433 157.048 307.719C156.417 308.08 156.042 308.982 156.042 310.17V409.169C156.042 411.59 157.498 414.387 159.285 415.41Z" fill="#FF461D"/>
<path d="M194.61 435.994C194.114 435.994 193.589 435.844 193.063 435.528L189.4 433.408C187.404 432.25 185.782 429.167 185.782 426.521V327.522C185.782 326.063 186.278 324.92 187.148 324.424C187.884 323.988 188.815 324.063 189.761 324.605L193.424 326.725C195.42 327.883 197.042 330.965 197.042 333.611V432.611C197.042 434.069 196.546 435.212 195.676 435.708C195.345 435.904 194.985 435.994 194.61 435.994ZM188.214 324.905C187.959 324.905 187.719 324.965 187.524 325.086C186.893 325.447 186.518 326.349 186.518 327.537V426.536C186.518 428.942 187.974 431.739 189.761 432.776L193.424 434.896C194.129 435.302 194.79 435.362 195.3 435.077C195.931 434.716 196.306 433.814 196.306 432.626V333.626C196.306 331.221 194.85 328.424 193.063 327.386L189.4 325.266C188.98 325.026 188.575 324.905 188.214 324.905Z" fill="#FF461D"/>
<path opacity="0.5" d="M357.107 241.258L353.654 260.113L371.609 249.798L357.107 241.258Z" fill="#494949"/>
<path d="M262.782 150.168L258.594 152.604L262.782 157.385V192.856C262.782 200.6 267.481 209.607 273.291 212.96L350.381 257.528C350.456 257.573 350.547 257.603 350.622 257.648L353.114 260.49L357.032 258.204C357.092 258.174 357.137 258.144 357.197 258.114L357.572 257.903L357.557 257.888C359.614 256.52 360.89 253.633 360.89 249.588V206.9L262.782 150.168Z" fill="url(#paint6_linear_819_6126)"/>
<path d="M258.594 152.604L356.687 209.321V252.009C356.687 259.753 351.988 263.316 346.178 259.963L269.088 215.395C263.293 212.042 258.579 203.051 258.579 195.292V152.604H258.594Z" fill="#F5C800"/>
<path opacity="0.5" d="M256.282 318.59L237.501 329.537L153.22 280.804L170.68 270.76L256.282 318.59Z" fill="#38025B"/>
<path d="M355.035 38.0117H165.5V263.452H165.62C165.185 265.888 166.386 268.279 169.358 269.993L249.886 316.56C255.606 319.868 265.62 319.462 272.225 315.628L349.541 270.91C353.234 268.775 355.02 266.023 354.93 263.437H355.005V38.0117H355.035Z" fill="url(#paint7_linear_819_6126)"/>
<path d="M167.256 207.742L163.067 210.178L167.256 214.96V250.43C167.256 258.174 171.955 267.181 177.765 270.534L254.855 315.102C254.93 315.147 255.02 315.177 255.095 315.222L257.587 318.064L261.506 315.778C261.566 315.748 261.611 315.718 261.671 315.688L262.046 315.478L262.031 315.463C264.088 314.094 265.364 311.207 265.364 307.163V264.474L167.256 207.742Z" fill="url(#paint8_linear_819_6126)"/>
<path d="M163.053 210.178L261.146 266.895V309.583C261.146 317.327 256.447 320.89 250.637 317.537L173.546 272.97C167.752 269.616 163.038 260.625 163.038 252.866V210.178H163.053Z" fill="url(#paint9_linear_819_6126)"/>
<path d="M4.15853 193.217C5.37735 193.217 6.36539 192.227 6.36539 191.006C6.36539 189.786 5.37735 188.796 4.15853 188.796C2.93971 188.796 1.95166 189.786 1.95166 191.006C1.95166 192.227 2.93971 193.217 4.15853 193.217Z" fill="#FF3968"/>
<path d="M204.098 23.9072C286.052 -43.4106 389.88 45.9054 297.807 113.885C257.603 143.597 311.559 153.355 244.707 152.649C241.509 127.267 238.927 119.764 244.662 110.938C255.096 94.8939 273.516 91.5558 283.83 74.0234C295.45 54.2656 279.912 31.8314 249.916 40.7931C218.105 50.3111 228.854 62.8965 204.098 23.9072Z" fill="url(#paint10_linear_819_6126)"/>
<path d="M239.603 188.811C239.933 157.25 288.664 158.032 288.334 189.323C288.019 220.704 239.272 220.463 239.603 188.811Z" fill="#F5C501"/>
</g>
<defs>
<linearGradient id="paint0_linear_819_6126" x1="60.2541" y1="405.622" x2="10.2594" y2="455.538" gradientUnits="userSpaceOnUse">
<stop stop-color="#FF3968"/>
<stop offset="0.0404" stop-color="#F23763"/>
<stop offset="0.3668" stop-color="#91253E"/>
<stop offset="0.6307" stop-color="#491723"/>
<stop offset="0.819" stop-color="#1D0F12"/>
<stop offset="0.914" stop-color="#0C0C0C"/>
</linearGradient>
<linearGradient id="paint1_linear_819_6126" x1="95.5989" y1="180.832" x2="66.3654" y2="180.832" gradientUnits="userSpaceOnUse">
<stop stop-color="#F5C800"/>
<stop offset="0.1373" stop-color="#F5C201"/>
<stop offset="0.3215" stop-color="#F7B105"/>
<stop offset="0.5324" stop-color="#F9950B"/>
<stop offset="0.7611" stop-color="#FC6E14"/>
<stop offset="0.9624" stop-color="#FF461D"/>
</linearGradient>
<linearGradient id="paint2_linear_819_6126" x1="473.119" y1="310.188" x2="532.009" y2="339.407" gradientUnits="userSpaceOnUse">
<stop stop-color="#F5C800"/>
<stop offset="0.1373" stop-color="#F5C201"/>
<stop offset="0.3215" stop-color="#F7B105"/>
<stop offset="0.5324" stop-color="#F9950B"/>
<stop offset="0.7611" stop-color="#FC6E14"/>
<stop offset="0.9624" stop-color="#FF461D"/>
</linearGradient>
<linearGradient id="paint3_linear_819_6126" x1="96.8662" y1="444.689" x2="423.533" y2="444.689" gradientUnits="userSpaceOnUse">
<stop stop-color="#FF3968"/>
<stop offset="0.2258" stop-color="#161616"/>
<stop offset="0.5108" stop-color="#F5C800"/>
<stop offset="0.7796" stop-color="#F5C800"/>
<stop offset="1" stop-color="#F5C800"/>
</linearGradient>
<linearGradient id="paint4_linear_819_6126" x1="108.839" y1="357.292" x2="418.998" y2="357.292" gradientUnits="userSpaceOnUse">
<stop stop-color="#0F0F0F"/>
<stop offset="0.0877" stop-color="#111111"/>
<stop offset="0.4785" stop-color="#141414"/>
<stop offset="1" stop-color="#2D2D2D"/>
</linearGradient>
<linearGradient id="paint5_linear_819_6126" x1="130.832" y1="264.004" x2="369.653" y2="323.006" gradientUnits="userSpaceOnUse">
<stop stop-color="#161616"/>
<stop offset="0.4442" stop-color="#1E1E1E"/>
<stop offset="1" stop-color="#303030"/>
</linearGradient>
<linearGradient id="paint6_linear_819_6126" x1="150.002" y1="168.969" x2="361.214" y2="217.442" gradientUnits="userSpaceOnUse">
<stop stop-color="#161616"/>
<stop offset="0.4442" stop-color="#1E1E1E"/>
<stop offset="1" stop-color="#303030"/>
</linearGradient>
<linearGradient id="paint7_linear_819_6126" x1="260.269" y1="318.801" x2="260.269" y2="38.014" gradientUnits="userSpaceOnUse">
<stop offset="6.81957e-07" stop-color="#F5C800"/>
<stop offset="0.0805" stop-color="#F6CD15" stop-opacity="0.9195"/>
<stop offset="0.7223" stop-color="#FCF1BC" stop-opacity="0.2777"/>
<stop offset="1" stop-color="white" stop-opacity="0"/>
</linearGradient>
<linearGradient id="paint8_linear_819_6126" x1="54.4732" y1="226.543" x2="265.685" y2="275.017" gradientUnits="userSpaceOnUse">
<stop stop-color="#161616"/>
<stop offset="0.4442" stop-color="#1E1E1E"/>
<stop offset="1" stop-color="#303030"/>
</linearGradient>
<linearGradient id="paint9_linear_819_6126" x1="146.914" y1="264.787" x2="327.904" y2="215.021" gradientUnits="userSpaceOnUse">
<stop stop-color="#161616"/>
<stop offset="0.4442" stop-color="#1E1E1E"/>
<stop offset="1" stop-color="#303030"/>
</linearGradient>
<linearGradient id="paint10_linear_819_6126" x1="268.972" y1="152.679" x2="268.972" y2="-0.00058091" gradientUnits="userSpaceOnUse">
<stop stop-color="#F5C800"/>
<stop offset="0.1373" stop-color="#F5C201"/>
<stop offset="0.3215" stop-color="#F7B105"/>
<stop offset="0.5324" stop-color="#F9950B"/>
<stop offset="0.7611" stop-color="#FC6E14"/>
<stop offset="0.9624" stop-color="#FF461D"/>
</linearGradient>
<clipPath id="clip0_819_6126">
<rect width="526" height="550" fill="white"/>
</clipPath>
</defs>
</svg>
