<svg width="225" height="220" viewBox="0 0 225 220" fill="none" xmlns="http://www.w3.org/2000/svg">
<g id="Frame" clip-path="url(#clip0_328_24965)">
<g id="Group">
<path id="Vector" d="M220.88 62.5647L113.991 0.659047C112.748 -0.0533303 111.488 -0.177996 110.369 0.213811V0.196002L110.174 0.26724C110.156 0.26724 110.138 0.285049 110.121 0.285049L106.268 1.78104L109.73 3.49075C109.712 3.56199 109.694 3.61541 109.677 3.68665L90.8024 89.8309C89.9323 93.8024 91.6724 98.4507 94.7086 100.214L199.041 160.623L198.668 165.058L202.894 163.42C204.314 162.761 205.451 161.247 205.912 159.11L224.805 72.9476C225.657 68.9582 223.899 64.31 220.88 62.5647Z" fill="#154098"/>
<path id="Vector_2" d="M220.881 62.5647L113.991 0.659047C112.749 -0.0533303 111.488 -0.177996 110.369 0.213811V0.196002L110.174 0.26724C110.156 0.26724 110.138 0.285049 110.121 0.285049L106.268 1.78104L109.73 3.49075C109.712 3.56199 109.695 3.61541 109.677 3.68665L96.7329 62.7428L149.041 103.615L224.272 66.8567C223.544 65.0046 222.372 63.4373 220.881 62.5647Z" fill="#4769AE"/>
<path id="Vector_3" d="M216.85 74.7819L224.982 71.3091C225.124 68.1568 223.828 64.8798 221.68 63.1345L208.807 68.5664L216.85 74.7819Z" fill="#2951A1"/>
<path id="Vector_4" d="M194.94 164.631L88.0503 102.725C85.0319 100.98 83.274 96.3314 84.1441 92.3421L103.036 6.19779C103.906 2.22629 107.067 0.409725 110.085 2.17286L216.974 64.0785C219.993 65.8238 221.751 70.4721 220.881 74.4614L201.989 160.623C201.119 164.577 197.958 166.376 194.94 164.631Z" fill="#E3E8F3"/>
<path id="Vector_5" d="M218.004 63.6864L111.115 1.78083C109.641 0.925973 108.168 0.925973 106.907 1.60273C107.919 1.38902 109.002 1.53149 110.085 2.15482L216.974 64.0604C219.993 65.8058 221.751 70.454 220.881 74.4433L201.989 160.605C201.545 162.653 200.479 164.114 199.148 164.826C200.959 164.434 202.45 162.796 203.018 160.231L221.911 74.0693C222.781 70.08 221.023 65.4496 218.004 63.6864Z" fill="white"/>
<path id="Vector_6" d="M192.614 158.718L92.0809 100.534C89.311 98.9315 87.713 94.6751 88.512 91.042L105.913 11.6297C106.712 7.99654 109.606 6.34027 112.358 7.94311L212.891 66.1266C215.66 67.7294 217.258 71.9859 216.459 75.619L199.059 155.031C198.278 158.664 195.383 160.321 192.614 158.718Z" fill="white"/>
<path id="Vector_7" d="M192.614 158.718L92.0809 100.534C89.311 98.9315 87.713 94.6751 88.512 91.042L105.913 11.6297C106.712 7.99654 109.606 6.34027 112.358 7.94311L212.891 66.1266C215.66 67.7294 217.258 71.9859 216.459 75.619L199.059 155.031C198.278 158.664 195.383 160.321 192.614 158.718Z" fill="#154098"/>
<path id="Vector_8" d="M193.484 158.362L92.9509 100.16C90.181 98.5574 88.583 94.3009 89.382 90.6678L106.783 11.2555C107.191 9.42117 108.132 8.08546 109.322 7.42651C107.724 7.83613 106.41 9.33212 105.913 11.6117L88.512 91.024C87.713 94.6572 89.311 98.9136 92.0809 100.516L192.614 158.7C193.981 159.484 195.383 159.484 196.538 158.842C195.579 159.11 194.531 158.967 193.484 158.362Z" fill="#728CC1"/>
<path id="Vector_9" d="M196.413 167.32L181.8 165.379L87.4821 110.775C84.4636 109.029 79.1724 109.243 75.6923 111.273L8.84215 149.956L-0.00018036 148.78V153.802C-0.0534474 154.96 0.603513 156.082 2.02397 156.901L108.913 218.807C111.932 220.552 117.223 220.338 120.703 218.308L193.483 176.171C195.454 175.031 196.431 173.571 196.378 172.2V167.32H196.413Z" fill="#154098"/>
<path id="Vector_10" d="M125.532 132.805L118.839 128.923H45.1525L8.84215 149.956L-0.00018036 148.78V153.802C-0.0534474 154.96 0.603513 156.082 2.02397 156.901L108.913 218.807C110.511 219.733 112.748 220.107 115.003 219.947L125.532 132.805Z" fill="#4769AE"/>
<path id="Vector_11" d="M3.92383 149.297L-0.00018036 148.78V153.802C-0.0534474 154.96 0.603513 156.082 2.02397 156.901L3.90607 157.988V149.297H3.92383Z" fill="#728CC1"/>
<path id="Vector_12" d="M110.014 219.323C112.873 220.41 116.974 220.178 120.046 218.7V207.48H110.014V219.323Z" fill="#2951A1"/>
<path id="Vector_13" d="M108.931 213.802L2.04174 151.897C-0.976724 150.151 -0.603855 147.088 2.89401 145.058L75.6746 102.921C79.1724 100.89 84.4459 100.677 87.4643 102.422L194.354 164.328C197.372 166.073 196.999 169.136 193.501 171.166L120.738 213.304C117.241 215.334 111.967 215.548 108.931 213.802Z" fill="#E3E8F3"/>
<path id="Vector_14" d="M193.519 169.332L120.738 211.469C117.241 213.499 111.967 213.713 108.949 211.968L2.04171 150.062C1.04739 149.492 0.425941 148.78 0.159605 147.996C-0.319798 149.439 0.283895 150.881 2.04171 151.897L108.931 213.802C111.949 215.548 117.241 215.334 120.721 213.304L193.501 171.166C195.845 169.813 196.786 167.979 196.236 166.393C195.898 167.444 194.993 168.477 193.519 169.332Z" fill="white"/>
<g id="Group_2">
<path id="Vector_15" d="M47.5142 131.398L42.6847 128.602C42.294 128.371 42.3473 127.979 42.7912 127.73L48.5085 124.417C48.9524 124.15 49.6271 124.132 50.0178 124.346L54.8473 127.142C55.2379 127.373 55.1847 127.765 54.7408 128.014L49.0234 131.327C48.5795 131.594 47.8871 131.63 47.5142 131.398Z" fill="#728CC1"/>
<path id="Vector_16" d="M54.9715 135.726L50.1419 132.93C49.7513 132.698 49.8046 132.306 50.2485 132.057L55.9658 128.745C56.4097 128.477 57.0844 128.46 57.475 128.673L62.3046 131.469C62.6952 131.701 62.6419 132.093 62.198 132.342L56.4807 135.655C56.0368 135.922 55.3621 135.957 54.9715 135.726Z" fill="#728CC1"/>
<path id="Vector_17" d="M62.4468 140.054L57.6173 137.257C57.2267 137.026 57.2799 136.634 57.7238 136.385L63.4411 133.072C63.885 132.805 64.5598 132.787 64.9504 133.001L69.7799 135.797C70.1705 136.029 70.1173 136.42 69.6734 136.67L63.9561 139.982C63.5122 140.249 62.8374 140.267 62.4468 140.054Z" fill="#728CC1"/>
<path id="Vector_18" d="M72.7806 136.474L67.951 133.678C67.5604 133.446 67.6137 133.054 68.0576 132.805L72.8516 130.027C73.2955 129.76 73.9702 129.742 74.3608 129.956L79.1904 132.752C79.581 132.983 79.5277 133.375 79.0838 133.624L74.2898 136.403C73.8459 136.67 73.1712 136.705 72.7806 136.474Z" fill="#728CC1"/>
<path id="Vector_19" d="M80.2378 140.801L75.4083 138.005C75.0177 137.774 75.0709 137.382 75.5148 137.133L80.3089 134.354C80.7528 134.087 81.4275 134.069 81.8181 134.283L86.6476 137.079C87.0383 137.311 86.985 137.703 86.5411 137.952L81.7471 140.73C81.3032 140.997 80.6285 141.033 80.2378 140.801Z" fill="#728CC1"/>
<path id="Vector_20" d="M87.7132 145.129L82.8836 142.333C82.493 142.102 82.5463 141.71 82.9902 141.461L87.7842 138.682C88.2281 138.415 88.9028 138.397 89.2934 138.611L94.123 141.407C94.5136 141.639 94.4603 142.031 94.0164 142.28L89.2224 145.058C88.7785 145.325 88.1038 145.361 87.7132 145.129Z" fill="#728CC1"/>
<path id="Vector_21" d="M95.1883 149.457L90.3587 146.661C89.9681 146.429 90.0214 146.038 90.4653 145.788L95.2593 143.01C95.7032 142.743 96.3779 142.725 96.7685 142.939L101.598 145.735C101.989 145.966 101.935 146.358 101.492 146.607L96.6975 149.386C96.2536 149.653 95.5789 149.671 95.1883 149.457Z" fill="#728CC1"/>
<path id="Vector_22" d="M102.646 153.785L97.816 150.989C97.4254 150.757 97.4787 150.365 97.9225 150.116L102.717 147.338C103.16 147.07 103.835 147.053 104.226 147.266L109.055 150.062C109.446 150.294 109.393 150.686 108.949 150.935L104.155 153.713C103.711 153.981 103.036 153.998 102.646 153.785Z" fill="#728CC1"/>
<path id="Vector_23" d="M110.121 158.112L105.291 155.298C104.9 155.067 104.954 154.675 105.398 154.426L110.192 151.647C110.636 151.38 111.31 151.362 111.701 151.576L116.53 154.372C116.921 154.604 116.868 154.996 116.424 155.245L111.63 158.023C111.186 158.308 110.511 158.326 110.121 158.112Z" fill="#728CC1"/>
<path id="Vector_24" d="M117.596 162.422L112.766 159.626C112.376 159.394 112.429 159.003 112.873 158.753L117.667 155.975C118.111 155.708 118.786 155.69 119.176 155.904L124.006 158.7C124.396 158.931 124.343 159.323 123.899 159.573L119.105 162.351C118.661 162.618 117.987 162.654 117.596 162.422Z" fill="#728CC1"/>
<path id="Vector_25" d="M125.053 166.75L120.224 163.954C119.833 163.722 119.886 163.331 120.33 163.081L125.124 160.303C125.568 160.036 126.243 160.018 126.634 160.232L131.463 163.028C131.854 163.259 131.8 163.651 131.357 163.9L126.563 166.679C126.119 166.946 125.444 166.981 125.053 166.75Z" fill="#728CC1"/>
<path id="Vector_26" d="M132.528 171.078L127.699 168.282C127.308 168.05 127.361 167.658 127.805 167.409L132.599 164.631C133.043 164.363 133.718 164.346 134.109 164.559L138.938 167.355C139.329 167.587 139.276 167.979 138.832 168.228L134.038 171.006C133.594 171.273 132.919 171.309 132.528 171.078Z" fill="#728CC1"/>
<path id="Vector_27" d="M140.003 175.405L135.174 172.609C134.783 172.378 134.837 171.986 135.28 171.736L140.074 168.958C140.518 168.691 141.193 168.673 141.584 168.887L146.413 171.683C146.804 171.915 146.751 172.306 146.307 172.556L141.513 175.334C141.069 175.601 140.376 175.637 140.003 175.405Z" fill="#728CC1"/>
<path id="Vector_28" d="M83.7713 134.426L78.9417 131.63C78.5511 131.398 78.6044 131.006 79.0483 130.757L83.8423 127.979C84.2862 127.712 84.9609 127.694 85.3515 127.907L90.1811 130.704C90.5717 130.935 90.5184 131.327 90.0746 131.576L85.2805 134.355C84.8544 134.622 84.1619 134.657 83.7713 134.426Z" fill="#728CC1"/>
<path id="Vector_29" d="M76.2073 130.045L71.3778 127.249C70.9872 127.017 71.0404 126.625 71.4843 126.376L76.2783 123.598C76.7222 123.33 77.397 123.313 77.7876 123.526L82.6171 126.322C83.0077 126.554 82.9545 126.946 82.5106 127.195L77.7166 129.973C77.2727 130.241 76.5802 130.258 76.2073 130.045Z" fill="#728CC1"/>
<path id="Vector_30" d="M68.608 125.646L58.1854 119.608C57.7948 119.377 57.848 118.985 58.2919 118.736L63.086 115.957C63.5298 115.69 64.2046 115.673 64.5952 115.886L75.0178 121.924C75.4084 122.155 75.3551 122.547 74.9112 122.796L70.1172 125.575C69.6733 125.842 68.9986 125.86 68.608 125.646Z" fill="#728CC1"/>
<path id="Vector_31" d="M73.9169 120.303L65.4652 115.405C65.0746 115.174 65.1278 114.782 65.5717 114.533L70.3657 111.754C70.8096 111.487 71.4844 111.469 71.875 111.683L80.3267 116.581C80.7173 116.812 80.664 117.204 80.2201 117.453L75.4261 120.232C74.9822 120.499 74.3075 120.517 73.9169 120.303Z" fill="#728CC1"/>
<path id="Vector_32" d="M91.2464 138.753L86.4168 135.957C86.0262 135.726 86.0795 135.334 86.5234 135.085L91.3174 132.306C91.7613 132.039 92.436 132.021 92.8266 132.235L97.6562 135.031C98.0468 135.263 97.9935 135.655 97.5496 135.904L92.7556 138.682C92.3117 138.949 91.637 138.985 91.2464 138.753Z" fill="#728CC1"/>
<path id="Vector_33" d="M98.7215 143.081L93.8919 140.285C93.5013 140.054 93.5546 139.662 93.9985 139.413L98.7925 136.634C99.2364 136.367 99.9111 136.349 100.302 136.563L105.131 139.359C105.522 139.591 105.469 139.982 105.025 140.232L100.231 143.01C99.7868 143.277 99.1121 143.313 98.7215 143.081Z" fill="#728CC1"/>
<path id="Vector_34" d="M106.179 147.409L101.349 144.613C100.959 144.381 101.012 143.989 101.456 143.74L106.25 140.962C106.694 140.695 107.369 140.677 107.759 140.891L112.589 143.687C112.979 143.918 112.926 144.31 112.482 144.559L107.688 147.338C107.262 147.605 106.57 147.623 106.179 147.409Z" fill="#728CC1"/>
<path id="Vector_35" d="M113.654 151.737L108.825 148.94C108.434 148.709 108.487 148.317 108.931 148.068L113.725 145.29C114.169 145.022 114.844 145.005 115.234 145.218L120.064 148.014C120.455 148.246 120.401 148.638 119.957 148.887L115.163 151.665C114.719 151.932 114.045 151.95 113.654 151.737Z" fill="#728CC1"/>
<path id="Vector_36" d="M121.129 156.064L116.3 153.268C115.909 153.037 115.962 152.645 116.406 152.395L121.2 149.617C121.644 149.35 122.319 149.332 122.709 149.546L127.539 152.342C127.93 152.574 127.876 152.965 127.432 153.215L122.638 155.993C122.195 156.26 121.52 156.278 121.129 156.064Z" fill="#728CC1"/>
<path id="Vector_37" d="M128.587 160.374L123.757 157.578C123.367 157.346 123.42 156.955 123.864 156.705L128.658 153.927C129.102 153.66 129.776 153.642 130.167 153.856L134.997 156.652C135.387 156.883 135.334 157.275 134.89 157.524L130.096 160.303C129.67 160.57 128.977 160.606 128.587 160.374Z" fill="#728CC1"/>
<path id="Vector_38" d="M136.062 164.702L131.232 161.906C130.842 161.674 130.895 161.282 131.339 161.033L136.133 158.255C136.577 157.988 137.251 157.97 137.642 158.184L142.472 160.98C142.862 161.211 142.809 161.603 142.365 161.852L137.571 164.631C137.127 164.898 136.452 164.933 136.062 164.702Z" fill="#728CC1"/>
<path id="Vector_39" d="M143.537 169.03L138.707 166.233C138.317 166.002 138.37 165.61 138.814 165.361L143.608 162.582C144.052 162.315 144.727 162.298 145.117 162.511L149.947 165.307C150.337 165.539 150.284 165.931 149.84 166.18L145.046 168.958C144.602 169.225 143.928 169.261 143.537 169.03Z" fill="#728CC1"/>
<path id="Vector_40" d="M150.994 173.357L146.165 170.561C145.774 170.33 145.828 169.938 146.271 169.688L151.065 166.91C151.509 166.643 152.184 166.625 152.575 166.839L157.404 169.635C157.795 169.866 157.742 170.258 157.298 170.508L152.504 173.286C152.078 173.553 151.385 173.589 150.994 173.357Z" fill="#728CC1"/>
<path id="Vector_41" d="M164.275 181.051L153.729 174.942C153.338 174.711 153.391 174.319 153.835 174.069L158.629 171.291C159.073 171.024 159.748 171.006 160.138 171.22L170.685 177.329C171.076 177.56 171.023 177.952 170.579 178.201L165.785 180.98C165.341 181.247 164.666 181.265 164.275 181.051Z" fill="#728CC1"/>
<path id="Vector_42" d="M178.817 172.627L169.904 167.462C169.514 167.231 169.567 166.839 170.011 166.59L174.805 163.811C175.249 163.544 175.923 163.526 176.314 163.74L185.227 168.905C185.618 169.136 185.565 169.528 185.121 169.777L180.327 172.556C179.883 172.823 179.208 172.858 178.817 172.627Z" fill="#728CC1"/>
<path id="Vector_43" d="M104.332 137.916L99.5028 135.12C99.1122 134.889 99.1654 134.497 99.6093 134.248L104.403 131.469C104.847 131.202 105.522 131.184 105.913 131.398L110.742 134.194C111.133 134.426 111.079 134.818 110.636 135.067L105.842 137.845C105.398 138.112 104.723 138.13 104.332 137.916Z" fill="#728CC1"/>
<path id="Vector_44" d="M96.6797 133.482L91.8502 130.686C91.4596 130.454 91.5128 130.062 91.9567 129.813L96.7508 127.035C97.1946 126.768 97.8694 126.75 98.26 126.964L103.09 129.76C103.48 129.991 103.427 130.383 102.983 130.632L98.189 133.411C97.7451 133.678 97.0704 133.696 96.6797 133.482Z" fill="#728CC1"/>
<path id="Vector_45" d="M89.0269 129.047L84.1974 126.251C83.8067 126.02 83.86 125.628 84.3039 125.379L89.0979 122.6C89.5418 122.333 90.2165 122.315 90.6072 122.529L95.4367 125.325C95.8273 125.557 95.7741 125.948 95.3302 126.198L90.5361 128.976C90.0922 129.243 89.3998 129.261 89.0269 129.047Z" fill="#728CC1"/>
<path id="Vector_46" d="M81.3565 124.613L76.5269 121.817C76.1363 121.585 76.1896 121.193 76.6335 120.944L81.4275 118.166C81.8714 117.899 82.5461 117.881 82.9367 118.094L87.7663 120.891C88.1569 121.122 88.1036 121.514 87.6598 121.763L82.8657 124.542C82.4218 124.809 81.7471 124.826 81.3565 124.613Z" fill="#728CC1"/>
<path id="Vector_47" d="M111.79 142.226L106.96 139.43C106.57 139.199 106.623 138.807 107.067 138.558L111.861 135.779C112.305 135.512 112.979 135.494 113.37 135.708L118.2 138.504C118.59 138.736 118.537 139.127 118.093 139.377L113.299 142.155C112.873 142.422 112.18 142.458 111.79 142.226Z" fill="#728CC1"/>
<path id="Vector_48" d="M119.265 146.554L114.435 143.758C114.045 143.526 114.098 143.135 114.542 142.885L119.336 140.107C119.78 139.84 120.455 139.822 120.845 140.036L125.675 142.832C126.065 143.063 126.012 143.455 125.568 143.704L120.774 146.483C120.33 146.75 119.656 146.785 119.265 146.554Z" fill="#728CC1"/>
<path id="Vector_49" d="M126.74 150.882L121.91 148.086C121.52 147.854 121.573 147.462 122.017 147.213L126.811 144.435C127.255 144.168 127.93 144.15 128.32 144.364L133.15 147.16C133.54 147.391 133.487 147.783 133.043 148.032L128.249 150.811C127.805 151.078 127.131 151.113 126.74 150.882Z" fill="#728CC1"/>
<path id="Vector_50" d="M134.198 155.209L129.368 152.413C128.977 152.182 129.031 151.79 129.475 151.541L134.269 148.762C134.712 148.495 135.387 148.477 135.778 148.691L140.607 151.487C140.998 151.719 140.945 152.111 140.501 152.36L135.707 155.138C135.281 155.405 134.588 155.441 134.198 155.209Z" fill="#728CC1"/>
<path id="Vector_51" d="M141.673 159.537L136.843 156.741C136.452 156.509 136.506 156.118 136.95 155.868L141.744 153.09C142.188 152.823 142.862 152.805 143.253 153.019L148.082 155.815C148.473 156.046 148.42 156.438 147.976 156.688L143.182 159.466C142.738 159.733 142.063 159.769 141.673 159.537Z" fill="#728CC1"/>
<path id="Vector_52" d="M149.148 163.865L144.318 161.069C143.928 160.837 143.981 160.445 144.425 160.196L149.219 157.418C149.663 157.151 150.337 157.133 150.728 157.346L155.558 160.143C155.948 160.374 155.895 160.766 155.451 161.015L150.657 163.793C150.213 164.061 149.538 164.078 149.148 163.865Z" fill="#728CC1"/>
<path id="Vector_53" d="M156.605 168.192L151.775 165.396C151.385 165.165 151.438 164.773 151.882 164.524L156.676 161.745C157.12 161.478 157.795 161.46 158.185 161.674L163.015 164.47C163.405 164.702 163.352 165.093 162.908 165.343L158.114 168.121C157.688 168.388 156.996 168.406 156.605 168.192Z" fill="#728CC1"/>
<path id="Vector_54" d="M164.08 172.52L159.251 169.724C158.86 169.493 158.913 169.101 159.357 168.851L164.151 166.073C164.595 165.806 165.27 165.788 165.661 166.002L170.49 168.798C170.881 169.03 170.828 169.421 170.384 169.671L165.59 172.449C165.146 172.716 164.471 172.734 164.08 172.52Z" fill="#728CC1"/>
<path id="Vector_55" d="M171.555 176.83L166.726 174.034C166.335 173.802 166.389 173.411 166.832 173.161L171.626 170.383C172.07 170.116 172.745 170.098 173.136 170.312L177.965 173.108C178.356 173.339 178.303 173.731 177.859 173.981L173.065 176.759C172.621 177.026 171.946 177.062 171.555 176.83Z" fill="#728CC1"/>
<path id="Vector_56" d="M100.391 127.213L95.5611 124.417C95.1705 124.185 95.2238 123.793 95.6677 123.544L100.462 120.766C100.906 120.499 101.58 120.481 101.971 120.695L106.8 123.491C107.191 123.722 107.138 124.114 106.694 124.363L101.9 127.142C101.456 127.409 100.781 127.427 100.391 127.213Z" fill="#728CC1"/>
<path id="Vector_57" d="M92.9688 122.903L88.1392 120.107C87.7486 119.875 87.8019 119.484 88.2458 119.234L93.0398 116.456C93.4837 116.189 94.1584 116.171 94.549 116.385L99.3786 119.181C99.7692 119.412 99.716 119.804 99.2721 120.054L94.478 122.832C94.0341 123.099 93.3594 123.135 92.9688 122.903Z" fill="#728CC1"/>
<path id="Vector_58" d="M85.5291 118.611L80.6996 115.815C80.3089 115.583 80.3622 115.192 80.8061 114.942L85.6001 112.164C86.044 111.897 86.7187 111.879 87.1094 112.093L91.9389 114.889C92.3295 115.12 92.2763 115.512 91.8324 115.762L87.0383 118.54C86.5944 118.807 85.9197 118.825 85.5291 118.611Z" fill="#728CC1"/>
<path id="Vector_59" d="M78.1072 114.301L73.2777 111.505C72.8871 111.273 72.9403 110.882 73.3842 110.632L78.1782 107.854C78.6221 107.587 79.2969 107.569 79.6875 107.783L84.517 110.579C84.9076 110.81 84.8544 111.202 84.4105 111.451L79.6165 114.23C79.1726 114.497 78.4801 114.515 78.1072 114.301Z" fill="#728CC1"/>
<path id="Vector_60" d="M85.7422 109.867L80.9127 107.07C80.5221 106.839 80.5753 106.447 81.0192 106.198L82.5995 105.272C83.0434 105.005 83.7181 104.987 84.1087 105.2L88.9383 107.997C89.3289 108.228 89.2756 108.62 88.8317 108.869L87.2515 109.795C86.8076 110.062 86.1329 110.098 85.7422 109.867Z" fill="#728CC1"/>
<path id="Vector_61" d="M95.4368 115.494L90.6073 112.698C90.2166 112.467 90.2699 112.075 90.7138 111.825L92.2941 110.899C92.7379 110.632 93.4127 110.614 93.8033 110.828L98.6328 113.624C99.0235 113.856 98.9702 114.248 98.5263 114.497L96.946 115.423C96.5022 115.69 95.8274 115.708 95.4368 115.494Z" fill="#728CC1"/>
<path id="Vector_62" d="M102.841 119.769L98.0113 116.973C97.6207 116.741 97.674 116.349 98.1179 116.1L99.6981 115.174C100.142 114.907 100.817 114.889 101.207 115.103L106.037 117.899C106.428 118.13 106.374 118.522 105.93 118.771L104.35 119.697C103.906 119.965 103.231 120 102.841 119.769Z" fill="#728CC1"/>
<path id="Vector_63" d="M110.245 124.061L105.415 121.265C105.025 121.033 105.078 120.641 105.522 120.392L107.102 119.466C107.546 119.199 108.221 119.181 108.611 119.395L113.441 122.191C113.832 122.422 113.778 122.814 113.334 123.063L111.754 123.989C111.31 124.257 110.636 124.292 110.245 124.061Z" fill="#728CC1"/>
<path id="Vector_64" d="M117.649 128.353L112.82 125.557C112.429 125.325 112.482 124.933 112.926 124.684L114.506 123.758C114.95 123.491 115.625 123.473 116.016 123.687L120.845 126.483C121.236 126.714 121.183 127.106 120.739 127.355L119.158 128.281C118.715 128.549 118.04 128.566 117.649 128.353Z" fill="#728CC1"/>
<path id="Vector_65" d="M158.967 152.271L154.137 149.475C153.746 149.243 153.8 148.851 154.244 148.602L155.824 147.676C156.268 147.409 156.942 147.391 157.333 147.605L162.163 150.401C162.553 150.632 162.5 151.024 162.056 151.273L160.476 152.2C160.032 152.467 159.357 152.502 158.967 152.271Z" fill="#728CC1"/>
<path id="Vector_66" d="M166.371 156.563L161.541 153.767C161.15 153.535 161.204 153.143 161.648 152.894L163.228 151.968C163.672 151.701 164.346 151.683 164.737 151.897L169.567 154.693C169.957 154.924 169.904 155.316 169.46 155.565L167.88 156.492C167.436 156.759 166.761 156.794 166.371 156.563Z" fill="#728CC1"/>
<path id="Vector_67" d="M173.757 160.855L168.928 158.059C168.537 157.827 168.59 157.436 169.034 157.186L170.614 156.26C171.058 155.993 171.733 155.975 172.124 156.189L176.953 158.985C177.344 159.217 177.291 159.608 176.847 159.858L175.266 160.784C174.84 161.051 174.148 161.069 173.757 160.855Z" fill="#728CC1"/>
<path id="Vector_68" d="M181.161 165.129L176.332 162.333C175.941 162.102 175.994 161.71 176.438 161.46L178.018 160.534C178.462 160.267 179.137 160.249 179.528 160.463L184.357 163.259C184.748 163.491 184.695 163.883 184.251 164.132L182.67 165.058C182.227 165.325 181.552 165.361 181.161 165.129Z" fill="#728CC1"/>
<path id="Vector_69" d="M107.866 131.541L103.036 128.745C102.646 128.513 102.699 128.121 103.143 127.872L107.937 125.094C108.381 124.827 109.055 124.809 109.446 125.022L114.276 127.819C114.666 128.05 114.613 128.442 114.169 128.691L109.375 131.469C108.931 131.737 108.256 131.754 107.866 131.541Z" fill="#728CC1"/>
<path id="Vector_70" d="M115.341 135.868L110.511 133.072C110.121 132.841 110.174 132.449 110.618 132.2L115.412 129.421C115.856 129.154 116.53 129.136 116.921 129.35L121.751 132.146C122.141 132.378 122.088 132.77 121.644 133.019L116.85 135.797C116.406 136.064 115.731 136.082 115.341 135.868Z" fill="#728CC1"/>
<path id="Vector_71" d="M122.798 140.178L117.969 137.382C117.578 137.151 117.631 136.759 118.075 136.509L122.869 133.731C123.313 133.464 123.988 133.446 124.379 133.66L129.208 136.456C129.599 136.688 129.546 137.079 129.102 137.329L124.308 140.107C123.864 140.392 123.189 140.41 122.798 140.178Z" fill="#728CC1"/>
<path id="Vector_72" d="M130.273 144.506L125.444 141.71C125.053 141.478 125.107 141.086 125.55 140.837L130.345 138.059C130.788 137.792 131.463 137.774 131.854 137.988L136.683 140.784C137.074 141.015 137.021 141.407 136.577 141.656L131.783 144.435C131.339 144.702 130.664 144.737 130.273 144.506Z" fill="#728CC1"/>
<path id="Vector_73" d="M137.749 148.834L132.901 146.038C132.511 145.806 132.564 145.414 133.008 145.165L137.802 142.387C138.246 142.12 138.92 142.102 139.311 142.315L144.141 145.112C144.531 145.343 144.478 145.735 144.034 145.984L139.24 148.762C138.814 149.03 138.121 149.065 137.749 148.834Z" fill="#728CC1"/>
<path id="Vector_74" d="M145.206 153.161L140.376 150.365C139.986 150.134 140.039 149.742 140.483 149.493L145.277 146.714C145.721 146.447 146.395 146.429 146.786 146.643L151.616 149.439C152.006 149.671 151.953 150.062 151.509 150.312L146.715 153.09C146.271 153.357 145.596 153.393 145.206 153.161Z" fill="#728CC1"/>
<path id="Vector_75" d="M152.681 157.489L147.852 154.693C147.461 154.461 147.514 154.07 147.958 153.82L152.752 151.042C153.196 150.775 153.871 150.757 154.261 150.971L159.091 153.767C159.482 153.998 159.428 154.39 158.984 154.639L154.19 157.418C153.747 157.685 153.072 157.72 152.681 157.489Z" fill="#728CC1"/>
<path id="Vector_76" d="M160.156 161.817L155.327 159.021C154.936 158.789 154.989 158.397 155.433 158.148L160.227 155.37C160.671 155.102 161.346 155.085 161.737 155.298L166.566 158.094C166.957 158.326 166.903 158.718 166.46 158.967L161.666 161.745C161.222 162.013 160.529 162.03 160.156 161.817Z" fill="#728CC1"/>
<path id="Vector_77" d="M167.614 166.144L162.784 163.348C162.393 163.117 162.447 162.725 162.891 162.476L167.685 159.697C168.128 159.43 168.803 159.412 169.194 159.626L174.023 162.422C174.414 162.654 174.361 163.045 173.917 163.295L169.123 166.073C168.679 166.34 168.004 166.358 167.614 166.144Z" fill="#728CC1"/>
<path id="Vector_78" d="M65.1632 132.075L50.9232 123.829C50.5326 123.598 50.5858 123.206 51.0297 122.956L55.8238 120.178C56.2676 119.911 56.9424 119.893 57.333 120.107L71.573 128.353C71.9637 128.584 71.9104 128.976 71.4665 129.225L66.6725 132.004C66.2286 132.271 65.5539 132.289 65.1632 132.075Z" fill="#728CC1"/>
<path id="Vector_79" d="M156.925 185.2L142.685 176.955C142.294 176.723 142.347 176.331 142.791 176.082L147.585 173.304C148.029 173.037 148.704 173.019 149.094 173.232L163.335 181.478C163.725 181.71 163.672 182.102 163.228 182.351L158.434 185.129C157.99 185.396 157.315 185.432 156.925 185.2Z" fill="#728CC1"/>
<path id="Vector_80" d="M127.06 177.471L122.23 174.675C121.839 174.444 121.893 174.052 122.337 173.802L128.054 170.49C128.498 170.223 129.173 170.205 129.563 170.419L134.393 173.215C134.783 173.446 134.73 173.838 134.286 174.087L128.569 177.4C128.125 177.667 127.432 177.685 127.06 177.471Z" fill="#728CC1"/>
<path id="Vector_81" d="M72.816 146.055L65.0746 141.567C64.6839 141.336 64.7372 140.944 65.1811 140.695L70.8984 137.382C71.3423 137.115 72.017 137.097 72.4076 137.311L80.1491 141.799C80.5397 142.03 80.4865 142.422 80.0426 142.671L74.3253 145.984C73.8814 146.251 73.2066 146.287 72.816 146.055Z" fill="#728CC1"/>
<path id="Vector_82" d="M119.851 173.304L112.109 168.816C111.719 168.584 111.772 168.192 112.216 167.943L117.933 164.631C118.377 164.363 119.052 164.346 119.443 164.559L127.184 169.047C127.575 169.279 127.521 169.671 127.078 169.92L121.36 173.233C120.916 173.5 120.242 173.517 119.851 173.304Z" fill="#728CC1"/>
<path id="Vector_83" d="M83.5939 152.289L75.8524 147.818C75.4618 147.587 75.515 147.195 75.9589 146.946L81.6762 143.633C82.1201 143.366 82.7949 143.348 83.1855 143.562L90.927 148.05C91.3176 148.282 91.2643 148.673 90.8204 148.923L85.1031 152.235C84.6592 152.485 83.9845 152.52 83.5939 152.289Z" fill="#728CC1"/>
<path id="Vector_84" d="M83.2386 143.598L116.868 163.081C117.294 163.331 117.294 163.722 116.868 163.954L111.044 167.32C110.618 167.569 109.943 167.569 109.535 167.32L75.9055 147.836L83.2386 143.598Z" fill="#728CC1"/>
<path id="Vector_85" d="M147.923 185.307L153.303 188.424C153.622 188.602 153.587 188.923 153.214 189.136L150.87 190.49C150.497 190.703 149.947 190.721 149.627 190.543L144.247 187.427C143.928 187.248 143.963 186.928 144.336 186.714L146.68 185.361C147.053 185.147 147.603 185.129 147.923 185.307Z" fill="#728CC1"/>
<path id="Vector_86" d="M140.394 180.944L145.774 184.061C146.094 184.239 146.058 184.559 145.685 184.773L143.342 186.126C142.969 186.34 142.418 186.358 142.099 186.18L136.719 183.063C136.399 182.885 136.435 182.565 136.808 182.351L139.151 180.997C139.524 180.784 140.075 180.766 140.394 180.944Z" fill="#728CC1"/>
<path id="Vector_87" d="M132.919 176.616L138.299 179.733C138.619 179.911 138.583 180.232 138.21 180.445L135.866 181.799C135.493 182.013 134.943 182.03 134.623 181.852L129.244 178.736C128.924 178.558 128.959 178.237 129.332 178.023L131.676 176.67C132.049 176.456 132.617 176.438 132.919 176.616Z" fill="#728CC1"/>
<path id="Vector_88" d="M144.513 178.557L149.893 181.674C150.213 181.852 150.177 182.173 149.805 182.386L147.461 183.74C147.088 183.954 146.538 183.972 146.218 183.793L140.838 180.677C140.518 180.499 140.554 180.178 140.927 179.964L143.271 178.611C143.643 178.397 144.212 178.379 144.513 178.557Z" fill="#728CC1"/>
</g>
<g id="Group_3">
<path id="Vector_89" d="M129.51 47.9786L117.365 40.9439L117.88 38.3081L130.025 45.3428L129.51 47.9786Z" fill="#E3E8F3"/>
<path id="Vector_90" d="M128.196 54.0695L116.033 47.0347L116.566 44.4167L128.711 51.4515L128.196 54.0695Z" fill="white"/>
<path id="Vector_91" d="M187.82 138.629L175.675 131.594L176.19 128.976L188.335 136.011L187.82 138.629Z" fill="#E3E8F3"/>
<path id="Vector_92" d="M125.55 66.2689L113.406 59.2342L113.92 56.5984L126.065 63.6331L125.55 66.2689Z" fill="#E3E8F3"/>
</g>
</g>
<g id="Group_4">
<path id="Vector_93" d="M150.231 79.2164L137.979 72.1282C136.896 71.5049 136.257 69.9376 136.541 68.6554L139.204 56.6518C139.488 55.3695 140.607 54.8174 141.69 55.4586L153.942 62.5467C155.025 63.1701 155.664 64.7373 155.38 66.0196L152.716 78.0231C152.415 79.3054 151.314 79.8397 150.231 79.2164Z" fill="#F20505"/>
<path id="Vector_94" d="M171.591 91.5762L159.339 84.4881C158.256 83.8647 157.617 82.2975 157.901 81.0152L160.565 69.0117C160.849 67.7294 161.967 67.1773 163.05 67.8184L175.302 74.9066C176.385 75.5299 177.024 77.0971 176.74 78.3794L174.077 90.383C173.775 91.6653 172.674 92.1995 171.591 91.5762Z" fill="#CFD8EA"/>
<path id="Vector_95" d="M145.49 100.534L133.239 93.4461C132.155 92.8227 131.516 91.2555 131.8 89.9732L134.464 77.9697C134.748 76.6874 135.866 76.1353 136.949 76.7764L149.201 83.8646C150.284 84.4879 150.923 86.0552 150.639 87.3374L147.976 99.341C147.692 100.623 146.573 101.158 145.49 100.534Z" fill="white"/>
<path id="Vector_96" d="M166.85 112.894L154.599 105.806C153.516 105.183 152.876 103.615 153.16 102.333L155.824 90.3295C156.108 89.0473 157.226 88.4952 158.31 89.1363L170.561 96.2245C171.644 96.8478 172.283 98.415 171.999 99.6973L169.336 111.701C169.052 112.983 167.933 113.517 166.85 112.894Z" fill="#4769AE"/>
</g>
</g>
<defs>
<clipPath id="clip0_328_24965">
<rect width="225" height="220" fill="white"/>
</clipPath>
</defs>
</svg>
