<svg width="186" height="208" viewBox="0 0 186 208" fill="none" xmlns="http://www.w3.org/2000/svg">
<g id="Frame" clip-path="url(#clip0_328_25066)">
<g id="Group">
<g id="Group_2">
<path id="Vector" d="M53.444 177.92C52.9028 177.92 52.4775 177.496 52.4775 176.956V122.114C52.4775 121.574 52.9028 121.15 53.444 121.15C53.9852 121.15 54.4104 121.574 54.4104 122.114V176.956C54.4104 177.477 53.9852 177.92 53.444 177.92Z" fill="#4769AE"/>
<g id="Group_3">
<g id="Group_4">
<path id="Vector_2" d="M58.2183 118.665H48.6699V139.226H58.2183V118.665Z" fill="#728CC1"/>
<path id="Vector_3" d="M56.8265 141.172C54.9516 142.251 51.9363 142.251 50.0614 141.172C48.1866 140.093 48.1866 138.358 50.0614 137.279C51.9363 136.2 54.9516 136.2 56.8265 137.279C58.7014 138.339 58.7014 140.093 56.8265 141.172Z" fill="#728CC1"/>
</g>
<g id="Group_5">
<path id="Vector_4" d="M61.1947 90.01H45.7124V122.249H61.1947V90.01Z" fill="#728CC1"/>
<path id="Vector_5" d="M48.6699 122.037V128.993C51.4726 130.265 55.4156 130.265 58.2183 128.993V122.037C55.435 120.765 51.4726 120.765 48.6699 122.037Z" fill="#4769AE"/>
<path id="Vector_6" d="M58.9332 125.409C55.918 127.143 51.0085 127.143 47.9739 125.409C44.9586 123.675 44.9586 120.842 47.9739 119.108C50.9891 117.373 55.8986 117.373 58.9332 119.108C61.9485 120.842 61.9485 123.655 58.9332 125.409Z" fill="#728CC1"/>
</g>
</g>
</g>
<g id="Group_6">
<path id="Vector_7" d="M107.1 208C106.559 208 106.134 207.576 106.134 207.037V152.194C106.134 151.655 106.559 151.231 107.1 151.231C107.641 151.231 108.067 151.655 108.067 152.194V207.037C108.067 207.576 107.641 208 107.1 208Z" fill="#4769AE"/>
<g id="Group_7">
<g id="Group_8">
<path id="Vector_8" d="M111.875 148.745H102.326V169.306H111.875V148.745Z" fill="#728CC1"/>
<path id="Vector_9" d="M110.483 171.252C108.608 172.331 105.593 172.331 103.718 171.252C101.843 170.173 101.843 168.439 103.718 167.36C105.593 166.281 108.608 166.281 110.483 167.36C112.338 168.439 112.338 170.173 110.483 171.252Z" fill="#728CC1"/>
</g>
<g id="Group_9">
<path id="Vector_10" d="M114.832 120.09H99.3496V152.329H114.832V120.09Z" fill="#728CC1"/>
<path id="Vector_11" d="M102.326 152.136V159.093C105.129 160.365 109.072 160.365 111.875 159.093V152.136C109.072 150.864 105.129 150.864 102.326 152.136Z" fill="#4769AE"/>
<path id="Vector_12" d="M112.57 155.489C109.555 157.224 104.646 157.224 101.611 155.489C98.5958 153.755 98.5958 150.922 101.611 149.188C104.626 147.454 109.536 147.454 112.57 149.188C115.605 150.922 115.605 153.755 112.57 155.489Z" fill="#728CC1"/>
</g>
</g>
</g>
<g id="Group_10">
<g id="Group_11">
<path id="Vector_13" d="M159.249 173.603L180.008 161.405L160.235 136.797L155.036 145.276L159.249 173.603Z" fill="#728CC1"/>
<path id="Vector_14" d="M8.46582 38.559L41.6145 19.5588C41.6145 19.5588 40.3775 38.5205 40.3775 38.559C40.3775 38.5976 21.3387 44.4364 21.3387 44.4364L8.46582 38.559Z" fill="#728CC1"/>
<path id="Vector_15" d="M165.009 111.727C162.477 110.282 160.08 109.434 157.838 109.087C154.494 91.5901 142.278 72.9946 127.704 64.6122C123.317 62.0878 119.161 60.7389 115.373 60.4499C113.401 39.2144 98.5955 15.1077 80.6198 4.75968C71.226 -0.635905 62.7214 -1.29108 56.4396 2.02335V2.00408L56.1303 2.17751C55.9757 2.27386 55.8018 2.35094 55.6471 2.44729L36.1251 13.9707L42.6196 19.0773C36.7823 21.6209 33.1099 28.1342 33.1099 37.7691C33.1099 55.536 45.6155 77.1377 61.0592 86.0211L165.028 160.037C176.625 166.704 186.019 161.309 186.019 147.955C186 134.62 176.606 118.395 165.009 111.727Z" fill="#728CC1"/>
<path id="Vector_16" d="M34.0571 29.9454L78.8997 3.81536C70.2018 -0.713081 62.335 -1.07921 56.4204 2.02325V2.00398L56.1112 2.17741C55.9565 2.27376 55.7826 2.35084 55.6279 2.44719L36.1253 13.9706L42.6197 19.0772C38.5414 20.85 35.5068 24.5691 34.0571 29.9454Z" fill="#728CC1"/>
<path id="Vector_17" d="M116.881 106.794L149.604 87.6398C143.999 77.9663 136.267 69.5068 127.705 64.5737C126.564 63.9185 125.462 63.3597 124.361 62.8586L82.7461 87.1388L116.881 106.794Z" fill="#728CC1"/>
<path id="Vector_18" d="M45.3452 16.0904L59.9191 24.4921L86.6313 8.8064C84.6791 7.30334 82.6689 5.93517 80.6394 4.7597C77.4115 2.89052 74.2803 1.6187 71.3036 0.8479L45.3452 16.0904Z" fill="#E3E8F3"/>
<path id="Vector_19" d="M146.009 82.0129L119.896 97.3518L128.98 107.449L152.697 93.4978C150.803 89.509 148.56 85.6357 146.009 82.0129Z" fill="#E3E8F3"/>
<path id="Vector_20" d="M144.501 123.771C141.969 122.326 139.572 121.478 137.33 121.131C133.986 103.614 121.771 85.0189 107.197 76.6365C102.809 74.1121 98.6536 72.7632 94.8652 72.4741C92.8744 51.2579 78.0879 27.1512 60.1122 16.8032C40.7835 5.68445 25.1273 14.7028 25.1273 36.9403C25.1273 37.6919 25.1466 38.4627 25.1853 39.2142C11.0367 32.7009 0 40.0621 0 56.7499C0 74.5168 12.5057 96.1184 27.9493 105.002L144.501 172.081C156.099 178.748 165.492 173.352 165.492 159.998C165.473 146.663 156.079 130.438 144.501 123.771Z" fill="#E3E8F3"/>
<g id="Group_12">
<path id="Vector_21" d="M25.1659 39.2336C25.1272 38.4628 25.1079 37.7113 25.1079 36.9598C25.1079 36.9212 25.1079 36.902 25.1079 36.8634C17.2991 33.838 10.5921 35.1484 6.37842 40.0044C10.9593 36.2468 17.6084 35.7265 25.1659 39.2336Z" fill="white"/>
<path id="Vector_22" d="M146.202 122.114C143.67 120.668 141.274 119.821 139.031 119.474C135.688 101.977 123.472 83.3811 108.898 74.9986C104.51 72.4743 100.355 71.1254 96.5662 70.8363C94.5754 49.6201 79.7696 25.4941 61.8133 15.1654C49.7715 8.20896 39.16 9.11465 32.8589 16.1482C39.276 10.6755 49.095 10.4635 60.1123 16.8034C78.088 27.1513 92.8745 51.2581 94.8653 72.4743C98.6537 72.7633 102.809 74.1122 107.197 76.6366C121.771 85.019 133.987 103.615 137.33 121.112C139.573 121.459 141.969 122.306 144.501 123.752C156.099 130.419 165.492 146.644 165.492 159.979C165.492 164.797 164.255 168.554 162.148 171.117C165.299 168.709 167.193 164.334 167.193 158.322C167.193 145.006 157.8 128.781 146.202 122.114Z" fill="white"/>
</g>
<g id="Group_13">
<path id="Vector_23" d="M22.7111 44.5329L31.467 48.5796L31.0224 38.9639C30.9837 38.2894 30.9644 37.615 30.9644 36.9598C30.9644 28.3654 33.5738 22.1412 38.29 19.4241C43.0062 16.7071 49.7132 17.5742 57.1741 21.8714C73.2169 31.1017 87.2109 53.5705 89.0278 73.0332L89.4917 77.9277L94.4205 78.3131C97.4551 78.5444 100.76 79.6813 104.278 81.7047C117.016 89.0465 128.497 106.081 131.59 122.229L132.363 126.276L136.441 126.912C138.065 127.162 139.804 127.818 141.583 128.858C151.363 134.485 159.636 148.764 159.636 160.037C159.636 164.257 158.456 167.34 156.427 168.516C154.378 169.691 151.112 169.152 147.439 167.051L30.8871 99.9533C17.3184 92.1297 5.85645 72.3587 5.85645 56.75C5.85645 50.6222 7.67334 45.9589 10.8239 43.9548C12.1189 43.1262 13.7039 42.7215 15.4628 42.7215C17.6276 42.7022 20.0824 43.3189 22.7111 44.5329Z" fill="#154098"/>
</g>
</g>
<g id="Group_14">
<path id="Vector_24" d="M80.8906 117.354L83.9639 115.812L80.9293 113.519L80.8906 117.354Z" fill="#728CC1"/>
<path id="Vector_25" d="M71.6514 75.943L74.628 74.4399L74.686 76.0008L71.6514 75.943Z" fill="#728CC1"/>
<path id="Vector_26" d="M89.6466 107.681L92.7585 106.12L86.7666 100.435L89.6466 107.681Z" fill="#728CC1"/>
<g id="Group_15">
<path id="Vector_27" d="M83.0557 115.716L68.5012 107.16C67.7667 106.717 67.1675 105.638 67.1675 104.713L67.2061 87.9097L84.4473 98.0264L84.4087 114.83C84.3893 115.755 83.7902 116.159 83.0557 115.716Z" fill="#728CC1"/>
<path id="Vector_28" d="M74.609 74.4591L58.8947 84.5373C58.2182 84.9612 58.7594 86.5607 59.7839 87.158L75.846 96.581L91.9081 106.004C92.9132 106.601 93.4738 105.638 92.7973 104.424L77.1797 75.9429C76.4838 74.7289 75.2855 74.0159 74.609 74.4591Z" fill="#728CC1"/>
</g>
<g id="Group_16">
<path id="Vector_29" d="M79.9434 117.277L65.3889 108.721C64.6544 108.278 64.0552 107.199 64.0552 106.274L64.0938 89.4705L81.335 99.5872L81.2964 116.391C81.277 117.335 80.6779 117.72 79.9434 117.277Z" fill="#E3E8F3"/>
<path id="Vector_30" d="M71.4776 76.0199L55.7634 86.0981C55.0869 86.522 55.6281 88.1215 56.6525 88.7188L72.7147 98.1418L88.7768 107.565C89.7819 108.162 90.3424 107.199 89.6659 105.985L74.0483 77.5037C73.3718 76.309 72.1541 75.596 71.4776 76.0199Z" fill="#E3E8F3"/>
</g>
</g>
</g>
<path id="Vector_31" d="M51.9942 135.66C51.9942 136.605 51.337 136.99 50.5059 136.508C49.6748 136.027 49.0176 134.89 49.0176 133.945C49.0176 133.001 49.6748 132.616 50.5059 133.098C51.3177 133.56 51.9942 134.716 51.9942 135.66Z" fill="#E3E8F3"/>
<path id="Vector_32" d="M105.767 166.184C105.767 167.128 105.109 167.514 104.278 167.032C103.447 166.55 102.79 165.413 102.79 164.469C102.79 163.525 103.447 163.139 104.278 163.621C105.109 164.103 105.767 165.24 105.767 166.184Z" fill="#E3E8F3"/>
</g>
</g>
<defs>
<clipPath id="clip0_328_25066">
<rect width="186" height="208" fill="white"/>
</clipPath>
</defs>
</svg>
