<svg width="210" height="248" viewBox="0 0 210 248" fill="none" xmlns="http://www.w3.org/2000/svg">
<g id="Frame" clip-path="url(#clip0_328_28265)">
<path id="Vector" d="M20.091 150.67C20.0092 150.67 19.9198 150.648 19.8454 150.603L12.6546 146.366C12.1856 146.091 11.9102 145.602 11.9176 145.06C11.9251 144.518 12.2154 144.036 12.6918 143.769L65.1267 114.62C66.8388 113.67 67.9032 111.867 67.9032 109.915V82.0136C67.9032 81.5461 68.1489 81.1231 68.5583 80.8856C68.9677 80.6482 69.4516 80.6482 69.861 80.8856L74.8186 83.7352C75.0494 83.8687 75.1313 84.1656 74.9973 84.3956C74.8633 84.6257 74.573 84.7073 74.3348 84.5737L69.3771 81.7242C69.2282 81.6351 69.0943 81.6945 69.0422 81.7242C68.99 81.7538 68.8709 81.8429 68.8709 82.0136V109.915C68.8709 112.216 67.6204 114.346 65.6031 115.466L13.1682 144.615C12.9226 144.748 12.8928 144.978 12.8928 145.075C12.8928 145.171 12.9151 145.401 13.1533 145.542L20.3441 149.779C20.5749 149.913 20.6493 150.21 20.5153 150.44C20.4186 150.588 20.2622 150.67 20.091 150.67Z" fill="#6A86BC"/>
<g id="Group">
<g id="Group_2">
<g id="Group_3">
<g id="Group_4">
<path id="Vector_2" d="M23.6431 154.465L25.6277 151.014L18.1563 146.744L16.1717 150.194L23.6431 154.465Z" fill="#6A86BC"/>
<path id="Vector_3" d="M15.7512 149.282C15.7512 148.384 16.3765 147.293 17.1581 146.841C17.9397 146.388 18.5725 146.752 18.5725 147.65C18.5725 148.548 17.9472 149.638 17.1656 150.091C16.3914 150.536 15.7587 150.18 15.7512 149.282Z" fill="#6A86BC"/>
</g>
<g id="Group_5">
<path id="Vector_4" d="M33.435 161.493L36.6526 155.899L24.9321 149.2L21.7145 154.794L33.435 161.493Z" fill="#6A86BC"/>
<path id="Vector_5" d="M24.401 150.306L21.8701 148.859C20.8205 149.609 20.0017 151.034 19.8826 152.31L22.4135 153.757C23.4556 153.008 24.2819 151.583 24.401 150.306Z" fill="#4471C9"/>
<path id="Vector_6" d="M21.0437 153.312C21.0363 151.858 22.0561 150.091 23.3216 149.357C24.5796 148.63 25.6069 149.216 25.6143 150.663C25.6217 152.117 24.6019 153.883 23.3365 154.618C22.0784 155.353 21.0512 154.766 21.0437 153.312Z" fill="#6A86BC"/>
</g>
</g>
</g>
<path id="Vector_7" d="M18.111 148.362C17.7462 148.154 17.7462 147.813 18.111 147.598C18.4757 147.383 19.0712 147.383 19.436 147.59C19.8007 147.798 19.8007 148.14 19.436 148.355C19.0712 148.57 18.4757 148.57 18.111 148.362Z" fill="#DEE4F0"/>
</g>
<g id="Group_6">
<g id="Group_7">
<g id="Group_8">
<g id="Group_9">
<path id="Vector_8" d="M80.3762 89.7483L82.3608 86.2979L74.8894 82.0273L72.9048 85.4778L80.3762 89.7483Z" fill="#6A86BC"/>
<path id="Vector_9" d="M72.4888 84.5663C72.4888 83.6684 73.1141 82.5776 73.8957 82.1249C74.6773 81.6723 75.31 82.0359 75.31 82.9338C75.31 83.8317 74.6847 84.9225 73.9031 85.3752C73.1215 85.8279 72.4888 85.4642 72.4888 84.5663Z" fill="#6A86BC"/>
</g>
<g id="Group_10">
<path id="Vector_10" d="M90.178 96.7748L93.3955 91.1807L81.675 84.4814L78.4574 90.0755L90.178 96.7748Z" fill="#6A86BC"/>
<path id="Vector_11" d="M81.1312 85.5979L78.6003 84.1509C77.5507 84.9004 76.7319 86.3251 76.6128 87.6015L79.1437 89.0485C80.1933 88.2991 81.0121 86.8743 81.1312 85.5979Z" fill="#4471C9"/>
<path id="Vector_12" d="M77.7815 88.5957C77.7741 87.1413 78.7939 85.3751 80.0594 84.6405C81.3174 83.9132 82.3446 84.4995 82.3521 85.9465C82.3595 87.3936 81.3397 89.1671 80.0743 89.9018C78.8088 90.6364 77.7815 90.0502 77.7815 88.5957Z" fill="#6A86BC"/>
</g>
</g>
</g>
<path id="Vector_13" d="M74.8485 83.6461C74.4838 83.4383 74.4838 83.097 74.8485 82.8818C75.2133 82.674 75.8088 82.6666 76.1735 82.8743C76.5383 83.0821 76.5383 83.4235 76.1735 83.6387C75.8013 83.8539 75.2133 83.8539 74.8485 83.6461Z" fill="#DEE4F0"/>
</g>
<path id="Vector_14" d="M103.768 101.486C103.604 101.486 103.44 101.396 103.351 101.248C103.217 101.018 103.299 100.721 103.53 100.588L121.604 90.1838C123.122 89.3082 124.068 87.6756 124.068 85.9243V58.7571C124.068 58.2228 124.343 57.7405 124.812 57.4733C125.281 57.2062 125.832 57.2062 126.301 57.4733L155.511 74.348V51.6703C155.511 51.4032 155.726 51.188 155.994 51.188C156.262 51.188 156.478 51.4032 156.478 51.6703V75.1866C156.478 75.3572 156.389 75.5205 156.233 75.6021C156.084 75.6912 155.898 75.6912 155.749 75.6021L125.802 58.3119C125.571 58.1783 125.363 58.2673 125.288 58.3119C125.214 58.3564 125.028 58.49 125.028 58.7571V85.9317C125.028 88.0244 123.896 89.976 122.08 91.0223L104.006 101.426C103.932 101.463 103.842 101.486 103.768 101.486Z" fill="#6A86BC"/>
<path id="Vector_15" d="M139.916 121.737C139.752 121.737 139.588 121.648 139.499 121.499C139.365 121.269 139.447 120.972 139.678 120.839L162.158 107.905C163.677 107.029 164.622 105.396 164.622 103.645V56.8427C164.622 56.5756 164.838 56.3604 165.106 56.3604C165.374 56.3604 165.59 56.5756 165.59 56.8427V103.645C165.59 105.738 164.458 107.689 162.642 108.736L140.161 121.67C140.079 121.722 139.998 121.737 139.916 121.737Z" fill="#6A86BC"/>
<g id="Group_11">
<path id="Vector_16" d="M180.217 144.236C180.038 144.236 179.86 144.14 179.763 143.977C179.622 143.732 179.703 143.413 179.956 143.272L200.338 131.54C201.856 130.671 202.794 129.046 202.787 127.302L202.72 105.456C202.712 103.719 201.775 102.109 200.271 101.241L173.964 86.1397C173.8 86.0506 173.704 85.8725 173.704 85.687V62.0224C173.704 61.733 173.934 61.5029 174.225 61.5029C174.515 61.5029 174.746 61.733 174.746 62.0224V85.3902L200.792 100.343C202.623 101.389 203.762 103.348 203.762 105.456L203.829 127.302C203.837 129.417 202.698 131.384 200.859 132.445L180.478 144.177C180.396 144.214 180.306 144.236 180.217 144.236Z" fill="#6A86BC"/>
<g id="Group_12">
<g id="Group_13">
<g id="Group_14">
<path id="Vector_17" d="M176.219 60.583H172.229V69.1688H176.219V60.583Z" fill="#6A86BC"/>
<path id="Vector_18" d="M175.632 69.9776C174.85 70.4229 173.592 70.4229 172.81 69.9776C172.029 69.5324 172.029 68.8051 172.81 68.3525C173.592 67.9072 174.85 67.9072 175.632 68.3525C176.413 68.8051 176.413 69.5324 175.632 69.9776Z" fill="#6A86BC"/>
</g>
<g id="Group_15">
<path id="Vector_19" d="M177.455 48.6133H170.987V62.0819H177.455V48.6133Z" fill="#6A86BC"/>
<path id="Vector_20" d="M172.23 61.993V64.9019C173.398 65.4362 175.051 65.4362 176.22 64.9019V61.993C175.044 61.4587 173.398 61.4587 172.23 61.993Z" fill="#4471C9"/>
<path id="Vector_21" d="M176.51 63.3951C175.244 64.1223 173.197 64.1223 171.939 63.3951C170.674 62.6679 170.674 61.488 171.939 60.7608C173.205 60.0335 175.252 60.0335 176.51 60.7608C177.768 61.4954 177.768 62.6679 176.51 63.3951Z" fill="#6A86BC"/>
</g>
</g>
</g>
<g id="Group_16">
<g id="Group_17">
<g id="Group_18">
<path id="Vector_22" d="M167.093 55.4033H163.104V63.9891H167.093V55.4033Z" fill="#6A86BC"/>
<path id="Vector_23" d="M166.513 64.8051C165.731 65.2504 164.473 65.2504 163.692 64.8051C162.91 64.3599 162.91 63.6326 163.692 63.18C164.473 62.7273 165.731 62.7347 166.513 63.18C167.295 63.6252 167.295 64.3525 166.513 64.8051Z" fill="#6A86BC"/>
</g>
<g id="Group_19">
<path id="Vector_24" d="M168.336 43.4409H161.868V56.9095H168.336V43.4409Z" fill="#6A86BC"/>
<path id="Vector_25" d="M163.104 56.8206V59.7296C164.272 60.2638 165.925 60.2638 167.093 59.7296V56.8206C165.925 56.2863 164.28 56.2863 163.104 56.8206Z" fill="#4471C9"/>
<path id="Vector_26" d="M167.384 58.2227C166.118 58.95 164.071 58.95 162.813 58.2227C161.548 57.4955 161.548 56.3156 162.813 55.5884C164.079 54.8612 166.126 54.8612 167.384 55.5884C168.649 56.3156 168.649 57.4955 167.384 58.2227Z" fill="#6A86BC"/>
</g>
</g>
</g>
<g id="Group_20">
<g id="Group_21">
<g id="Group_22">
<path id="Vector_27" d="M157.974 50.231H153.984V58.8167H157.974V50.231Z" fill="#6A86BC"/>
<path id="Vector_28" d="M157.386 59.6254C156.605 60.0707 155.347 60.0707 154.565 59.6254C153.784 59.1802 153.784 58.453 154.565 58.0003C155.347 57.5476 156.605 57.5551 157.386 58.0003C158.168 58.453 158.168 59.1802 157.386 59.6254Z" fill="#6A86BC"/>
</g>
<g id="Group_23">
<path id="Vector_29" d="M159.21 38.2686H152.741V51.7371H159.21V38.2686Z" fill="#6A86BC"/>
<path id="Vector_30" d="M153.985 51.6405V54.5494C155.153 55.0837 156.806 55.0837 157.975 54.5494V51.6405C156.806 51.1062 155.153 51.1062 153.985 51.6405Z" fill="#4471C9"/>
<path id="Vector_31" d="M155.979 53.5924C157.764 53.5924 159.21 52.7585 159.21 51.7298C159.21 50.7011 157.764 49.8672 155.979 49.8672C154.195 49.8672 152.749 50.7011 152.749 51.7298C152.749 52.7585 154.195 53.5924 155.979 53.5924Z" fill="#6A86BC"/>
</g>
</g>
</g>
<g id="Group_24">
<g id="Group_25">
<path id="Vector_32" d="M198.827 72.4928L207.499 67.4022L199.236 57.1245L197.07 60.6642L198.827 72.4928Z" fill="#6A86BC"/>
<path id="Vector_33" d="M135.866 16.1032L149.704 8.16309C149.704 8.16309 149.183 16.081 149.183 16.1032C149.183 16.1255 141.233 18.5521 141.233 18.5521L135.866 16.1032Z" fill="url(#paint0_linear_328_28265)"/>
<path id="Vector_34" d="M201.239 46.6542C200.182 46.0457 199.177 45.6969 198.246 45.5485C196.854 38.2391 191.748 30.477 185.666 26.9745C183.835 25.9207 182.093 25.3568 180.515 25.238C179.681 16.3777 173.503 6.30781 165.999 1.98896C162.076 -0.266935 158.525 -0.53408 155.898 0.846171V0.83875L155.771 0.912957C155.704 0.950061 155.637 0.987164 155.57 1.02427L147.412 5.82546L150.121 7.96263C147.687 9.02379 146.146 11.7472 146.146 15.7692C146.146 23.1899 151.372 32.2061 157.818 35.9164L201.239 66.8237C206.077 69.6064 210 67.3505 210 61.7776C210 56.2121 206.077 49.437 201.239 46.6542Z" fill="url(#paint1_linear_328_28265)"/>
<path id="Vector_35" d="M146.548 12.504L165.277 1.59552C161.644 -0.296763 158.354 -0.452598 155.89 0.846025V0.838605L155.764 0.912812C155.697 0.949915 155.63 0.987019 155.563 1.02412L147.404 5.82532L150.114 7.96248C148.417 8.70455 147.151 10.2629 146.548 12.504Z" fill="url(#paint2_linear_328_28265)"/>
<path id="Vector_36" d="M181.14 44.5984L194.807 36.6063C192.462 32.562 189.239 29.0372 185.666 26.9742C185.19 26.6996 184.728 26.4622 184.267 26.2544L166.885 36.3911L181.14 44.5984Z" fill="url(#paint3_linear_328_28265)"/>
<path id="Vector_37" d="M151.26 6.72341L157.349 10.226L168.5 3.68092C167.689 3.05016 166.848 2.47877 165.992 1.989C164.644 1.20983 163.334 0.675536 162.091 0.356445L151.26 6.72341Z" fill="#DEE4F0"/>
<path id="Vector_38" d="M193.296 34.2466L182.391 40.6506L186.187 44.8656L196.087 39.0404C195.298 37.3781 194.36 35.7604 193.296 34.2466Z" fill="#DEE4F0"/>
<path id="Vector_39" d="M192.671 51.6855C191.614 51.077 190.609 50.7282 189.678 50.5798C188.286 43.2704 183.18 35.5083 177.098 32.0057C175.267 30.952 173.525 30.388 171.947 30.2693C171.113 21.409 164.935 11.3391 157.431 7.02023C149.362 2.37487 142.819 6.13717 142.819 15.4279C142.819 15.7396 142.826 16.0587 142.841 16.3777C136.938 13.6469 132.33 16.7265 132.33 23.6946C132.33 31.1153 137.556 40.1314 144.002 43.8418L192.678 71.8549C197.517 74.6377 201.44 72.3818 201.44 66.8089C201.432 61.2433 197.509 54.4682 192.671 51.6855Z" fill="#DEE4F0"/>
<g id="Group_26">
<path id="Vector_40" d="M142.834 16.3773C142.819 16.0582 142.811 15.7391 142.811 15.4275C142.811 15.4126 142.811 15.3978 142.811 15.3903C139.551 14.1288 136.752 14.678 134.988 16.7038C136.901 15.138 139.677 14.9228 142.834 16.3773Z" fill="white"/>
<path id="Vector_41" d="M193.378 50.995C192.321 50.3865 191.316 50.0377 190.385 49.8893C188.993 42.5799 183.887 34.8178 177.805 31.3152C175.974 30.2615 174.232 29.6975 172.654 29.5788C171.82 20.7185 165.642 10.6486 158.138 6.32972C153.114 3.43565 148.677 3.80668 146.049 6.74528C148.729 4.45971 152.831 4.37808 157.431 7.01985C164.935 11.3387 171.113 21.4086 171.947 30.2689C173.525 30.3877 175.267 30.9516 177.098 32.0054C183.18 35.5079 188.286 43.27 189.678 50.5794C190.616 50.7278 191.621 51.0766 192.67 51.6851C197.509 54.4678 201.432 61.2429 201.432 66.8159C201.432 68.8269 200.918 70.4001 200.033 71.4613C201.343 70.452 202.139 68.6265 202.139 66.1183C202.139 60.5528 198.216 53.7777 193.378 50.995Z" fill="white"/>
</g>
<g id="Group_27">
<path id="Vector_42" d="M141.806 18.5964L145.469 20.2883L145.283 16.2737C145.268 15.9917 145.26 15.7098 145.26 15.4352C145.26 11.851 146.347 9.25374 148.32 8.11837C150.293 6.983 153.091 7.34662 156.21 9.14243C162.91 13.0012 168.753 22.381 169.513 30.5066L169.706 32.5548L171.761 32.7106C173.026 32.8071 174.411 33.282 175.877 34.1279C181.2 37.1927 185.993 44.3092 187.281 51.0472L187.601 52.7317L189.306 52.9988C189.983 53.1027 190.705 53.3773 191.457 53.8077C195.544 56.16 198.998 62.1189 198.998 66.8236C198.998 68.5823 198.507 69.8735 197.658 70.3707C196.802 70.8604 195.44 70.6378 193.906 69.7622L145.231 41.749C139.566 38.4913 134.787 30.2321 134.787 23.7093C134.787 21.1491 135.546 19.2049 136.864 18.3664C137.407 18.0176 138.062 17.8469 138.807 17.8469C139.685 17.8321 140.712 18.0844 141.806 18.5964Z" fill="url(#paint4_linear_328_28265)"/>
</g>
</g>
<g id="Group_28">
<path id="Vector_43" d="M166.103 49.0067L167.384 48.3611L166.118 47.4038L166.103 49.0067Z" fill="#6A86BC"/>
<path id="Vector_44" d="M162.247 31.7162L163.49 31.0854L163.513 31.7385L162.247 31.7162Z" fill="#6A86BC"/>
<path id="Vector_45" d="M169.766 44.9622L171.061 44.3092L168.56 41.9346L169.766 44.9622Z" fill="#6A86BC"/>
<g id="Group_29">
<path id="Vector_46" d="M167.012 48.3242L160.93 44.7548C160.625 44.5767 160.372 44.1166 160.372 43.7382L160.394 36.7256L167.592 40.948L167.57 47.9605C167.57 48.339 167.317 48.5022 167.012 48.3242Z" fill="#6A86BC"/>
<path id="Vector_47" d="M163.476 31.0931L156.91 35.308C156.635 35.4861 156.858 36.154 157.282 36.3989L163.989 40.3393L170.696 44.2796C171.121 44.5245 171.351 44.1312 171.068 43.6266L164.548 31.7312C164.265 31.2044 163.758 30.9075 163.476 31.0931Z" fill="#6A86BC"/>
</g>
<g id="Group_30">
<path id="Vector_48" d="M165.709 48.977L159.627 45.4076C159.322 45.2295 159.069 44.7694 159.069 44.391L159.091 37.3784L166.289 41.6008L166.267 48.6134C166.267 48.9918 166.014 49.1551 165.709 48.977Z" fill="#DEE4F0"/>
<path id="Vector_49" d="M162.173 31.7462L155.607 35.9612C155.332 36.1393 155.555 36.8071 155.98 37.052L162.687 40.9924L169.393 44.9328C169.818 45.1777 170.049 44.7844 169.766 44.2798L163.245 32.3844C162.962 31.865 162.456 31.5681 162.173 31.7462Z" fill="#DEE4F0"/>
</g>
</g>
</g>
<path id="Vector_50" d="M155.414 58.0523C155.414 58.4753 155.116 58.646 154.751 58.4308C154.387 58.223 154.089 57.711 154.089 57.288C154.089 56.865 154.387 56.6943 154.751 56.9095C155.116 57.1173 155.414 57.6294 155.414 58.0523Z" fill="#DEE4F0"/>
</g>
<g id="Group_31">
<path id="Vector_51" opacity="0.59" d="M101.639 152.05L119.892 141.542C121.008 140.897 120.874 139.769 119.579 139.027L101.959 128.883C100.664 128.14 98.7062 128.059 97.5896 128.704L79.3372 139.212C78.2206 139.858 78.3546 140.986 79.6498 141.728L97.2695 151.872C98.5648 152.614 100.523 152.696 101.639 152.05Z" fill="#AEBDDB"/>
<g id="Group_32">
<path id="Vector_52" d="M73.2777 131.213V123.355L90.957 123.347L97.0684 119.83C98.4679 119.021 100.924 119.125 102.54 120.052L108.242 123.332L125.936 123.325V131.406C125.973 131.955 125.668 132.482 124.998 132.868L102.145 146.025C100.746 146.834 98.2892 146.73 96.6739 145.802L74.6102 133.098C73.6797 132.556 73.2256 131.866 73.2777 131.213Z" fill="#083690"/>
<path id="Vector_53" d="M99.6143 119.288C100.642 119.31 101.706 119.57 102.547 120.052L108.249 123.332L125.943 123.325V131.406C125.981 131.955 125.675 132.482 125.005 132.868L102.153 146.025C101.475 146.411 100.56 146.589 99.6143 146.567V119.288Z" fill="#083690"/>
<path id="Vector_54" d="M123.941 123.325H125.943V131.406C125.981 131.955 125.675 132.482 125.005 132.868L123.941 133.476V123.325Z" fill="#6A86BC"/>
<path id="Vector_55" d="M101.803 146.195C100.589 146.715 98.8401 146.685 97.4258 146.143V136.964H101.803V146.195Z" fill="#6A86BC"/>
<path id="Vector_56" d="M102.153 137.966L125.005 124.809C126.405 124 126.234 122.59 124.611 121.662L102.547 108.958C100.924 108.023 98.4753 107.927 97.0759 108.736L74.2231 121.893C72.8236 122.701 72.9948 124.111 74.6176 125.039L96.6814 137.743C98.2967 138.671 100.753 138.775 102.153 137.966Z" fill="#DEE4F0"/>
<path id="Vector_57" d="M101.743 135.599L120.896 124.579C122.073 123.904 121.924 122.724 120.569 121.937L102.078 111.296C100.723 110.517 98.6689 110.428 97.4928 111.103L78.3396 122.123C77.1635 122.798 77.3124 123.978 78.6672 124.765L97.1578 135.406C98.5126 136.192 100.567 136.274 101.743 135.599Z" fill="#6A86BC"/>
<g id="Group_33">
<path id="Vector_58" d="M81.6892 133.291C81.6892 133.877 82.1061 134.589 82.6123 134.886C83.1184 135.183 83.5353 134.938 83.5353 134.352C83.5353 133.766 83.1184 133.053 82.6123 132.756C82.1061 132.46 81.6892 132.704 81.6892 133.291Z" fill="#DEE4F0"/>
<path id="Vector_59" d="M78.7192 131.576C78.7192 132.163 79.1361 132.875 79.6423 133.172C80.1485 133.469 80.5653 133.224 80.5653 132.638C80.5653 132.051 80.1485 131.339 79.6423 131.042C79.1287 130.753 78.7192 130.99 78.7192 131.576Z" fill="#DEE4F0"/>
<path id="Vector_60" d="M75.749 129.87C75.749 130.456 76.1659 131.169 76.6721 131.465C77.1783 131.762 77.5951 131.517 77.5951 130.931C77.5951 130.345 77.1783 129.632 76.6721 129.336C76.1584 129.046 75.749 129.284 75.749 129.87Z" fill="#DEE4F0"/>
</g>
</g>
<g id="Group_34">
<path id="Vector_61" d="M73.2777 118.65V110.791L90.957 110.784L97.0684 107.266C98.4679 106.457 100.924 106.561 102.54 107.489L108.242 110.769L125.936 110.761V118.843C125.973 119.392 125.668 119.919 124.998 120.304L102.145 133.461C100.746 134.27 98.2892 134.166 96.6739 133.239L74.6102 120.535C73.6797 119.993 73.2256 119.303 73.2777 118.65Z" fill="#083690"/>
<path id="Vector_62" d="M99.6143 106.725C100.642 106.747 101.706 107.007 102.547 107.489L108.249 110.769L125.943 110.761V118.843C125.981 119.392 125.675 119.919 125.005 120.304L102.153 133.461C101.475 133.847 100.56 134.025 99.6143 134.003V106.725Z" fill="#083690"/>
<path id="Vector_63" d="M123.941 110.761H125.943V118.842C125.981 119.392 125.675 119.918 125.005 120.304L123.941 120.913V110.761Z" fill="#6A86BC"/>
<path id="Vector_64" d="M101.803 133.632C100.589 134.151 98.8401 134.122 97.4258 133.58V124.4H101.803V133.632Z" fill="#6A86BC"/>
<path id="Vector_65" d="M102.153 125.402L125.005 112.245C126.405 111.437 126.234 110.027 124.611 109.099L102.547 96.3947C100.924 95.4597 98.4753 95.3633 97.0759 96.1721L74.2231 109.329C72.8236 110.138 72.9948 111.548 74.6176 112.475L96.6814 125.18C98.2967 126.115 100.753 126.211 102.153 125.402Z" fill="#DEE4F0"/>
<path id="Vector_66" d="M101.743 123.035L120.896 112.016C122.073 111.34 121.924 110.16 120.569 109.374L102.078 98.7325C100.723 97.9533 98.6689 97.8642 97.4928 98.5395L78.3396 109.559C77.1635 110.235 77.3124 111.414 78.6672 112.201L97.1578 122.842C98.5126 123.629 100.567 123.718 101.743 123.035Z" fill="#6A86BC"/>
<g id="Group_35">
<path id="Vector_67" d="M81.6892 120.727C81.6892 121.313 82.1061 122.026 82.6123 122.323C83.1184 122.619 83.5353 122.375 83.5353 121.788C83.5353 121.202 83.1184 120.49 82.6123 120.193C82.1061 119.896 81.6892 120.141 81.6892 120.727Z" fill="#DEE4F0"/>
<path id="Vector_68" d="M78.7192 119.013C78.7192 119.599 79.1361 120.312 79.6423 120.608C80.1485 120.905 80.5653 120.66 80.5653 120.074C80.5653 119.488 80.1485 118.775 79.6423 118.479C79.1287 118.189 78.7192 118.427 78.7192 119.013Z" fill="#6A86BC"/>
<path id="Vector_69" d="M75.749 117.306C75.749 117.893 76.1659 118.605 76.6721 118.902C77.1783 119.199 77.5951 118.954 77.5951 118.368C77.5951 117.781 77.1783 117.069 76.6721 116.772C76.1584 116.483 75.749 116.72 75.749 117.306Z" fill="#6A86BC"/>
</g>
</g>
<g id="Group_36">
<path id="Vector_70" d="M73.2777 106.086V98.2277L90.957 98.2202L97.0684 94.7028C98.4679 93.894 100.924 93.9979 102.54 94.9254L108.242 98.2054L125.936 98.198V106.279C125.973 106.828 125.668 107.355 124.998 107.741L102.145 120.898C100.746 121.707 98.2892 121.603 96.6739 120.675L74.6102 107.971C73.6797 107.437 73.2256 106.739 73.2777 106.086Z" fill="#083690"/>
<path id="Vector_71" d="M99.6143 94.1611C100.642 94.1834 101.706 94.4431 102.547 94.9255L108.249 98.2054L125.943 98.198V106.279C125.981 106.828 125.675 107.355 125.005 107.741L102.153 120.898C101.475 121.284 100.56 121.462 99.6143 121.44V94.1611Z" fill="#083690"/>
<path id="Vector_72" d="M123.941 98.1982H125.943V106.279C125.981 106.829 125.675 107.355 125.005 107.741L123.941 108.35V98.1982Z" fill="#6A86BC"/>
<path id="Vector_73" d="M101.803 121.069C100.589 121.588 98.8401 121.559 97.4258 121.017V111.837H101.803V121.069Z" fill="#6A86BC"/>
<path id="Vector_74" d="M102.153 112.847L125.005 99.6897C126.405 98.8809 126.234 97.4709 124.611 96.5433L102.547 83.8391C100.924 82.9041 98.4753 82.8076 97.0759 83.6165L74.2231 96.7734C72.8236 97.5822 72.9948 98.9922 74.6176 99.9198L96.6814 112.624C98.2967 113.552 100.753 113.648 102.153 112.847Z" fill="#DEE4F0"/>
<path id="Vector_75" d="M74.6102 98.3687L96.674 111.073C98.2967 112.008 100.746 112.104 102.145 111.296L124.998 98.1386C125.311 97.9606 125.541 97.7453 125.698 97.5227C126.182 98.2945 125.958 99.133 124.998 99.6896L102.145 112.846C100.746 113.655 98.2893 113.551 96.674 112.624L74.6102 99.9196C73.3522 99.1924 72.9726 98.1832 73.516 97.3892C73.7393 97.7379 74.1041 98.0793 74.6102 98.3687Z" fill="white"/>
<g id="Group_37">
<path id="Vector_76" d="M81.6892 108.164C81.6892 108.75 82.1061 109.463 82.6123 109.76C83.1184 110.056 83.5353 109.812 83.5353 109.225C83.5353 108.639 83.1184 107.927 82.6123 107.63C82.1061 107.333 81.6892 107.578 81.6892 108.164Z" fill="#6A86BC"/>
<path id="Vector_77" d="M78.7192 106.458C78.7192 107.044 79.1361 107.756 79.6423 108.053C80.1485 108.35 80.5653 108.105 80.5653 107.519C80.5653 106.933 80.1485 106.22 79.6423 105.923C79.1287 105.627 78.7192 105.871 78.7192 106.458Z" fill="#DEE4F0"/>
<path id="Vector_78" d="M75.749 104.743C75.749 105.33 76.1659 106.042 76.6721 106.339C77.1783 106.636 77.5951 106.391 77.5951 105.805C77.5951 105.218 77.1783 104.506 76.6721 104.209C76.1584 103.92 75.749 104.157 75.749 104.743Z" fill="#DEE4F0"/>
</g>
<g id="Group_38">
<path id="Vector_79" d="M100.798 104.691L111.495 98.5396C112.15 98.1611 112.068 97.5007 111.309 97.0629L100.984 91.1189C100.225 90.6811 99.0782 90.6365 98.4232 91.015L87.7263 97.1668C87.0712 97.5452 87.1531 98.2056 87.9124 98.6435L98.2371 104.587C98.9963 105.018 100.143 105.07 100.798 104.691Z" fill="#6A86BC"/>
<path id="Vector_80" d="M99.7779 99.534L101.259 98.6806C101.349 98.6286 101.341 98.5396 101.237 98.4802L99.8077 97.6565C99.7035 97.5971 99.5472 97.5897 99.4504 97.6417L97.9691 98.495C97.8797 98.547 97.8872 98.636 97.9914 98.6954L99.4206 99.5191C99.5248 99.5785 99.6886 99.5859 99.7779 99.534Z" fill="#DEE4F0"/>
<path id="Vector_81" d="M111.495 98.5322L111.465 98.547C111.413 98.5099 111.368 98.4728 111.308 98.4431L100.984 92.4991C100.224 92.0613 99.0781 92.0168 98.423 92.3952L87.7559 98.5322C87.1529 98.1018 87.1157 97.5155 87.7261 97.1668L98.423 91.015C99.0781 90.6365 100.224 90.6811 100.984 91.1189L111.308 97.0629C112.068 97.4933 112.15 98.1537 111.495 98.5322Z" fill="#4471C9"/>
</g>
</g>
</g>
<g id="Group_39">
<path id="Vector_82" opacity="0.59" d="M141.941 174.653L160.193 164.146C161.31 163.5 161.176 162.372 159.88 161.63L142.261 151.486C140.965 150.744 139.008 150.662 137.891 151.308L119.639 161.816C118.522 162.461 118.656 163.589 119.951 164.331L137.571 174.475C138.866 175.217 140.824 175.299 141.941 174.653Z" fill="#AEBDDB"/>
<g id="Group_40">
<path id="Vector_83" d="M113.579 153.816V145.958L131.258 145.95L137.37 142.433C138.769 141.624 141.226 141.728 142.841 142.655L148.543 145.935L166.237 145.928V154.009C166.275 154.558 165.969 155.085 165.299 155.471L142.447 168.628C141.047 169.437 138.591 169.333 136.975 168.405L114.912 155.701C113.981 155.159 113.527 154.469 113.579 153.816Z" fill="#083690"/>
<path id="Vector_84" d="M139.916 141.891C140.943 141.913 142.007 142.173 142.849 142.655L148.551 145.935L166.245 145.928V154.009C166.282 154.558 165.977 155.085 165.307 155.471L142.454 168.628C141.777 169.014 140.861 169.192 139.916 169.17V141.891Z" fill="#083690"/>
<path id="Vector_85" d="M164.242 145.928H166.245V154.009C166.282 154.559 165.977 155.085 165.307 155.471L164.242 156.08V145.928Z" fill="#6A86BC"/>
<path id="Vector_86" d="M142.104 168.799C140.891 169.318 139.142 169.289 137.727 168.747V159.567H142.104V168.799Z" fill="#6A86BC"/>
<path id="Vector_87" d="M142.454 160.569L165.307 147.412C166.706 146.603 166.535 145.193 164.912 144.266L142.849 131.569C141.226 130.634 138.777 130.538 137.377 131.346L114.525 144.503C113.125 145.312 113.296 146.722 114.919 147.65L136.983 160.354C138.606 161.274 141.055 161.378 142.454 160.569Z" fill="#DEE4F0"/>
<path id="Vector_88" d="M142.045 158.202L161.198 147.182C162.374 146.507 162.225 145.327 160.87 144.54L142.38 133.899C141.025 133.12 138.97 133.031 137.794 133.706L118.641 144.726C117.465 145.401 117.614 146.581 118.969 147.368L137.459 158.009C138.814 158.795 140.869 158.877 142.045 158.202Z" fill="#6A86BC"/>
<g id="Group_41">
<path id="Vector_89" d="M121.991 155.894C121.991 156.481 122.408 157.193 122.914 157.49C123.42 157.787 123.837 157.542 123.837 156.955C123.837 156.369 123.42 155.657 122.914 155.36C122.4 155.071 121.991 155.308 121.991 155.894Z" fill="#DEE4F0"/>
<path id="Vector_90" d="M119.021 154.18C119.021 154.767 119.438 155.479 119.944 155.776C120.45 156.073 120.867 155.828 120.867 155.241C120.867 154.655 120.45 153.943 119.944 153.646C119.438 153.349 119.021 153.594 119.021 154.18Z" fill="#6A86BC"/>
<path id="Vector_91" d="M116.051 152.473C116.051 153.06 116.467 153.772 116.974 154.069C117.48 154.366 117.897 154.121 117.897 153.535C117.897 152.948 117.48 152.236 116.974 151.939C116.46 151.65 116.051 151.887 116.051 152.473Z" fill="#DEE4F0"/>
</g>
</g>
<g id="Group_42">
<path id="Vector_92" d="M113.579 141.253V133.395L131.258 133.387L137.37 129.87C138.769 129.061 141.226 129.165 142.841 130.092L148.543 133.372L166.237 133.365V141.446C166.275 141.995 165.969 142.522 165.299 142.908L142.447 156.065C141.047 156.874 138.591 156.77 136.975 155.842L114.912 143.138C113.981 142.596 113.527 141.906 113.579 141.253Z" fill="#083690"/>
<path id="Vector_93" d="M139.916 129.328C140.943 129.35 142.007 129.61 142.849 130.092L148.551 133.372L166.245 133.365V141.446C166.282 141.995 165.977 142.522 165.307 142.908L142.454 156.065C141.777 156.451 140.861 156.629 139.916 156.607V129.328Z" fill="#083690"/>
<path id="Vector_94" d="M164.242 133.365H166.245V141.446C166.282 141.995 165.977 142.522 165.307 142.908L164.242 143.516V133.365Z" fill="#6A86BC"/>
<path id="Vector_95" d="M142.104 156.235C140.891 156.755 139.142 156.725 137.727 156.183V147.004H142.104V156.235Z" fill="#6A86BC"/>
<path id="Vector_96" d="M142.454 148.006L165.307 134.849C166.706 134.04 166.535 132.63 164.912 131.703L142.849 118.998C141.226 118.063 138.777 117.967 137.377 118.776L114.525 131.933C113.125 132.741 113.296 134.151 114.919 135.079L136.983 147.783C138.606 148.718 141.055 148.815 142.454 148.006Z" fill="#DEE4F0"/>
<path id="Vector_97" d="M142.045 145.639L161.198 134.619C162.374 133.944 162.225 132.764 160.87 131.977L142.38 121.336C141.025 120.557 138.97 120.468 137.794 121.143L118.641 132.163C117.465 132.838 117.614 134.018 118.969 134.805L137.459 145.446C138.814 146.232 140.869 146.321 142.045 145.639Z" fill="#6A86BC"/>
<g id="Group_43">
<path id="Vector_98" d="M121.991 143.331C121.991 143.917 122.408 144.629 122.914 144.926C123.42 145.223 123.837 144.978 123.837 144.392C123.837 143.806 123.42 143.093 122.914 142.797C122.4 142.507 121.991 142.745 121.991 143.331Z" fill="#DEE4F0"/>
<path id="Vector_99" d="M119.021 141.616C119.021 142.203 119.438 142.915 119.944 143.212C120.45 143.509 120.867 143.264 120.867 142.678C120.867 142.091 120.45 141.379 119.944 141.082C119.43 140.793 119.021 141.03 119.021 141.616Z" fill="#DEE4F0"/>
<path id="Vector_100" d="M116.051 139.91C116.051 140.496 116.467 141.209 116.974 141.505C117.48 141.802 117.897 141.557 117.897 140.971C117.897 140.385 117.48 139.672 116.974 139.376C116.46 139.086 116.051 139.324 116.051 139.91Z" fill="#6A86BC"/>
</g>
</g>
<g id="Group_44">
<path id="Vector_101" d="M113.579 128.69V120.831L131.258 120.824L137.37 117.306C138.769 116.497 141.226 116.601 142.841 117.529L148.543 120.809L166.237 120.801V128.883C166.275 129.432 165.969 129.959 165.299 130.345L142.447 143.501C141.047 144.31 138.591 144.206 136.975 143.279L114.912 130.575C113.981 130.04 113.527 129.343 113.579 128.69Z" fill="#083690"/>
<path id="Vector_102" d="M139.916 116.765C140.943 116.787 142.007 117.047 142.849 117.529L148.551 120.809L166.245 120.802V128.883C166.282 129.432 165.977 129.959 165.307 130.345L142.454 143.501C141.777 143.887 140.861 144.065 139.916 144.043V116.765Z" fill="#083690"/>
<path id="Vector_103" d="M164.242 120.802H166.245V128.883C166.282 129.432 165.977 129.959 165.307 130.345L164.242 130.953V120.802Z" fill="#6A86BC"/>
<path id="Vector_104" d="M142.104 143.672C140.891 144.192 139.142 144.162 137.727 143.62V134.441H142.104V143.672Z" fill="#6A86BC"/>
<path id="Vector_105" d="M142.454 135.45L165.307 122.293C166.706 121.484 166.535 120.074 164.912 119.147L142.849 106.443C141.226 105.508 138.777 105.411 137.377 106.22L114.525 119.377C113.125 120.186 113.296 121.596 114.919 122.523L136.983 135.228C138.606 136.155 141.055 136.252 142.454 135.45Z" fill="#DEE4F0"/>
<path id="Vector_106" d="M114.912 120.972L136.975 133.676C138.598 134.611 141.047 134.708 142.447 133.899L165.3 120.742C165.612 120.564 165.843 120.349 165.999 120.126C166.483 120.898 166.26 121.737 165.3 122.293L142.447 135.45C141.047 136.259 138.591 136.155 136.975 135.227L114.912 122.523C113.654 121.796 113.274 120.787 113.817 119.993C114.041 120.341 114.406 120.683 114.912 120.972Z" fill="white"/>
<g id="Group_45">
<path id="Vector_107" d="M121.991 130.768C121.991 131.354 122.408 132.066 122.914 132.363C123.42 132.66 123.837 132.415 123.837 131.829C123.837 131.243 123.42 130.53 122.914 130.234C122.4 129.944 121.991 130.182 121.991 130.768Z" fill="#6A86BC"/>
<path id="Vector_108" d="M119.021 129.061C119.021 129.647 119.438 130.36 119.944 130.657C120.45 130.953 120.867 130.709 120.867 130.122C120.867 129.536 120.45 128.824 119.944 128.527C119.438 128.23 119.021 128.475 119.021 129.061Z" fill="#6A86BC"/>
<path id="Vector_109" d="M116.051 127.347C116.051 127.933 116.467 128.646 116.974 128.942C117.48 129.239 117.897 128.994 117.897 128.408C117.897 127.822 117.48 127.109 116.974 126.813C116.46 126.523 116.051 126.761 116.051 127.347Z" fill="#DEE4F0"/>
</g>
<g id="Group_46">
<path id="Vector_110" d="M141.107 127.295L151.804 121.143C152.459 120.765 152.377 120.104 151.618 119.666L141.293 113.722C140.534 113.285 139.387 113.24 138.732 113.619L128.035 119.77C127.38 120.149 127.462 120.809 128.221 121.247L138.546 127.191C139.298 127.621 140.444 127.673 141.107 127.295Z" fill="#6A86BC"/>
<path id="Vector_111" d="M140.079 122.137L141.561 121.284C141.65 121.232 141.643 121.143 141.538 121.084L140.109 120.26C140.005 120.201 139.849 120.193 139.752 120.245L138.271 121.099C138.181 121.151 138.189 121.24 138.293 121.299L139.722 122.123C139.834 122.182 139.99 122.189 140.079 122.137Z" fill="#DEE4F0"/>
<path id="Vector_112" d="M151.796 121.136L151.766 121.151C151.714 121.113 151.67 121.076 151.61 121.047L141.285 115.103C140.526 114.665 139.38 114.62 138.725 114.999L128.058 121.136C127.455 120.705 127.417 120.119 128.028 119.77L138.725 113.619C139.38 113.24 140.526 113.285 141.285 113.722L151.61 119.666C152.369 120.097 152.451 120.757 151.796 121.136Z" fill="#4471C9"/>
</g>
</g>
<g id="Group_47">
<path id="Vector_113" d="M144.486 149.883C144.486 150.306 144.784 150.477 145.149 150.262C145.514 150.054 145.811 149.542 145.811 149.119C145.811 148.696 145.514 148.525 145.149 148.741C144.784 148.948 144.486 149.46 144.486 149.883Z" fill="#DEE4F0"/>
<path id="Vector_114" d="M146.541 148.711C146.541 149.134 146.839 149.305 147.203 149.089C147.568 148.882 147.866 148.37 147.866 147.947C147.866 147.524 147.568 147.353 147.203 147.568C146.839 147.776 146.541 148.288 146.541 148.711Z" fill="#DEE4F0"/>
<path id="Vector_115" d="M144.486 152.355C144.486 152.778 144.784 152.948 145.149 152.733C145.514 152.525 145.811 152.013 145.811 151.59C145.811 151.167 145.514 150.997 145.149 151.212C144.784 151.42 144.486 151.932 144.486 152.355Z" fill="#DEE4F0"/>
<path id="Vector_116" d="M146.541 151.182C146.541 151.605 146.839 151.776 147.203 151.561C147.568 151.353 147.866 150.841 147.866 150.418C147.866 149.995 147.568 149.824 147.203 150.039C146.839 150.247 146.541 150.759 146.541 151.182Z" fill="#6A86BC"/>
</g>
</g>
<g id="Group_48">
<path id="Vector_117" opacity="0.59" d="M182.249 197.257L200.502 186.749C201.618 186.104 201.484 184.976 200.189 184.234L182.569 174.09C181.274 173.347 179.316 173.266 178.2 173.911L159.947 184.419C158.831 185.065 158.965 186.193 160.26 186.935L177.88 197.079C179.167 197.821 181.125 197.903 182.249 197.257Z" fill="#AEBDDB"/>
<g id="Group_49">
<path id="Vector_118" d="M153.888 176.42V168.562L171.567 168.554L177.679 165.037C179.078 164.228 181.535 164.332 183.15 165.259L188.852 168.539L206.546 168.532V176.613C206.583 177.162 206.278 177.689 205.608 178.075L182.755 191.232C181.356 192.041 178.899 191.937 177.284 191.009L155.22 178.305C154.282 177.763 153.836 177.073 153.888 176.42Z" fill="#06348F"/>
<path id="Vector_119" d="M180.217 164.495C181.244 164.517 182.309 164.777 183.15 165.259L188.852 168.539L206.546 168.532V176.613C206.583 177.162 206.278 177.689 205.608 178.075L182.755 191.232C182.078 191.618 181.162 191.796 180.217 191.774V164.495Z" fill="#06348F"/>
<path id="Vector_120" d="M204.551 168.532H206.554V176.613C206.591 177.162 206.286 177.689 205.616 178.075L204.551 178.683V168.532Z" fill="#6A86BC"/>
<path id="Vector_121" d="M182.406 191.402C181.192 191.922 179.443 191.892 178.029 191.35V182.171H182.406V191.402Z" fill="#6A86BC"/>
<path id="Vector_122" d="M182.755 183.173L205.608 170.016C207.008 169.207 206.836 167.797 205.214 166.87L183.15 154.165C181.527 153.23 179.078 153.134 177.679 153.943L154.826 167.1C153.426 167.908 153.598 169.318 155.22 170.246L177.284 182.95C178.907 183.878 181.356 183.982 182.755 183.173Z" fill="#DEE4F0"/>
<path id="Vector_123" d="M182.346 180.806L201.499 169.786C202.675 169.111 202.526 167.931 201.172 167.144L182.673 156.503C181.319 155.724 179.264 155.635 178.088 156.31L158.935 167.33C157.759 168.005 157.908 169.185 159.262 169.972L177.753 180.613C179.115 181.399 181.17 181.481 182.346 180.806Z" fill="#6A86BC"/>
<g id="Group_50">
<path id="Vector_124" d="M162.292 178.498C162.292 179.084 162.709 179.796 163.215 180.093C163.721 180.39 164.138 180.145 164.138 179.559C164.138 178.973 163.721 178.26 163.215 177.964C162.701 177.674 162.292 177.912 162.292 178.498Z" fill="#DEE4F0"/>
<path id="Vector_125" d="M159.322 176.783C159.322 177.37 159.739 178.082 160.245 178.379C160.751 178.676 161.168 178.431 161.168 177.845C161.168 177.258 160.751 176.546 160.245 176.249C159.731 175.96 159.322 176.197 159.322 176.783Z" fill="#6A86BC"/>
<path id="Vector_126" d="M156.352 175.077C156.352 175.663 156.769 176.376 157.275 176.672C157.781 176.969 158.198 176.724 158.198 176.138C158.198 175.552 157.781 174.839 157.275 174.543C156.761 174.253 156.352 174.491 156.352 175.077Z" fill="#DEE4F0"/>
</g>
</g>
<g id="Group_51">
<path id="Vector_127" d="M153.888 163.857V155.998L171.567 155.991L177.679 152.473C179.078 151.664 181.535 151.768 183.15 152.696L188.852 155.976L206.546 155.968V164.05C206.583 164.599 206.278 165.126 205.608 165.512L182.755 178.668C181.356 179.477 178.899 179.373 177.284 178.446L155.22 165.742C154.282 165.2 153.836 164.51 153.888 163.857Z" fill="#06348F"/>
<path id="Vector_128" d="M180.217 151.932C181.244 151.954 182.309 152.214 183.15 152.696L188.852 155.976L206.546 155.968V164.05C206.583 164.599 206.278 165.126 205.608 165.512L182.755 178.668C182.078 179.054 181.162 179.232 180.217 179.21V151.932Z" fill="#06348F"/>
<path id="Vector_129" d="M204.551 155.968H206.554V164.049C206.591 164.599 206.286 165.125 205.616 165.511L204.551 166.12V155.968Z" fill="#6A86BC"/>
<path id="Vector_130" d="M182.406 178.839C181.192 179.358 179.443 179.329 178.029 178.787V169.607H182.406V178.839Z" fill="#6A86BC"/>
<path id="Vector_131" d="M182.755 170.609L205.608 157.452C207.008 156.644 206.836 155.234 205.214 154.306L183.15 141.602C181.527 140.667 179.078 140.57 177.679 141.379L154.826 154.536C153.426 155.345 153.598 156.755 155.22 157.682L177.284 170.387C178.907 171.322 181.356 171.418 182.755 170.609Z" fill="#DEE4F0"/>
<path id="Vector_132" d="M182.346 168.242L201.499 157.223C202.675 156.547 202.526 155.367 201.172 154.581L182.681 143.939C181.326 143.16 179.272 143.071 178.096 143.747L158.942 154.766C157.766 155.442 157.915 156.621 159.27 157.408L177.761 168.049C179.115 168.836 181.17 168.925 182.346 168.242Z" fill="#6A86BC"/>
<g id="Group_52">
<path id="Vector_133" d="M162.292 165.934C162.292 166.521 162.709 167.233 163.215 167.53C163.721 167.827 164.138 167.582 164.138 166.996C164.138 166.409 163.721 165.697 163.215 165.4C162.701 165.111 162.292 165.348 162.292 165.934Z" fill="#6A86BC"/>
<path id="Vector_134" d="M159.322 164.22C159.322 164.806 159.739 165.519 160.245 165.815C160.751 166.112 161.168 165.867 161.168 165.281C161.168 164.695 160.751 163.983 160.245 163.686C159.731 163.396 159.322 163.634 159.322 164.22Z" fill="#6A86BC"/>
<path id="Vector_135" d="M156.352 162.513C156.352 163.1 156.769 163.812 157.275 164.109C157.781 164.406 158.198 164.161 158.198 163.575C158.198 162.988 157.781 162.276 157.275 161.979C156.761 161.69 156.352 161.927 156.352 162.513Z" fill="#DEE4F0"/>
</g>
</g>
<g id="Group_53">
<path id="Vector_136" d="M153.888 151.293V143.435L171.567 143.427L177.679 139.91C179.078 139.101 181.535 139.205 183.15 140.132L188.852 143.412L206.546 143.405V151.486C206.583 152.035 206.278 152.562 205.608 152.948L182.755 166.105C181.356 166.914 178.899 166.81 177.284 165.882L155.22 153.178C154.282 152.644 153.836 151.946 153.888 151.293Z" fill="#06348F"/>
<path id="Vector_137" d="M180.217 139.368C181.244 139.39 182.309 139.65 183.15 140.132L188.852 143.412L206.546 143.405V151.486C206.583 152.035 206.278 152.562 205.608 152.948L182.755 166.105C182.078 166.491 181.162 166.669 180.217 166.647V139.368Z" fill="#06348F"/>
<path id="Vector_138" d="M204.551 143.405H206.554V151.486C206.591 152.036 206.286 152.562 205.616 152.948L204.551 153.557V143.405Z" fill="#6A86BC"/>
<path id="Vector_139" d="M182.406 166.276C181.192 166.795 179.443 166.766 178.029 166.224V157.044H182.406V166.276Z" fill="#6A86BC"/>
<path id="Vector_140" d="M182.755 158.054L205.608 144.897C207.008 144.088 206.836 142.678 205.214 141.75L183.15 129.046C181.527 128.111 179.078 128.015 177.679 128.824L154.826 141.98C153.426 142.789 153.598 144.199 155.22 145.127L177.284 157.831C178.907 158.759 181.356 158.855 182.755 158.054Z" fill="#DEE4F0"/>
<path id="Vector_141" d="M155.22 143.576L177.284 156.28C178.907 157.215 181.356 157.311 182.755 156.503L205.608 143.346C205.921 143.168 206.152 142.952 206.308 142.73C206.792 143.502 206.568 144.34 205.608 144.897L182.755 158.054C181.356 158.862 178.899 158.758 177.284 157.831L155.22 145.127C153.962 144.399 153.583 143.39 154.126 142.596C154.342 142.945 154.707 143.286 155.22 143.576Z" fill="white"/>
<g id="Group_54">
<path id="Vector_142" d="M162.292 153.371C162.292 153.958 162.709 154.67 163.215 154.967C163.721 155.264 164.138 155.019 164.138 154.433C164.138 153.846 163.721 153.134 163.215 152.837C162.701 152.548 162.292 152.785 162.292 153.371Z" fill="#DEE4F0"/>
<path id="Vector_143" d="M159.322 151.665C159.322 152.251 159.739 152.963 160.245 153.26C160.751 153.557 161.168 153.312 161.168 152.726C161.168 152.14 160.751 151.427 160.245 151.13C159.731 150.834 159.322 151.078 159.322 151.665Z" fill="#DEE4F0"/>
<path id="Vector_144" d="M156.352 149.95C156.352 150.537 156.769 151.249 157.275 151.546C157.781 151.843 158.198 151.598 158.198 151.012C158.198 150.425 157.781 149.713 157.275 149.416C156.761 149.127 156.352 149.364 156.352 149.95Z" fill="#6A86BC"/>
</g>
<g id="Group_55">
<path id="Vector_145" d="M181.408 149.898L192.105 143.747C192.76 143.368 192.678 142.708 191.919 142.27L181.594 136.326C180.835 135.888 179.689 135.844 179.034 136.222L168.337 142.374C167.682 142.752 167.763 143.413 168.523 143.851L178.847 149.794C179.599 150.225 180.753 150.277 181.408 149.898Z" fill="#6A86BC"/>
<path id="Vector_146" d="M180.381 144.741L181.862 143.888C181.951 143.836 181.944 143.747 181.84 143.687L180.41 142.864C180.306 142.804 180.15 142.797 180.053 142.849L178.572 143.702C178.483 143.754 178.49 143.843 178.594 143.902L180.023 144.726C180.135 144.786 180.291 144.793 180.381 144.741Z" fill="#DEE4F0"/>
<path id="Vector_147" d="M192.098 143.739L192.068 143.754C192.016 143.717 191.971 143.68 191.911 143.65L181.587 137.706C180.827 137.268 179.681 137.224 179.026 137.602L168.359 143.739C167.756 143.309 167.719 142.723 168.329 142.374L179.026 136.222C179.681 135.844 180.827 135.888 181.587 136.326L191.911 142.27C192.671 142.7 192.76 143.361 192.098 143.739Z" fill="#4471C9"/>
</g>
</g>
<g id="Group_56">
<path id="Vector_148" d="M184.497 160.102C184.497 160.525 184.795 160.695 185.16 160.48C185.525 160.272 185.822 159.76 185.822 159.337C185.822 158.914 185.525 158.744 185.16 158.959C184.795 159.174 184.497 159.686 184.497 160.102Z" fill="#DEE4F0"/>
<path id="Vector_149" d="M186.552 158.929C186.552 159.352 186.85 159.523 187.214 159.308C187.579 159.1 187.877 158.588 187.877 158.165C187.877 157.742 187.579 157.571 187.214 157.787C186.85 157.994 186.552 158.506 186.552 158.929Z" fill="#DEE4F0"/>
<path id="Vector_150" d="M184.497 162.573C184.497 162.996 184.795 163.167 185.16 162.951C185.525 162.744 185.822 162.231 185.822 161.809C185.822 161.386 185.525 161.215 185.16 161.43C184.795 161.645 184.497 162.157 184.497 162.573Z" fill="#DEE4F0"/>
<path id="Vector_151" d="M186.552 161.4C186.552 161.823 186.85 161.994 187.214 161.779C187.579 161.571 187.877 161.059 187.877 160.636C187.877 160.213 187.579 160.042 187.214 160.258C186.85 160.465 186.552 160.977 186.552 161.4Z" fill="#6A86BC"/>
</g>
<g id="Group_57">
<path id="Vector_152" d="M184.497 172.665C184.497 173.088 184.795 173.259 185.16 173.044C185.525 172.836 185.822 172.324 185.822 171.901C185.822 171.478 185.525 171.307 185.16 171.522C184.795 171.73 184.497 172.242 184.497 172.665Z" fill="#6A86BC"/>
<path id="Vector_153" d="M186.552 171.493C186.552 171.916 186.85 172.086 187.214 171.871C187.579 171.663 187.877 171.151 187.877 170.728C187.877 170.305 187.579 170.135 187.214 170.35C186.85 170.558 186.552 171.07 186.552 171.493Z" fill="#DEE4F0"/>
<path id="Vector_154" d="M184.497 175.136C184.497 175.559 184.795 175.73 185.16 175.515C185.525 175.307 185.822 174.795 185.822 174.372C185.822 173.949 185.525 173.778 185.16 173.994C184.795 174.201 184.497 174.713 184.497 175.136Z" fill="#6A86BC"/>
<path id="Vector_155" d="M186.552 173.964C186.552 174.387 186.85 174.558 187.214 174.342C187.579 174.135 187.877 173.623 187.877 173.2C187.877 172.777 187.579 172.606 187.214 172.821C186.85 173.029 186.552 173.541 186.552 173.964Z" fill="#DEE4F0"/>
</g>
<g id="Group_58">
<path id="Vector_156" d="M184.497 185.228C184.497 185.651 184.795 185.822 185.16 185.607C185.525 185.399 185.822 184.887 185.822 184.464C185.822 184.041 185.525 183.87 185.16 184.085C184.795 184.293 184.497 184.805 184.497 185.228Z" fill="#DEE4F0"/>
<path id="Vector_157" d="M186.552 184.056C186.552 184.479 186.85 184.649 187.214 184.434C187.579 184.226 187.877 183.714 187.877 183.291C187.877 182.868 187.579 182.698 187.214 182.913C186.85 183.121 186.552 183.633 186.552 184.056Z" fill="#6A86BC"/>
<path id="Vector_158" d="M184.497 187.699C184.497 188.122 184.795 188.293 185.16 188.078C185.525 187.87 185.822 187.358 185.822 186.935C185.822 186.512 185.525 186.341 185.16 186.557C184.795 186.764 184.497 187.276 184.497 187.699Z" fill="#DEE4F0"/>
<path id="Vector_159" d="M186.552 186.527C186.552 186.95 186.85 187.121 187.214 186.905C187.579 186.698 187.877 186.186 187.877 185.763C187.877 185.34 187.579 185.169 187.214 185.384C186.85 185.592 186.552 186.104 186.552 186.527Z" fill="#DEE4F0"/>
</g>
</g>
<g id="Group_59">
<path id="Vector_160" d="M183.842 120.141L185.331 119.547L184.177 118.657L183.842 120.141Z" fill="#6A86BC"/>
<path id="Vector_161" d="M183.105 104.127L184.542 103.541L184.445 104.15L183.105 104.127Z" fill="#6A86BC"/>
<path id="Vector_162" d="M188.502 116.394L190.006 115.793L187.817 113.596L188.502 116.394Z" fill="#6A86BC"/>
<g id="Group_60">
<path id="Vector_163" d="M184.936 119.503L179.19 116.201C178.899 116.03 178.721 115.607 178.795 115.258L180.172 108.758L186.969 112.669L185.592 119.169C185.525 119.525 185.227 119.674 184.936 119.503Z" fill="#6A86BC"/>
<path id="Vector_164" d="M184.527 103.548L176.763 107.452C176.435 107.615 176.54 108.231 176.942 108.461L183.276 112.104L189.611 115.748C190.013 115.978 190.333 115.607 190.132 115.14L185.532 104.127C185.338 103.66 184.862 103.385 184.527 103.548Z" fill="#6A86BC"/>
</g>
<g id="Group_61">
<path id="Vector_165" d="M183.433 120.111L177.686 116.809C177.396 116.639 177.217 116.216 177.292 115.867L178.669 109.366L185.465 113.277L184.088 119.777C184.021 120.126 183.723 120.282 183.433 120.111Z" fill="#DEE4F0"/>
<path id="Vector_166" d="M183.023 104.157L175.259 108.06C174.932 108.223 175.036 108.839 175.438 109.069L181.773 112.713L188.108 116.357C188.509 116.587 188.83 116.216 188.629 115.748L184.028 104.736C183.835 104.261 183.358 103.986 183.023 104.157Z" fill="#DEE4F0"/>
</g>
</g>
<g id="Group_62">
<path id="Vector_167" d="M143.995 97.3523L145.476 96.7586L144.322 95.8682L143.995 97.3523Z" fill="#6A86BC"/>
<path id="Vector_168" d="M143.25 81.3387L144.695 80.7524L144.59 81.3609L143.25 81.3387Z" fill="#6A86BC"/>
<path id="Vector_169" d="M148.647 93.6052L150.151 93.0041L147.962 90.8076L148.647 93.6052Z" fill="#6A86BC"/>
<g id="Group_63">
<path id="Vector_170" d="M145.089 96.7144L139.342 93.4122C139.052 93.2415 138.873 92.8186 138.948 92.4698L140.325 85.9692L147.121 89.88L145.744 96.3805C145.677 96.7367 145.379 96.8851 145.089 96.7144Z" fill="#6A86BC"/>
<path id="Vector_171" d="M144.68 80.7598L136.916 84.6631C136.588 84.8263 136.692 85.4422 137.094 85.6723L143.429 89.3159L149.764 92.9594C150.166 93.1895 150.486 92.8184 150.285 92.3509L145.685 81.3386C145.491 80.8711 145.015 80.5965 144.68 80.7598Z" fill="#6A86BC"/>
</g>
<g id="Group_64">
<path id="Vector_172" d="M143.578 97.3228L137.831 94.0206C137.541 93.8499 137.362 93.4269 137.437 93.0782L138.814 86.5776L145.61 90.4884L144.233 96.9889C144.166 97.3377 143.876 97.4935 143.578 97.3228Z" fill="#DEE4F0"/>
<path id="Vector_173" d="M143.169 81.3683L135.405 85.2716C135.077 85.4349 135.181 86.0508 135.583 86.2808L141.918 89.9244L148.253 93.568C148.655 93.798 148.975 93.427 148.774 92.9595L144.174 81.9471C143.98 81.4722 143.504 81.1977 143.169 81.3683Z" fill="#DEE4F0"/>
</g>
</g>
<g id="Group_65">
<path id="Vector_174" opacity="0.59" d="M5.79153 187.284L48.9587 162.558C52.3606 160.606 58.3008 160.866 62.2238 163.137L150.747 214.332C154.67 216.603 155.087 220.017 151.685 221.968L108.517 246.694C105.116 248.646 99.1753 248.386 95.2524 246.115L6.72946 194.92C2.80652 192.657 2.38967 189.236 5.79153 187.284Z" fill="#AEBDDB"/>
<path id="Vector_175" d="M110.229 238.524L154.431 213.204C156.367 212.099 157.342 210.622 157.387 209.064L157.424 201.48L156.002 203.921C155.325 203.127 154.402 202.37 153.225 201.695L64.2261 150.21C59.1866 147.294 51.5492 146.96 47.1647 149.468L2.96278 174.787C2.49381 175.054 2.0844 175.344 1.72709 175.655L0.0298809 173.489L0.000105258 180.62C-0.059446 182.586 1.34745 184.672 4.16125 186.297L93.168 237.774C98.215 240.698 105.852 241.032 110.229 238.524Z" fill="#06348F"/>
<path id="Vector_176" d="M3.00006 169.155L47.202 143.835C51.579 141.327 59.2164 141.661 64.2634 144.578L153.27 196.055C158.31 198.971 158.853 203.372 154.476 205.88L110.274 231.199C105.897 233.708 98.2597 233.374 93.2127 230.457L4.19853 178.973C-0.840998 176.056 -1.3844 171.663 3.00006 169.155Z" fill="#DEE4F0"/>
<path id="Vector_177" d="M154.469 205.872L110.267 231.192C105.89 233.7 98.2523 233.366 93.2053 230.45L4.19852 178.972C1.75692 177.562 0.379797 175.796 0.0969289 174.075C-0.252935 176.182 1.13163 178.497 4.19852 180.271L93.2053 231.748C98.2448 234.665 105.882 234.999 110.267 232.49L154.469 207.171C156.724 205.88 157.67 204.084 157.364 202.244C157.141 203.617 156.188 204.893 154.469 205.872Z" fill="white"/>
<path id="Vector_178" d="M5.79153 170.172L48.9587 145.446C52.3606 143.494 58.3008 143.754 62.2238 146.025L150.747 197.22C154.67 199.491 155.087 202.904 151.685 204.856L108.517 229.582C105.116 231.533 99.1753 231.274 95.2524 229.003L6.72946 177.807C2.80652 175.537 2.38967 172.123 5.79153 170.172Z" fill="white"/>
</g>
<path id="Vector_179" d="M164.562 62.9723C164.562 63.3952 164.265 63.5659 163.9 63.3507C163.535 63.1429 163.237 62.6309 163.237 62.2079C163.237 61.7849 163.535 61.6143 163.9 61.8295C164.272 62.0447 164.562 62.5567 164.562 62.9723Z" fill="#DEE4F0"/>
<path id="Vector_180" d="M173.718 67.8995C173.718 68.3225 173.421 68.4932 173.056 68.278C172.691 68.0702 172.393 67.5582 172.393 67.1352C172.393 66.7122 172.691 66.5415 173.056 66.7567C173.421 66.9719 173.718 67.4839 173.718 67.8995Z" fill="#DEE4F0"/>
<g id="Group_66">
<path id="Vector_181" d="M75.3325 179.166L59.3504 169.971C58.7549 169.63 58.8293 169.036 59.5142 168.643C60.199 168.25 61.2337 168.205 61.8292 168.547L77.8113 177.741C78.4068 178.082 78.3324 178.676 77.6475 179.069C76.9627 179.463 75.928 179.507 75.3325 179.166Z" fill="#AEBDDB"/>
<path id="Vector_182" d="M60.184 176.049L54.482 172.769C53.8865 172.427 53.9609 171.834 54.6458 171.441C55.3306 171.047 56.3653 171.003 56.9608 171.344L62.6628 174.624C63.2583 174.965 63.1839 175.559 62.4991 175.952C61.8142 176.346 60.7795 176.39 60.184 176.049Z" fill="#AEBDDB"/>
<path id="Vector_183" d="M69.757 181.555L64.055 178.275C63.4595 177.934 63.5339 177.34 64.2187 176.947C64.9036 176.554 65.9383 176.509 66.5338 176.85L72.2358 180.13C72.8313 180.472 72.7569 181.065 72.0721 181.459C71.3798 181.852 70.3451 181.896 69.757 181.555Z" fill="#083690"/>
<path id="Vector_184" d="M89.0963 192.686L73.6204 183.782C73.0249 183.44 73.0993 182.847 73.7842 182.453C74.469 182.06 75.5037 182.015 76.0992 182.357L91.5751 191.262C92.1706 191.603 92.0962 192.197 91.4114 192.59C90.7265 192.991 89.6918 193.028 89.0963 192.686Z" fill="#AEBDDB"/>
<path id="Vector_185" d="M69.5857 187.061L49.6211 175.574C49.0256 175.233 49.1001 174.639 49.7849 174.246C50.4698 173.852 51.5045 173.808 52.1 174.149L72.0645 185.636C72.66 185.978 72.5856 186.571 71.9008 186.965C71.2159 187.358 70.1812 187.403 69.5857 187.061Z" fill="#AEBDDB"/>
<path id="Vector_186" d="M93.5998 206.489L44.7603 178.379C44.1648 178.038 44.2392 177.444 44.9241 177.051C45.6089 176.658 46.6436 176.613 47.2391 176.954L96.0786 205.064C96.6741 205.405 96.5997 205.999 95.9148 206.392C95.2225 206.786 94.1878 206.83 93.5998 206.489Z" fill="#083690"/>
<path id="Vector_187" d="M107.847 197.881L79.7466 181.703C79.1511 181.362 79.2256 180.768 79.9104 180.375C80.5952 179.982 81.6299 179.937 82.2255 180.279L110.326 196.456C110.922 196.797 110.847 197.391 110.162 197.784C109.478 198.177 108.443 198.222 107.847 197.881Z" fill="#AEBDDB"/>
</g>
<path id="Vector_188" d="M59.4024 224.291L55.2933 221.931C54.8839 221.693 54.5564 221.063 54.5564 220.521C54.5564 219.979 54.8914 219.727 55.2933 219.964L59.4024 222.324C59.8118 222.562 60.1393 223.192 60.1393 223.734C60.1393 224.276 59.8118 224.528 59.4024 224.291Z" fill="#DEE4F0"/>
<path id="Vector_189" d="M65.8711 228.024L61.7621 225.664C61.3527 225.426 61.0251 224.796 61.0251 224.254C61.0251 223.712 61.3601 223.46 61.7621 223.697L65.8711 226.057C66.2805 226.295 66.6081 226.925 66.6081 227.467C66.6081 228.009 66.2805 228.261 65.8711 228.024Z" fill="#DEE4F0"/>
<path id="Vector_190" d="M147.613 214.139C147.613 214.993 147.01 216.032 146.265 216.462C145.521 216.893 144.918 216.544 144.918 215.69C144.918 214.837 145.521 213.798 146.265 213.368C147.01 212.937 147.613 213.286 147.613 214.139Z" fill="#AEBDDB"/>
<g id="Group_67">
<path id="Vector_191" d="M112.865 102.643L114.346 101.79C114.435 101.738 114.428 101.649 114.324 101.59L112.894 100.766C112.79 100.707 112.634 100.699 112.537 100.751L111.056 101.604C110.966 101.656 110.974 101.745 111.078 101.805L112.507 102.628C112.612 102.688 112.768 102.695 112.865 102.643Z" fill="#4471C9"/>
<path id="Vector_192" d="M109.448 104.602L110.929 103.749C111.019 103.697 111.011 103.608 110.907 103.549L109.478 102.725C109.373 102.666 109.217 102.658 109.12 102.71L107.639 103.563C107.55 103.615 107.557 103.704 107.661 103.764L109.091 104.587C109.202 104.647 109.359 104.654 109.448 104.602Z" fill="#4471C9"/>
<path id="Vector_193" d="M106.038 106.569L107.52 105.716C107.609 105.664 107.602 105.575 107.497 105.515L106.068 104.692C105.964 104.632 105.808 104.625 105.711 104.677L104.23 105.53C104.14 105.582 104.148 105.671 104.252 105.731L105.681 106.554C105.793 106.614 105.949 106.621 106.038 106.569Z" fill="#4471C9"/>
</g>
<g id="Group_68">
<path id="Vector_194" d="M93.3243 90.9705L94.8057 90.1171C94.895 90.0652 94.8875 89.9761 94.7833 89.9167L93.3541 89.093C93.2499 89.0337 93.0936 89.0263 92.9968 89.0782L91.5155 89.9316C91.4261 89.9835 91.4336 90.0726 91.5378 90.1319L92.967 90.9556C93.0712 91.015 93.2276 91.0224 93.3243 90.9705Z" fill="#4471C9"/>
<path id="Vector_195" d="M89.9076 92.9295L91.3889 92.0761C91.4782 92.0241 91.4708 91.9351 91.3666 91.8757L89.9374 91.052C89.8331 90.9927 89.6768 90.9852 89.58 91.0372L88.0987 91.8906C88.0094 91.9425 88.0168 92.0316 88.121 92.0909L89.5503 92.9146C89.6619 92.974 89.8182 92.9814 89.9076 92.9295Z" fill="#4471C9"/>
<path id="Vector_196" d="M86.4982 94.8963L87.9795 94.0429C88.0688 93.9909 88.0614 93.9019 87.9572 93.8425L86.5279 93.0188C86.4237 92.9594 86.2674 92.952 86.1706 93.004L84.6893 93.8574C84.6 93.9093 84.6074 93.9983 84.7116 94.0577L86.1408 94.8814C86.2525 94.9408 86.4088 94.9482 86.4982 94.8963Z" fill="#4471C9"/>
</g>
</g>
<defs>
<linearGradient id="paint0_linear_328_28265" x1="135.863" y1="13.3594" x2="149.702" y2="13.3594" gradientUnits="userSpaceOnUse">
<stop stop-color="#4265AA"/>
<stop offset="1" stop-color="#03328E"/>
</linearGradient>
<linearGradient id="paint1_linear_328_28265" x1="146.145" y1="34.0107" x2="209.998" y2="34.0107" gradientUnits="userSpaceOnUse">
<stop stop-color="#4265AA"/>
<stop offset="1" stop-color="#03328E"/>
</linearGradient>
<linearGradient id="paint2_linear_328_28265" x1="146.548" y1="6.25201" x2="165.278" y2="6.25201" gradientUnits="userSpaceOnUse">
<stop stop-color="#4265AA"/>
<stop offset="1" stop-color="#03328E"/>
</linearGradient>
<linearGradient id="paint3_linear_328_28265" x1="166.877" y1="35.4262" x2="194.804" y2="35.4262" gradientUnits="userSpaceOnUse">
<stop stop-color="#4265AA"/>
<stop offset="1" stop-color="#03328E"/>
</linearGradient>
<linearGradient id="paint4_linear_328_28265" x1="137.92" y1="44.673" x2="194.178" y2="35.7347" gradientUnits="userSpaceOnUse">
<stop stop-color="#255BC4"/>
<stop offset="0.2547" stop-color="#2055BC"/>
<stop offset="0.6408" stop-color="#1345A7"/>
<stop offset="1" stop-color="#03328E"/>
</linearGradient>
<clipPath id="clip0_328_28265">
<rect width="210" height="248" fill="white"/>
</clipPath>
</defs>
</svg>
