<svg width="37" height="134" viewBox="0 0 37 134" fill="none" xmlns="http://www.w3.org/2000/svg">
<g id="Group 172">
<g id="Group 168">
<circle id="Ellipse 8" cx="18.1458" cy="115.854" r="18.1458" fill="#F52020"/>
<path id="Vector" d="M19.1927 113.004H17.5642V111.375H19.1927V113.004ZM19.1927 116.668H17.5642V115.039H19.1927V116.668ZM19.1927 120.332H17.5642V118.704H19.1927V120.332ZM26.5208 114.225V110.968C26.5208 110.536 26.3492 110.122 26.0438 109.817C25.7384 109.511 25.3242 109.34 24.8923 109.34H11.8646C11.4327 109.34 11.0185 109.511 10.7131 109.817C10.4077 110.122 10.2361 110.536 10.2361 110.968V114.225C10.668 114.225 11.0822 114.397 11.3876 114.702C11.693 115.008 11.8646 115.422 11.8646 115.854C11.8646 116.286 11.693 116.7 11.3876 117.005C11.0822 117.311 10.668 117.482 10.2361 117.482V120.739C10.2361 121.171 10.4077 121.585 10.7131 121.891C11.0185 122.196 11.4327 122.368 11.8646 122.368H24.8923C25.3242 122.368 25.7384 122.196 26.0438 121.891C26.3492 121.585 26.5208 121.171 26.5208 120.739V117.482C26.0889 117.482 25.6747 117.311 25.3693 117.005C25.0639 116.7 24.8923 116.286 24.8923 115.854C24.8923 115.422 25.0639 115.008 25.3693 114.702C25.6747 114.397 26.0889 114.225 26.5208 114.225Z" fill="white"/>
</g>
<g id="Group 167">
<circle id="Ellipse 7" cx="18.1458" cy="67.0003" r="18.1458" fill="#F52020"/>
<path id="Vector_2" d="M18.1459 76.3054C16.8741 76.3054 15.6722 76.061 14.54 75.5722C13.4078 75.0839 12.4192 74.417 11.5743 73.5715C10.7287 72.7265 10.0618 71.738 9.57361 70.6058C9.08476 69.4736 8.84033 68.2717 8.84033 66.9999C8.84033 65.7126 9.08476 64.5069 9.57361 63.3828C10.0618 62.2581 10.7287 61.2733 11.5743 60.4283C12.4192 59.5827 13.4078 58.9155 14.54 58.4267C15.6722 57.9385 16.8741 57.6943 18.1459 57.6943C19.4332 57.6943 20.6388 57.9385 21.763 58.4267C22.8877 58.9155 23.8725 59.5827 24.7175 60.4283C25.563 61.2733 26.2299 62.2581 26.7182 63.3828C27.207 64.5069 27.4514 65.7126 27.4514 66.9999V68.3492C27.4514 69.2642 27.1375 70.0434 26.5097 70.6868C25.8813 71.3307 25.1095 71.6527 24.1945 71.6527C23.6362 71.6527 23.1166 71.5286 22.6358 71.2804C22.155 71.0323 21.7595 70.7066 21.4494 70.3034C21.0306 70.7221 20.5383 71.0518 19.9726 71.2925C19.4062 71.5326 18.7973 71.6527 18.1459 71.6527C16.8586 71.6527 15.7615 71.1989 14.8545 70.2913C13.9469 69.3843 13.4931 68.2872 13.4931 66.9999C13.4931 65.7126 13.9469 64.6152 14.8545 63.7076C15.7615 62.8006 16.8586 62.3471 18.1459 62.3471C19.4332 62.3471 20.5306 62.8006 21.4382 63.7076C22.3452 64.6152 22.7987 65.7126 22.7987 66.9999V68.3492C22.7987 68.799 22.9382 69.1516 23.2174 69.4072C23.4966 69.6635 23.8223 69.7916 24.1945 69.7916C24.5667 69.7916 24.8924 69.6635 25.1716 69.4072C25.4507 69.1516 25.5903 68.799 25.5903 68.3492V66.9999C25.5903 64.9682 24.8574 63.2194 23.3914 61.7534C21.9261 60.2881 20.1776 59.5554 18.1459 59.5554C16.1142 59.5554 14.3654 60.2881 12.8994 61.7534C11.4341 63.2194 10.7014 64.9682 10.7014 66.9999C10.7014 69.0316 11.4341 70.7801 12.8994 72.2454C14.3654 73.7114 16.1142 74.4443 18.1459 74.4443H22.7987V76.3054H18.1459ZM18.1459 69.7916C18.9214 69.7916 19.5805 69.5201 20.1233 68.9773C20.6661 68.4345 20.9376 67.7754 20.9376 66.9999C20.9376 66.2244 20.6661 65.5653 20.1233 65.0225C19.5805 64.4796 18.9214 64.2082 18.1459 64.2082C17.3704 64.2082 16.7113 64.4796 16.1685 65.0225C15.6256 65.5653 15.3542 66.2244 15.3542 66.9999C15.3542 67.7754 15.6256 68.4345 16.1685 68.9773C16.7113 69.5201 17.3704 69.7916 18.1459 69.7916Z" fill="white"/>
</g>
<g id="Group 166">
<circle id="Ellipse 6" cx="18.1458" cy="18.1458" r="18.1458" fill="#F52020"/>
<path id="Vector_3" d="M21.1488 20.1301L19.0645 22.1978C16.9968 21.0151 15.2847 19.303 14.1019 17.2352L16.1697 15.151C16.3599 14.9525 16.4426 14.6795 16.393 14.4066L15.7727 11.3629C15.6982 10.9824 15.3591 10.7012 14.9621 10.7012H11.5296C11.0665 10.7012 10.6777 11.0899 10.7025 11.5531C10.8431 13.9434 11.571 16.1848 12.7124 18.1451C14.0192 20.403 15.8967 22.2723 18.1464 23.5791C20.1066 24.7122 22.3481 25.4483 24.7384 25.5889C25.2016 25.6137 25.5903 25.225 25.5903 24.7618V21.3294C25.5903 20.9324 25.3091 20.5933 24.9286 20.5188L21.8932 19.915C21.761 19.8863 21.6237 19.8909 21.4938 19.9284C21.3638 19.9659 21.2453 20.0353 21.1488 20.1301Z" fill="white"/>
</g>
</g>
</svg>
