<svg width="44" height="47" viewBox="0 0 44 47" fill="none" xmlns="http://www.w3.org/2000/svg">
<g id="Frame" clip-path="url(#clip0_328_22645)">
<g id="_x39_61_x2C__Access_x2C__Database_x2C__Fast_x2C__Web_Hosting_1_">
<g id="Group">
<path id="Vector" d="M21.7647 18.0341C20.5808 18.0341 19.5459 18.9866 19.5459 20.2618C19.5459 21.537 20.4946 22.4895 21.7647 22.4895C22.9486 22.4895 23.9835 21.537 23.9835 20.2618C23.9757 18.9866 22.9486 18.0341 21.7647 18.0341ZM21.7647 21.4504C21.1296 21.4504 20.5808 20.8916 20.5808 20.2618C20.5808 19.6321 21.1375 19.0732 21.7647 19.0732C22.3919 19.0732 22.9486 19.6321 22.9486 20.2618C22.9486 20.8916 22.3919 21.4504 21.7647 21.4504Z" fill="#377DFF"/>
<path id="Vector_2" d="M18.6756 26.2994C18.4404 26.6143 18.6756 27.0945 19.0676 27.0945C19.2245 27.0945 19.3813 27.0158 19.4597 26.9371C20.5652 25.5044 22.9408 25.5044 24.0463 26.9371C24.2031 27.1732 24.5245 27.1732 24.7597 27.0158C24.9949 26.8583 24.9949 26.5356 24.8381 26.2994C23.3485 24.3945 20.181 24.3945 18.6756 26.2994Z" fill="#377DFF"/>
<path id="Vector_3" d="M18.0407 24.6306C17.8839 24.8668 17.8839 25.1895 18.1191 25.347C18.3543 25.5044 18.6757 25.5044 18.8326 25.2683C20.2595 23.442 23.3408 23.442 24.6893 25.2683C24.7677 25.4257 24.9245 25.4257 25.0813 25.4257C25.4733 25.4257 25.7164 24.9455 25.4733 24.6306C24.603 23.5207 23.2545 22.8831 21.757 22.8831C20.2595 22.8831 18.8326 23.5207 18.0407 24.6306Z" fill="#377DFF"/>
<path id="Vector_4" d="M12.3486 9.85541C12.9131 9.85541 13.3757 10.3198 13.3757 10.8866C13.3757 11.4534 12.9131 11.9178 12.3486 11.9178C11.7841 11.9178 11.3215 11.4534 11.3215 10.8866C11.3215 10.3198 11.7763 9.85541 12.3486 9.85541Z" fill="#377DFF"/>
<path id="Vector_5" d="M9.41625 9.85541C9.98075 9.85541 10.4433 10.3198 10.4433 10.8866C10.4433 11.4534 9.98075 11.9178 9.41625 11.9178C8.85174 11.9178 8.38916 11.4534 8.38916 10.8866C8.38916 10.3198 8.85174 9.85541 9.41625 9.85541Z" fill="#377DFF"/>
<path id="Vector_6" d="M6.41332 9.85541C6.97782 9.85541 7.4404 10.3198 7.4404 10.8866C7.4404 11.4534 6.97782 11.9178 6.41332 11.9178C5.84881 11.9178 5.38623 11.4534 5.38623 10.8866C5.38623 10.3198 5.84097 9.85541 6.41332 9.85541Z" fill="#377DFF"/>
<path id="Vector_7" d="M7.91082 5.88019C9.01631 5.88019 9.88659 5.00643 9.88659 3.89652C9.88659 2.7866 9.01631 1.91284 7.91082 1.91284C6.80534 1.91284 5.93506 2.77873 5.93506 3.89652C5.93506 5.0143 6.80534 5.88019 7.91082 5.88019ZM7.91082 2.93617C8.46749 2.93617 8.93791 3.41634 8.93791 3.96736C8.93791 4.52626 8.45965 4.99856 7.91082 4.99856C7.35416 4.99856 6.88374 4.51838 6.88374 3.96736C6.88374 3.33762 7.362 2.93617 7.91082 2.93617Z" fill="#377DFF"/>
<path id="Vector_8" d="M35.3755 5.40001C36.8809 5.40001 38.0648 4.21138 38.0648 2.7C38.0648 1.18863 36.8809 0 35.3755 0C33.8702 0 32.6863 1.18863 32.6863 2.7C32.6 4.21138 33.8702 5.40001 35.3755 5.40001ZM35.3755 0.952479C36.3242 0.952479 37.1161 1.74752 37.1161 2.7C37.1161 3.65248 36.3242 4.44753 35.3755 4.44753C34.4268 4.44753 33.635 3.65248 33.635 2.7C33.635 1.74752 34.4268 0.952479 35.3755 0.952479Z" fill="#377DFF"/>
<path id="Vector_9" d="M0.713471 6.91138C1.10549 6.91138 1.42694 7.23412 1.42694 7.6277C1.42694 8.02129 1.10549 8.34403 0.713471 8.34403C0.321454 8.34403 0 8.02129 0 7.6277C0 7.23412 0.321454 6.91138 0.713471 6.91138Z" fill="#377DFF"/>
<path id="Vector_10" d="M14.5594 1.9837C14.9514 1.9837 15.2729 2.30644 15.2729 2.70003C15.2729 3.09362 14.9514 3.41636 14.5594 3.41636C14.1674 3.41636 13.8459 3.09362 13.8459 2.70003C13.8459 2.30644 14.1674 1.9837 14.5594 1.9837Z" fill="#377DFF"/>
<path id="Vector_11" d="M28.4134 2.93616C28.8054 2.93616 29.1269 3.2589 29.1269 3.65248C29.1269 4.04607 28.8054 4.36881 28.4134 4.36881C28.0214 4.36881 27.7 4.04607 27.7 3.65248C27.7 3.2589 28.0136 2.93616 28.4134 2.93616Z" fill="#377DFF"/>
<path id="Vector_12" d="M19.546 4.92767C19.938 4.92767 20.2595 5.25041 20.2595 5.644C20.2595 6.03759 19.938 6.36033 19.546 6.36033C19.154 6.36033 18.8325 6.03759 18.8325 5.644C18.8325 5.24254 19.154 4.92767 19.546 4.92767Z" fill="#377DFF"/>
<path id="Vector_13" d="M43.2865 6.91138C43.6785 6.91138 43.9999 7.23412 43.9999 7.6277C43.9999 8.02129 43.6785 8.34403 43.2865 8.34403C42.8945 8.34403 42.573 8.02129 42.573 7.6277C42.573 7.23412 42.8945 6.91138 43.2865 6.91138Z" fill="#377DFF"/>
<path id="Vector_14" d="M34.1056 35.7534C34.4976 35.7534 34.819 36.0762 34.819 36.4697C34.819 36.8633 34.4976 37.1861 34.1056 37.1861C33.7135 37.1861 33.3921 36.8633 33.3921 36.4697C33.3921 36.0762 33.7135 35.7534 34.1056 35.7534Z" fill="#377DFF"/>
<path id="Vector_15" d="M29.4405 38.2172C29.8325 38.2172 30.154 38.54 30.154 38.9336C30.154 39.3271 29.8325 39.6499 29.4405 39.6499C29.0485 39.6499 28.7271 39.3271 28.7271 38.9336C28.7271 38.54 29.0485 38.2172 29.4405 38.2172Z" fill="#377DFF"/>
<path id="Vector_16" d="M13.1327 38.6974C13.5247 38.6974 13.8461 39.0202 13.8461 39.4138C13.8461 39.8074 13.5247 40.1301 13.1327 40.1301C12.7406 40.1301 12.4192 39.8074 12.4192 39.4138C12.427 39.0123 12.7406 38.6974 13.1327 38.6974Z" fill="#377DFF"/>
<path id="Vector_17" d="M38.3785 7.39154H5.14333C3.40277 7.39154 1.97583 8.8242 1.97583 10.5717V43.4677C1.97583 45.2152 3.40277 46.6479 5.14333 46.6479H38.3785C40.1191 46.6479 41.546 45.2152 41.546 43.4677V10.5638C41.546 8.81632 40.1191 7.39154 38.3785 7.39154ZM6.88388 35.0371C7.83257 35.5959 8.70284 36.4697 9.1811 37.5009C9.33791 37.8158 9.73777 37.8945 9.97298 37.6583C11.3215 36.3831 13.4541 36.3831 14.8026 37.8158C14.9594 37.9732 15.2809 38.0519 15.4377 37.8945C16.8646 36.7846 18.9188 37.2569 19.7891 38.7683C19.9459 39.0831 20.4242 39.0831 20.6594 38.847C21.608 37.493 23.5054 37.4143 24.5403 38.6108C24.7755 38.9257 25.2538 38.7683 25.4106 38.4534C26.2025 36.2257 28.7349 35.1945 30.7891 36.147C31.0243 36.3044 31.3458 36.147 31.4242 35.9108C32.216 33.8484 34.2702 32.6519 36.489 32.8094V41.7044H6.88388V35.0371ZM36.5596 19.3093H32.1298C31.8946 19.3093 31.6515 19.5455 31.6515 19.7895C31.6515 20.0335 31.8867 20.2697 32.1298 20.2697H36.5596V21.3009H32.1298C31.8946 21.3009 31.6515 21.537 31.6515 21.7811C31.6515 22.0172 31.8867 22.2612 32.1298 22.2612H36.5596V23.2924H32.1298C31.8946 23.2924 31.6515 23.5286 31.6515 23.7726C31.6515 24.0088 31.8867 24.2528 32.1298 24.2528H36.5596V25.284H32.1298C31.8946 25.284 31.6515 25.5201 31.6515 25.7642C31.6515 26.0003 31.8867 26.2443 32.1298 26.2443H36.5596V27.2755H32.1298C31.8946 27.2755 31.6515 27.5117 31.6515 27.7557C31.6515 27.9919 31.8867 28.2359 32.1298 28.2359H36.5596V31.7309C34.184 31.4948 31.8867 32.7621 30.7812 34.9898C29.7542 34.675 28.6408 34.5962 27.6922 34.9111V33.691C27.6922 33.4548 27.4569 33.2108 27.2139 33.2108C26.9787 33.2108 26.7356 33.447 26.7356 33.691V35.3598C25.9438 35.84 25.2303 36.4697 24.8383 37.3435C23.4897 36.3123 21.5924 36.4697 20.4085 37.6583C20.0949 37.2648 19.7734 36.942 19.303 36.7059V33.691C19.303 33.4548 19.0678 33.2108 18.8247 33.2108C18.5895 33.2108 18.3465 33.447 18.3465 33.691V36.3123C17.3194 36.0761 16.206 36.2336 15.3358 36.7925C13.752 35.4385 11.541 35.3598 9.87889 36.4776C9.1811 35.3598 8.15402 34.3994 6.96229 33.8484V28.2044H11.3921C11.6273 28.2044 11.8703 27.9682 11.8703 27.7242C11.8703 27.4881 11.6351 27.244 11.3921 27.244H6.96229V26.2128H11.3921C11.6273 26.2128 11.8703 25.9767 11.8703 25.7327C11.8703 25.4965 11.6351 25.2525 11.3921 25.2525H6.96229V24.2213H11.3921C11.6273 24.2213 11.8703 23.9851 11.8703 23.7411C11.8703 23.505 11.6351 23.2609 11.3921 23.2609H6.96229V22.2298H11.3921C11.6273 22.2298 11.8703 21.9936 11.8703 21.7496C11.8703 21.5134 11.6351 21.2694 11.3921 21.2694H6.96229V20.2382H11.3921C11.6273 20.2382 11.8703 20.0021 11.8703 19.758C11.8703 19.514 11.6351 19.2779 11.3921 19.2779H6.96229V18.2467H17.092C15.6651 20.9467 15.2731 24.0481 15.9081 26.9843C15.2731 27.9368 14.881 28.968 14.881 30.1645C14.881 30.8808 15.0378 31.5971 15.3593 32.3134C15.5161 32.707 16.0728 32.707 16.2296 32.3134C16.4648 31.7545 16.8646 31.2035 17.3351 30.7233C17.4919 30.9595 17.6487 31.2822 17.8133 31.5184C17.9701 31.7545 18.2916 31.8333 18.5268 31.5971C18.6836 31.5184 18.762 31.361 18.9188 31.2822C19.0756 32.951 20.0243 34.4624 21.4512 35.4149C21.608 35.4936 21.8433 35.4936 22.0079 35.4149C23.4348 34.4624 24.3835 32.951 24.5403 31.2822C24.6971 31.361 24.7755 31.4397 24.9324 31.5971C25.0108 31.6758 25.1676 31.7545 25.3244 31.6758C25.4812 31.6758 25.5596 31.5971 25.638 31.4397C25.7948 31.2035 25.9516 30.9595 26.1162 30.6446C26.5945 31.1248 26.9865 31.5971 27.2217 32.2347C27.3785 32.6283 27.9352 32.6283 28.092 32.2347C28.8055 30.5659 28.6487 28.5822 27.5353 26.9921C28.1704 24.056 27.7706 20.9545 26.3515 18.2545H36.4812V19.2857H36.5596V19.3093ZM16.8568 29.8732C16.5432 30.1881 16.2217 30.5108 15.9081 30.9044C15.7513 30.1094 15.9081 29.2356 16.2217 28.4405C16.4569 28.9207 16.6216 29.4009 16.8568 29.8732ZM23.5838 30.8257C23.5838 32.2583 22.8703 33.6044 21.7649 34.4782C20.6594 33.6044 19.9459 32.2505 19.9459 30.8257C21.0514 30.4321 22.3921 30.3534 23.5838 30.8257ZM27.2217 28.4405C27.5353 29.2356 27.7 30.0306 27.5353 30.9044C27.3001 30.5108 26.9787 30.1881 26.5867 29.8732C26.8297 29.4009 27.0649 28.9207 27.2217 28.4405ZM25.1676 30.5108C23.1918 29.1569 20.5026 29.0782 18.4405 30.5108C15.1946 25.1895 16.5432 18.1128 21.8433 14.3816C27.0649 18.1128 28.4135 25.2682 25.1676 30.5108ZM18.7542 13.3504V11.3668H40.519V13.3504H18.7542ZM40.519 10.4064H18.7542V8.42274H38.3785C39.4919 8.42274 40.4405 9.2965 40.519 10.4064ZM5.14333 8.42274H17.8055V13.4292H2.92451V10.5717C2.92451 9.37522 3.95944 8.42274 5.14333 8.42274ZM38.3785 45.6088H5.14333C3.95944 45.6088 2.92451 44.6563 2.92451 43.3811V14.3816H20.2517C19.2246 15.2554 18.3543 16.2866 17.6408 17.4044H6.41346C6.17825 17.4044 5.9352 17.6405 5.9352 17.8846C5.9352 21.7811 5.9352 39.4925 5.9352 42.2003C5.9352 42.4365 6.17041 42.6805 6.41346 42.6805H37.1162C37.3515 42.6805 37.5945 42.4444 37.5945 42.2003C37.5945 41.3266 37.5945 18.5222 37.5945 17.8846C37.5945 17.6484 37.3593 17.4044 37.1162 17.4044H25.8732C25.1597 16.2945 24.2894 15.2554 23.2624 14.3816H40.5895V43.4598C40.519 44.6563 39.5703 45.6088 38.3785 45.6088Z" fill="#377DFF"/>
<path id="Vector_18" d="M25.2458 32.7307C25.0106 32.7307 24.7676 32.9668 24.7676 33.2108V34.7222C24.7676 34.9584 25.0028 35.2024 25.2458 35.2024C25.481 35.2024 25.7241 34.9662 25.7241 34.7222V33.2108C25.7163 32.9747 25.481 32.7307 25.2458 32.7307Z" fill="#377DFF"/>
<path id="Vector_19" d="M16.7783 32.7307C16.5431 32.7307 16.3 32.9668 16.3 33.2108V34.242C16.3 34.4782 16.5353 34.7222 16.7783 34.7222C17.0135 34.7222 17.2566 34.486 17.2566 34.242V33.2108C17.3271 32.9747 17.0919 32.7307 16.7783 32.7307Z" fill="#377DFF"/>
</g>
</g>
</g>
<defs>
<clipPath id="clip0_328_22645">
<rect width="44" height="46.64" fill="white"/>
</clipPath>
</defs>
</svg>
