<svg width="47" height="40" viewBox="0 0 47 40" fill="none" xmlns="http://www.w3.org/2000/svg">
<path id="&#226;&#128;&#156;" d="M0 19.6516C0 11.5679 2.77033 5.85366 8.31098 2.50871C10.8902 0.929153 13.7083 0.0929196 16.7652 0V13.101C13.9949 13.101 12.0366 14.1696 10.8902 16.3066C10.5081 17.2358 10.2215 18.3508 10.0305 19.6516H20.2043V39.1638L0 40V19.6516ZM26.7957 19.6516C26.7957 11.6609 29.6138 5.94657 35.25 2.50871C37.6382 1.02207 40.4563 0.185834 43.7043 0V13.101C40.7429 13.101 38.7845 14.1696 37.8293 16.3066C37.2561 17.2358 36.9695 18.3508 36.9695 19.6516H47V39.1638L26.7957 40V19.6516Z" fill="#D2D2D2"/>
</svg>
