<svg width="120" height="34" viewBox="0 0 120 34" fill="none" xmlns="http://www.w3.org/2000/svg">
<path id="Vector" d="M25.68 12.014H13.488V15.5754H22.128C21.696 20.6089 17.472 22.7458 13.488 22.7458C8.4 22.7458 3.936 18.757 3.936 13.2011C3.936 7.78771 8.16 3.60894 13.488 3.60894C17.568 3.60894 20.016 6.17318 20.016 6.17318L22.56 3.56145C22.56 3.56145 19.296 0 13.392 0C5.856 0.047486 0 6.36313 0 13.1536C0 19.8492 5.472 26.3547 13.584 26.3547C20.688 26.3547 25.92 21.5112 25.92 14.3883C25.92 12.8687 25.68 12.014 25.68 12.014ZM35.664 9.44972C30.672 9.44972 27.072 13.2961 27.072 17.8547C27.072 22.4134 30.528 26.3547 35.712 26.3547C40.368 26.3547 44.208 22.7933 44.208 17.9497C44.256 12.2989 39.792 9.44972 35.664 9.44972ZM35.712 12.7737C38.16 12.7737 40.512 14.7207 40.512 17.9022C40.512 20.9888 38.208 23.0307 35.712 23.0307C32.976 23.0307 30.816 20.8939 30.816 17.9022C30.816 14.9581 32.976 12.7737 35.712 12.7737ZM54.336 9.44972C49.344 9.44972 45.744 13.2961 45.744 17.8547C45.744 22.4134 49.2 26.3547 54.384 26.3547C59.04 26.3547 62.88 22.7933 62.88 17.9497C62.928 12.2989 58.464 9.44972 54.336 9.44972ZM54.384 12.7737C56.832 12.7737 59.184 14.7207 59.184 17.9022C59.184 20.9888 56.88 23.0307 54.384 23.0307C51.648 23.0307 49.488 20.8939 49.488 17.9022C49.536 14.9581 51.648 12.7737 54.384 12.7737ZM72.672 9.44972C68.064 9.44972 64.464 13.4385 64.464 17.9022C64.464 22.9832 68.64 26.3547 72.576 26.3547C75.024 26.3547 76.32 25.405 77.28 24.3128V25.9749C77.28 28.8715 75.504 30.6285 72.768 30.6285C70.176 30.6285 68.832 28.729 68.4 27.6369L65.136 29.014C66.288 31.4357 68.64 34 72.816 34C77.376 34 80.88 31.1508 80.88 25.1676V9.97207H77.28V11.3966C76.176 10.2095 74.688 9.44972 72.672 9.44972ZM73.008 12.7737C75.264 12.7737 77.568 14.6732 77.568 17.9022C77.568 21.2263 75.264 23.0307 72.96 23.0307C70.512 23.0307 68.256 21.0838 68.256 17.9497C68.208 14.6732 70.608 12.7737 73.008 12.7737ZM96.768 9.40223C92.448 9.40223 88.8 12.8212 88.8 17.8547C88.8 23.1732 92.832 26.3547 97.2 26.3547C100.8 26.3547 103.056 24.4078 104.352 22.6508L101.376 20.7039C100.608 21.8911 99.312 23.0307 97.2 23.0307C94.8 23.0307 93.696 21.7486 93.024 20.4665L104.496 15.7654L103.92 14.3883C102.768 11.6816 100.176 9.40223 96.768 9.40223ZM96.912 12.6788C98.496 12.6788 99.6 13.486 100.08 14.4832L92.448 17.6648C92.112 15.1955 94.464 12.6788 96.912 12.6788ZM83.376 25.8324H87.12V0.949721H83.376V25.8324ZM120 13.2961H115.392V8.73743H111.648V13.2961H107.04V17H111.648V21.5587H115.392V17H120V13.2961Z" fill="#FF0A0A"/>
</svg>
