<svg width="76" height="14" viewBox="0 0 76 14" fill="none" xmlns="http://www.w3.org/2000/svg">
<g id="Group 12">
<path id="Star 6" d="M6.6087 0L8.09244 4.5665L12.8939 4.5665L9.00945 7.38875L10.4932 11.9552L6.6087 9.13299L2.7242 11.9552L4.20795 7.38875L0.323452 4.5665L5.12495 4.5665L6.6087 0Z" fill="#F2E205"/>
<path id="Star 7" d="M22.3043 0L23.788 4.5665L28.5895 4.5665L24.705 7.38875L26.1887 11.9552L22.3043 9.13299L18.4198 11.9552L19.9035 7.38875L16.019 4.5665L20.8205 4.5665L22.3043 0Z" fill="#F2E205"/>
<path id="Star 8" d="M38.0001 0L39.4838 4.5665L44.2853 4.5665L40.4008 7.38875L41.8845 11.9552L38.0001 9.13299L34.1156 11.9552L35.5993 7.38875L31.7148 4.5665L36.5163 4.5665L38.0001 0Z" fill="#F2E205"/>
<path id="Star 9" d="M53.6956 0L55.1794 4.5665L59.9809 4.5665L56.0964 7.38875L57.5801 11.9552L53.6956 9.13299L49.8111 11.9552L51.2949 7.38875L47.4104 4.5665L52.2119 4.5665L53.6956 0Z" fill="#F2E205"/>
<path id="Star 10" d="M69.3914 0L70.8752 4.5665L75.6767 4.5665L71.7922 7.38875L73.2759 11.9552L69.3914 9.13299L65.5069 11.9552L66.9907 7.38875L63.1062 4.5665L67.9077 4.5665L69.3914 0Z" fill="#F2E205"/>
</g>
</svg>
