<svg width="44" height="47" viewBox="0 0 44 47" fill="none" xmlns="http://www.w3.org/2000/svg">
<g id="Frame" opacity="0.3" clip-path="url(#clip0_328_22679)">
<g id="_x39_52_x2C__Cloud_x2C__Hosting_x2C__Internet_x2C__Online_1_">
<g id="Group">
<path id="Vector" d="M27.6998 26.0186C27.6998 25.9392 27.6998 25.9392 27.6998 26.0186C26.1161 24.4162 24.0619 23.4564 21.6863 23.4564C17.0997 23.4564 13.2971 27.2164 13.2971 31.9441C13.2971 34.2683 14.2458 36.3467 15.7511 37.949C18.997 41.2331 24.2971 41.3124 27.6214 37.949C27.6998 37.8697 27.6214 37.949 27.6998 37.8697C29.2052 36.3467 30.1539 34.189 30.1539 31.8648C30.1539 29.6278 29.2052 27.5416 27.6998 26.0186ZM28.0918 32.5073H29.1189C29.0405 34.189 28.3271 35.7121 27.3 36.9099L26.5081 36.1087C26.3513 35.95 26.0298 35.95 25.7946 36.1087C25.6378 36.2673 25.6378 36.5926 25.7946 36.8305L26.5865 37.6317C25.4026 38.6709 23.8973 39.3927 22.2351 39.4721V38.3536C22.2351 38.1156 21.9999 37.8697 21.7569 37.8697C21.5216 37.8697 21.2786 38.1077 21.2786 38.3536V39.4721C19.6164 39.3927 18.1111 38.6709 16.9272 37.6317L17.7191 36.8305C17.8759 36.6719 17.8759 36.3467 17.7191 36.1087C17.5623 35.95 17.2408 35.95 17.0056 36.1087L16.2137 36.9099C15.1866 35.7121 14.4732 34.189 14.3948 32.5073H15.5003C15.7355 32.5073 15.9785 32.2694 15.9785 32.0234C15.9785 31.7775 15.7433 31.5396 15.5003 31.5396H14.3948C14.4732 29.8579 15.1866 28.3348 16.2137 27.137L17.0056 27.9382C17.1624 28.0969 17.4839 28.0969 17.7191 27.9382C17.8759 27.7796 17.8759 27.4543 17.7191 27.2164L16.9272 26.4152C18.1111 25.376 19.6164 24.6542 21.2786 24.5748V25.6933C21.2786 25.9313 21.5138 26.1772 21.7569 26.1772C21.9921 26.1772 22.2351 25.9392 22.2351 25.6933V24.5748C23.8973 24.6542 25.4026 25.376 26.5865 26.4152L25.7946 27.2164C25.481 27.5337 25.7162 28.0969 26.1082 28.0969C26.265 28.0969 26.3435 28.0175 26.4219 27.9382L27.2137 27.137C28.2408 28.3348 28.9543 29.8579 29.0327 31.5396H27.9272C27.692 31.5396 27.4489 31.7775 27.4489 32.0234C27.6214 32.2694 27.7782 32.5073 28.0918 32.5073Z" fill="#03328E"/>
<path id="Vector_2" d="M22.2353 30.5877V27.4623C22.2353 27.2243 22.0001 26.9784 21.757 26.9784C21.5218 26.9784 21.2788 27.2164 21.2788 27.4623V30.5877C20.4085 30.905 20.0949 31.8648 20.4085 32.666L19.3814 33.7051C19.0678 34.0224 19.303 34.5857 19.695 34.5857C19.8518 34.5857 19.9302 34.5063 20.0086 34.427L21.0357 33.3878C21.5924 33.6258 22.3059 33.5465 22.6979 33.0705C23.2545 32.5073 23.2545 31.5475 22.6979 30.905C22.6352 30.7463 22.4783 30.667 22.2353 30.5877ZM21.7649 32.5073C21.2866 32.5073 21.1298 31.9441 21.4513 31.6268C21.6081 31.4682 21.8433 31.4682 21.7649 31.4682C21.7649 31.4682 21.9217 31.4682 22.0785 31.6268C22.3137 31.7855 22.1569 32.5073 21.7649 32.5073Z" fill="#03328E"/>
<path id="Vector_3" d="M12.3486 9.93146C12.9131 9.93146 13.3757 10.3995 13.3757 10.9706C13.3757 11.5418 12.9131 12.0098 12.3486 12.0098C11.7841 12.0098 11.3215 11.5418 11.3215 10.9706C11.3215 10.3995 11.7763 9.93146 12.3486 9.93146Z" fill="#03328E"/>
<path id="Vector_4" d="M9.41625 9.93146C9.98859 9.93146 10.4433 10.3995 10.4433 10.9706C10.4433 11.5418 9.98075 12.0098 9.41625 12.0098C8.85174 12.0098 8.38916 11.5418 8.38916 10.9706C8.38916 10.3995 8.85174 9.93146 9.41625 9.93146Z" fill="#03328E"/>
<path id="Vector_5" d="M6.41332 9.93146C6.97782 9.93146 7.4404 10.3995 7.4404 10.9706C7.4404 11.5418 6.97782 12.0098 6.41332 12.0098C5.84881 12.0098 5.38623 11.5418 5.38623 10.9706C5.38623 10.3995 5.84097 9.93146 6.41332 9.93146Z" fill="#03328E"/>
<path id="Vector_6" d="M7.91082 5.92559C9.01631 5.92559 9.88659 5.04508 9.88659 3.9266C9.88659 2.80812 9.01631 1.92761 7.91082 1.92761C6.80534 1.92761 5.93506 2.80019 5.93506 3.9266C5.93506 5.05301 6.80534 5.92559 7.91082 5.92559ZM7.91082 2.95884C8.46749 2.95884 8.93791 3.44272 8.93791 3.99799C8.93791 4.5612 8.45965 5.03715 7.91082 5.03715C7.362 5.03715 6.88374 4.5612 6.88374 4.00592C6.88374 3.36339 7.362 2.95884 7.91082 2.95884Z" fill="#03328E"/>
<path id="Vector_7" d="M35.3755 5.44169C36.8809 5.44169 38.0648 4.24388 38.0648 2.72084C38.0648 1.19781 36.8809 0 35.3755 0C33.8702 0 32.6863 1.19781 32.6863 2.72084C32.6 4.24388 33.8702 5.44169 35.3755 5.44169ZM35.3755 0.959831C36.3242 0.959831 37.1161 1.76101 37.1161 2.72084C37.1161 3.68068 36.3242 4.48186 35.3755 4.48186C34.4268 4.48186 33.635 3.68068 33.635 2.72084C33.635 1.76101 34.4268 0.959831 35.3755 0.959831Z" fill="#03328E"/>
<path id="Vector_8" d="M0.713471 6.96472C1.10549 6.96472 1.42694 7.28995 1.42694 7.68658C1.42694 8.0832 1.10549 8.40844 0.713471 8.40844C0.321454 8.40844 0 8.0832 0 7.68658C0 7.28995 0.321454 6.96472 0.713471 6.96472Z" fill="#03328E"/>
<path id="Vector_9" d="M14.5594 1.99896C14.9514 1.99896 15.2729 2.32419 15.2729 2.72082C15.2729 3.11744 14.9514 3.44268 14.5594 3.44268C14.1674 3.44268 13.8459 3.11744 13.8459 2.72082C13.8459 2.32419 14.1674 1.99896 14.5594 1.99896Z" fill="#03328E"/>
<path id="Vector_10" d="M28.4134 2.9588C28.8054 2.9588 29.1269 3.28403 29.1269 3.68066C29.1269 4.07728 28.8054 4.40251 28.4134 4.40251C28.0214 4.40251 27.7 4.07728 27.7 3.68066C27.7 3.28403 28.0136 2.9588 28.4134 2.9588Z" fill="#03328E"/>
<path id="Vector_11" d="M19.546 4.96576C19.938 4.96576 20.2595 5.29099 20.2595 5.68762C20.2595 6.08424 19.938 6.40947 19.546 6.40947C19.154 6.40947 18.8325 6.08424 18.8325 5.68762C18.8325 5.28306 19.154 4.96576 19.546 4.96576Z" fill="#03328E"/>
<path id="Vector_12" d="M43.2865 9.44757C43.6785 9.44757 43.9999 9.7728 43.9999 10.1694C43.9999 10.5661 43.6785 10.8913 43.2865 10.8913C42.8945 10.8913 42.573 10.5661 42.573 10.1694C42.573 9.7728 42.8945 9.44757 43.2865 9.44757Z" fill="#03328E"/>
<path id="Vector_13" d="M38.3785 7.44861H5.14333C3.40277 7.44861 1.97583 8.89232 1.97583 10.6533V43.8032C1.97583 45.5642 3.40277 47.0079 5.14333 47.0079H38.3785C40.1191 47.0079 41.546 45.5642 41.546 43.8032V10.6454C41.546 8.88439 40.1191 7.44861 38.3785 7.44861ZM18.7542 11.4466H40.519V13.4456H18.7542V11.4466ZM40.519 10.4868H18.7542V8.48776H38.3785C39.4919 8.48776 40.4405 9.36827 40.519 10.4868ZM5.14333 8.48776H17.8055V13.5328H2.92451V10.6533C2.92451 9.4476 3.95944 8.48776 5.14333 8.48776ZM38.3785 45.9608H5.14333C3.95944 45.9608 2.92451 45.001 2.92451 43.716V14.4927H40.5111V43.7953C40.5189 45.001 39.5703 45.9608 38.3785 45.9608Z" fill="#03328E"/>
<path id="Vector_14" d="M37.1161 17.4515H6.41332C6.17811 17.4515 5.93506 17.6895 5.93506 17.9354V42.4388C5.93506 42.6768 6.17027 42.9227 6.41332 42.9227H37.1161C37.3513 42.9227 37.5944 42.6847 37.5944 42.4388V17.9354C37.5865 17.6974 37.3513 17.4515 37.1161 17.4515ZM26.2729 41.9549C29.9892 40.1939 32.6001 36.3467 32.6001 31.9441C32.6001 25.8599 27.692 20.8942 21.6785 20.8942C15.6649 20.8942 10.8431 25.8599 10.8431 31.9441C10.8431 36.3467 13.4539 40.1939 17.1703 41.9549H6.88374V21.4574H11.3135C11.5487 21.4574 11.7918 21.2194 11.7918 20.9735C11.7918 20.7276 11.5566 20.4896 11.3135 20.4896H6.88374V18.4906H36.5594V20.4896H32.1296C31.8944 20.4896 31.6514 20.7276 31.6514 20.9735C31.6514 21.2194 31.8866 21.4574 32.1296 21.4574H36.5594V41.9549H26.2729ZM21.7647 41.9549C16.3078 41.9549 11.8702 37.4731 11.8702 31.9441C11.8702 26.4231 16.3 21.9333 21.7647 21.9333C27.2216 21.9333 31.6592 26.4152 31.6592 31.9441C31.6514 37.4731 27.2216 41.9549 21.7647 41.9549Z" fill="#03328E"/>
</g>
</g>
</g>
<defs>
<clipPath id="clip0_328_22679">
<rect width="44" height="47" fill="white"/>
</clipPath>
</defs>
</svg>
