<svg width="44" height="40" viewBox="0 0 44 40" fill="none" xmlns="http://www.w3.org/2000/svg">
<g id="Frame" opacity="0.3" clip-path="url(#clip0_328_22698)">
<g id="_x39_63_x2C__Backup_x2C__Database_x2C__Hosting_x2C__Server_1_">
<g id="Group">
<path id="Vector" d="M41.3163 9.10474C41.6954 9.10474 42.0062 9.41556 42.0062 9.79461C42.0062 10.1737 41.6954 10.4845 41.3163 10.4845C40.9373 10.4845 40.6265 10.1737 40.6265 9.79461C40.634 9.41556 40.9373 9.10474 41.3163 9.10474Z" fill="#03328E"/>
<path id="Vector_2" d="M40.8615 30.5286C41.2405 30.5286 41.5514 30.8394 41.5514 31.2185C41.5514 31.5975 41.2405 31.9084 40.8615 31.9084C40.4825 31.9084 40.1716 31.5975 40.1716 31.2185C40.1716 30.8394 40.4825 30.5286 40.8615 30.5286Z" fill="#03328E"/>
<path id="Vector_3" d="M0.689869 3.36597C1.06892 3.36597 1.37974 3.67679 1.37974 4.05584C1.37974 4.43488 1.06892 4.74571 0.689869 4.74571C0.31082 4.74571 0 4.43488 0 4.05584C0 3.67679 0.31082 3.36597 0.689869 3.36597Z" fill="#03328E"/>
<path id="Vector_4" d="M2.14544 20.0517C2.52644 20.0517 2.8353 19.7428 2.8353 19.3618C2.8353 18.9808 2.52644 18.6719 2.14544 18.6719C1.76443 18.6719 1.45557 18.9808 1.45557 19.3618C1.45557 19.7428 1.76443 20.0517 2.14544 20.0517Z" fill="#03328E"/>
<path id="Vector_5" d="M7.8842 33.9703C8.26325 33.9703 8.57407 34.2812 8.57407 34.6602C8.57407 35.0393 8.26325 35.3501 7.8842 35.3501C7.50516 35.3501 7.19434 35.0393 7.19434 34.6602C7.19434 34.2812 7.49757 33.9703 7.8842 33.9703Z" fill="#03328E"/>
<path id="Vector_6" d="M37.9504 38.6402C38.3314 38.6402 38.6402 38.3314 38.6402 37.9504C38.6402 37.5694 38.3314 37.2605 37.9504 37.2605C37.5694 37.2605 37.2605 37.5694 37.2605 37.9504C37.2605 38.3314 37.5694 38.6402 37.9504 38.6402Z" fill="#03328E"/>
<path id="Vector_7" d="M13.8505 2.37286C14.3964 2.37286 14.8436 2.82014 14.8436 3.36597C14.8436 3.9118 14.3964 4.35908 13.8505 4.35908C13.2971 4.35908 12.8574 3.9118 12.8574 3.36597C12.8574 2.82014 13.2971 2.37286 13.8505 2.37286Z" fill="#03328E"/>
<path id="Vector_8" d="M10.9394 2.37286C11.4852 2.37286 11.9325 2.82014 11.9325 3.36597C11.9325 3.9118 11.4852 4.35908 10.9394 4.35908C10.3936 4.35908 9.94629 3.9118 9.94629 3.36597C9.94629 2.82014 10.3936 2.37286 10.9394 2.37286Z" fill="#03328E"/>
<path id="Vector_9" d="M8.11176 2.37286C8.65759 2.37286 9.10487 2.82014 9.10487 3.36597C9.10487 3.9118 8.65759 4.35908 8.11176 4.35908C7.56593 4.35908 7.11865 3.9118 7.11865 3.36597C7.11865 2.82014 7.55835 2.37286 8.11176 2.37286Z" fill="#03328E"/>
<path id="Vector_10" d="M36.1158 0H6.8835C5.20053 0 3.82837 1.37974 3.82837 3.06272V29.4597C3.82837 31.1427 5.20811 32.5224 6.89108 32.5224H20.5899V33.5155C20.3625 33.5155 20.1275 33.7429 20.1275 33.9779V35.4335H17.2164C16.9889 35.4335 16.7539 35.6609 16.7539 35.8959V36.3584H11.0151C10.2495 36.3584 9.55959 36.9724 9.55959 37.8139C9.55959 38.5796 10.1736 39.2695 11.0151 39.2695C12.0082 39.2695 31.5217 39.2695 32.5148 39.2695C33.2805 39.2695 33.9703 38.6554 33.9703 37.8139C33.9703 37.0482 33.3563 36.3584 32.5148 36.3584H26.776V35.8959C26.776 35.6685 26.5486 35.4335 26.3136 35.4335H23.4025V33.9779C23.4025 33.7505 23.175 33.5155 22.94 33.5155V32.5224H36.1764C37.8594 32.5224 39.2391 31.1427 39.2391 29.4597V3.06272C39.1785 1.37974 37.7987 0 36.1158 0ZM18.5961 3.82839H38.1854V5.7388H18.5961V3.82839ZM38.2612 2.82771H18.5961V0.917298H36.1158C37.1847 0.917298 38.1096 1.75879 38.2612 2.82771ZM6.8835 0.917298H17.6712V5.7388H4.74567V3.06272C4.74567 1.91041 5.66297 0.917298 6.8835 0.917298ZM10.4845 37.7988C10.4845 37.5713 10.7119 37.3363 10.9469 37.3363H16.6781V38.3294H10.9393C10.7119 38.2612 10.4845 38.0262 10.4845 37.7988ZM32.5224 37.2681C32.7498 37.2681 32.9848 37.4955 32.9848 37.7305C32.9848 37.958 32.7574 38.193 32.5224 38.193H26.7836V37.1999H32.5224V37.2681ZM25.7829 36.3432C25.7829 36.8815 25.7829 37.6471 25.7829 38.2536H17.6712C17.6712 37.6396 17.6712 36.8739 17.6712 36.3432H20.5823C20.8098 36.3432 21.0448 36.1158 21.0448 35.8808V34.4252H22.5003V35.8808C22.5003 36.1082 22.7278 36.3432 22.9628 36.3432H25.7829ZM21.9621 33.4397H21.4996V32.4466H21.9621V33.4397ZM36.1158 31.5217C35.4259 31.5217 7.64918 31.5217 6.80769 31.5217C5.66297 31.5217 4.66228 30.6044 4.66228 29.3763V6.6561H38.1778V29.4597C38.2612 30.6044 37.2681 31.5217 36.1158 31.5217Z" fill="#03328E"/>
<path id="Vector_11" d="M34.8952 9.5672H8.11161C7.88418 9.5672 7.64917 9.79463 7.64917 10.0296V28.2392C7.64917 28.4666 7.8766 28.7016 8.11161 28.7016H34.8952C35.1226 28.7016 35.3576 28.4742 35.3576 28.2392V10.0221C35.3501 9.79463 35.1226 9.5672 34.8952 9.5672ZM8.56647 27.7009V14.3053H12.8497C13.0772 14.3053 13.3122 14.0779 13.3122 13.8429C13.3122 13.6154 13.0847 13.3804 12.8497 13.3804H8.56647V12.3873H12.8497C13.0772 12.3873 13.3122 12.1599 13.3122 11.9249C13.3122 11.6899 13.0847 11.4624 12.8497 11.4624H8.56647V10.4693H34.4328V11.4624H30.1495C29.9221 11.4624 29.6871 11.6899 29.6871 11.9249C29.6871 12.1599 29.9145 12.3873 30.1495 12.3873H34.4328V13.3804H30.1495C29.9221 13.3804 29.6871 13.6079 29.6871 13.8429C29.6871 14.0703 29.9145 14.3053 30.1495 14.3053H34.4328V27.6933H8.56647V27.7009Z" fill="#03328E"/>
<path id="Vector_12" d="M28.9215 16.2991L21.7271 12.0158C21.5755 11.94 21.4239 11.94 21.2647 12.0158L14.0703 16.2991C13.9187 16.3749 13.7671 16.6023 13.8429 16.8373C13.9187 17.0648 14.0703 17.2164 14.3054 17.2164H15.2985V25.8663C15.2985 26.0937 15.5259 26.3287 15.7609 26.3287C16.989 26.3287 26.018 26.3287 27.2385 26.3287C27.4659 26.3287 27.7009 26.1013 27.7009 25.8663V17.2164C29.0049 17.2164 28.5424 17.2164 28.6941 17.2164C28.9215 17.2164 29.1565 16.989 29.1565 16.754C29.1565 16.5189 29.0807 16.3749 28.9215 16.2991ZM21.4997 13.0089L26.9353 16.2991H16.0717L21.4997 13.0089ZM16.2233 24.4107H19.1269V25.4038H16.2233V24.4107ZM20.0442 25.328V21.0448H22.9553V25.328H20.0442ZM23.8726 25.328V24.3349H26.7836V25.328H23.8726ZM26.7836 23.4176H23.8726V20.5065C23.8726 20.2791 23.6451 20.0441 23.4101 20.0441H19.5817C19.3543 20.0441 19.1193 20.2715 19.1193 20.5065V23.4176H16.2233V17.2164H26.7836V23.4176Z" fill="#03328E"/>
<path id="Vector_13" d="M42.082 1.45557C41.0131 1.45557 40.1716 2.29706 40.1716 3.36597C40.1716 4.43489 41.0131 5.27638 42.082 5.27638C43.151 5.27638 43.9924 4.43489 43.9924 3.36597C43.9924 2.29706 43.0827 1.45557 42.082 1.45557ZM42.082 4.28327C41.5438 4.28327 41.0889 3.82083 41.0889 3.29016C41.0889 2.75191 41.5514 2.29706 42.082 2.29706C42.6203 2.29706 43.0751 2.75949 43.0751 3.29016C43.0069 3.82841 42.6203 4.28327 42.082 4.28327Z" fill="#03328E"/>
<path id="Vector_14" d="M3.06268 33.9703C1.60713 33.9703 0.462402 35.1151 0.462402 36.5706C0.462402 38.0262 1.60713 39.1709 3.06268 39.1709C4.51823 39.1709 5.66295 38.0262 5.66295 36.5706C5.73876 35.1226 4.51823 33.9703 3.06268 33.9703ZM3.06268 38.2612C2.14538 38.2612 1.3797 37.4955 1.3797 36.5782C1.3797 35.6609 2.14538 34.8952 3.06268 34.8952C3.97998 34.8952 4.74566 35.6609 4.74566 36.5782C4.74566 37.4955 3.97998 38.2612 3.06268 38.2612Z" fill="#03328E"/>
</g>
</g>
</g>
<defs>
<clipPath id="clip0_328_22698">
<rect width="44" height="39.2543" fill="white"/>
</clipPath>
</defs>
</svg>
