<svg width="44" height="39" viewBox="0 0 44 39" fill="none" xmlns="http://www.w3.org/2000/svg">
<g id="Frame" opacity="0.3" clip-path="url(#clip0_328_22717)">
<g id="_x39_53_x2C__Database_x2C__Folders_x2C__Network_1_">
<g id="Group">
<path id="Vector" d="M20.8559 8.59857C19.8116 8.59857 18.9895 9.42066 18.9895 10.4649C18.9895 11.5092 19.8116 12.3313 20.8559 12.3313C21.9001 12.3313 22.7222 11.5092 22.7222 10.4649C22.7222 9.42066 21.9001 8.59857 20.8559 8.59857ZM20.8559 11.4351C20.33 11.4351 19.8856 10.9834 19.8856 10.4649C19.8856 9.93909 20.3374 9.49472 20.8559 9.49472C21.3817 9.49472 21.8261 9.94649 21.8261 10.4649C21.8261 11.0648 21.3817 11.4351 20.8559 11.4351Z" fill="#03328E"/>
<path id="Vector_2" d="M24.744 10.539C24.744 8.36899 23.0258 6.65076 20.8558 6.65076C18.6858 6.65076 16.9675 8.36899 16.9675 10.539C16.9675 12.709 18.6858 14.4272 20.8558 14.4272C23.0258 14.4272 24.744 12.6349 24.744 10.539ZM20.8558 13.457C19.2116 13.457 17.8637 12.1091 17.8637 10.4649C17.8637 8.82076 19.2116 7.47284 20.8558 7.47284C22.4999 7.47284 23.8479 8.82076 23.8479 10.4649C23.7738 12.1091 22.4999 13.457 20.8558 13.457Z" fill="#03328E"/>
<path id="Vector_3" d="M21.974 18.0932L22.4258 16.2269C22.8776 16.0787 23.3219 15.9306 23.7737 15.701L25.4179 16.7453C25.566 16.8934 25.8696 16.8194 26.0178 16.6712L27.062 15.627C27.2102 15.4788 27.2102 15.2567 27.1361 15.0271L26.0918 13.3829C26.314 12.9311 26.5436 12.4868 26.6177 12.035L28.484 11.5832C28.7062 11.5091 28.8543 11.361 28.8543 11.1314V9.70945C28.8543 9.48726 28.7062 9.33914 28.484 9.25767L26.6177 8.80589C26.4695 8.35412 26.3214 7.90975 26.0918 7.45797L27.1361 5.81381C27.2842 5.66568 27.2102 5.36203 27.062 5.21391L26.0178 4.16964C25.8696 4.02152 25.6475 4.02152 25.4179 4.09558L23.7737 5.15466C23.3219 4.93247 22.8776 4.70288 22.4258 4.62882L21.974 2.91059C21.8999 2.68841 21.7518 2.54028 21.5222 2.54028H20.1002C19.8781 2.54028 19.7299 2.68841 19.6485 2.91059L19.1967 4.77694C18.7449 4.92507 18.3005 5.07319 17.8488 5.30278L16.2194 4.25851C16.0713 4.11039 15.7676 4.18445 15.6195 4.33257L14.5752 5.37684C14.4271 5.52497 14.4271 5.74715 14.5012 5.97674L15.5455 7.62091C15.3233 8.07268 15.0937 8.51705 15.0196 8.96883L13.1533 9.42061C12.9311 9.49467 12.783 9.64279 12.783 9.87238V11.2944C12.783 11.5165 12.9311 11.6647 13.1533 11.7461L15.0196 12.1979C15.1677 12.6497 15.3159 13.0941 15.5455 13.5458L14.5012 15.19C14.3531 15.3381 14.4271 15.6418 14.5752 15.7899L15.6195 16.8342C15.7676 16.9823 15.9898 16.9823 16.2194 16.9082L17.8636 15.864C18.3154 16.0862 18.7597 16.3157 19.2115 16.3898L19.6633 18.2562C19.7373 18.4783 19.8855 18.6265 20.1151 18.6265H21.537C21.7518 18.4635 21.974 18.3154 21.974 18.0932ZM20.4854 17.4933L20.1151 15.701C20.041 15.5529 19.9669 15.4048 19.7447 15.3307C19.2189 15.1826 18.6264 14.9604 18.1746 14.6568C18.0265 14.5827 17.8043 14.5827 17.6488 14.6568L16.0713 15.627L15.6195 15.1752L16.5897 13.6051C16.6638 13.457 16.6638 13.2348 16.5897 13.0792C16.2935 12.5534 16.0639 12.035 15.9158 11.5091C15.8417 11.361 15.7676 11.2129 15.5455 11.1388L13.7532 10.7685V10.0946L15.5455 9.72426C15.6936 9.6502 15.8417 9.57614 15.9158 9.35395C16.0639 8.82811 16.2861 8.23562 16.5897 7.78384C16.6638 7.63572 16.6638 7.41354 16.5897 7.25801L15.6269 5.6805L16.0787 5.22872L17.6488 6.19893C17.7969 6.27299 18.0191 6.27299 18.1746 6.19893C18.6264 5.90268 19.2189 5.67309 19.7447 5.52497C19.8929 5.4509 20.041 5.37684 20.1151 5.15466L20.4854 3.36237H21.1593L21.5296 5.15466C21.6037 5.30278 21.6778 5.4509 21.8999 5.52497C22.4998 5.67309 23.0183 5.89527 23.47 6.19893C23.6182 6.27299 23.8404 6.27299 23.9959 6.19893L25.566 5.22872L26.0178 5.6805L25.0476 7.2506C24.9735 7.39872 24.9735 7.62091 25.0476 7.77644C25.3438 8.30228 25.5734 8.82071 25.7215 9.34654C25.7956 9.49467 25.8696 9.64279 26.0918 9.71685L27.8841 10.0872V10.7611L26.0918 11.1314C25.9437 11.2055 25.7956 11.2796 25.7215 11.5017C25.5734 12.0276 25.3512 12.6201 25.0476 13.0718C24.9735 13.22 24.9735 13.4422 25.0476 13.5977L26.0178 15.1678L25.566 15.6196L23.9959 14.6494C23.8478 14.5753 23.6256 14.5753 23.47 14.6494C22.9442 14.9456 22.4258 15.1752 21.8999 15.3233C21.7518 15.3974 21.6037 15.4714 21.5296 15.6936L21.1593 17.4859H20.4854V17.4933Z" fill="#03328E"/>
<path id="Vector_4" d="M28.6323 30.4986H26.84V29.0025C26.84 28.7804 26.6178 28.5508 26.3882 28.5508H21.4557L19.5894 27.2028C19.5153 27.1288 19.4413 27.1288 19.2931 27.1288H15.4049C15.1827 27.1288 14.9531 27.351 14.9531 27.5806C14.9531 38.4972 14.9531 37.8973 14.9531 37.9714C14.9531 38.0455 14.9531 38.0455 15.0272 38.1195C15.1012 38.2676 15.2494 38.3417 15.3975 38.3417H26.3882C26.6104 38.3417 26.7585 38.1936 26.84 38.0455L29.0841 31.1651C29.1581 31.017 29.0841 30.8689 29.01 30.7134C28.9285 30.5726 28.7804 30.4986 28.6323 30.4986ZM19.1376 28.0323L21.004 29.3803C21.078 29.4543 21.1521 29.4543 21.3002 29.4543H25.9365V30.4986H17.7156C17.4934 30.4986 17.3453 30.6467 17.2638 30.7948L15.9159 34.9053V27.9509L19.1376 28.0323ZM26.0179 37.3789H15.9974L17.9378 31.4021C19.9597 31.4021 25.7143 31.4021 27.9509 31.4021L27.4992 32.676H19.7227C19.5005 32.676 19.2709 32.8982 19.2709 33.1278C19.2709 33.35 19.4931 33.5795 19.7227 33.5795H27.1955L26.0179 37.3789Z" fill="#03328E"/>
<path id="Vector_5" d="M43.5853 30.4986H41.793V29.0025C41.793 28.7803 41.5708 28.5507 41.3412 28.5507H36.9271V23.3961C36.9271 23.1739 36.7049 22.9443 36.4753 22.9443H21.3075V20.6262C26.6177 20.404 30.8763 15.9899 30.8763 10.6056C30.8763 5.07322 26.3882 0.585083 20.8632 0.585083C15.3382 0.585083 10.7612 4.9325 10.7612 10.539C10.7612 15.9232 15.0197 20.3299 20.3299 20.5595V22.8776H6.28042C6.05824 22.8776 5.82865 23.0998 5.82865 23.3294V28.0397L4.63626 27.1436C4.5622 27.0695 4.48813 27.0695 4.34001 27.0695H0.451776C0.229591 27.0695 0 27.2917 0 27.5213C0 38.5861 0 37.8381 0 37.9121C0.0740616 38.0603 0.148123 38.2084 0.370308 38.2824C0.44437 38.2824 2.1626 38.2824 11.4351 38.2824C11.6573 38.2824 11.8054 38.1343 11.8869 37.9862L14.131 31.1059C14.205 30.8096 13.9828 30.506 13.6792 30.506H11.8869V29.0099C11.8869 28.7877 11.6647 28.5582 11.4351 28.5582H6.80626V23.9219H20.4114V26.24C20.4114 26.4622 20.6336 26.6918 20.8632 26.6918C21.0853 26.6918 21.3149 26.4696 21.3149 26.24V23.9219H35.8903V28.336L34.4683 27.2917C34.3942 27.2176 34.3201 27.2176 34.172 27.2176H30.2838C30.0616 27.2176 29.832 27.4398 29.832 27.6694C29.832 38.5861 29.832 37.9862 29.832 38.1343C29.832 38.2084 29.9061 38.2824 29.9801 38.3565C30.0542 38.4306 30.1283 38.4306 30.2023 38.4306C30.2764 38.4306 38.275 38.4306 41.2671 38.4306C41.4893 38.4306 41.6374 38.2824 41.7189 38.1343L43.963 31.254C44.1037 30.7948 43.8815 30.4986 43.5853 30.4986ZM11.7388 10.539C11.7388 5.5324 15.8492 1.42198 20.8557 1.42198C25.8623 1.42198 29.9727 5.45834 29.9727 10.539C29.9727 15.6196 25.8623 19.6559 20.8557 19.6559C15.8492 19.5819 11.7388 15.5455 11.7388 10.539ZM12.5608 32.6686H4.78438C4.5622 32.6686 4.3326 32.8908 4.3326 33.1203C4.3326 33.3425 4.55479 33.5721 4.78438 33.5721H12.2572L10.9833 37.3122H1.04427L2.98468 31.3355C5.00657 31.3355 10.7612 31.3355 13.0052 31.3355L12.5608 32.6686ZM10.9167 30.4986H2.68844C2.46625 30.4986 2.31813 30.6467 2.23666 30.7948L0.888739 34.9052V27.9508H4.17707C6.04343 29.2988 5.96937 29.2988 6.11749 29.2988C6.19155 29.2988 6.26561 29.3728 6.33967 29.3728H10.9759V30.4912H10.9167V30.4986ZM30.8022 28.0323H34.0906L35.9569 29.3802C36.031 29.4543 36.105 29.4543 36.2532 29.4543H40.8894V30.4986H32.6686C32.4464 30.4986 32.2983 30.6467 32.2168 30.7948L30.8689 34.9052L30.8022 28.0323ZM40.9635 37.3789H30.9503L32.8908 31.4021C34.9126 31.4021 40.6672 31.4021 42.9039 31.4021L42.4521 32.676H34.6756C34.4535 32.676 34.2239 32.8982 34.2239 33.1278C34.2239 33.3499 34.4461 33.5795 34.6756 33.5795H42.1485L40.9635 37.3789Z" fill="#03328E"/>
<path id="Vector_6" d="M4.33255 18.6857C5.75453 18.6857 6.87286 17.5674 6.87286 16.1454C6.87286 14.7234 5.75453 13.6051 4.33255 13.6051C2.91057 13.6051 1.79224 14.7234 1.79224 16.1454C1.79224 17.5674 2.99203 18.6857 4.33255 18.6857ZM4.33255 14.5012C5.22869 14.5012 5.97672 15.2493 5.97672 16.1454C5.97672 17.0416 5.22869 17.7896 4.33255 17.7896C3.4364 17.7896 2.68838 17.0416 2.68838 16.1454C2.76244 15.1752 3.4364 14.5012 4.33255 14.5012Z" fill="#03328E"/>
<path id="Vector_7" d="M37.9715 10.7612C39.9119 10.7612 41.482 9.19105 41.482 7.25063C41.482 5.31022 39.9119 3.74011 37.9715 3.74011C36.031 3.74011 34.4609 5.31022 34.4609 7.25063C34.4609 9.19105 36.1051 10.7612 37.9715 10.7612ZM37.9715 4.63626C39.3934 4.63626 40.5118 5.75459 40.5118 7.17657C40.5118 8.59855 39.3934 9.71688 37.9715 9.71688C36.5495 9.71688 35.4311 8.67262 35.4311 7.25063C35.4311 5.82865 36.6309 4.63626 37.9715 4.63626Z" fill="#03328E"/>
<path id="Vector_8" d="M1.1183 6.57666C1.4886 6.57666 1.79226 6.88031 1.79226 7.25062C1.79226 7.62093 1.4886 7.92458 1.1183 7.92458C0.747988 7.92458 0.444336 7.62093 0.444336 7.25062C0.451742 6.88031 0.747988 6.57666 1.1183 6.57666Z" fill="#03328E"/>
<path id="Vector_9" d="M7.62831 1.422C7.99861 1.422 8.30227 1.72565 8.30227 2.09596C8.30227 2.46627 7.99861 2.76992 7.62831 2.76992C7.258 2.76992 6.95435 2.46627 6.95435 2.09596C6.95435 1.71824 7.25059 1.422 7.62831 1.422Z" fill="#03328E"/>
<path id="Vector_10" d="M30.4987 0C30.869 0 31.1726 0.303653 31.1726 0.673961C31.1726 1.04427 30.869 1.34792 30.4987 1.34792C30.1284 1.34792 29.8247 1.04427 29.8247 0.673961C29.8247 0.303653 30.1284 0 30.4987 0Z" fill="#03328E"/>
<path id="Vector_11" d="M40.8153 13.0793C41.1856 13.0793 41.4893 13.3829 41.4893 13.7532C41.4893 14.1236 41.1856 14.4272 40.8153 14.4272C40.445 14.4272 40.1414 14.1236 40.1414 13.7532C40.1414 13.3829 40.445 13.0793 40.8153 13.0793Z" fill="#03328E"/>
<path id="Vector_12" d="M33.787 17.3452C34.1573 17.3452 34.461 17.6489 34.461 18.0192C34.461 18.3895 34.1573 18.6931 33.787 18.6931C33.4167 18.6931 33.113 18.3895 33.113 18.0192C33.113 17.6415 33.4167 17.3452 33.787 17.3452Z" fill="#03328E"/>
<path id="Vector_13" d="M40.3637 22.9517C40.734 22.9517 41.0376 23.2553 41.0376 23.6256C41.0376 23.9959 40.734 24.2996 40.3637 24.2996C39.9933 24.2996 39.6897 23.9959 39.6897 23.6256C39.6971 23.2479 39.9933 22.9517 40.3637 22.9517Z" fill="#03328E"/>
<path id="Vector_14" d="M2.99208 22.4258C3.36238 22.4258 3.66604 22.7295 3.66604 23.0998C3.66604 23.4701 3.36238 23.7738 2.99208 23.7738C2.62177 23.7738 2.31812 23.4701 2.31812 23.0998C2.31812 22.7295 2.62177 22.4258 2.99208 22.4258Z" fill="#03328E"/>
</g>
</g>
</g>
<defs>
<clipPath id="clip0_328_22717">
<rect width="44" height="38.4232" fill="white"/>
</clipPath>
</defs>
</svg>
