<svg width="131" height="42" viewBox="0 0 131 42" fill="none" xmlns="http://www.w3.org/2000/svg">
<g id="Group 99">
<rect id="Rectangle 34" width="131" height="41.9407" rx="10" fill="white"/>
<g id="Group 98">
<path id="Vector" d="M38.4665 16.6416H49.8957V18.7924H45.4018V30.8832H42.9306V18.7924H38.4565V16.6416H38.4665ZM49.4075 20.5713H51.52V22.5613H51.5598C51.6296 22.2799 51.7591 22.0086 51.9484 21.7473C52.1378 21.4859 52.3669 21.2347 52.636 21.0236C52.905 20.8025 53.204 20.6316 53.5328 20.4909C53.8616 20.3603 54.2004 20.2899 54.5392 20.2899C54.7983 20.2899 54.9876 20.3 55.0872 20.31C55.1869 20.3201 55.2865 20.3402 55.3961 20.3502V22.5412C55.2367 22.5111 55.0773 22.491 54.9079 22.4709C54.7385 22.4508 54.579 22.4407 54.4196 22.4407C54.041 22.4407 53.6822 22.5211 53.3435 22.6719C53.0047 22.8227 52.7157 23.0538 52.4666 23.3453C52.2175 23.6468 52.0182 24.0086 51.8687 24.4508C51.7192 24.8931 51.6495 25.3956 51.6495 25.9685V30.8731H49.3975V20.5713H49.4075ZM65.7492 30.8832H63.5371V29.4459H63.4972C63.2182 29.9686 62.8097 30.3806 62.2617 30.6922C61.7136 31.0038 61.1556 31.1646 60.5876 31.1646C59.2424 31.1646 58.2659 30.8329 57.668 30.1595C57.0702 29.4861 56.7712 28.471 56.7712 27.1142V20.5713H59.0232V26.8931C59.0232 27.7977 59.1926 28.4409 59.5414 28.8127C59.8801 29.1846 60.3684 29.3756 60.9862 29.3756C61.4645 29.3756 61.8531 29.3052 62.172 29.1545C62.4908 29.0037 62.7499 28.8127 62.9392 28.5615C63.1385 28.3203 63.278 28.0188 63.3677 27.677C63.4574 27.3353 63.4972 26.9635 63.4972 26.5614V20.5814H65.7492V30.8832ZM69.5855 27.5765C69.6553 28.2399 69.9044 28.7022 70.3329 28.9736C70.7713 29.2349 71.2895 29.3756 71.8973 29.3756C72.1065 29.3756 72.3457 29.3555 72.6147 29.3253C72.8838 29.2952 73.1428 29.2248 73.372 29.1344C73.6112 29.0439 73.8005 28.9032 73.9599 28.7223C74.1094 28.5414 74.1791 28.3102 74.1692 28.0188C74.1592 27.7273 74.0496 27.4861 73.8503 27.3052C73.651 27.1142 73.4019 26.9735 73.093 26.8529C72.7841 26.7423 72.4354 26.6418 72.0368 26.5614C71.6382 26.481 71.2396 26.3906 70.8311 26.3001C70.4126 26.2097 70.004 26.0891 69.6154 25.9584C69.2268 25.8278 68.8781 25.6468 68.5692 25.4157C68.2603 25.1946 68.0111 24.9031 67.8318 24.5513C67.6425 24.1996 67.5528 23.7674 67.5528 23.2448C67.5528 22.6819 67.6923 22.2196 67.9613 21.8377C68.2304 21.4558 68.5791 21.1543 68.9877 20.9231C69.4062 20.692 69.8645 20.5311 70.3727 20.4306C70.8809 20.3402 71.3692 20.2899 71.8275 20.2899C72.3557 20.2899 72.8638 20.3502 73.3421 20.4608C73.8204 20.5713 74.2589 20.7523 74.6475 21.0136C75.0361 21.2648 75.355 21.5965 75.614 21.9985C75.8731 22.4005 76.0325 22.893 76.1023 23.4659H73.7507C73.6411 22.9232 73.4019 22.5513 73.0133 22.3704C72.6247 22.1794 72.1763 22.089 71.6781 22.089C71.5186 22.089 71.3293 22.099 71.1101 22.1292C70.8909 22.1593 70.6916 22.2096 70.4923 22.2799C70.303 22.3503 70.1435 22.4608 70.004 22.6015C69.8745 22.7423 69.8048 22.9232 69.8048 23.1543C69.8048 23.4357 69.9044 23.6568 70.0937 23.8277C70.283 23.9986 70.5322 24.1393 70.8411 24.2599C71.15 24.3704 71.4987 24.4709 71.8973 24.5513C72.2959 24.6317 72.7044 24.7222 73.1229 24.8127C73.5315 24.9031 73.93 25.0237 74.3286 25.1544C74.7272 25.285 75.076 25.4659 75.3849 25.6971C75.6938 25.9283 75.9429 26.2097 76.1322 26.5514C76.3215 26.8931 76.4212 27.3253 76.4212 27.8278C76.4212 28.4409 76.2817 28.9535 76.0027 29.3856C75.7236 29.8077 75.3649 30.1595 74.9265 30.4208C74.488 30.6821 73.9898 30.8832 73.4517 31.0038C72.9137 31.1244 72.3756 31.1847 71.8475 31.1847C71.1998 31.1847 70.6019 31.1143 70.0539 30.9636C69.5058 30.8128 69.0275 30.5917 68.6289 30.3002C68.2304 29.9987 67.9115 29.6268 67.6823 29.1846C67.4531 28.7424 67.3336 28.2097 67.3136 27.5966H69.5855V27.5765ZM77.019 20.5713H78.7229V17.4758H80.9749V20.5713H83.0077V22.2699H80.9749V27.7775C80.9749 28.0188 80.9849 28.2198 81.0048 28.4007C81.0247 28.5715 81.0746 28.7223 81.1443 28.8429C81.2141 28.9635 81.3237 29.054 81.4731 29.1143C81.6226 29.1746 81.8119 29.2047 82.071 29.2047C82.2304 29.2047 82.3899 29.2047 82.5493 29.1947C82.7087 29.1846 82.8682 29.1645 83.0276 29.1243V30.8832C82.7785 30.9133 82.5294 30.9334 82.3002 30.9636C82.061 30.9937 81.8219 31.0038 81.5728 31.0038C80.9749 31.0038 80.4966 30.9435 80.1379 30.8329C79.7792 30.7223 79.4902 30.5515 79.2909 30.3304C79.0817 30.1093 78.9521 29.8379 78.8724 29.5062C78.8027 29.1746 78.7528 28.7926 78.7429 28.3705V22.29H77.039V20.5713H77.019ZM84.602 20.5713H86.7344V21.9684H86.7742C87.0931 21.3653 87.5315 20.9432 88.0995 20.6819C88.6675 20.4206 89.2753 20.2899 89.9429 20.2899C90.7501 20.2899 91.4476 20.4306 92.0454 20.7221C92.6433 21.0035 93.1415 21.3955 93.5401 21.898C93.9387 22.4005 94.2276 22.9835 94.4269 23.6468C94.6262 24.3101 94.7259 25.0237 94.7259 25.7775C94.7259 26.471 94.6362 27.1444 94.4568 27.7876C94.2775 28.4409 94.0084 29.0138 93.6497 29.5163C93.291 30.0188 92.8326 30.4108 92.2746 30.7123C91.7166 31.0138 91.0689 31.1646 90.3116 31.1646C89.9828 31.1646 89.654 31.1344 89.3251 31.0741C88.9963 31.0138 88.6774 30.9133 88.3785 30.7826C88.0796 30.652 87.7906 30.4811 87.5415 30.2701C87.2824 30.059 87.0732 29.8178 86.8938 29.5464H86.854V34.6923H84.602V20.5713ZM92.4739 25.7373C92.4739 25.275 92.4141 24.8227 92.2946 24.3805C92.175 23.9383 91.9956 23.5563 91.7565 23.2146C91.5173 22.8729 91.2184 22.6015 90.8696 22.4005C90.5109 22.1995 90.1024 22.089 89.644 22.089C88.6974 22.089 87.9799 22.4206 87.5016 23.084C87.0233 23.7473 86.7842 24.6317 86.7842 25.7373C86.7842 26.2599 86.844 26.7423 86.9735 27.1846C87.1031 27.6268 87.2824 28.0087 87.5415 28.3303C87.7906 28.6519 88.0895 28.9032 88.4383 29.0841C88.7871 29.2751 89.1956 29.3655 89.654 29.3655C90.1721 29.3655 90.6006 29.255 90.9593 29.0439C91.318 28.8329 91.607 28.5514 91.8362 28.2198C92.0654 27.8781 92.2348 27.4961 92.3344 27.064C92.4241 26.6318 92.4739 26.1896 92.4739 25.7373ZM96.4497 16.6416H98.7017V18.7924H96.4497V16.6416ZM96.4497 20.5713H98.7017V30.8832H96.4497V20.5713ZM100.715 16.6416H102.966V30.8832H100.715V16.6416ZM109.872 31.1646C109.055 31.1646 108.327 31.0239 107.69 30.7525C107.052 30.4811 106.514 30.0992 106.065 29.6268C105.627 29.1444 105.288 28.5715 105.059 27.9082C104.83 27.2449 104.71 26.5112 104.71 25.7172C104.71 24.9333 104.83 24.2096 105.059 23.5463C105.288 22.883 105.627 22.3101 106.065 21.8277C106.504 21.3452 107.052 20.9734 107.69 20.702C108.327 20.4306 109.055 20.2899 109.872 20.2899C110.689 20.2899 111.416 20.4306 112.054 20.702C112.692 20.9734 113.23 21.3553 113.678 21.8277C114.117 22.3101 114.456 22.883 114.685 23.5463C114.914 24.2096 115.033 24.9333 115.033 25.7172C115.033 26.5112 114.914 27.2449 114.685 27.9082C114.456 28.5715 114.117 29.1444 113.678 29.6268C113.24 30.1093 112.692 30.4811 112.054 30.7525C111.416 31.0239 110.689 31.1646 109.872 31.1646ZM109.872 29.3655C110.37 29.3655 110.809 29.255 111.177 29.0439C111.546 28.8329 111.845 28.5514 112.084 28.2097C112.323 27.868 112.493 27.476 112.612 27.0439C112.722 26.6117 112.781 26.1695 112.781 25.7172C112.781 25.275 112.722 24.8428 112.612 24.4006C112.502 23.9584 112.323 23.5764 112.084 23.2347C111.845 22.893 111.546 22.6216 111.177 22.4106C110.809 22.1995 110.37 22.089 109.872 22.089C109.374 22.089 108.935 22.1995 108.567 22.4106C108.198 22.6216 107.899 22.9031 107.66 23.2347C107.421 23.5764 107.251 23.9584 107.132 24.4006C107.022 24.8428 106.962 25.275 106.962 25.7172C106.962 26.1695 107.022 26.6117 107.132 27.0439C107.241 27.476 107.421 27.868 107.66 28.2097C107.899 28.5514 108.198 28.8329 108.567 29.0439C108.935 29.265 109.374 29.3655 109.872 29.3655ZM115.691 20.5713H117.395V17.4758H119.647V20.5713H121.68V22.2699H119.647V27.7775C119.647 28.0188 119.657 28.2198 119.677 28.4007C119.697 28.5715 119.747 28.7223 119.816 28.8429C119.886 28.9635 119.996 29.054 120.145 29.1143C120.295 29.1746 120.484 29.2047 120.743 29.2047C120.903 29.2047 121.062 29.2047 121.221 29.1947C121.381 29.1846 121.54 29.1645 121.7 29.1243V30.8832C121.451 30.9133 121.201 30.9334 120.972 30.9636C120.733 30.9937 120.494 31.0038 120.245 31.0038C119.647 31.0038 119.169 30.9435 118.81 30.8329C118.451 30.7223 118.162 30.5515 117.963 30.3304C117.754 30.1093 117.624 29.8379 117.545 29.5062C117.475 29.1746 117.425 28.7926 117.415 28.3705V22.29H115.711V20.5713H115.691Z" fill="#061E64"/>
<path id="Vector_2" d="M35.8358 16.6412H25.5127L22.324 6.73145L19.1254 16.6412L8.80225 16.6312L17.1624 22.762L13.9638 32.6617L22.324 26.541L30.6742 32.6617L27.4856 22.762L35.8358 16.6412Z" fill="#00B67A"/>
<path id="Vector_3" d="M28.2033 25.003L27.4858 22.7617L22.3242 26.5407L28.2033 25.003Z" fill="#005128"/>
</g>
</g>
</svg>
